<svg xmlns="http://www.w3.org/2000/svg" viewBox="0 0 32 32">
    <g transform="translate(2 2)">
        <g transform="translate(-64.63 369.37)" fill="none" stroke-miterlimit="10">
            <path
                d="M80.287-365.369a.674.674,0,0,0-.473.2.671.671,0,0,0-.2.474l.012,10.331-10.331,0a.673.673,0,0,0-.473.2.67.67,0,0,0-.2.473,12.284,12.284,0,0,0,12,12.328,12,12,0,0,0,12-12A12.3,12.3,0,0,0,80.287-365.369Z"
                stroke="none" />
            <path
                d="M 81.62060546875 -363.2827453613281 L 81.63316345214844 -352.369873046875 L 70.71707916259766 -352.3659057617188 C 70.83403778076172 -351.46923828125 71.06963348388672 -350.5902099609375 71.421630859375 -349.7400512695312 C 71.93170928955078 -348.508056640625 72.65972137451172 -347.3962707519531 73.58543395996094 -346.4354858398438 C 75.49069976806641 -344.4580688476562 77.99251556396484 -343.3690490722656 80.6300048828125 -343.3690490722656 C 83.30183410644531 -343.3690490722656 85.81329345703125 -344.4092712402344 87.70175170898438 -346.2980651855469 C 89.59006500244141 -348.1867065429688 90.62998962402344 -350.6981201171875 90.62998962402344 -353.36962890625 C 90.62998962402344 -356.0064697265625 89.53903198242188 -358.5081481933594 87.55808258056641 -360.4138488769531 C 86.59563446044922 -361.3397521972656 85.48202514648438 -362.0679321289062 84.24819946289062 -362.5782165527344 C 83.39729309082031 -362.9301147460938 82.51763153076172 -363.1657104492188 81.62060546875 -363.2827453613281 M 80.287109375 -365.369140625 C 86.91672515869141 -365.369140625 92.62998962402344 -359.9983825683594 92.62998962402344 -353.36962890625 C 92.62998962402344 -346.7420043945312 87.25960540771484 -341.3690490722656 80.6300048828125 -341.3690490722656 C 74.002685546875 -341.3690490722656 68.630859375 -347.0696411132812 68.630859375 -353.697265625 C 68.630859375 -353.8732604980469 68.7021484375 -354.045654296875 68.8275146484375 -354.1699829101562 C 68.95169067382812 -354.2941284179688 69.12419891357422 -354.3653869628906 69.30014038085938 -354.3653869628906 L 79.630859375 -354.369140625 L 79.61897277832031 -364.6997985839844 C 79.61897277832031 -364.876953125 79.68910980224609 -365.0482177734375 79.81446838378906 -365.1736755371094 C 79.93867492675781 -365.2978210449219 80.11116027832031 -365.369140625 80.287109375 -365.369140625 Z"
                stroke="none" fill="#000" />
        </g>
        <g transform="translate(-65.5 368.5)" fill="none" stroke-miterlimit="10">
            <path
                d="M78.3-355.7a.7.7,0,0,0,.2-.488v-10.62a.7.7,0,0,0-.2-.489.7.7,0,0,0-.488-.2A11.312,11.312,0,0,0,66.5-356.189a.7.7,0,0,0,.2.488.7.7,0,0,0,.488.2h10.62A.7.7,0,0,0,78.3-355.7Z"
                stroke="none" />
            <path
                d="M 76.49998474121094 -357.5 L 76.49998474121094 -365.4080200195312 C 72.41349029541016 -364.8294372558594 69.17098236083984 -361.587158203125 68.5921630859375 -357.5 L 76.49998474121094 -357.5 M 77.81065368652344 -355.5 L 67.19051361083984 -355.5 C 67.00898742675781 -355.5 66.83101654052734 -355.5735778808594 66.70287322998047 -355.7017211914062 C 66.57474517822266 -355.8298950195312 66.49998474121094 -356.0078430175781 66.49998474121094 -356.1894226074219 C 66.50116729736328 -362.4356384277344 71.56385803222656 -367.5 77.81065368652344 -367.5 C 77.9921875 -367.5 78.17015838623047 -367.4264221191406 78.29830169677734 -367.2982482910156 C 78.42643737792969 -367.1690063476562 78.49998474121094 -366.9921569824219 78.49998474121094 -366.8094177246094 L 78.49998474121094 -356.1894226074219 C 78.49998474121094 -356.0078430175781 78.42643737792969 -355.8298950195312 78.29830169677734 -355.7017211914062 C 78.17015838623047 -355.5735778808594 77.9921875 -355.5 77.81065368652344 -355.5 Z"
                stroke="none" fill="#000" />
        </g>
    </g>
</svg>