<svg xmlns="http://www.w3.org/2000/svg" width="32" height="32" viewBox="0 0 32 32"><rect width="32" height="32" fill="#fff" opacity="0"/><g transform="translate(4.001 4)"><path d="M-466.373,78.252l-11.347,10.7a7.732,7.732,0,0,1-10.484,0,6.714,6.714,0,0,1,0-9.886l11.348-10.7a5.156,5.156,0,0,1,6.989,0,4.477,4.477,0,0,1,0,6.592l-11.361,10.7a2.574,2.574,0,0,1-3.493,0,2.235,2.235,0,0,1,0-3.295l10.483-9.875" transform="translate(490.375 -67.001)" fill="none" stroke="#000" stroke-linecap="round" stroke-linejoin="round" stroke-width="2"/></g></svg>