<svg xmlns="http://www.w3.org/2000/svg" viewBox="0 0 32 32">
    <g transform="translate(4 2.666)">
        <path d="M-296.033,87.626a2.924,2.924,0,0,0,3,2.841,2.924,2.924,0,0,0,3-2.841v-.159h-6Z"
            transform="translate(305.033 -64.132)" />
        <g transform="translate(304.673 -66.166)" stroke-miterlimit="10">
            <path
                d="M -282.0885314941406 86.5 L -283.8222045898438 86.5 L -284.7789916992188 86.5 L -300.5669250488281 86.5 L -301.6743469238281 86.5 L -303.2573547363281 86.5 C -303.482666015625 86.5 -303.6730041503906 86.35249328613281 -303.6730041503906 86.17788696289062 C -303.6730041503906 86.10459136962891 -303.6386413574219 86.046142578125 -303.6029968261719 86.00523376464844 C -303.58154296875 85.98782348632812 -303.5601196289062 85.97026062011719 -303.5386657714844 85.95265960693359 C -303.5181274414062 85.935791015625 -303.49755859375 85.91888427734375 -303.476806640625 85.90212249755859 C -300.9185485839844 83.82973480224609 -299.5669250488281 81.05021667480469 -299.5669250488281 77.86316680908203 L -299.5669250488281 73.90423583984375 C -299.5669250488281 72.51234436035156 -299.08935546875 71.19005584716797 -298.1858825683594 70.080322265625 C -297.2998962402344 68.99210357666016 -296.0391235351562 68.18083953857422 -294.6357727050781 67.79598236083984 L -294.6165771484375 67.79071044921875 L -294.5975952148438 67.78468322753906 C -294.5908813476562 67.78260040283203 -293.6716918945312 67.49999237060547 -292.5499877929688 67.49999237060547 C -291.9637145996094 67.49999237060547 -291.4294128417969 67.57652282714844 -290.9619750976562 67.72743988037109 L -290.9283752441406 67.73829650878906 L -290.8940734863281 67.74674224853516 C -287.8823852539062 68.48917388916016 -285.7789916992188 71.02122497558594 -285.7789916992188 73.90423583984375 L -285.7789916992188 77.86316680908203 C -285.7789916992188 81.05030059814453 -284.4273376464844 83.829833984375 -281.8701782226562 85.90125274658203 C -281.849853515625 85.91769409179688 -281.8299560546875 85.93405151367188 -281.81005859375 85.95037078857422 C -281.7876892089844 85.96875762939453 -281.7652893066406 85.98709869384766 -281.7428588867188 86.00527954101562 C -281.7073059082031 86.04612731933594 -281.6730041503906 86.10454559326172 -281.6730041503906 86.17788696289062 C -281.6730041503906 86.35249328613281 -281.86328125 86.5 -282.0885314941406 86.5 Z"
                stroke="none" />
            <path
                d="M -292.5499877929688 68.49999237060547 C -293.4636840820312 68.49999237060547 -294.2278137207031 68.71820831298828 -294.299560546875 68.73933410644531 L -294.3224487304688 68.74698638916016 L -294.3713073730469 68.7603759765625 C -295.5754699707031 69.09061431884766 -296.65478515625 69.78359985351562 -297.410400390625 70.71169281005859 C -298.1669921875 71.64101409912109 -298.5669250488281 72.74497222900391 -298.5669250488281 73.90423583984375 L -298.5669250488281 77.86316680908203 C -298.5669250488281 79.60787963867188 -298.9400939941406 81.25534057617188 -299.676025390625 82.75978088378906 C -300.1607055664062 83.75053405761719 -300.797119140625 84.66738891601562 -301.5771484375 85.5 L -283.7689514160156 85.5 C -284.5485534667969 84.66779327392578 -285.1851806640625 83.75072479248047 -285.669921875 82.75977325439453 C -286.4058532714844 81.25536346435547 -286.7789916992188 79.60790252685547 -286.7789916992188 77.86316680908203 L -286.7789916992188 73.90423583984375 C -286.7789916992188 71.48249053955078 -288.5696105957031 69.34970092773438 -291.1334228515625 68.71768188476562 L -291.2019958496094 68.70077514648438 L -291.2692260742188 68.67906951904297 C -291.6372680664062 68.56024169921875 -292.0681762695312 68.49999237060547 -292.5499877929688 68.49999237060547 M -292.5499877929688 66.49999237060547 C -291.9483337402344 66.49999237060547 -291.2912292480469 66.5703125 -290.6547241210938 66.77581024169922 C -287.2728271484375 67.60950469970703 -284.7789916992188 70.48424530029297 -284.7789916992188 73.90423583984375 L -284.7789916992188 77.86316680908203 C -284.7789916992188 80.76107025146484 -283.5433959960938 83.25894165039062 -281.24072265625 85.12420654296875 C -281.1834716796875 85.17053985595703 -281.1271362304688 85.21788024902344 -281.0698547363281 85.26316070556641 C -280.82470703125 85.5 -280.6730041503906 85.82212066650391 -280.6730041503906 86.17788696289062 C -280.6730041503906 86.90843963623047 -281.3070678710938 87.5 -282.0885314941406 87.5 L -303.2573547363281 87.5 C -304.0388488769531 87.5 -304.6730041503906 86.90843963623047 -304.6730041503906 86.17788696289062 C -304.6730041503906 85.82212066650391 -304.5211791992188 85.5 -304.2760620117188 85.26316070556641 C -304.2187805175781 85.21788024902344 -304.1625366210938 85.17053985595703 -304.1051635742188 85.12420654296875 C -301.8026123046875 83.25894165039062 -300.5669250488281 80.76107025146484 -300.5669250488281 77.86316680908203 L -300.5669250488281 73.90423583984375 C -300.5669250488281 70.55580139160156 -298.17431640625 67.72948455810547 -294.9002685546875 66.83159637451172 C -294.9002685546875 66.83159637451172 -293.8561096191406 66.49999237060547 -292.5499877929688 66.49999237060547 Z"
                stroke="none" fill="#000" />
        </g>
    </g>
</svg>