<svg xmlns="http://www.w3.org/2000/svg" width="32" height="32" viewBox="0 0 32 32"><rect width="32" height="32" fill="#fff" opacity="0"/><g transform="translate(4 2.667)"><path d="M-296.033,87.626a2.924,2.924,0,0,0,3,2.841,2.924,2.924,0,0,0,3-2.841v-.159h-6Z" transform="translate(305.033 -64.132)"/><g transform="translate(304.673 -66.166)" fill="none" stroke-miterlimit="10"><path d="M-290.655,66.776a7.483,7.483,0,0,1,5.876,7.128v3.959a9.094,9.094,0,0,0,3.538,7.261c.057.046.114.094.171.139a1.268,1.268,0,0,1,.4.915,1.371,1.371,0,0,1-1.416,1.322h-21.169a1.371,1.371,0,0,1-1.416-1.322,1.269,1.269,0,0,1,.4-.915c.057-.045.114-.093.171-.139a9.1,9.1,0,0,0,3.538-7.261V73.9a7.464,7.464,0,0,1,5.667-7.073A7.909,7.909,0,0,1-290.655,66.776Z" stroke="none"/><path d="M -292.5499877929688 68.49999237060547 C -293.4636840820312 68.49999237060547 -294.2278137207031 68.71820831298828 -294.299560546875 68.73933410644531 L -294.3224487304688 68.74698638916016 L -294.3713073730469 68.7603759765625 C -295.5754699707031 69.09061431884766 -296.65478515625 69.78359985351562 -297.410400390625 70.71169281005859 C -298.1669921875 71.64101409912109 -298.5669250488281 72.74497222900391 -298.5669250488281 73.90423583984375 L -298.5669250488281 77.86316680908203 C -298.5669250488281 79.60787963867188 -298.9400939941406 81.25534057617188 -299.676025390625 82.75978088378906 C -300.1607055664062 83.75053405761719 -300.797119140625 84.66738891601562 -301.5771484375 85.5 L -283.7689514160156 85.5 C -284.5485534667969 84.66779327392578 -285.1851806640625 83.75072479248047 -285.669921875 82.75977325439453 C -286.4058532714844 81.25536346435547 -286.7789916992188 79.60790252685547 -286.7789916992188 77.86316680908203 L -286.7789916992188 73.90423583984375 C -286.7789916992188 71.48249053955078 -288.5696105957031 69.34970092773438 -291.1334228515625 68.71768188476562 L -291.2019958496094 68.70077514648438 L -291.2692260742188 68.67906951904297 C -291.6372680664062 68.56024169921875 -292.0681762695312 68.49999237060547 -292.5499877929688 68.49999237060547 M -292.5499877929688 66.49999237060547 C -291.9483337402344 66.49999237060547 -291.2912292480469 66.5703125 -290.6547241210938 66.77581024169922 C -287.2728271484375 67.60950469970703 -284.7789916992188 70.48424530029297 -284.7789916992188 73.90423583984375 L -284.7789916992188 77.86316680908203 C -284.7789916992188 80.76107025146484 -283.5433959960938 83.25894165039062 -281.24072265625 85.12420654296875 C -281.1834716796875 85.17053985595703 -281.1271362304688 85.21788024902344 -281.0698547363281 85.26316070556641 C -280.82470703125 85.5 -280.6730041503906 85.82212066650391 -280.6730041503906 86.17788696289062 C -280.6730041503906 86.90843963623047 -281.3070678710938 87.5 -282.0885314941406 87.5 L -303.2573547363281 87.5 C -304.0388488769531 87.5 -304.6730041503906 86.90843963623047 -304.6730041503906 86.17788696289062 C -304.6730041503906 85.82212066650391 -304.5211791992188 85.5 -304.2760620117188 85.26316070556641 C -304.2187805175781 85.21788024902344 -304.1625366210938 85.17053985595703 -304.1051635742188 85.12420654296875 C -301.8026123046875 83.25894165039062 -300.5669250488281 80.76107025146484 -300.5669250488281 77.86316680908203 L -300.5669250488281 73.90423583984375 C -300.5669250488281 70.55580139160156 -298.17431640625 67.72948455810547 -294.9002685546875 66.83159637451172 C -294.9002685546875 66.83159637451172 -293.8561096191406 66.49999237060547 -292.5499877929688 66.49999237060547 Z" stroke="none" fill="#000"/></g></g></svg>