<svg xmlns="http://www.w3.org/2000/svg" width="32" height="32" viewBox="0 0 32 32"><rect width="32" height="32" fill="#fff" opacity="0"/><g transform="translate(10.333 3)"><g transform="translate(299.667 -66.233)" stroke-miterlimit="10"><path d="M -289 90.0201416015625 L -293.0879821777344 85.19422912597656 C -293.3153076171875 84.92440795898438 -293.6485290527344 84.76848602294922 -294.0005187988281 84.76848602294922 C -294.3525695800781 84.76848602294922 -294.6858825683594 84.92446899414062 -294.9148864746094 85.19644927978516 L -299 90.01987457275391 L -299 68.43923950195312 C -299 67.77412414550781 -298.552734375 67.23301696777344 -298.0029907226562 67.23301696777344 L -289.9969787597656 67.23301696777344 C -289.4472351074219 67.23301696777344 -289 67.77412414550781 -289 68.43923950195312 L -289 90.0201416015625 Z" stroke="none"/><path d="M -297.9419860839844 68.23301696777344 C -297.9658203125 68.26531219482422 -298 68.33324432373047 -298 68.43923950195312 L -298 87.29183197021484 L -295.6761779785156 84.54801940917969 C -295.2568054199219 84.05252075195312 -294.6463928222656 83.76847839355469 -294.0005187988281 83.76847839355469 C -293.354736328125 83.76847839355469 -292.7443542480469 84.052490234375 -292.324951171875 84.54786682128906 L -290 87.29249572753906 L -290 68.43923950195312 C -290 68.333251953125 -290.0341796875 68.26531982421875 -290.0580139160156 68.23301696777344 L -297.9419860839844 68.23301696777344 M -298.0029907226562 66.23301696777344 L -289.9969787597656 66.23301696777344 C -288.8939819335938 66.23301696777344 -288 67.22069549560547 -288 68.43923950195312 L -288 91.89584350585938 C -288 92.20079040527344 -288.3379821777344 92.34882354736328 -288.5270080566406 92.12564849853516 L -293.8510131835938 85.84058380126953 C -293.9320068359375 85.74445343017578 -294.0690002441406 85.74445343017578 -294.1499938964844 85.84058380126953 L -299.4729919433594 92.12564849853516 C -299.6620788574219 92.34884643554688 -300 92.20075225830078 -300 91.89584350585938 L -300 68.43923950195312 C -300 67.22069549560547 -299.1060180664062 66.23301696777344 -298.0029907226562 66.23301696777344 Z" stroke="none" fill="#000"/></g></g></svg>