<svg xmlns="http://www.w3.org/2000/svg" viewBox="0 0 32 32">
    <g transform="translate(10 3)">
        <g transform="translate(300 -66.233)" fill="none" stroke-miterlimit="10">
            <path
                d="M-300,68.439V91.9a.3.3,0,0,0,.527.23l5.323-6.285a.191.191,0,0,1,.3,0l5.324,6.285A.3.3,0,0,0-288,91.9V68.439a2.109,2.109,0,0,0-2-2.206H-298A2.109,2.109,0,0,0-300,68.439Z"
                stroke="none" />
            <path
                d="M -297.9419860839844 68.23301696777344 C -297.9658203125 68.26531982421875 -298 68.333251953125 -298 68.43923187255859 L -298 87.29183959960938 L -295.679443359375 84.55184173583984 C -295.2599487304688 84.05398559570312 -294.6480102539062 83.76845550537109 -294.0005187988281 83.76845550537109 C -293.353271484375 83.76845550537109 -292.741455078125 84.05381774902344 -292.3249206542969 84.54785919189453 L -290 87.29247283935547 L -290 68.43923187255859 C -290 68.33324432373047 -290.0341796875 68.26531219482422 -290.0580139160156 68.23301696777344 L -297.9419860839844 68.23301696777344 M -298.0030212402344 66.23301696777344 L -289.9970397949219 66.23301696777344 C -288.8940124511719 66.23301696777344 -288 67.22068023681641 -288 68.43923187255859 L -288 91.89583587646484 C -288 92.20077514648438 -288.3379821777344 92.34879302978516 -288.5270080566406 92.12564849853516 L -293.8509826660156 85.84056854248047 C -293.9320068359375 85.74444580078125 -294.0689697265625 85.74440002441406 -294.1499938964844 85.84056854248047 L -299.4729614257812 92.12564849853516 C -299.6619873046875 92.34878540039062 -300 92.20079803466797 -300 91.89583587646484 L -300 68.43923187255859 C -300 67.22068023681641 -299.1060180664062 66.23301696777344 -298.0030212402344 66.23301696777344 Z"
                stroke="none" fill="#000" />
        </g>
    </g>
</svg>