<svg xmlns="http://www.w3.org/2000/svg" width="32" height="32" viewBox="0 0 32 32"><rect width="32" height="32" fill="none"/><g transform="translate(2.667 5.334)"><g transform="translate(-252.667 -7.115)" fill="none" stroke-miterlimit="10"><path d="M277.2,9.531H273l-4.2-2.75h-8.4l-2.8,2.75h-2.8a2.9,2.9,0,0,0-2.8,2.75v13.75a2.9,2.9,0,0,0,2.8,2.75h22.4a2.9,2.9,0,0,0,2.8-2.75V12.281A2.9,2.9,0,0,0,277.2,9.531Z" stroke="none"/><path d="M 261.2178955078125 8.78118896484375 L 258.4179382324219 11.53118896484375 L 254.8033142089844 11.53118896484375 C 254.4509887695312 11.53175926208496 254.0005493164062 11.95414924621582 254.0000305175781 12.28118896484375 L 254.0000305175781 26.02793884277344 C 254.0005493164062 26.35822868347168 254.4509887695312 26.78061866760254 254.800048828125 26.78118896484375 L 277.1967468261719 26.78118896484375 C 277.549072265625 26.78061866760254 277.99951171875 26.35820770263672 278.0000305175781 26.03118896484375 L 278.0000305175781 12.28447914123535 C 277.99951171875 11.95416831970215 277.549072265625 11.53175926208496 277.2000122070312 11.53118896484375 L 272.4035339355469 11.53118896484375 L 268.2034912109375 8.78118896484375 L 261.2178955078125 8.78118896484375 M 260.3999938964844 6.78118896484375 L 268.8000183105469 6.78118896484375 L 273.0000305175781 9.53118896484375 L 277.2000122070312 9.53118896484375 C 278.6478271484375 9.533548355102539 279.9976501464844 10.83507919311523 280.0000305175781 12.28118896484375 L 280.0000305175781 26.03118896484375 C 279.9976501464844 27.47729873657227 278.6478271484375 28.77882957458496 277.2000122070312 28.78118896484375 L 254.800048828125 28.78118896484375 C 253.3521728515625 28.77882957458496 252.0023803710938 27.47729873657227 252.0000305175781 26.03118896484375 L 252.0000305175781 12.28118896484375 C 252.0023803710938 10.83507919311523 253.3521728515625 9.533548355102539 254.800048828125 9.53118896484375 L 257.6000366210938 9.53118896484375 L 260.3999938964844 6.78118896484375 Z" stroke="none" fill="#000"/></g><g transform="translate(6.333 5.666)" fill="none" stroke="#000" stroke-miterlimit="10" stroke-width="2"><circle cx="6" cy="6" r="6" stroke="none"/><circle cx="6" cy="6" r="5" fill="none"/></g></g></svg>