<svg xmlns="http://www.w3.org/2000/svg" width="32" height="32" viewBox="0 0 32 32"><rect width="32" height="32" fill="#fff" opacity="0"/><g transform="translate(2.666 5.334)"><path d="M8539.532,18700.666h-17.955l2-2h15.955a.927.927,0,0,0,.8-.752v-13.744a.929.929,0,0,0-.8-.756h-.7l1.768-1.768a2.9,2.9,0,0,1,1.739,2.518v13.75A2.9,2.9,0,0,1,8539.532,18700.666Zm-24.887-1.555v0a2.54,2.54,0,0,1-.311-1.193v-13.75a2.884,2.884,0,0,1,2.8-2.75h2.8l2.8-2.752h8.4l2.392,1.566-1.445,1.445-1.543-1.012h-6.984l-2.8,2.752h-3.614a.925.925,0,0,0-.8.75v13.258l-1.687,1.686Z" transform="translate(-8515 -18679)"/><path d="M8527.332,18696.668a6.021,6.021,0,0,1-1.552-.2l1.8-1.8a4.007,4.007,0,0,0,3.738-3.74l1.809-1.809a6,6,0,0,1-5.8,7.557Zm-5.8-4.447v0a6,6,0,0,1,7.353-7.35l-1.8,1.8a4,4,0,0,0-3.744,3.744l-1.8,1.8Z" transform="translate(-8515 -18679)"/><line y1="24" x2="24" transform="translate(1.334 -1.334)" fill="none" stroke="#000" stroke-linecap="round" stroke-width="2"/></g></svg>