<svg xmlns="http://www.w3.org/2000/svg" width="32" height="32" viewBox="0 0 32 32"><rect width="32" height="32" fill="#fff" opacity="0"/><g transform="translate(5.333 2.666)"><g transform="translate(-0.333 -0.666)" fill="none" stroke="#000" stroke-miterlimit="10" stroke-width="2"><path d="M3,0H19a1,1,0,0,1,1,1V27a1,1,0,0,1-1,1H3a3,3,0,0,1-3-3V3A3,3,0,0,1,3,0Z" stroke="none"/><path d="M3,1H19a0,0,0,0,1,0,0V27a0,0,0,0,1,0,0H3a2,2,0,0,1-2-2V3A2,2,0,0,1,3,1Z" fill="none"/></g><line x2="10" transform="translate(4.667 10.334)" fill="none" stroke="#000" stroke-linecap="round" stroke-miterlimit="10" stroke-width="2"/><line x2="10" transform="translate(4.667 14.334)" fill="none" stroke="#000" stroke-linecap="round" stroke-miterlimit="10" stroke-width="2"/><line x2="5" transform="translate(4.667 18.334)" fill="none" stroke="#000" stroke-linecap="round" stroke-miterlimit="10" stroke-width="2"/><line x2="18" transform="translate(0.667 5.334)" fill="none" stroke="#000" stroke-width="2"/></g></svg>