<svg xmlns="http://www.w3.org/2000/svg" width="32" height="32" viewBox="0 0 32 32"><rect width="32" height="32" fill="#fff" opacity="0"/><g transform="translate(5.335 5)"><path d="M208.4,447.9a8,8,0,1,1-8,8,8,8,0,0,1,8-8Z" transform="translate(-197.734 -448.902)" fill="none" stroke="#000" stroke-miterlimit="22.926" stroke-width="2"/><path d="M206.557,451.061a3,3,0,1,1-3,3,3,3,0,0,1,3-3Z" transform="translate(-195.892 -447.06)" fill="none" stroke="#000" stroke-miterlimit="22.926" stroke-width="2"/><path d="M202.417,457.68l-4,4h3v3h3v3l5-5,5,5v-3h3v-3h3l-4-4" transform="translate(-198.752 -444.68)" fill="none" stroke="#000" stroke-linecap="round" stroke-linejoin="round" stroke-width="2"/></g></svg>