<svg xmlns="http://www.w3.org/2000/svg" width="32" height="32" viewBox="0 0 32 32"><rect width="32" height="32" fill="#fff" opacity="0"/><g transform="translate(4 3.666)"><line x2="24" transform="translate(0 10.334)" fill="none" stroke="#000" stroke-linecap="round" stroke-width="2"/><line x2="24" transform="translate(0 24.334)" fill="none" stroke="#000" stroke-linecap="round" stroke-width="2"/><g transform="translate(-5 -14.666)"><path d="M0,0A3,3,0,0,1,3,3,3,3,0,0,1,0,6" transform="translate(9 24) rotate(-90)" fill="none" stroke="#000" stroke-width="2"/><g transform="translate(-13 -0.68)" fill="none" stroke-miterlimit="10"><path d="M22,17.679a3,3,0,1,1,.879,2.121A2.994,2.994,0,0,1,22,17.679Z" stroke="none"/><path d="M 25.00000381469727 16.67900276184082 C 24.65928649902344 16.67900276184082 24.42787170410156 16.8371467590332 24.29323959350586 16.97069931030273 C 24.18279647827148 17.08208084106445 24.00000381469727 17.32065200805664 24.00000381469727 17.67900276184082 C 24.00000381469727 18.01902770996094 24.15946578979492 18.25118827819824 24.29384994506836 18.38641357421875 C 24.42925453186035 18.52052688598633 24.66101837158203 18.67900276184082 25.00000381469727 18.67900276184082 C 25.34115409851074 18.67900276184082 25.57370376586914 18.51850318908691 25.70676422119141 18.38580322265625 C 25.84054374694824 18.25202369689941 26.00000381469727 18.02081298828125 26.00000381469727 17.67900276184082 C 26.00000381469727 17.33595275878906 25.84054374694824 17.10448265075684 25.7087230682373 16.97265243530273 C 25.57439422607422 16.83869361877441 25.34239387512207 16.67900276184082 25.00000381469727 16.67900276184082 M 25.00000381469727 14.67900276184082 C 25.82950401306152 14.67900276184082 26.57650375366211 15.01350212097168 27.12099456787109 15.55650329589844 C 27.66549301147461 16.10100364685059 28.00000381469727 16.84950256347656 28.00000381469727 17.67900276184082 C 28.00000381469727 18.50850296020508 27.66549301147461 19.2554931640625 27.12099456787109 19.80000305175781 C 26.57650375366211 20.34300231933594 25.82950401306152 20.67900276184082 25.00000381469727 20.67900276184082 C 24.17050361633301 20.67900276184082 23.42350387573242 20.34300231933594 22.87900352478027 19.80000305175781 C 22.33600425720215 19.2554931640625 22.00000381469727 18.50850296020508 22.00000381469727 17.67900276184082 C 22.00000381469727 16.84950256347656 22.33600425720215 16.10100364685059 22.87900352478027 15.55650329589844 C 23.42350387573242 15.01350212097168 24.17050361633301 14.67900276184082 25.00000381469727 14.67900276184082 Z" stroke="none" fill="#000"/></g></g><g transform="translate(0 -0.666)"><path d="M0,0A3,3,0,0,1,3,3,3,3,0,0,1,0,6" transform="translate(9 24) rotate(-90)" fill="none" stroke="#000" stroke-width="2"/><g transform="translate(-13 -0.68)" fill="none" stroke-miterlimit="10"><path d="M22,17.679a3,3,0,1,1,.879,2.121A2.994,2.994,0,0,1,22,17.679Z" stroke="none"/><path d="M 25.00000381469727 16.67900276184082 C 24.65928649902344 16.67900276184082 24.42787170410156 16.8371467590332 24.29323959350586 16.97069931030273 C 24.18279647827148 17.08208084106445 24.00000381469727 17.32065200805664 24.00000381469727 17.67900276184082 C 24.00000381469727 18.01902770996094 24.15946578979492 18.25118827819824 24.29384994506836 18.38641357421875 C 24.42925453186035 18.52052688598633 24.66101837158203 18.67900276184082 25.00000381469727 18.67900276184082 C 25.34115409851074 18.67900276184082 25.57370376586914 18.51850318908691 25.70676422119141 18.38580322265625 C 25.84054374694824 18.25202369689941 26.00000381469727 18.02081298828125 26.00000381469727 17.67900276184082 C 26.00000381469727 17.33595275878906 25.84054374694824 17.10448265075684 25.7087230682373 16.97265243530273 C 25.57439422607422 16.83869361877441 25.34239387512207 16.67900276184082 25.00000381469727 16.67900276184082 M 25.00000381469727 14.67900276184082 C 25.82950401306152 14.67900276184082 26.57650375366211 15.01350212097168 27.12099456787109 15.55650329589844 C 27.66549301147461 16.10100364685059 28.00000381469727 16.84950256347656 28.00000381469727 17.67900276184082 C 28.00000381469727 18.50850296020508 27.66549301147461 19.2554931640625 27.12099456787109 19.80000305175781 C 26.57650375366211 20.34300231933594 25.82950401306152 20.67900276184082 25.00000381469727 20.67900276184082 C 24.17050361633301 20.67900276184082 23.42350387573242 20.34300231933594 22.87900352478027 19.80000305175781 C 22.33600425720215 19.2554931640625 22.00000381469727 18.50850296020508 22.00000381469727 17.67900276184082 C 22.00000381469727 16.84950256347656 22.33600425720215 16.10100364685059 22.87900352478027 15.55650329589844 C 23.42350387573242 15.01350212097168 24.17050361633301 14.67900276184082 25.00000381469727 14.67900276184082 Z" stroke="none" fill="#000"/></g></g><g transform="translate(5 -14.666)"><path d="M0,0A3,3,0,0,1,3,3,3,3,0,0,1,0,6" transform="translate(9 24) rotate(-90)" fill="none" stroke="#000" stroke-width="2"/><g transform="translate(-13 -0.68)" fill="none" stroke-miterlimit="10"><path d="M22,17.679a3,3,0,1,1,.879,2.121A2.994,2.994,0,0,1,22,17.679Z" stroke="none"/><path d="M 25.00000381469727 16.67900276184082 C 24.65928649902344 16.67900276184082 24.42787170410156 16.8371467590332 24.29323959350586 16.97069931030273 C 24.18279647827148 17.08208084106445 24.00000381469727 17.32065200805664 24.00000381469727 17.67900276184082 C 24.00000381469727 18.01902770996094 24.15946578979492 18.25118827819824 24.29384994506836 18.38641357421875 C 24.42925453186035 18.52052688598633 24.66101837158203 18.67900276184082 25.00000381469727 18.67900276184082 C 25.34115409851074 18.67900276184082 25.57370376586914 18.51850318908691 25.70676422119141 18.38580322265625 C 25.84054374694824 18.25202369689941 26.00000381469727 18.02081298828125 26.00000381469727 17.67900276184082 C 26.00000381469727 17.33595275878906 25.84054374694824 17.10448265075684 25.7087230682373 16.97265243530273 C 25.57439422607422 16.83869361877441 25.34239387512207 16.67900276184082 25.00000381469727 16.67900276184082 M 25.00000381469727 14.67900276184082 C 25.82950401306152 14.67900276184082 26.57650375366211 15.01350212097168 27.12099456787109 15.55650329589844 C 27.66549301147461 16.10100364685059 28.00000381469727 16.84950256347656 28.00000381469727 17.67900276184082 C 28.00000381469727 18.50850296020508 27.66549301147461 19.2554931640625 27.12099456787109 19.80000305175781 C 26.57650375366211 20.34300231933594 25.82950401306152 20.67900276184082 25.00000381469727 20.67900276184082 C 24.17050361633301 20.67900276184082 23.42350387573242 20.34300231933594 22.87900352478027 19.80000305175781 C 22.33600425720215 19.2554931640625 22.00000381469727 18.50850296020508 22.00000381469727 17.67900276184082 C 22.00000381469727 16.84950256347656 22.33600425720215 16.10100364685059 22.87900352478027 15.55650329589844 C 23.42350387573242 15.01350212097168 24.17050361633301 14.67900276184082 25.00000381469727 14.67900276184082 Z" stroke="none" fill="#000"/></g></g></g></svg>