<svg xmlns="http://www.w3.org/2000/svg" viewBox="0 0 32 32">
    <g transform="translate(-464 -5346)">
        <path
            d="M6316,22388h-4a1,1,0,0,1,0-2h1v-4.76l2-2v6.76h1a1,1,0,1,1,0,2Zm-3-15.244V22368h-7v1a1,1,0,0,1-2,0v-4a.99.99,0,0,1,1-1,1,1,0,0,1,1,1v1h13.75l-2,2H6315v2.754l-2,2Z"
            transform="translate(-5834 -17014)" />
        <line y1="22" x2="22" transform="translate(469 5351)" fill="none" stroke="#000" stroke-linecap="round"
            stroke-miterlimit="10" stroke-width="2" />
    </g>
</svg>