<svg xmlns="http://www.w3.org/2000/svg" viewBox="0 0 32 32">
    <g transform="translate(9.001 8)">
        <path d="M1291.177,10.648V6.84c0-3.934-3.513-8.192-8-8.192s-8,4.257-8,8.192v1.8"
            transform="translate(-1276.178 -2.647)" fill="none" stroke="#000" stroke-linecap="round"
            stroke-linejoin="round" stroke-width="2" />
        <path d="M1289.251,8.8v3.912a7.6,7.6,0,0,1-2,5.588" transform="translate(-1277.252 -4.799)" fill="none"
            stroke="#000" stroke-linecap="round" stroke-linejoin="round" stroke-width="2" />
        <path d="M1280.029,1.387c0,2.143,7.7,5,11,5" transform="translate(-1279.031 -2.386)" fill="none" stroke="#000"
            stroke-linecap="round" stroke-linejoin="round" stroke-width="2" />
        <path d="M1279.58,4.471c-.862.606-1.949,3.279-2,4.889v1.222a6.65,6.65,0,0,0,2,4.889"
            transform="translate(-1275.581 -1.971)" fill="none" stroke="#000" stroke-linecap="round"
            stroke-linejoin="round" stroke-width="2" />
        <path
            d="M1285.752,19.12a1.113,1.113,0,0,1-1.2,1h-.6a1.113,1.113,0,0,1-1.2-1h0a1.112,1.112,0,0,1,1.2-1h.6a1.114,1.114,0,0,1,1.2,1Z"
            transform="translate(-1275.754 -0.119)" fill="none" stroke="#000" stroke-linecap="round"
            stroke-linejoin="round" stroke-width="2" />
        <path d="M1286.128,23.7h.469c2.493.021,4.522-4.31,4.531-9.671,0-.11,0-.218,0-.328"
            transform="translate(-1276.128 -4.702)" fill="none" stroke="#000" stroke-linecap="round"
            stroke-linejoin="round" stroke-width="2" />
        <path d="M1293.193,8.08h-1v4h1a.95.95,0,0,0,1-.889V8.968A.951.951,0,0,0,1293.193,8.08Z"
            transform="translate(-1277.194 -2.08)" fill="none" stroke="#000" stroke-linecap="round"
            stroke-linejoin="round" stroke-width="2" />
        <path d="M1273.685,8.08h1v4h-1a.949.949,0,0,1-1-.887V8.97a.949.949,0,0,1,1-.89h0Z"
            transform="translate(-1275.686 -2.078)" fill="none" stroke="#000" stroke-linecap="round"
            stroke-linejoin="round" stroke-width="2" />
    </g>
</svg>