<svg xmlns="http://www.w3.org/2000/svg" width="32" height="32" viewBox="0 0 32 32"><rect width="32" height="32" fill="#fff" opacity="0"/><g transform="translate(4 6.662)"><path d="M0,0H2A0,0,0,0,1,2,0V7A1,1,0,0,1,1,8H1A1,1,0,0,1,0,7V0A0,0,0,0,1,0,0Z" transform="translate(24 6.338)"/><g transform="translate(-8034 -17771.004)" fill="rgba(0,0,0,0)" stroke-miterlimit="10"><path d="M 8052.00048828125 17790.337890625 L 8039.99853515625 17790.337890625 C 8038.8955078125 17790.337890625 8037.998046875 17789.44140625 8037.998046875 17788.337890625 L 8037.998046875 17780.58984375 L 8037.998046875 17779.994140625 L 8037.4736328125 17779.7109375 L 8033.0869140625 17777.337890625 L 8045.9990234375 17770.353515625 L 8058.91162109375 17777.337890625 L 8054.525390625 17779.7109375 L 8054.0009765625 17779.994140625 L 8054.0009765625 17780.58984375 L 8054.0009765625 17788.337890625 C 8054.0009765625 17789.44140625 8053.103515625 17790.337890625 8052.00048828125 17790.337890625 Z" stroke="none"/><path d="M 8052.00048828125 17789.337890625 C 8052.55224609375 17789.337890625 8053.0009765625 17788.888671875 8053.0009765625 17788.337890625 L 8053.0009765625 17779.3984375 L 8054.0498046875 17778.830078125 L 8056.80908203125 17777.337890625 L 8045.9990234375 17771.490234375 L 8035.189453125 17777.337890625 L 8038.998046875 17779.3984375 L 8038.998046875 17788.337890625 C 8038.998046875 17788.888671875 8039.44677734375 17789.337890625 8039.99853515625 17789.337890625 L 8052.00048828125 17789.337890625 M 8052.00048828125 17791.337890625 L 8039.99853515625 17791.337890625 C 8038.341796875 17791.337890625 8036.998046875 17789.994140625 8036.998046875 17788.337890625 L 8036.998046875 17780.58984375 L 8032.474609375 17778.14453125 C 8031.8408203125 17777.80078125 8031.8408203125 17776.876953125 8032.474609375 17776.533203125 L 8045.583984375 17769.44140625 C 8045.8427734375 17769.3046875 8046.15576171875 17769.3046875 8046.41455078125 17769.44140625 L 8059.52392578125 17776.533203125 C 8060.158203125 17776.876953125 8060.158203125 17777.80078125 8059.52392578125 17778.14453125 L 8055.0009765625 17780.58984375 L 8055.0009765625 17788.337890625 C 8055.0009765625 17789.994140625 8053.65673828125 17791.337890625 8052.00048828125 17791.337890625 Z" stroke="none" fill="#000"/></g><g transform="translate(51.001 -9.328)" fill="rgba(0,0,0,0)" stroke-miterlimit="10"><path d="M -39.00025939941406 22.6452579498291 L -51.91369247436523 15.66250991821289 L -39.00027465820312 8.679754257202148 L -26.08683204650879 15.66250133514404 L -39.00025939941406 22.6452579498291 Z" stroke="none"/><path d="M -39.00026702880859 21.50841903686523 L -28.1892204284668 15.66250610351562 L -39.00026702880859 9.816591262817383 L -49.81130599975586 15.66250514984131 L -39.00026702880859 21.50841903686523 M -39.00026702880859 23.66250228881836 C -39.14347076416016 23.66250228881836 -39.28667831420898 23.62729454040527 -39.41675567626953 23.55688095092773 L -52.52513885498047 16.46870994567871 C -53.15862655639648 16.12618064880371 -53.15862655639648 15.19883060455322 -52.52513885498047 14.85630035400391 L -39.41675567626953 7.768130302429199 C -39.15660095214844 7.627290725708008 -38.84393310546875 7.627290725708008 -38.58377838134766 7.768130302429199 L -25.47538757324219 14.85630035400391 C -24.84189796447754 15.19883060455322 -24.84189796447754 16.12618064880371 -25.47538757324219 16.46870994567871 L -38.58377838134766 23.55688095092773 C -38.7138557434082 23.62729454040527 -38.85706329345703 23.66250228881836 -39.00026702880859 23.66250228881836 Z" stroke="none" fill="#000"/></g></g></svg>