<svg xmlns="http://www.w3.org/2000/svg" width="32" height="32" viewBox="0 0 32 32"><rect width="32" height="32" fill="#fff" opacity="0"/><g transform="translate(1.667 1.669)"><g transform="translate(-8274 -20866)" fill="rgba(0,0,0,0)" stroke-miterlimit="10"><path d="M 8289.3310546875 20893.330078125 L 8277.3330078125 20893.330078125 C 8276.23046875 20893.330078125 8275.333984375 20892.43359375 8275.333984375 20891.33203125 L 8275.333984375 20879.328125 C 8275.333984375 20878.224609375 8276.23046875 20877.328125 8277.3330078125 20877.328125 L 8284.333984375 20877.328125 L 8285.333984375 20877.328125 L 8285.333984375 20876.328125 L 8285.333984375 20869.333984375 C 8285.333984375 20868.23046875 8286.23046875 20867.333984375 8287.3330078125 20867.333984375 L 8299.3310546875 20867.333984375 C 8300.43359375 20867.333984375 8301.3310546875 20868.23046875 8301.3310546875 20869.333984375 L 8301.3310546875 20881.33203125 C 8301.3310546875 20882.43359375 8300.43359375 20883.330078125 8299.3310546875 20883.330078125 L 8292.3310546875 20883.330078125 L 8291.3310546875 20883.330078125 L 8291.3310546875 20884.330078125 L 8291.3310546875 20891.33203125 C 8291.3310546875 20892.43359375 8290.43359375 20893.330078125 8289.3310546875 20893.330078125 Z" stroke="none"/><path d="M 8289.3310546875 20892.330078125 C 8289.8828125 20892.330078125 8290.3310546875 20891.8828125 8290.3310546875 20891.33203125 L 8290.3310546875 20882.330078125 L 8299.3310546875 20882.330078125 C 8299.8828125 20882.330078125 8300.3310546875 20881.8828125 8300.3310546875 20881.33203125 L 8300.3310546875 20869.333984375 C 8300.3310546875 20868.783203125 8299.8828125 20868.333984375 8299.3310546875 20868.333984375 L 8287.3330078125 20868.333984375 C 8286.7822265625 20868.333984375 8286.333984375 20868.783203125 8286.333984375 20869.333984375 L 8286.333984375 20878.328125 L 8277.3330078125 20878.328125 C 8276.7822265625 20878.328125 8276.333984375 20878.77734375 8276.333984375 20879.328125 L 8276.333984375 20891.33203125 C 8276.333984375 20891.8828125 8276.7822265625 20892.330078125 8277.3330078125 20892.330078125 L 8289.3310546875 20892.330078125 M 8289.3310546875 20894.330078125 L 8277.3330078125 20894.330078125 C 8275.6767578125 20894.330078125 8274.333984375 20892.98828125 8274.333984375 20891.33203125 L 8274.333984375 20879.328125 C 8274.333984375 20877.67578125 8275.6767578125 20876.328125 8277.3330078125 20876.328125 L 8284.333984375 20876.328125 L 8284.333984375 20869.333984375 C 8284.333984375 20867.67578125 8285.6767578125 20866.333984375 8287.3330078125 20866.333984375 L 8299.3310546875 20866.333984375 C 8300.98828125 20866.333984375 8302.3310546875 20867.67578125 8302.3310546875 20869.333984375 L 8302.3310546875 20881.33203125 C 8302.3310546875 20882.98828125 8300.98828125 20884.330078125 8299.3310546875 20884.330078125 L 8292.3310546875 20884.330078125 L 8292.3310546875 20891.33203125 C 8292.3310546875 20892.98828125 8290.98828125 20894.330078125 8289.3310546875 20894.330078125 Z" stroke="none" fill="#000"/></g><g transform="translate(10.333 0.332)" fill="rgba(0,0,0,0)" stroke="#000" stroke-miterlimit="10" stroke-width="2"><rect width="18" height="18" rx="3" stroke="none"/><rect x="1" y="1" width="16" height="16" rx="2" fill="none"/></g><g transform="translate(16.985 7.639)"><line x2="6" transform="translate(-0.652 1.693)" fill="none" stroke="#000" stroke-linecap="round" stroke-miterlimit="10" stroke-width="2"/><line y2="6" transform="translate(2.348 -1.307)" fill="none" stroke="#000" stroke-linecap="round" stroke-miterlimit="10" stroke-width="2"/></g></g></svg>