<svg xmlns="http://www.w3.org/2000/svg" width="32" height="32" viewBox="0 0 32 32"><rect width="32" height="32" fill="#fff" opacity="0"/><g transform="translate(3 3)"><g transform="translate(181.318 -66.664)" fill="none" stroke-miterlimit="10"><path d="M-159.189,67.336l3.175,3.169a2.371,2.371,0,0,1,.008,3.348l-16.735,16.88a2.369,2.369,0,0,1-1.2.654l-6,1.254a1.143,1.143,0,0,1-1.354-1.354l1.3-6.114a2.37,2.37,0,0,1,.656-1.2l16.911-16.65A2.3,2.3,0,0,1-159.189,67.336Z" stroke="none"/><path d="M -160.8125 68.66448974609375 C -160.8687286376953 68.66448974609375 -160.9509582519531 68.67945098876953 -161.0223999023438 68.74967956542969 L -177.9334259033203 85.39939117431641 C -177.9854583740234 85.45060729980469 -178.0209045410156 85.51518249511719 -178.0362396240234 85.58756256103516 L -179.0625305175781 90.41334533691406 L -174.3513336181641 89.42839050292969 C -174.2795867919922 89.41341400146484 -174.2148895263672 89.37837982177734 -174.1615753173828 89.32440948486328 L -157.4260864257812 72.44399261474609 C -157.282470703125 72.29917907714844 -157.2833251953125 72.063720703125 -157.4268493652344 71.92024993896484 L -160.6018981933594 68.75127410888672 C -160.6737365722656 68.67954254150391 -160.7560729980469 68.66448974609375 -160.8125 68.66448974609375 M -160.8125 66.66448974609375 C -160.2245635986328 66.66448974609375 -159.6370697021484 66.88836669921875 -159.1887664794922 67.33598327636719 L -156.0139770507812 70.50467681884766 C -155.0893402099609 71.42902374267578 -155.0859222412109 72.92450714111328 -156.0059661865234 73.85227966308594 L -172.7412719726562 90.73251342773438 C -173.0686340332031 91.06394958496094 -173.4867248535156 91.29103088378906 -173.9427185058594 91.38619995117188 L -179.9384765625 92.63971710205078 C -180.7482604980469 92.80831146240234 -181.4638824462891 92.09152221679688 -181.2926788330078 91.28530120849609 L -179.9924926757812 85.17153167724609 C -179.8960113525391 84.71621704101562 -179.6674346923828 84.29994201660156 -179.3366241455078 83.97422790527344 L -162.4255523681641 67.32450103759766 C -161.9779510498047 66.88445281982422 -161.3950042724609 66.66448974609375 -160.8125 66.66448974609375 Z" stroke="none" fill="#000"/></g><line x2="4" y2="4" transform="translate(17 5)" fill="none" stroke="#000" stroke-miterlimit="10" stroke-width="2"/><line x2="5" y2="5" transform="translate(5 16)" fill="none" stroke="#000" stroke-miterlimit="10" stroke-width="2"/></g></svg>