<svg xmlns="http://www.w3.org/2000/svg" viewBox="0 0 32 32">
    <g transform="translate(6.333 4)">
        <g transform="translate(-44.001 1.726)" fill="none" stroke-miterlimit="10">
            <path
                d="M47.547,23.846a1.115,1.115,0,0,1-1.758,0c-1.177-1.462-3.121-4.014-3.121-4.939V-1.322a2.347,2.347,0,0,1,2.287-2.4H48.38a2.347,2.347,0,0,1,2.288,2.4V18.907C50.668,19.832,48.724,22.384,47.547,23.846Z"
                stroke="none" />
            <path
                d="M 46.66799163818359 21.73119354248047 C 47.975830078125 20.03742599487305 48.52814865112305 19.08638191223145 48.66800308227539 18.73761940002441 L 48.66800308227539 -1.322219133377075 C 48.66800308227539 -1.559579133987427 48.51623153686523 -1.724999189376831 48.38001251220703 -1.724999189376831 L 44.95485305786133 -1.724999189376831 C 44.81917190551758 -1.724999189376831 44.66800308227539 -1.559579133987427 44.66800308227539 -1.322219133377075 L 44.66800308227539 18.73761940002441 C 44.80786514282227 19.08640480041504 45.36041641235352 20.03777313232422 46.66799163818359 21.73119354248047 M 46.66757202148438 24.2744255065918 C 46.34342956542969 24.2744255065918 46.01942825317383 24.13157081604004 45.78914260864258 23.84586143493652 C 44.61200332641602 22.38358116149902 42.66800308227539 19.83190155029297 42.66800308227539 18.90667152404785 L 42.66800308227539 -1.322219133377075 C 42.66800308227539 -2.649609088897705 43.69200134277344 -3.724999189376831 44.95485305786133 -3.724999189376831 L 48.38001251220703 -3.724999189376831 C 49.64400482177734 -3.724999189376831 50.66800308227539 -2.649609088897705 50.66800308227539 -1.322219133377075 L 50.66800308227539 18.90667152404785 C 50.66800308227539 19.83190155029297 48.72400283813477 22.38358116149902 47.5468635559082 23.84586143493652 C 47.31600189208984 24.13157081604004 46.99171447753906 24.2744255065918 46.66757202148438 24.2744255065918 Z"
                stroke="none" fill="#000" />
        </g>
        <line x2="6" transform="translate(-0.333 5)" fill="none" stroke="#000" stroke-linecap="round"
            stroke-width="2" />
        <g transform="translate(10.667 -2)">
            <g transform="translate(0)" fill="none">
                <path d="M0,0H10V28H0Z" stroke="none" />
                <path d="M 2 2 L 2 26 L 8 26 L 8 2 L 2 2 M 0 0 L 10 0 L 10 28 L 0 28 L 0 0 Z" stroke="none"
                    fill="#000" />
            </g>
            <line x2="3" transform="translate(1 7)" fill="none" stroke="#000" stroke-linecap="round" stroke-width="2" />
            <line x2="3" transform="translate(1 14)" fill="none" stroke="#000" stroke-linecap="round"
                stroke-width="2" />
            <line x2="3" transform="translate(1 21)" fill="none" stroke="#000" stroke-linecap="round"
                stroke-width="2" />
        </g>
    </g>
</svg>