<svg xmlns="http://www.w3.org/2000/svg" viewBox="0 0 32 32">
    <g transform="translate(3 7.333)">
        <path
            d="M30.465,17.254a13.5,13.5,0,0,0-2.712-4.4,13.06,13.06,0,0,0-3.993-3A14.206,14.206,0,0,0,17.5,8.5a14.2,14.2,0,0,0-6.257,1.356A13.386,13.386,0,0,0,6,14.452a12.391,12.391,0,0,0-1.455,2.8.793.793,0,0,0-.006.475,12.89,12.89,0,0,0,2.634,4.415,12.747,12.747,0,0,0,3.987,3A14.5,14.5,0,0,0,17.5,26.5a14.5,14.5,0,0,0,6.345-1.355,12.986,12.986,0,0,0,5.221-4.6,11.871,11.871,0,0,0,1.4-2.812A.793.793,0,0,0,30.465,17.254Z"
            transform="translate(-4.504 -8.834)" fill="none" stroke="#000" stroke-width="2" />
        <circle cx="5" cy="5" r="5" transform="translate(8 3.667)" fill="none" stroke="#000" stroke-width="2" />
    </g>
</svg>