<svg xmlns="http://www.w3.org/2000/svg" viewBox="0 0 32 32">
    <g transform="translate(2.999 7)">
        <g transform="translate(26.001 18) rotate(180)" fill="none">
            <path
                d="M10,2.926V3.8L4,.352A2.728,2.728,0,0,0,0,2.926V15.074a2.732,2.732,0,0,0,4,2.578L10,14.2v.873a2.731,2.731,0,0,0,4,2.578l10.563-6.076a3.031,3.031,0,0,0,0-5.152L14,.352A2.566,2.566,0,0,0,12.72,0,2.825,2.825,0,0,0,10,2.926Z"
                stroke="none" />
            <path
                d="M 12.72021579742432 2 C 12.41847610473633 2 12.00048637390137 2.321720123291016 12.00048637390137 2.925780296325684 L 12.00048637390137 7.255499839782715 L 3.004796981811523 2.08411979675293 C 2.907316207885742 2.027910232543945 2.814676284790039 2.000590324401855 2.721565246582031 2.000590324401855 C 2.419055938720703 2.000590324401855 1.999996185302734 2.322110176086426 1.999996185302734 2.925780296325684 L 1.999996185302734 15.07421970367432 C 1.999996185302734 15.67889976501465 2.421316146850586 16.00094985961914 2.725456237792969 16.00094985961914 C 2.81834602355957 16.00094985961914 2.910636901855469 15.97387027740479 3.00628662109375 15.91892051696777 L 12.00048637390137 10.74254989624023 L 12.00048637390137 15.07421970367432 C 12.00048637390137 15.67889976501465 12.42075634002686 16.00094985961914 12.72414588928223 16.00094985961914 C 12.81800651550293 16.00094985961914 12.91147613525391 15.97352981567383 13.00715637207031 15.91870021820068 L 23.56635665893555 9.844710350036621 C 23.97009658813477 9.611300468444824 24.00146675109863 9.13914966583252 24.00146675109863 9 C 24.00146675109863 8.86085033416748 23.97009658813477 8.388699531555176 23.57062530517578 8.157750129699707 L 13.00865650177002 2.0860595703125 C 12.90777587890625 2.028149604797363 12.81342601776123 2 12.72021579742432 2 M 12.72021579742432 0 C 13.14745616912842 0 13.58593654632568 0.1113300323486328 14.00439643859863 0.3515605926513672 L 24.56738662719727 6.423830032348633 C 26.47949600219727 7.529299736022949 26.47949600219727 10.47069931030273 24.56738662719727 11.57616996765137 L 14.00439643859863 17.65233993530273 C 12.19140243530273 18.69141006469727 10.00048637390137 17.28320121765137 10.00048637390137 15.07421970367432 L 10.00048637390137 14.20116996765137 L 4.00390625 17.65233993530273 C 2.195323944091797 18.69140625 -3.814697265625e-06 17.28320121765137 -3.814697265625e-06 15.07421970367432 L -3.814697265625e-06 2.925780296325684 C -3.814697265625e-06 0.7148380279541016 2.195314407348633 -0.6914100646972656 4.00390625 0.3515605926513672 L 10.00048637390137 3.798830032348633 L 10.00048637390137 2.925780296325684 C 10.00048637390137 1.224609375 11.29687595367432 0 12.72021579742432 0 Z"
                stroke="none" fill="#000" />
        </g>
        <g transform="translate(26 0) rotate(90)" fill="none">
            <path
                d="M6.425,14.564a3.027,3.027,0,0,0,5.149,0L17.65,4a2.729,2.729,0,0,0-2.575-4H2.925A2.729,2.729,0,0,0,.35,4Z"
                stroke="none" />
            <path
                d="M 8.999999046325684 14 C 9.138898849487305 14 9.610058784484863 13.96877956390381 9.841129302978516 13.56711959838867 L 15.91615867614746 3.007139682769775 C 15.95712947845459 2.935919761657715 16.08181953430176 2.719169616699219 15.91665935516357 2.433619737625122 C 15.85781860351562 2.331889629364014 15.62324905395508 1.999999761581421 15.07501888275146 1.999999761581421 L 2.924978971481323 1.999999761581421 C 2.376749038696289 1.999999761581421 2.142179012298584 2.331889629364014 2.083338975906372 2.433619737625122 C 1.918179035186768 2.719169616699219 2.042869091033936 2.935919761657715 2.083838939666748 3.007129669189453 L 8.158848762512207 13.56711006164551 C 8.389928817749023 13.96877956390381 8.861099243164062 14 8.999999046325684 14 M 8.999998092651367 16 C 7.987916469573975 16 6.975833892822266 15.52147960662842 6.425259113311768 14.56443977355957 L 0.3502390384674072 4.004449844360352 C -0.692160964012146 2.192469835281372 0.7175290584564209 -2.801513687700208e-07 2.924978971481323 -2.801513687700208e-07 L 15.07501888275146 -2.801513687700208e-07 C 17.28246879577637 -2.801513687700208e-07 18.69215965270996 2.192469835281372 17.64975929260254 4.004449844360352 L 11.57472896575928 14.56443977355957 C 11.02415943145752 15.52147960662842 10.0120792388916 16 8.999998092651367 16 Z"
                stroke="none" fill="#000" />
        </g>
    </g>
</svg>