<svg xmlns="http://www.w3.org/2000/svg" viewBox="0 0 32 32">
    <g transform="translate(-0.476 2.439)">
        <g transform="translate(-8032 -18791)" fill="none">
            <path
                d="M8045.476,18810.635v-.873l-6,3.447a2.728,2.728,0,0,1-4-2.574v-12.148a2.732,2.732,0,0,1,4-2.578l6,3.451v-.873a2.731,2.731,0,0,1,4-2.578l10.563,6.076a3.031,3.031,0,0,1,0,5.152l-10.563,6.072a2.566,2.566,0,0,1-1.284.352A2.825,2.825,0,0,1,8045.476,18810.635Z"
                stroke="none" />
            <path
                d="M 8048.1953125 18811.560546875 C 8048.28857421875 18811.560546875 8048.3828125 18811.533203125 8048.48291015625 18811.474609375 L 8059.04150390625 18805.404296875 C 8059.4453125 18805.171875 8059.4765625 18804.69921875 8059.4765625 18804.560546875 C 8059.4765625 18804.421875 8059.4453125 18803.94921875 8059.04541015625 18803.71875 L 8048.48486328125 18797.642578125 C 8048.38671875 18797.587890625 8048.29296875 18797.560546875 8048.19921875 18797.560546875 C 8047.89599609375 18797.560546875 8047.4755859375 18797.880859375 8047.4755859375 18798.486328125 L 8047.4755859375 18802.818359375 L 8038.48291015625 18797.642578125 C 8038.3857421875 18797.5859375 8038.29345703125 18797.560546875 8038.20068359375 18797.560546875 C 8037.896484375 18797.560546875 8037.47509765625 18797.880859375 8037.47509765625 18798.486328125 L 8037.47509765625 18810.634765625 C 8037.47509765625 18810.99609375 8037.61865234375 18811.21875 8037.73876953125 18811.34375 C 8037.8720703125 18811.48046875 8038.0390625 18811.560546875 8038.1962890625 18811.560546875 C 8038.28955078125 18811.560546875 8038.38232421875 18811.533203125 8038.482421875 18811.474609375 L 8047.4755859375 18806.3046875 L 8047.4755859375 18810.634765625 C 8047.4755859375 18811.23828125 8047.8935546875 18811.560546875 8048.1953125 18811.560546875 M 8048.1953125 18813.560546875 C 8046.77197265625 18813.560546875 8045.4755859375 18812.3359375 8045.4755859375 18810.634765625 L 8045.4755859375 18809.76171875 L 8039.47900390625 18813.208984375 C 8037.67041015625 18814.251953125 8035.47509765625 18812.845703125 8035.47509765625 18810.634765625 L 8035.47509765625 18798.486328125 C 8035.47509765625 18796.27734375 8037.6689453125 18794.87109375 8039.47900390625 18795.908203125 L 8045.4755859375 18799.359375 L 8045.4755859375 18798.486328125 C 8045.47509765625 18796.275390625 8047.6669921875 18794.87109375 8049.4794921875 18795.908203125 L 8060.04248046875 18801.984375 C 8061.95458984375 18803.08984375 8061.95458984375 18806.03125 8060.04248046875 18807.13671875 L 8049.4794921875 18813.208984375 C 8049.06103515625 18813.44921875 8048.62255859375 18813.560546875 8048.1953125 18813.560546875 Z"
                stroke="none" fill="#000" />
        </g>
        <g transform="translate(19.476 4.561) rotate(90)" fill="none">
            <path
                d="M6.425,1.436a3.027,3.027,0,0,1,5.149,0L17.65,12a2.729,2.729,0,0,1-2.575,4H2.925A2.729,2.729,0,0,1,.35,12Z"
                stroke="none" />
            <path
                d="M 9 2 C 8.861100196838379 2 8.38992977142334 2.031220436096191 8.158860206604004 2.432880401611328 L 2.083840370178223 12.99286079406738 C 2.042869567871094 13.06408023834229 1.918180465698242 13.28083038330078 2.083339691162109 13.56638050079346 C 2.142180442810059 13.66810989379883 2.376749992370605 14 2.924980163574219 14 L 15.07503032684326 14 C 15.62325000762939 14 15.85782051086426 13.66810989379883 15.91666030883789 13.56639003753662 C 16.08181953430176 13.28083038330078 15.95713043212891 13.06408023834229 15.91616058349609 12.99287033081055 L 9.841150283813477 2.432889938354492 C 9.61007022857666 2.031220436096191 9.138899803161621 2 9 2 M 9 0 C 10.01208305358887 0 11.02416515350342 0.478520393371582 11.57473945617676 1.43556022644043 L 17.64975929260254 11.99555015563965 C 18.69215965270996 13.80753040313721 17.282470703125 16 15.07503032684326 16 L 2.924980163574219 16 C 0.717529296875 16 -0.6921596527099609 13.80753040313721 0.3502407073974609 11.99555015563965 L 6.425259590148926 1.43556022644043 C 6.975834846496582 0.478520393371582 7.987917900085449 0 9 0 Z"
                stroke="none" fill="#000" />
        </g>
    </g>
</svg>