<svg xmlns="http://www.w3.org/2000/svg" viewBox="0 0 32 32">
    <g transform="translate(5.334 4)">
        <g transform="translate(-2.334 4)">
            <g transform="translate(-131.314 -8)" fill="none" stroke-linejoin="round">
                <path
                    d="M149.314,11.172V26.333A2.431,2.431,0,0,1,146.743,29H133.886a2.431,2.431,0,0,1-2.571-2.667V7.667A2.431,2.431,0,0,1,133.886,5h9.2Z"
                    stroke="none" />
                <path
                    d="M 133.8858795166016 7 C 133.6359558105469 7 133.4942474365234 7.05426025390625 133.4449462890625 7.105030059814453 C 133.3847503662109 7.16703987121582 133.314453125 7.351339340209961 133.314453125 7.666669845581055 L 133.314453125 26.33333015441895 C 133.314453125 26.64866065979004 133.3847503662109 26.83296012878418 133.4449462890625 26.89496994018555 C 133.4942474365234 26.94573974609375 133.6359558105469 27 133.8858795166016 27 L 146.7430419921875 27 C 146.9929504394531 27 147.1346740722656 26.94575119018555 147.1839599609375 26.89496994018555 C 147.2441558837891 26.83296012878418 147.314453125 26.6486701965332 147.314453125 26.33333015441895 L 147.314453125 12.00579643249512 L 142.2656860351562 7 L 133.8858795166016 7 M 133.8858795166016 5 L 143.089111328125 5 L 149.314453125 11.17235946655273 L 149.314453125 26.33333015441895 C 149.314453125 27.99041938781738 148.3169860839844 29 146.7430419921875 29 L 133.8858795166016 29 C 132.3119354248047 29 131.314453125 27.99041938781738 131.314453125 26.33333015441895 L 131.314453125 7.666669845581055 C 131.314453125 6.009580612182617 132.3119354248047 5 133.8858795166016 5 Z"
                    stroke="none" fill="#000" />
            </g>
            <path d="M146.478,9.917h-4v-4Z" transform="translate(-130.478 -6.915)" stroke="#000" stroke-linejoin="round"
                stroke-width="2" />
        </g>
        <g transform="translate(17.666 -1)">
            <line y2="8" transform="translate(3)" fill="none" stroke="#000" stroke-linecap="round" stroke-width="2" />
            <line x1="6" y2="4" transform="translate(0 2)" fill="none" stroke="#000" stroke-linecap="round"
                stroke-width="2" />
            <line x1="6" y1="4" transform="translate(0 2)" fill="none" stroke="#000" stroke-linecap="round"
                stroke-width="2" />
        </g>
    </g>
</svg>