<svg xmlns="http://www.w3.org/2000/svg" width="32" height="32" viewBox="0 0 32 32"><rect width="32" height="32" fill="#fff" opacity="0"/><g transform="translate(6.667 4)"><g transform="translate(-0.668 -0.857)"><g transform="translate(-131.314 -5.143)" fill="none" stroke-linejoin="round"><path d="M151.315,12V28a2.864,2.864,0,0,1-3,3h-14a2.864,2.864,0,0,1-3-3V8a2.864,2.864,0,0,1,3-3h10Z" stroke="none"/><path d="M 134.3154296875 7 C 133.6518859863281 7 133.3154296875 7.336450576782227 133.3154296875 8 L 133.3154296875 28 C 133.3154296875 28.66354942321777 133.6518859863281 29 134.3154296875 29 L 148.3154296875 29 C 148.9789733886719 29 149.3154296875 28.66354942321777 149.3154296875 28 L 149.3154296875 12.82842063903809 L 143.4870147705078 7 L 134.3154296875 7 M 134.3154296875 5 L 144.3154296875 5 L 151.3154296875 12 L 151.3154296875 28 C 151.3154296875 29.79517936706543 150.0643463134766 31 148.3154296875 31 L 134.3154296875 31 C 132.5665130615234 31 131.3154296875 29.79517936706543 131.3154296875 28 L 131.3154296875 8 C 131.3154296875 6.20482063293457 132.5665130615234 5 134.3154296875 5 Z" stroke="none" fill="#000"/></g><path d="M148.477,11.915h-6v-6Z" transform="translate(-129.477 -5.058)" stroke="#000" stroke-linejoin="round" stroke-width="2"/></g><path d="M1,0H7" transform="translate(5.333 14)" fill="none" stroke="#000" stroke-linecap="round" stroke-width="2"/></g></svg>