<svg xmlns="http://www.w3.org/2000/svg" viewBox="0 0 32 32">
    <g transform="translate(6.371 3)">
        <g transform="translate(674.381 -65.96)" stroke-linejoin="round">
            <path
                d="M -662.2048950195312 90.95999145507812 C -662.3107299804688 90.95999145507812 -662.4077758789062 90.92786407470703 -662.49365234375 90.86445617675781 L -667.0604858398438 87.06781768798828 L -667.0735473632812 87.05696105957031 L -667.0869750976562 87.04653930664062 C -667.5095825195312 86.71884155273438 -667.751953125 86.24175262451172 -667.751953125 85.73760223388672 L -667.751953125 78.85758972167969 C -667.751953125 78.50293731689453 -667.8397827148438 77.69725799560547 -668.1716918945312 77.18000030517578 L -673.5753784179688 68.69412994384766 C -673.87353515625 68.22946929931641 -673.7302856445312 67.81752014160156 -673.6185302734375 67.61305236816406 C -673.3965454101562 67.20680999755859 -672.964111328125 66.96427154541016 -672.4618530273438 66.96427154541016 L -657.0423583984375 66.95999145507812 C -656.5393676757812 66.95999145507812 -656.1063842773438 67.20339965820312 -655.8843994140625 67.61110687255859 C -655.77294921875 67.81582641601562 -655.63037109375 68.22804260253906 -655.927978515625 68.68857574462891 L -655.9334106445312 68.697021484375 L -655.9386596679688 68.70556640625 L -661.3329467773438 77.43450927734375 C -661.6071166992188 77.86263275146484 -661.751953125 78.35444641113281 -661.751953125 78.85758972167969 L -661.751953125 90.59654998779297 C -661.751953125 90.844482421875 -662.022216796875 90.95999145507812 -662.2048950195312 90.95999145507812 Z"
                stroke="none" />
            <path
                d="M -657.0425415039062 67.95997619628906 L -657.0421142578125 67.95997619628906 L -672.4618530273438 67.96427154541016 C -672.710205078125 67.96427154541016 -672.7515258789062 68.11821746826172 -672.7523803710938 68.11821746826172 C -672.7523803710938 68.11821746826172 -672.7523803710938 68.11820983886719 -672.7523803710938 68.11820220947266 C -672.7517700195312 68.12110900878906 -672.7474365234375 68.13270568847656 -672.735595703125 68.15122222900391 C -672.7343139648438 68.15315246582031 -672.7330932617188 68.15506744384766 -672.7318725585938 68.15699768066406 L -667.329833984375 76.64030456542969 C -666.7681884765625 77.51592254638672 -666.751953125 78.72252655029297 -666.751953125 78.85758972167969 L -666.751953125 85.73760223388672 C -666.751953125 85.93035888671875 -666.6506958007812 86.11941528320312 -666.4741821289062 86.25630187988281 C -666.456298828125 86.27017974853516 -666.4385986328125 86.28437042236328 -666.4212036132812 86.29885101318359 L -662.751953125 89.34928894042969 L -662.751953125 78.85758972167969 C -662.751953125 78.1658935546875 -662.5542602539062 77.49059295654297 -662.1799926757812 76.90298461914062 L -656.7893676757812 68.17987060546875 C -656.7822875976562 68.16847229003906 -656.775146484375 68.15715026855469 -656.7678833007812 68.14588928222656 C -656.7561645507812 68.12775421142578 -656.7517700195312 68.11681365966797 -656.751708984375 68.11818695068359 C -656.7517700195312 68.11660766601562 -656.7930297851562 67.96001434326172 -657.0425415039062 67.95997619628906 M -657.0426635742188 65.95997619628906 C -655.2591552734375 65.95997619628906 -654.161376953125 67.79706573486328 -655.0880126953125 69.23126220703125 L -660.4871215820312 77.96805572509766 C -660.66064453125 78.23664855957031 -660.751953125 78.54389190673828 -660.751953125 78.85758972167969 L -660.751953125 90.59654998779297 C -660.751953125 91.74710845947266 -662.1736450195312 92.37779235839844 -663.1163330078125 91.64723968505859 L -667.6997680664062 87.8367919921875 C -668.3661499023438 87.32004547119141 -668.751953125 86.54975128173828 -668.751953125 85.73760223388672 L -668.751953125 78.85758972167969 C -668.751953125 78.54495239257812 -668.8421020507812 77.98490905761719 -669.0143432617188 77.71846771240234 L -674.4188842773438 69.23126220703125 C -675.3397827148438 67.79598236083984 -674.2432250976562 65.96427154541016 -672.4618530273438 65.96427154541016 L -657.0426635742188 65.95997619628906 Z"
                stroke="none" fill="#000" />
        </g>
    </g>
</svg>