<svg xmlns="http://www.w3.org/2000/svg" width="32" height="32" viewBox="0 0 32 32"><rect width="32" height="32" fill="#fff" opacity="0"/><g transform="translate(2 5.444)"><g transform="translate(1 1.557)" fill="none" stroke="#000" stroke-width="2"><rect width="12" height="12" rx="6" stroke="none"/><rect x="1" y="1" width="10" height="10" rx="5" fill="none"/></g><path d="M0,0A6,6,0,0,1,6,6a6,6,0,0,1-6,6" transform="translate(1 20.555) rotate(-90)" fill="none" stroke="#000" stroke-linejoin="round" stroke-width="2"/><path d="M0,0A5,5,0,0,1,5,5a5,5,0,0,1-5,5" transform="translate(17 20.555) rotate(-90)" fill="none" stroke="#000" stroke-linejoin="round" stroke-width="2"/><g transform="translate(17 4.557)" fill="none" stroke="#000" stroke-width="2"><rect width="10" height="10" rx="5" stroke="none"/><rect x="1" y="1" width="8" height="8" rx="4" fill="none"/></g></g></svg>