<svg xmlns="http://www.w3.org/2000/svg" width="32" height="32" viewBox="0 0 32 32"><rect width="32" height="32" fill="#fff" opacity="0"/><g transform="translate(2 4)"><g transform="translate(554 -67.531)" fill="none" stroke-miterlimit="10"><path d="M-533.816,67.531a7.837,7.837,0,0,0-5.527,2.249l-.658.646-.658-.646a7.836,7.836,0,0,0-5.526-2.249,7.836,7.836,0,0,0-5.527,2.249A7.563,7.563,0,0,0-554,75.21a7.561,7.561,0,0,0,2.289,5.43L-541.066,91.1a1.518,1.518,0,0,0,1.066.434,1.523,1.523,0,0,0,1.068-.434l10.644-10.457A7.563,7.563,0,0,0-526,75.21a7.561,7.561,0,0,0-2.289-5.43A7.837,7.837,0,0,0-533.816,67.531Z" stroke="none"/><path d="M -546.1844482421875 69.53099822998047 C -547.7447509765625 69.53099822998047 -549.2096557617188 70.12604522705078 -550.309326171875 71.20661163330078 C -551.3995971679688 72.27774047851562 -552 73.69938659667969 -552 75.20967102050781 C -552 76.71994781494141 -551.3995971679688 78.14160919189453 -550.3093872070312 79.21269989013672 L -539.9994506835938 89.34107971191406 L -529.690673828125 79.21282958984375 C -528.6004028320312 78.14157867431641 -528 76.71990203857422 -528 75.20967102050781 C -528 73.69944000244141 -528.6004028320312 72.27777099609375 -529.6905517578125 71.20663452148438 C -530.7904663085938 70.12609100341797 -532.25537109375 69.53099822998047 -533.8155517578125 69.53099822998047 C -535.375732421875 69.53099822998047 -536.8406982421875 70.12606811523438 -537.9403076171875 71.20649719238281 L -539.999755859375 73.23012542724609 L -542.0598754882812 71.20652770996094 C -543.1594848632812 70.12604522705078 -544.6243286132812 69.53099822998047 -546.1844482421875 69.53099822998047 M -546.1844482421875 67.53099822998047 C -544.0973510742188 67.53099822998047 -542.1338500976562 68.32992553710938 -540.6581420898438 69.77994537353516 L -540 70.42641448974609 L -539.3421020507812 69.77994537353516 C -537.8662719726562 68.32992553710938 -535.9026489257812 67.53099822998047 -533.8155517578125 67.53099822998047 C -531.728271484375 67.53099822998047 -529.764892578125 68.32992553710938 -528.2889404296875 69.77994537353516 C -526.813232421875 71.22991943359375 -526 73.15789794921875 -526 75.20967102050781 C -526 77.26028442382812 -526.813232421875 79.18941497802734 -528.2889404296875 80.63941955566406 L -538.9324951171875 91.0965576171875 C -539.2159423828125 91.37510681152344 -539.599853515625 91.53099822998047 -540 91.53099822998047 C -540.4002075195312 91.53099822998047 -540.7840576171875 91.37510681152344 -541.06640625 91.0965576171875 L -551.7109985351562 80.63941955566406 C -553.1868286132812 79.18941497802734 -554 77.26142120361328 -554 75.20967102050781 C -554 73.1590576171875 -553.1868286132812 71.22991943359375 -551.7109985351562 69.77994537353516 C -550.2352905273438 68.32992553710938 -548.2716674804688 67.53099822998047 -546.1844482421875 67.53099822998047 Z" stroke="none" fill="#000"/></g></g></svg>