<svg xmlns="http://www.w3.org/2000/svg" viewBox="0 0 32 32">
    <g transform="translate(2 4)">
        <g transform="translate(554 -67.531)" stroke-miterlimit="10">
            <path
                d="M -540 90.531005859375 C -540.1371459960938 90.531005859375 -540.2698364257812 90.47766876220703 -540.3641357421875 90.38467407226562 L -551.0101928710938 79.92605590820312 C -552.2933349609375 78.66538238525391 -553 76.99039459228516 -553 75.20967864990234 C -553 73.42894744873047 -552.2933349609375 71.75396728515625 -551.0101928710938 70.4932861328125 C -549.7223510742188 69.22787475585938 -548.008544921875 68.531005859375 -546.1844482421875 68.531005859375 C -544.3604736328125 68.531005859375 -542.6467895507812 69.22787475585938 -541.3590087890625 70.49324798583984 L -540.7007446289062 71.13982391357422 L -539.9998779296875 71.82826232910156 L -539.2991333007812 71.13969421386719 L -538.6412353515625 70.49323272705078 C -537.3533325195312 69.22788238525391 -535.6395263671875 68.531005859375 -533.8155517578125 68.531005859375 C -531.9916381835938 68.531005859375 -530.2777709960938 69.22789764404297 -528.98974609375 70.49329376220703 C -527.7066650390625 71.75401306152344 -527 73.42900848388672 -527 75.20967864990234 C -527 76.99033355712891 -527.7066650390625 78.66533660888672 -528.9898071289062 79.92612457275391 L -539.63330078125 90.38322448730469 C -539.7289428710938 90.4771728515625 -539.862548828125 90.531005859375 -540 90.531005859375 Z"
                stroke="none" />
            <path
                d="M -546.1844482421875 69.531005859375 C -547.7447509765625 69.531005859375 -549.2096557617188 70.12605285644531 -550.309326171875 71.20661926269531 C -551.3995971679688 72.27774810791016 -552 73.69939422607422 -552 75.20967864990234 C -552 76.71994781494141 -551.3995971679688 78.14160919189453 -550.3093872070312 79.21269226074219 L -539.9994506835938 89.34107971191406 L -529.690673828125 79.21282958984375 C -528.6004028320312 78.14157867431641 -528 76.71989440917969 -528 75.20967864990234 C -528 73.69944763183594 -528.6004028320312 72.27777862548828 -529.6905517578125 71.20664215087891 C -530.7904663085938 70.1260986328125 -532.25537109375 69.531005859375 -533.8155517578125 69.531005859375 C -535.3757934570312 69.531005859375 -536.8406982421875 70.12607574462891 -537.9403686523438 71.20651245117188 L -539.999755859375 73.2301025390625 L -542.0598754882812 71.20652770996094 C -543.1594848632812 70.12605285644531 -544.6243286132812 69.531005859375 -546.1844482421875 69.531005859375 M -546.1844482421875 67.531005859375 C -544.0973510742188 67.531005859375 -542.1338500976562 68.32992553710938 -540.6581420898438 69.77995300292969 L -540 70.42641448974609 L -539.3421020507812 69.77995300292969 C -537.8662719726562 68.32992553710938 -535.9026489257812 67.531005859375 -533.8155517578125 67.531005859375 C -531.728271484375 67.531005859375 -529.764892578125 68.32992553710938 -528.2889404296875 69.77995300292969 C -526.813232421875 71.22992706298828 -526 73.15789794921875 -526 75.20967864990234 C -526 77.26029205322266 -526.813232421875 79.18941497802734 -528.2889404296875 80.63941955566406 L -538.9324951171875 91.0965576171875 C -539.2159423828125 91.37510681152344 -539.599853515625 91.531005859375 -540 91.531005859375 C -540.4002075195312 91.531005859375 -540.7840576171875 91.37510681152344 -541.06640625 91.0965576171875 L -551.7109985351562 80.63941955566406 C -553.1868286132812 79.18941497802734 -554 77.26142883300781 -554 75.20967864990234 C -554 73.1590576171875 -553.1868286132812 71.22992706298828 -551.7109985351562 69.77995300292969 C -550.2352905273438 68.32992553710938 -548.2716674804688 67.531005859375 -546.1844482421875 67.531005859375 Z"
                stroke="none" fill="#000" />
        </g>
    </g>
</svg>