<svg xmlns="http://www.w3.org/2000/svg" viewBox="0 0 32 32">
    <g transform="translate(2.333 2.753)">
        <g transform="translate(-0.333 0.247)" fill="rgba(0,0,0,0)" stroke-miterlimit="10">
            <path
                d="M 12.00049591064453 24.99928092956543 L 8.000125885009766 24.99920082092285 C 7.285126209259033 24.99825096130371 6.532956123352051 24.65635108947754 5.937786102294922 24.06119155883789 C 5.342746257781982 23.46615028381348 5.001126289367676 22.71442031860352 5.000506401062012 21.99874114990234 L 5.000506401062012 13.12650108337402 L 5.000506401062012 12.12650108337402 L 4.000506401062012 12.12650108337402 L 1.692896366119385 12.12650108337402 C 1.489395380020142 12.12586784362793 1.333836078643799 12.10609340667725 1.206862330436707 12.06429004669189 C 1.076960206031799 12.01883125305176 1.047551035881042 11.9750804901123 1.033336281776428 11.95394134521484 C 1.026206374168396 11.94211101531982 1.018476366996765 11.91622066497803 1.017916321754456 11.90355110168457 L 1.017956376075745 11.90009117126465 L 1.017986297607422 11.8985013961792 C 1.018145442008972 11.87161445617676 1.018571615219116 11.80046558380127 1.104555606842041 11.66526317596436 C 1.181066989898682 11.5475902557373 1.287948250770569 11.43204784393311 1.440686345100403 11.30186080932617 L 1.445816278457642 11.2974910736084 L 1.450886368751526 11.29305076599121 L 12.67558097839355 1.461541175842285 C 13.0303430557251 1.164495348930359 13.50092697143555 1.000647187232971 14.00169658660889 1.000000953674316 C 14.50133609771729 1.000648975372314 14.97334098815918 1.165639638900757 15.32876205444336 1.464666366577148 L 26.56596565246582 11.1698112487793 L 26.56844711303711 11.17196083068848 L 26.57094573974609 11.17409133911133 C 26.71883201599121 11.30013179779053 26.82921600341797 11.41964912414551 26.90824317932129 11.53934955596924 C 26.98307228088379 11.65753364562988 26.99323081970215 11.72660350799561 26.9936466217041 11.77368068695068 C 26.99377632141113 11.78885078430176 26.98535537719727 11.81601142883301 26.9786262512207 11.8265209197998 C 26.96637535095215 11.84482860565186 26.94707679748535 11.86847877502441 26.90006446838379 11.89411163330078 C 26.79821968078613 11.94753932952881 26.65578651428223 11.99692344665527 26.31521987915039 11.99959564208984 L 23.99426651000977 11.99690055847168 L 22.99230575561523 11.99574089050293 L 22.99310684204102 12.99770069122314 L 23.00030708312988 22.00040054321289 C 22.99968719482422 22.71437072753906 22.65798568725586 23.4660816192627 22.06282615661621 24.06111145019531 C 21.46747589111328 24.65632057189941 20.71504592895508 24.99825096130371 19.99847602844238 24.99920082092285 L 16.00120544433594 24.99920082092285 L 16.00119590759277 18.99990081787109 L 16.00119590759277 18.00035095214844 L 15.00164604187012 17.99990081787109 L 13.00094604492188 17.99900054931641 L 12.00049591064453 17.99855041503906 L 12.00049591064453 18.99900054931641 L 12.00049591064453 24.99928092956543 Z"
                stroke="none" />
            <path
                d="M 11.00049591064453 23.9992618560791 L 11.00049591064453 16.99810028076172 L 17.00119590759277 17.00080108642578 L 17.0012035369873 23.99920082092285 L 19.99713706970215 23.99920082092285 C 20.95109558105469 23.9979305267334 21.99948692321777 22.95051002502441 22.00030708312988 22.00120162963867 L 21.99150657653809 10.9945707321167 L 24.83696937561035 10.997878074646 L 14.68089008331299 2.226459264755249 C 14.5059871673584 2.081173181533813 14.26477146148682 2.000854253768921 14.00040626525879 2.000007390975952 C 13.73806762695312 2.00084662437439 13.49869155883789 2.079753160476685 13.32441520690918 2.22258996963501 L 3.15876579284668 11.12650108337402 L 6.000506401062012 11.12650108337402 L 6.000506401062012 21.99788093566895 C 6.001326560974121 22.95051002502441 7.049246311187744 23.9979305267334 8.00014591217041 23.99920082092285 L 11.00049591064453 23.9992618560791 M 13.00049591064453 25.99930000305176 L 8.000105857849121 25.99920082092285 C 5.946006298065186 25.99646186828613 4.002276420593262 24.05273056030273 4.000506401062012 21.99960136413574 L 4.000506401062012 13.12650108337402 L 1.692896366119385 13.12650108337402 C 1.374146342277527 13.12552070617676 1.117626309394836 13.08891105651855 0.8856063485145569 13.01130104064941 C 0.5822763442993164 12.90686130523682 0.3591363131999969 12.74348068237305 0.2034063190221786 12.51180076599121 C 0.08459632843732834 12.33624076843262 0.01528632547706366 12.10476112365723 0.01800632476806641 11.89260101318359 C 0.01954632624983788 11.63139057159424 0.09991632401943207 11.37998104095459 0.2636963129043579 11.12400054931641 C 0.3945363163948059 10.9218111038208 0.5624163150787354 10.73649120330811 0.7920063138008118 10.54080104827881 L 12.02399635314941 0.7029009461402893 C 12.55934619903564 0.2505709528923035 13.2612361907959 0.0009509552037343383 14.00040626525879 9.552002211421495e-07 C 14.73976612091064 0.0009509552037343383 15.44198608398438 0.2509009540081024 15.97769641876221 0.7038009762763977 L 27.21959686279297 10.41300106048584 C 27.44290542602539 10.60332107543945 27.6157169342041 10.79409122467041 27.74790573120117 10.99620056152344 C 27.9109058380127 11.25095081329346 27.99127578735352 11.50236129760742 27.99360656738281 11.76480102539062 C 27.99544715881348 11.98117065429688 27.92787551879883 12.20719051361084 27.80820655822754 12.38490104675293 C 27.69982719421387 12.54707050323486 27.55265617370605 12.67879104614258 27.37080574035645 12.77640056610107 C 27.08105659484863 12.9297513961792 26.76640701293945 12.99650096893311 26.31870651245117 12.99960136413574 L 23.99310684204102 12.99690055847168 L 24.00030708312988 21.99960136413574 C 23.99853706359863 24.05273056030273 22.05436706542969 25.99646186828613 19.99980545043945 25.99920082092285 L 15.00120639801025 25.99920082092285 L 15.00119590759277 18.99990081787109 L 13.00049591064453 18.99900054931641 L 13.00049591064453 25.99930000305176 Z"
                stroke="none" fill="#000" />
        </g>
    </g>
</svg>