<svg xmlns="http://www.w3.org/2000/svg" viewBox="0 0 32 32">
    <g transform="translate(7.999 3.999)">
        <path
            d="M200.433,257.189c0-.572,1.967-1.785,3-2.889a10.728,10.728,0,0,0,3-7.222v-2.889h-18v2.889a10.723,10.723,0,0,0,3,7.222c1.033,1.1,3,2.317,3,2.889s-1.967,1.785-3,2.889a10.724,10.724,0,0,0-3,7.222v2.889h18V267.3a10.734,10.734,0,0,0-3-7.222C202.4,258.973,200.433,257.763,200.433,257.189Z"
            transform="translate(-189.433 -245.189)" fill="none" stroke="#000" stroke-linejoin="round"
            stroke-miterlimit="10" stroke-width="2" />
        <line x1="16" transform="translate(0.001 6)" fill="none" stroke="#000" stroke-miterlimit="10"
            stroke-width="2" />
        <path d="M6,0C7.657,0,9,2.686,9,6s-1.343,6-3,6" transform="translate(2.001 30) rotate(-90)" stroke="#000"
            stroke-width="2" />
    </g>
</svg>