<svg xmlns="http://www.w3.org/2000/svg" viewBox="0 0 32 32">
    <g transform="translate(4 3.244)">
        <path
            d="M3.405,23.667,5.17,17.119a.282.282,0,0,1,.507-.081A3.125,3.125,0,1,0,6.9,12.508a.28.28,0,0,1-.4-.322l1.765-6.55,6.59,1.756a.281.281,0,0,0,.324-.4,3.084,3.084,0,0,1-.216-2.184,3.135,3.135,0,0,1,6.084,1.51,3.1,3.1,0,0,1-1.311,1.888.279.279,0,0,0,.082.5l6.588,1.756L21.545,28.5Z"
            transform="translate(-3.405 -2.744)" fill="none" stroke="#000" stroke-linejoin="round" stroke-width="2" />
    </g>
</svg>