<svg xmlns="http://www.w3.org/2000/svg" width="32" height="32" viewBox="0 0 32 32"><rect width="32" height="32" fill="#fff" opacity="0"/><g transform="translate(6.667 2.667)"><g transform="translate(178.333 -66.166)" fill="none" stroke-miterlimit="10"><path d="M-160,74.988a8.232,8.232,0,0,0-2.653-6.018A9.255,9.255,0,0,0-169,66.5a9.256,9.256,0,0,0-6.347,2.47A8.232,8.232,0,0,0-178,74.988a13.682,13.682,0,0,0,1.321,5.817,21.257,21.257,0,0,0,2.994,4.584v2.9a4,4,0,0,0,1.407,3.007A4.96,4.96,0,0,0-169,92.5a4.96,4.96,0,0,0,3.278-1.2,4,4,0,0,0,1.407-3.007V85.411a21.054,21.054,0,0,0,3-4.6A13.746,13.746,0,0,0-160,74.988Z" stroke="none"/><path d="M -168.9999694824219 68.49997711181641 C -170.8851928710938 68.49997711181641 -172.6533660888672 69.18486785888672 -173.9798126220703 70.42948150634766 C -175.2834014892578 71.65084838867188 -176.0008392333984 73.26956939697266 -175.9999847412109 74.98954772949219 C -176.0009307861328 76.68714904785156 -175.6295776367188 78.31449127197266 -174.8650360107422 79.96385192871094 C -174.2469940185547 81.29582214355469 -173.3577728271484 82.65280914306641 -172.1465454101562 84.11238098144531 L -171.6856231689453 84.66780853271484 L -171.6856231689453 88.29554748535156 C -171.6863250732422 89.04930114746094 -171.2327423095703 89.55825042724609 -170.9588928222656 89.79753112792969 C -170.4427947998047 90.25052642822266 -169.7471008300781 90.50000762939453 -168.9999694824219 90.50000762939453 C -168.2528533935547 90.50000762939453 -167.5571746826172 90.25052642822266 -167.0376586914062 89.79454040527344 C -166.7672119140625 89.55824279785156 -166.3136138916016 89.04929351806641 -166.3143463134766 88.29367065429688 L -166.3143463134766 84.68759155273438 L -165.8515167236328 84.13153839111328 C -164.6382141113281 82.67391967773438 -163.7478332519531 81.31491088867188 -163.1298370361328 79.97756195068359 C -162.3686065673828 78.32862854003906 -161.9990234375 76.69703674316406 -161.9999542236328 74.98745727539062 C -161.9991149902344 73.26956939697266 -162.716552734375 71.65084838867188 -164.0212249755859 70.428466796875 C -165.3465881347656 69.18486785888672 -167.11474609375 68.49997711181641 -168.9999694824219 68.49997711181641 M -168.9999694824219 66.49997711181641 C -166.5305786132812 66.49997711181641 -164.2839508056641 67.43937683105469 -162.6527099609375 68.96999359130859 C -161.0214691162109 70.49835205078125 -159.9987945556641 72.63262176513672 -159.9999542236328 74.98844146728516 C -159.9987945556641 77.11251831054688 -160.4983062744141 79.0489501953125 -161.3139801025391 80.81582641601562 C -162.0834655761719 82.48098754882812 -163.1353302001953 83.99461364746094 -164.3143463134766 85.41104888916016 L -164.3143463134766 88.29367065429688 C -164.3132019042969 89.48403930664062 -164.8678283691406 90.55455780029297 -165.7217254638672 91.30063629150391 C -166.5756072998047 92.05011749267578 -167.7343444824219 92.50000762939453 -168.9999694824219 92.50000762939453 C -170.2655944824219 92.50000762939453 -171.4243469238281 92.05011749267578 -172.2782287597656 91.30063629150391 C -173.1321411132812 90.55455780029297 -173.6867370605469 89.48403930664062 -173.6856231689453 88.29367065429688 L -173.6856231689453 85.38957977294922 C -174.860107421875 83.97428131103516 -175.9097595214844 82.46401214599609 -176.6792449951172 80.80565643310547 C -177.4982452392578 79.03880310058594 -178.0011596679688 77.10459899902344 -177.9999847412109 74.98844146728516 C -178.0011596679688 72.63262176513672 -176.9784851074219 70.49835205078125 -175.3472442626953 68.96999359130859 C -173.7159881591797 67.43937683105469 -171.4693756103516 66.49997711181641 -168.9999694824219 66.49997711181641 Z" stroke="none" fill="#000"/></g><line x2="8" transform="translate(5.333 19.334)" fill="none" stroke="#000" stroke-miterlimit="10" stroke-width="2"/><line x1="3" y2="4" transform="translate(9.333 10.334)" fill="none" stroke="#000" stroke-linecap="round" stroke-linejoin="round" stroke-width="2"/><path d="M-172.261,76.4l3,4v4" transform="translate(178.594 -66.063)" fill="none" stroke="#000" stroke-linecap="round" stroke-linejoin="round" stroke-width="2"/></g></svg>