<svg xmlns="http://www.w3.org/2000/svg" width="32" height="32" viewBox="0 0 32 32"><rect width="32" height="32" fill="#fff" opacity="0"/><g transform="translate(6.667 2.666)"><path d="M7564.333,18705.334a4.968,4.968,0,0,1-3.277-1.2,3.99,3.99,0,0,1-1.406-2.875l2-2v1.863a2.006,2.006,0,0,0,.728,1.5,3.084,3.084,0,0,0,3.92,0,2.032,2.032,0,0,0,.723-1.5v-3.605l.465-.559a18.957,18.957,0,0,0,2.718-4.15,12.184,12.184,0,0,0,.97-3.072l2.158-2.158,0,.1c0,.049,0,.1,0,.145a13.8,13.8,0,0,1-1.314,5.826,21.077,21.077,0,0,1-3,4.6v2.883a4.02,4.02,0,0,1-1.409,3.01A4.968,4.968,0,0,1,7564.333,18705.334Zm-6.948-10.3v0c-.272-.465-.518-.936-.732-1.4a13.785,13.785,0,0,1-1.319-5.816,8.21,8.21,0,0,1,2.653-6.02,9.4,9.4,0,0,1,12.664-.029l-1.416,1.416a7.4,7.4,0,0,0-9.882.074,6.219,6.219,0,0,0-2.019,4.559,11.622,11.622,0,0,0,1.136,4.977c.122.262.251.521.386.77l-1.469,1.467Z" transform="translate(-7555 -18679)"/><path d="M7568.333,18699.334h-6.756l2-2h4.756v2Z" transform="translate(-7555 -18679)"/><line y1="24" x2="24" transform="translate(-2.667 1.334)" fill="none" stroke="#000" stroke-linecap="round" stroke-width="2"/></g></svg>