<svg xmlns="http://www.w3.org/2000/svg" width="32" height="32" viewBox="0 0 32 32"><rect width="32" height="32" fill="#fff" opacity="0"/><g transform="translate(4 4)"><path d="M-606.212,80.532a6.344,6.344,0,0,0,8.79,1.248,6.17,6.17,0,0,0,.68-.579l3.767-3.71a6.115,6.115,0,0,0-.154-8.743,6.351,6.351,0,0,0-8.725,0l-2.16,2.114" transform="translate(615.212 -67.011)" fill="none" stroke="#000" stroke-linecap="round" stroke-linejoin="round" stroke-width="2"/><path d="M-600,77.155a6.344,6.344,0,0,0-8.79-1.248,6.186,6.186,0,0,0-.68.579l-3.767,3.71a6.115,6.115,0,0,0,.155,8.743,6.351,6.351,0,0,0,8.725,0l2.148-2.114" transform="translate(615 -66.676)" fill="none" stroke="#000" stroke-linecap="round" stroke-linejoin="round" stroke-width="2"/></g></svg>