<svg xmlns="http://www.w3.org/2000/svg" viewBox="0 0 32 32">
    <g transform="translate(4 4)">
        <path
            d="M68.888,22.487a2.717,2.717,0,0,1-2.889-3v-12a2.717,2.717,0,0,1,2.889-3H89.111a2.717,2.717,0,0,1,2.889,3v12a2.717,2.717,0,0,1-2.889,3"
            transform="translate(-67 -5.486)" fill="none" stroke="#000" stroke-linecap="round" stroke-miterlimit="10"
            stroke-width="2" />
        <g transform="translate(0 2)">
            <path d="M0,0A3,3,0,0,1,3,3,3,3,0,0,1,0,6" transform="translate(9 24) rotate(-90)" fill="none" stroke="#000"
                stroke-width="2" />
            <g transform="translate(-13 -0.68)" stroke-miterlimit="10">
                <path
                    d="M 25.00000381469727 19.67900276184082 C 24.46724319458008 19.67900276184082 23.96476364135742 19.47050285339355 23.58513450622559 19.09192276000977 C 23.20850372314453 18.7142333984375 23.00000381469727 18.21175193786621 23.00000381469727 17.67900276184082 C 23.00000381469727 17.14527320861816 23.20850372314453 16.64226341247559 23.58708381652832 16.26263236999512 C 23.96379470825195 15.886962890625 24.46627426147461 15.67900276184082 25.00000381469727 15.67900276184082 C 25.53373336791992 15.67900276184082 26.03620338439941 15.886962890625 26.41485404968262 16.26457214355469 C 26.7918529510498 16.64157295227051 27.00000381469727 17.14423370361328 27.00000381469727 17.67900276184082 C 27.00000381469727 18.21279335021973 26.79184341430664 18.71493339538574 26.41388320922852 19.09290313720703 C 26.03523445129395 19.47051239013672 25.53276443481445 19.67900276184082 25.00000381469727 19.67900276184082 Z"
                    stroke="none" />
                <path
                    d="M 25.00000381469727 16.67900276184082 C 24.65928649902344 16.67900276184082 24.42787170410156 16.8371467590332 24.29323959350586 16.97069931030273 C 24.18279647827148 17.08208084106445 24.00000381469727 17.32065200805664 24.00000381469727 17.67900276184082 C 24.00000381469727 18.01902770996094 24.15946578979492 18.25118827819824 24.29384994506836 18.38641357421875 C 24.42925453186035 18.52052688598633 24.66101837158203 18.67900276184082 25.00000381469727 18.67900276184082 C 25.34115409851074 18.67900276184082 25.57370376586914 18.51850318908691 25.70676422119141 18.38580322265625 C 25.84054374694824 18.25202369689941 26.00000381469727 18.02081298828125 26.00000381469727 17.67900276184082 C 26.00000381469727 17.33595275878906 25.84054374694824 17.10448265075684 25.7087230682373 16.97265243530273 C 25.57439422607422 16.83869361877441 25.34239387512207 16.67900276184082 25.00000381469727 16.67900276184082 M 25.00000381469727 14.67900276184082 C 25.82950401306152 14.67900276184082 26.57650375366211 15.01350212097168 27.12099456787109 15.55650329589844 C 27.66549301147461 16.10100364685059 28.00000381469727 16.84950256347656 28.00000381469727 17.67900276184082 C 28.00000381469727 18.50850296020508 27.66549301147461 19.2554931640625 27.12099456787109 19.80000305175781 C 26.57650375366211 20.34300231933594 25.82950401306152 20.67900276184082 25.00000381469727 20.67900276184082 C 24.17050361633301 20.67900276184082 23.42350387573242 20.34300231933594 22.87900352478027 19.80000305175781 C 22.33600425720215 19.2554931640625 22.00000381469727 18.50850296020508 22.00000381469727 17.67900276184082 C 22.00000381469727 16.84950256347656 22.33600425720215 16.10100364685059 22.87900352478027 15.55650329589844 C 23.42350387573242 15.01350212097168 24.17050361633301 14.67900276184082 25.00000381469727 14.67900276184082 Z"
                    stroke="none" fill="#000" />
            </g>
        </g>
        <g transform="translate(-5 -11)">
            <path d="M0,0A3,3,0,0,1,3,3,3,3,0,0,1,0,6" transform="translate(9 24) rotate(-90)" fill="none" stroke="#000"
                stroke-width="2" />
            <g transform="translate(-13 -0.68)" fill="none" stroke-miterlimit="10">
                <path d="M22,17.679a3,3,0,1,1,.879,2.121A2.994,2.994,0,0,1,22,17.679Z" stroke="none" />
                <path
                    d="M 25.00000381469727 16.67900276184082 C 24.65928649902344 16.67900276184082 24.42787170410156 16.8371467590332 24.29323959350586 16.97069931030273 C 24.18279647827148 17.08208084106445 24.00000381469727 17.32065200805664 24.00000381469727 17.67900276184082 C 24.00000381469727 18.01902770996094 24.15946578979492 18.25118827819824 24.29384994506836 18.38641357421875 C 24.42925453186035 18.52052688598633 24.66101837158203 18.67900276184082 25.00000381469727 18.67900276184082 C 25.34115409851074 18.67900276184082 25.57370376586914 18.51850318908691 25.70676422119141 18.38580322265625 C 25.84054374694824 18.25202369689941 26.00000381469727 18.02081298828125 26.00000381469727 17.67900276184082 C 26.00000381469727 17.33595275878906 25.84054374694824 17.10448265075684 25.7087230682373 16.97265243530273 C 25.57439422607422 16.83869361877441 25.34239387512207 16.67900276184082 25.00000381469727 16.67900276184082 M 25.00000381469727 14.67900276184082 C 25.82950401306152 14.67900276184082 26.57650375366211 15.01350212097168 27.12099456787109 15.55650329589844 C 27.66549301147461 16.10100364685059 28.00000381469727 16.84950256347656 28.00000381469727 17.67900276184082 C 28.00000381469727 18.50850296020508 27.66549301147461 19.2554931640625 27.12099456787109 19.80000305175781 C 26.57650375366211 20.34300231933594 25.82950401306152 20.67900276184082 25.00000381469727 20.67900276184082 C 24.17050361633301 20.67900276184082 23.42350387573242 20.34300231933594 22.87900352478027 19.80000305175781 C 22.33600425720215 19.2554931640625 22.00000381469727 18.50850296020508 22.00000381469727 17.67900276184082 C 22.00000381469727 16.84950256347656 22.33600425720215 16.10100364685059 22.87900352478027 15.55650329589844 C 23.42350387573242 15.01350212097168 24.17050361633301 14.67900276184082 25.00000381469727 14.67900276184082 Z"
                    stroke="none" fill="#000" />
            </g>
        </g>
        <g transform="translate(5 -11)">
            <path d="M0,0A3,3,0,0,1,3,3,3,3,0,0,1,0,6" transform="translate(9 24) rotate(-90)" fill="none" stroke="#000"
                stroke-width="2" />
            <g transform="translate(-13 -0.68)" fill="none" stroke-miterlimit="10">
                <path d="M22,17.679a3,3,0,1,1,.879,2.121A2.994,2.994,0,0,1,22,17.679Z" stroke="none" />
                <path
                    d="M 25.00000381469727 16.67900276184082 C 24.65928649902344 16.67900276184082 24.42787170410156 16.8371467590332 24.29323959350586 16.97069931030273 C 24.18279647827148 17.08208084106445 24.00000381469727 17.32065200805664 24.00000381469727 17.67900276184082 C 24.00000381469727 18.01902770996094 24.15946578979492 18.25118827819824 24.29384994506836 18.38641357421875 C 24.42925453186035 18.52052688598633 24.66101837158203 18.67900276184082 25.00000381469727 18.67900276184082 C 25.34115409851074 18.67900276184082 25.57370376586914 18.51850318908691 25.70676422119141 18.38580322265625 C 25.84054374694824 18.25202369689941 26.00000381469727 18.02081298828125 26.00000381469727 17.67900276184082 C 26.00000381469727 17.33595275878906 25.84054374694824 17.10448265075684 25.7087230682373 16.97265243530273 C 25.57439422607422 16.83869361877441 25.34239387512207 16.67900276184082 25.00000381469727 16.67900276184082 M 25.00000381469727 14.67900276184082 C 25.82950401306152 14.67900276184082 26.57650375366211 15.01350212097168 27.12099456787109 15.55650329589844 C 27.66549301147461 16.10100364685059 28.00000381469727 16.84950256347656 28.00000381469727 17.67900276184082 C 28.00000381469727 18.50850296020508 27.66549301147461 19.2554931640625 27.12099456787109 19.80000305175781 C 26.57650375366211 20.34300231933594 25.82950401306152 20.67900276184082 25.00000381469727 20.67900276184082 C 24.17050361633301 20.67900276184082 23.42350387573242 20.34300231933594 22.87900352478027 19.80000305175781 C 22.33600425720215 19.2554931640625 22.00000381469727 18.50850296020508 22.00000381469727 17.67900276184082 C 22.00000381469727 16.84950256347656 22.33600425720215 16.10100364685059 22.87900352478027 15.55650329589844 C 23.42350387573242 15.01350212097168 24.17050361633301 14.67900276184082 25.00000381469727 14.67900276184082 Z"
                    stroke="none" fill="#000" />
            </g>
        </g>
    </g>
</svg>