<svg xmlns="http://www.w3.org/2000/svg" width="32" height="32" viewBox="0 0 32 32"><rect width="32" height="32" fill="#fff" opacity="0"/><g transform="translate(8.883 9)"><rect width="10" height="5.002" rx="0.5" transform="translate(7.117 -1)" fill="none" stroke="#000" stroke-width="2"/><rect width="10" height="5" rx="0.5" transform="translate(7.117 10)" fill="none" stroke="#000" stroke-width="2"/><path d="M813.017,75.449h1.258V71.436l-1.376.353V70.424l2.887-.7v5.728H816.9v1.272h-3.882Z" transform="translate(-816.782 -71.721)"/><path d="M812.712,81.876a1.875,1.875,0,0,1,1.144-1.939l1.211-.639a.681.681,0,0,0,.361-.719v-.368c0-.359-.146-.522-.451-.522h-.587c-.309,0-.455.157-.455.522v.747H812.7v-.67c0-1.3.626-1.937,1.758-1.937h.455c1.139,0,1.756.643,1.756,1.914v.37a1.859,1.859,0,0,1-1.142,1.916l-1.206.641a.629.629,0,0,0-.372.639v.224H816.7v1.3h-3.984Z" transform="translate(-816.579 -67.35)"/></g></svg>