<svg xmlns="http://www.w3.org/2000/svg" viewBox="0 0 32 32">
    <g transform="translate(8 3)">
        <g transform="translate(3)">
            <g transform="translate(-3 6)" fill="none" stroke="#000" stroke-miterlimit="10" stroke-width="2">
                <rect width="16" height="11" rx="3" stroke="none" />
                <rect x="1" y="1" width="14" height="9" rx="2" fill="none" />
            </g>
            <path d="M259.1,10V7.835c0-1.565,1.791-2.835,4-2.835h0c2.209,0,4,1.269,4,2.835V10"
                transform="translate(-258.095 -4)" fill="none" stroke="#000" stroke-linecap="round"
                stroke-linejoin="round" stroke-width="2" />
        </g>
        <g transform="translate(-2 20)">
            <line y2="5" transform="translate(2)" fill="none" stroke="#000" stroke-linecap="round" stroke-width="1" />
            <line x1="4" y2="2.5" transform="translate(0 1.25)" fill="none" stroke="#000" stroke-linecap="round"
                stroke-width="1" />
            <line x1="4" y1="2.5" transform="translate(0 1.25)" fill="none" stroke="#000" stroke-linecap="round"
                stroke-width="1" />
        </g>
        <g transform="translate(6 20)">
            <line y2="5" transform="translate(2)" fill="none" stroke="#000" stroke-linecap="round" stroke-width="1" />
            <line x1="4" y2="2.5" transform="translate(0 1.25)" fill="none" stroke="#000" stroke-linecap="round"
                stroke-width="1" />
            <line x1="4" y1="2.5" transform="translate(0 1.25)" fill="none" stroke="#000" stroke-linecap="round"
                stroke-width="1" />
        </g>
        <g transform="translate(14 20)">
            <line y2="5" transform="translate(2)" fill="none" stroke="#000" stroke-linecap="round" stroke-width="1" />
            <line x1="4" y2="2.5" transform="translate(0 1.25)" fill="none" stroke="#000" stroke-linecap="round"
                stroke-width="1" />
            <line x1="4" y1="2.5" transform="translate(0 1.25)" fill="none" stroke="#000" stroke-linecap="round"
                stroke-width="1" />
        </g>
    </g>
</svg>