<svg xmlns="http://www.w3.org/2000/svg" width="32" height="32" viewBox="0 0 32 32"><rect width="32" height="32" fill="#fff" opacity="0"/><g transform="translate(5.667 1.664)"><g transform="translate(0.332 0.336)"><path d="M 10.00087547302246 26.56051635742188 C 9.092597007751465 25.59293174743652 7.433465480804443 23.73740386962891 5.81493091583252 21.47211265563965 C 4.402390956878662 19.4951229095459 3.2794508934021 17.58149337768555 2.477300882339478 15.78438282012939 C 1.498230934143066 13.59089279174805 1.001800894737244 11.57809257507324 1.001800894737244 9.801902770996094 C 1.001800894737244 4.950002670288086 5.038731098175049 1.002702713012695 10.00080108642578 1.002702713012695 C 14.96237087249756 1.002702713012695 18.9989013671875 4.950002670288086 18.9989013671875 9.801902770996094 C 18.9989013671875 11.57916259765625 18.50251007080078 13.59262275695801 17.52351188659668 15.78635311126709 C 16.72148132324219 17.58355331420898 15.59866142272949 19.49708366394043 14.18623065948486 21.47378349304199 C 12.56859493255615 23.73765563964844 10.90906620025635 25.59320449829102 10.00087547302246 26.56051635742188 Z M 10.00170135498047 5.000302791595459 C 7.244910717010498 5.000302791595459 5.002100944519043 7.243512630462646 5.002100944519043 10.00080299377441 C 5.002100944519043 12.75759315490723 7.244910717010498 15.00040245056152 10.00170135498047 15.00040245056152 C 12.75849056243896 15.00040245056152 15.00130081176758 12.75759315490723 15.00130081176758 10.00080299377441 C 15.00130081176758 7.243512630462646 12.75849056243896 5.000302791595459 10.00170135498047 5.000302791595459 Z" stroke="none"/><path d="M 10.00095748901367 25.0807991027832 C 10.91359233856201 24.06321716308594 12.15641689300537 22.59444618225098 13.37260055541992 20.89240264892578 C 14.74619102478027 18.97006225585938 15.83551120758057 17.11502265930176 16.61032104492188 15.37882232666016 C 17.53171157836914 13.31417274475098 17.9989013671875 11.43782234191895 17.9989013671875 9.801902770996094 C 17.9989013671875 5.501412868499756 14.41097068786621 2.002702713012695 10.00080108642578 2.002702713012695 C 5.590140819549561 2.002702713012695 2.001801013946533 5.501412868499756 2.001801013946533 9.801902770996094 C 2.001801013946533 11.43673229217529 2.469020843505859 13.31239318847656 3.390460968017578 15.37679290771484 C 4.165400981903076 17.1129322052002 5.254860877990723 18.96810340881348 6.628591060638428 20.89076232910156 C 7.84550666809082 22.59395027160645 9.088288307189941 24.06297492980957 10.00095748901367 25.0807991027832 M 10.00170135498047 4.000302791595459 C 13.30989074707031 4.000302791595459 16.00130081176758 6.692112922668457 16.00130081176758 10.00080299377441 C 16.00130081176758 13.30899238586426 13.30989074707031 16.00040245056152 10.00170135498047 16.00040245056152 C 6.693511009216309 16.00040245056152 4.002100944519043 13.30899238586426 4.002100944519043 10.00080299377441 C 4.002100944519043 6.692112922668457 6.693511009216309 4.000302791595459 10.00170135498047 4.000302791595459 M 10.00080108642578 27.99990272521973 L 10.00010108947754 27.99921226501465 C 9.974921226501465 27.97448348999023 7.453640937805176 25.48577308654785 5.001280784606934 22.05346298217773 C 3.549931049346924 20.02215194702148 2.393511056900024 18.05007362365723 1.564140915870667 16.19198226928711 C 0.5274509787559509 13.86940288543701 0.001800952129997313 11.71947288513184 0.001800952129997313 9.801902770996094 C 0.001800952129997313 4.398602485656738 4.487330913543701 0.002702719066292048 10.00080108642578 0.002702719066292048 C 15.51377105712891 0.002702719066292048 19.9989013671875 4.398602485656738 19.9989013671875 9.801902770996094 C 19.9989013671875 11.72051239013672 19.47330093383789 13.8710823059082 18.43670082092285 16.19388198852539 C 17.60744094848633 18.0521125793457 16.45112037658691 20.02412223815918 14.99987125396729 22.05515289306641 C 12.54876136779785 25.4854736328125 10.02669048309326 27.97447204589844 10.00150108337402 27.99921226501465 L 10.00080108642578 27.99990272521973 Z M 10.00170135498047 6.000302791595459 C 7.796310901641846 6.000302791595459 6.002100944519043 7.794922828674316 6.002100944519043 10.00080299377441 C 6.002100944519043 12.20619297027588 7.796310901641846 14.00040245056152 10.00170135498047 14.00040245056152 C 12.20709133148193 14.00040245056152 14.00130081176758 12.20619297027588 14.00130081176758 10.00080299377441 C 14.00130081176758 7.794922828674316 12.20709133148193 6.000302791595459 10.00170135498047 6.000302791595459 Z" stroke="none" fill="#000"/></g></g></svg>