<svg xmlns="http://www.w3.org/2000/svg" viewBox="0 0 32 32">
    <g transform="translate(6 2.001)">
        <g transform="translate(6 5.998)" fill="none" stroke="#000" stroke-width="2">
            <circle cx="4" cy="4" r="4" stroke="none" />
            <circle cx="4" cy="4" r="3" fill="none" />
        </g>
        <g fill="none">
            <path d="M10,0A9.9,9.9,0,0,1,20,9.8C20,18.212,10,28,10,28S0,18.207,0,9.8A9.9,9.9,0,0,1,10,0Z"
                stroke="none" />
            <path
                d="M 10 2 C 5.588789939880371 2 2 5.499069213867188 2 9.799999237060547 C 2 12.80506038665771 3.5872802734375 16.62197875976562 6.590229988098145 20.83811950683594 C 7.831257820129395 22.58052444458008 9.084859848022461 24.06386566162109 10.00087833404541 25.08491706848145 C 10.90546321868896 24.07710647583008 12.14008045196533 22.61674880981445 13.37277030944824 20.8917293548584 C 16.39992904663086 16.65554046630859 18 12.8200798034668 18 9.799999237060547 C 18 5.499069213867188 14.41121006011963 2 10 2 M 10 0 C 15.52285003662109 0 20 4.387609481811523 20 9.799999237060547 C 20 18.21210861206055 10 28 10 28 C 10 28 0 18.20746040344238 0 9.799999237060547 C 0 4.387609481811523 4.477149963378906 0 10 0 Z"
                stroke="none" fill="#000" />
        </g>
    </g>
</svg>