<svg xmlns="http://www.w3.org/2000/svg" width="32" height="32" viewBox="0 0 32 32"><rect width="32" height="32" fill="#fff" opacity="0"/><g transform="translate(4 4)"><path d="M21.361,4.408l8.651,26L4.062,21.741S2.194,4.408,21.361,4.408Z" transform="translate(-5.012 -5.408)" fill="rgba(0,0,0,0)" stroke="#000" stroke-linecap="round" stroke-linejoin="round" stroke-width="2"/><path d="M6.293,21.972a15.119,15.119,0,0,1,.023-3.338,14.759,14.759,0,0,1,1.449-3.019,15.007,15.007,0,0,1,1.5-2.994,15.465,15.465,0,0,1,2.637-2.1,15.242,15.242,0,0,1,2.671-2.061,15.667,15.667,0,0,1,3.306-.77A15.224,15.224,0,0,1,21.2,6.972" transform="translate(-4.2 -4.972)" fill="rgba(0,0,0,0)" stroke="#000" stroke-linecap="round" stroke-linejoin="round" stroke-width="1.5"/><path d="M17.149,12.794a2.356,2.356,0,0,0-3.223,3.225.784.784,0,0,0,.581.38.8.8,0,0,0,.674-.23l.18-.154,1.014,1.455L18.6,15.241,17.145,14.2l.154-.158a.806.806,0,0,0,.23-.675.783.783,0,0,0-.38-.58Z" transform="translate(-2.603 -6.47)"/><path d="M5,17.852s-.3-4.227,4.7-2.865,2.821,5.73,2.821,5.73" transform="translate(0.335 0.283)" fill="none" stroke="#000" stroke-width="2"/><path d="M5,16.807s-.189-2.818,2.938-1.91A2.637,2.637,0,0,1,9.7,18.717" transform="translate(14.662 34.303) rotate(-135)" fill="none" stroke="#000" stroke-width="2"/></g></svg>