<svg xmlns="http://www.w3.org/2000/svg" width="32" height="32" viewBox="0 0 32 32"><rect width="32" height="32" fill="#fff" opacity="0"/><g transform="translate(6 3)"><g transform="translate(24) rotate(90)" fill="none"><path d="M11.241,3.247a2,2,0,0,1,3.517,0l9.642,17.8A2,2,0,0,1,22.642,24H3.358A2,2,0,0,1,1.6,21.047Z" stroke="none"/><path d="M 13 4.199190139770508 L 3.357889175415039 22 L 22.64211082458496 22 L 13 4.199190139770508 M 13 2.199184417724609 C 13.69017028808594 2.199184417724609 14.38033962249756 2.548328399658203 14.75858020782471 3.246620178222656 L 24.40069007873535 21.04742813110352 C 25.12252044677734 22.38003921508789 24.15764999389648 24 22.64211082458496 24 L 3.357889175415039 24 C 1.842350006103516 24 0.8774795532226562 22.38003921508789 1.599309921264648 21.04742813110352 L 11.24141979217529 3.246620178222656 C 11.61966037750244 2.548328399658203 12.30982971191406 2.199184417724609 13 2.199184417724609 Z" stroke="none" fill="#000"/></g></g></svg>