<svg xmlns="http://www.w3.org/2000/svg" width="32" height="32" viewBox="0 0 32 32"><rect width="32" height="32" fill="#fff" opacity="0"/><g transform="translate(2 6.309)" fill="none"><path d="M2,19.693a2,2,0,0,1-2-2v-12a2,2,0,0,1,2-2H3v-2a2,2,0,0,1,2-2h5a2,2,0,0,1,2,2v2h4v-2a2,2,0,0,1,2-2h5a2,2,0,0,1,2,2v2h1a2,2,0,0,1,2,2v12a2,2,0,0,1-2,2Z" stroke="none"/><path d="M 26.00010108947754 17.69289970397949 L 25.99990081787109 17.69309997558594 L 26.00010108947754 5.692699909210205 L 22.99930000305176 5.692699909210205 L 22.9995002746582 1.693099856376648 L 17.99930000305176 1.692899823188782 L 17.99930000305176 5.692699909210205 L 9.999700546264648 5.692699909210205 L 9.999900817871094 1.693099856376648 L 4.999701023101807 1.692899823188782 L 4.999701023101807 5.692699909210205 L 2.002700805664062 5.69249963760376 L 2.002500772476196 17.69289970397949 L 26.00010108947754 17.69289970397949 M 26.00010108947754 19.69289970397949 L 2.002500772476196 19.69289970397949 C 0.8982008099555969 19.69289970397949 0.002700811717659235 18.79739952087402 0.002700811717659235 17.69309997558594 L 0.002700811717659235 5.69249963760376 C 0.002700811717659235 4.588199615478516 0.8982008099555969 3.692699909210205 2.002500772476196 3.692699909210205 L 2.999700784683228 3.692699909210205 L 2.999700784683228 1.692899823188782 C 2.999700784683228 0.5885998606681824 3.895200729370117 -0.3069001734256744 5.000401020050049 -0.3069001734256744 L 9.999900817871094 -0.3069001734256744 C 11.10420036315918 -0.3069001734256744 11.99970054626465 0.5885998606681824 11.99970054626465 1.692899823188782 L 11.99970054626465 3.692699909210205 L 15.99930095672607 3.692699909210205 L 15.99930095672607 1.692899823188782 C 15.99930095672607 0.5885998606681824 16.89480018615723 -0.3069001734256744 18 -0.3069001734256744 L 22.9995002746582 -0.3069001734256744 C 24.10380172729492 -0.3069001734256744 24.99930000305176 0.5885998606681824 24.99930000305176 1.692899823188782 L 24.99930000305176 3.692699909210205 L 26.00010108947754 3.692699909210205 C 27.10440063476562 3.692699909210205 27.99990081787109 4.588199615478516 27.99990081787109 5.69249963760376 L 27.99990081787109 17.69309997558594 C 27.99990081787109 18.79739952087402 27.10440063476562 19.69289970397949 26.00010108947754 19.69289970397949 Z" stroke="none" fill="#000"/></g></svg>