<svg xmlns="http://www.w3.org/2000/svg" viewBox="0 0 32 32">
    <g transform="translate(4 6.33)">
        <g transform="translate(-6 -7.907)" fill="none" stroke-miterlimit="10">
            <path
                d="M30,10.576H6a1.836,1.836,0,0,0-2,2v11a1.812,1.812,0,0,0,2,2H9v3a1.843,1.843,0,0,0,2,2H25a1.843,1.843,0,0,0,2-2v-3h3a1.836,1.836,0,0,0,2-2v-11A1.836,1.836,0,0,0,30,10.576Z"
                stroke="none" />
            <path
                d="M 6 12.576171875 L 6 23.576171875 L 11 23.576171875 L 11 28.576171875 L 25 28.576171875 L 25 23.576171875 L 30 23.576171875 L 30 12.576171875 L 6 12.576171875 M 6 10.576171875 L 30 10.576171875 C 31.24250030517578 10.576171875 32 11.31110191345215 32 12.576171875 L 32 23.576171875 C 32 24.84242248535156 31.24250030517578 25.576171875 30 25.576171875 L 27 25.576171875 L 27 28.576171875 C 27 29.83410263061523 26.23550033569336 30.576171875 25 30.576171875 L 11 30.576171875 C 9.764499664306641 30.576171875 9 29.83410263061523 9 28.576171875 L 9 25.576171875 L 6 25.576171875 C 4.701169967651367 25.57317161560059 4 24.84242248535156 4 23.576171875 L 4 12.576171875 C 4 11.31110191345215 4.757499694824219 10.576171875 6 10.576171875 Z"
                stroke="none" fill="#000" />
        </g>
        <line x2="3" transform="translate(17 8.67)" fill="none" stroke="#000" stroke-linecap="round"
            stroke-miterlimit="10" stroke-width="2" />
        <g transform="translate(7 -2.33)">
            <path d="M20.627,6.587h-2v-2Z" transform="translate(-10.626 -4.589)" fill="none" stroke="#000"
                stroke-linejoin="round" stroke-width="2" />
            <path d="M10.726,10.585v-4a1.8,1.8,0,0,1,2-2h6l2,2v4" transform="translate(-10.726 -4.585)" fill="none"
                stroke="#000" stroke-miterlimit="10" stroke-width="2" />
        </g>
        <g transform="translate(-4.635 -2.314)" fill="none" stroke-miterlimit="10">
            <path d="M7.635,15.984h18v7a2.3,2.3,0,0,1-2.25,2H9.885a2.3,2.3,0,0,1-2.25-2Z" stroke="none" />
            <path
                d="M 9.635080337524414 17.9839973449707 L 9.635282516479492 22.8363094329834 C 9.701507568359375 22.90571784973145 9.820964813232422 22.97884559631348 9.885278701782227 22.98437881469727 L 23.38172912597656 22.98437881469727 C 23.44999313354492 22.97712707519531 23.5690975189209 22.90340614318848 23.63525199890137 22.8337516784668 L 23.63505172729492 17.9839973449707 L 9.635080337524414 17.9839973449707 M 7.634998321533203 15.9839973449707 L 25.63496780395508 15.9839973449707 L 25.63525772094727 22.98437881469727 C 25.63525772094727 23.98057746887207 24.51025772094727 24.98437881469727 23.38525772094727 24.98437881469727 L 9.885278701782227 24.98437881469727 C 8.760288238525391 24.98437881469727 7.635288238525391 23.98664855957031 7.635288238525391 22.98437881469727 L 7.634998321533203 15.9839973449707 Z"
                stroke="none" fill="#000" />
        </g>
    </g>
</svg>