<svg xmlns="http://www.w3.org/2000/svg" viewBox="0 0 32 32">
    <g transform="translate(8 5.334)">
        <path d="M8031.2,19589.588a4,4,0,0,1,0-7.84,7.005,7.005,0,0,1,11.6,0,4,4,0,0,1,0,7.84,7,7,0,0,1-11.6,0Z"
            transform="translate(-8029 -19579)" fill="rgba(0,0,0,0)" stroke="#000" stroke-width="2" />
        <path d="M0,0A9,9,0,0,1,9,9a9,9,0,0,1-9,9" transform="translate(-1 24.666) rotate(-90)" fill="none"
            stroke="#000" stroke-linejoin="round" stroke-width="2" />
        <rect width="8" height="8" rx="4" transform="translate(-1 2.666)" fill="none" stroke="#000" stroke-width="2" />
        <rect width="8" height="8" rx="4" transform="translate(9 2.666)" fill="none" stroke="#000" stroke-width="2" />
    </g>
</svg>