<svg xmlns="http://www.w3.org/2000/svg" viewBox="0 0 32 32">
    <g transform="translate(5.333 5.334)">
        <path
            d="M6085.649,17680.67a2.22,2.22,0,0,1-1.7-.791,11.534,11.534,0,0,1-2.264-3.984l1.664-1.664c.011.074.021.146.036.23a8.977,8.977,0,0,0,2.095,4.131.216.216,0,0,0,.173.076.239.239,0,0,0,.165-.066l10.788-10.789a.22.22,0,0,0,.066-.172.228.228,0,0,0-.08-.164,8.88,8.88,0,0,0-4.362-2.127l1.665-1.664a11.609,11.609,0,0,1,3.984,2.26,2.23,2.23,0,0,1,.138,3.283l-10.784,10.789A2.239,2.239,0,0,1,6085.649,17680.67Zm-5.938-11.289v0l-3.789-3.785a.215.215,0,0,0-.155-.066l-1.509-.008a1.6,1.6,0,0,1-1.123-2.725l7.655-7.66a1.6,1.6,0,0,1,2.729,1.123l.009,1.508a.219.219,0,0,0,.066.16l3.786,3.785-1.414,1.414-3.787-3.783a2.244,2.244,0,0,1-.652-1.566l0-.541-6.292,6.293h.545a2.217,2.217,0,0,1,1.563.652l3.788,3.787-1.414,1.412Z"
            transform="translate(-6075 -17657)" />
        <line x2="5" y2="5" transform="translate(17.667 17.666)" fill="none" stroke="#000" stroke-linecap="round"
            stroke-miterlimit="10" stroke-width="2" />
        <line y1="24" x2="24" transform="translate(-1.333 -1.334)" fill="none" stroke="#000" stroke-linecap="round"
            stroke-width="2" />
    </g>
</svg>