<svg xmlns="http://www.w3.org/2000/svg" width="32" height="32" viewBox="0 0 32 32"><rect width="32" height="32" fill="#fff" opacity="0"/><g transform="translate(2.667 2.667)"><g transform="translate(-0.667 -0.666)" fill="none" stroke="#000" stroke-miterlimit="10" stroke-width="2"><rect width="9" height="9" rx="2" stroke="none"/><rect x="1" y="1" width="7" height="7" rx="1" fill="none"/></g><g transform="translate(-0.667 18.332)" fill="none" stroke="#000" stroke-miterlimit="10" stroke-width="2"><rect width="9" height="9" rx="2" stroke="none"/><rect x="1" y="1" width="7" height="7" rx="1" fill="none"/></g><g transform="translate(18.333 -0.666)" fill="none" stroke="#000" stroke-miterlimit="10" stroke-width="2"><rect width="9" height="9" rx="2" stroke="none"/><rect x="1" y="1" width="7" height="7" rx="1" fill="none"/></g><path d="M128.927,78h12v3" transform="translate(-128.594 -64.667)" fill="none" stroke="#000" stroke-linecap="round" stroke-linejoin="round" stroke-width="2"/><line y2="7" transform="translate(13.333 0.334)" fill="none" stroke="#000" stroke-linecap="round" stroke-linejoin="round" stroke-width="2"/><line y2="8" transform="translate(26.333 11.334)" fill="none" stroke="#000" stroke-linecap="round" stroke-linejoin="round" stroke-width="2"/><path d="M138.928,87.084V89.75h5v-8" transform="translate(-126.594 -63.417)" fill="none" stroke="#000" stroke-linecap="round" stroke-linejoin="round" stroke-width="2"/><path d="M143.5,78h5v3" transform="translate(-126.167 -64.667)" fill="none" stroke="#000" stroke-linecap="round" stroke-linejoin="round" stroke-width="2"/><path d="M0,0V3H3" transform="translate(23.333 26.333) rotate(-90)" fill="none" stroke="#000" stroke-linecap="round" stroke-linejoin="round" stroke-width="2"/></g></svg>