<svg xmlns="http://www.w3.org/2000/svg" width="32" height="32" viewBox="0 0 32 32"><rect width="32" height="32" fill="#fff" opacity="0"/><g transform="translate(2.664 5.334)"><g transform="translate(16.002 8.667)"><path d="M0,0,3,3,6,0" transform="translate(5.333 1.999) rotate(180)" fill="none" stroke="#000" stroke-linecap="round" stroke-linejoin="round" stroke-width="2"/><line y2="6" transform="translate(2.333 1)" fill="none" stroke="#000" stroke-linecap="round" stroke-linejoin="round" stroke-width="2"/></g><g transform="translate(0.336 -0.334)" fill="none"><path d="M1,21a2,2,0,0,1-2-2V2.407A2.53,2.53,0,0,1,1.287.006l8,0,1.113,0L12.7,3H25a2,2,0,0,1,2,2V19a2,2,0,0,1-2,2Z" stroke="none"/><path d="M 25.00020027160645 18.99970054626465 L 25 18.99900054931641 L 25.00020027160645 4.999700546264648 L 11.70983982086182 4.999700546264648 L 9.409381866455078 2.002314805984497 L 9.282688140869141 2.001802682876587 L 1.337342143058777 2.006272792816162 C 1.205820202827454 2.058528900146484 1.014733791351318 2.28501296043396 1.000099539756775 2.410799026489258 L 0.9998995661735535 18.99970054626465 L 25.00020027160645 18.99970054626465 M 25.00020027160645 20.99970054626465 L 0.9998995661735535 20.99970054626465 C -0.1044004112482071 20.99970054626465 -0.9999004006385803 20.10420036315918 -0.9999004006385803 18.99900054931641 L -0.9999004006385803 4.999500751495361 C -0.9999004006385803 4.199270725250244 -0.9999004006385803 3.10088062286377 -0.9999004006385803 2.406600475311279 C -0.9999004006385803 1.206900596618652 0.1448995918035507 0.01350054144859314 1.286999583244324 0.006300541572272778 L 9.285299301147461 0.001800541649572551 L 10.39859962463379 0.006300541572272778 L 12.69599914550781 2.999700546264648 L 25.00020027160645 2.999700546264648 C 26.10449981689453 2.999700546264648 27 3.89430046081543 27 4.999500751495361 L 27 18.99900054931641 C 27 20.10420036315918 26.10449981689453 20.99970054626465 25.00020027160645 20.99970054626465 Z" stroke="none" fill="#000"/></g></g></svg>