<svg xmlns="http://www.w3.org/2000/svg" width="32" height="32" viewBox="0 0 32 32"><rect width="32" height="32" fill="#fff" opacity="0"/><g transform="translate(4 4)"><path d="M1227.935,11.832a5.461,5.461,0,0,1-4,4m0-12a5.459,5.459,0,0,1,4,4m-12,0a5.46,5.46,0,0,1,4-4m0,12a5.454,5.454,0,0,1-4-4" transform="translate(-1209.935 2.169)" fill="none" stroke="#000" stroke-miterlimit="10" stroke-width="2"/><path d="M1233.8,13.838c-.814,5.444-3.307,7.016-7.856,7.856m0-22c4.456.92,7.018,3.384,7.856,7.856m-22,0c.92-4.451,3.388-7.016,7.856-7.856m0,22c-4.55-.846-7-3.308-7.856-7.856" transform="translate(-1210.806 1.305)" fill="none" stroke="#000" stroke-miterlimit="10" stroke-width="2"/><rect width="6" height="8" rx="1.333" transform="translate(9 17)" fill="none" stroke="#000" stroke-miterlimit="10" stroke-width="2"/><rect width="8" height="6" rx="1.333" transform="translate(17 9)" fill="none" stroke="#000" stroke-miterlimit="10" stroke-width="2"/><rect width="8" height="6" rx="1.333" transform="translate(-1 9)" fill="none" stroke="#000" stroke-miterlimit="10" stroke-width="2"/><rect width="6" height="8" rx="1.333" transform="translate(9 -1)" fill="none" stroke="#000" stroke-miterlimit="10" stroke-width="2"/></g></svg>