<svg xmlns="http://www.w3.org/2000/svg" width="32" height="32" viewBox="0 0 32 32"><rect width="32" height="32" fill="#fff" opacity="0"/><g transform="translate(4 4.001)"><g transform="translate(-5 -5.016)" fill="none" stroke-linecap="round" stroke-linejoin="round"><path d="M15.478,29.016h3.044l.372-2.988.516-.142a9.112,9.112,0,0,0,2.153-.892l.467-.269,2.378,1.856,2.156-2.156-1.856-2.378.271-.468a9.139,9.139,0,0,0,.892-2.153l.142-.515L29,18.538V15.493l-2.987-.371-.142-.516a9.123,9.123,0,0,0-.893-2.155l-.269-.467,1.856-2.378L24.408,7.451,22.03,9.308l-.467-.271a9.131,9.131,0,0,0-2.153-.892L18.894,8l-.372-2.987H15.478L15.106,8l-.516.142a9.131,9.131,0,0,0-2.153.892l-.467.271L9.592,7.451,7.436,9.607l1.856,2.378-.269.468a9.106,9.106,0,0,0-.893,2.152l-.142.517L5,15.493v3.045l2.987.372.142.516a9.106,9.106,0,0,0,.893,2.152l.269.468L7.436,24.424,9.592,26.58l2.378-1.856.467.269a9.131,9.131,0,0,0,2.153.892l.516.142Z" stroke="none"/><path d="M 18.52182006835938 29.01599884033203 L 18.89381980895996 26.02798843383789 L 19.40982055664062 25.88616943359375 C 20.17782020568848 25.67562866210938 20.90327072143555 25.37562942504883 21.56327056884766 24.99380874633789 L 22.03017997741699 24.7243595123291 L 24.40835952758789 26.57999801635742 L 26.56399917602539 24.42435836791992 L 24.70836067199707 22.04617881774902 L 24.97891044616699 21.57817840576172 C 25.3596305847168 20.91817855834961 25.66072082519531 20.19381904602051 25.87126922607422 19.42472839355469 L 26.01309013366699 18.90980911254883 L 29 18.53780937194824 L 29 15.493088722229 L 26.01309013366699 15.12217903137207 L 25.87126922607422 14.60617923736572 C 25.66072082519531 13.8370885848999 25.3596305847168 13.1127290725708 24.97781944274902 12.45162868499756 L 24.70836067199707 11.98472881317139 L 26.56399917602539 9.606549263000488 L 24.40835952758789 7.450908660888672 L 22.03017997741699 9.307628631591797 L 21.56327056884766 9.037088394165039 C 20.90217971801758 8.655268669128418 20.17782020568848 8.355268478393555 19.40982055664062 8.144728660583496 L 18.89381980895996 8.002908706665039 L 18.52182006835938 5.015998840332031 L 15.47817993164062 5.015998840332031 L 15.10618019104004 8.002908706665039 L 14.59018039703369 8.144728660583496 C 13.82217979431152 8.355268478393555 13.09782028198242 8.655268669128418 12.43671989440918 9.037088394165039 L 11.96982002258301 9.307628631591797 L 9.591640472412109 7.450908660888672 L 7.435999870300293 9.606549263000488 L 9.291640281677246 11.98472881317139 L 9.02217960357666 12.45272922515869 C 8.640359878540039 13.1127290725708 8.339269638061523 13.8370885848999 8.128729820251465 14.60508918762207 L 7.986909866333008 15.12217903137207 L 5 15.493088722229 L 5 18.53780937194824 L 7.986909866333008 18.90980911254883 L 8.128729820251465 19.42580795288086 C 8.339269638061523 20.19381904602051 8.640359878540039 20.91817855834961 9.02217960357666 21.57817840576172 L 9.291640281677246 22.04617881774902 L 7.435999870300293 24.42435836791992 L 9.591640472412109 26.57999801635742 L 11.96982002258301 24.7243595123291 L 12.43671989440918 24.99380874633789 C 13.09782028198242 25.37562942504883 13.82217979431152 25.67562866210938 14.59018039703369 25.88616943359375 L 15.10618019104004 26.02798843383789 L 15.47817993164062 29.01599884033203 L 18.52182006835938 29.01599884033203 M 18.52182006835938 31.01599884033203 L 15.47817993164062 31.01599884033203 C 14.46916007995605 31.01599884033203 13.61816024780273 30.26437950134277 13.49349975585938 29.26308822631836 L 13.28295421600342 27.57192802429199 C 12.89928817749023 27.43700408935547 12.52572917938232 27.28253555297852 12.16434860229492 27.1093692779541 L 10.82198047637939 28.15678977966309 C 10.02582836151123 28.77800941467285 8.891489028930664 28.70826721191406 8.177430152893066 27.99420928955078 L 6.021790027618408 25.83856964111328 C 5.307730197906494 25.12450790405273 5.237989902496338 23.99016952514648 5.859210014343262 23.19401931762695 L 6.906513690948486 21.85179901123047 C 6.73310375213623 21.49057579040527 6.57836389541626 21.11697769165039 6.443172931671143 20.73300170898438 L 4.752820014953613 20.5224781036377 C 3.751569986343384 20.39777946472168 3 19.54679870605469 3 18.53780937194824 L 3 15.493088722229 C 3 14.4838285446167 3.751970052719116 13.63270854949951 4.7535400390625 13.50832843780518 L 6.442961692810059 13.29853916168213 C 6.57808780670166 12.91475772857666 6.732914924621582 12.5409517288208 6.906588554382324 12.1792049407959 L 5.859210014343262 10.83688926696777 C 5.237989902496338 10.04073905944824 5.307730197906494 8.906398773193359 6.021790027618408 8.192338943481445 L 8.177430152893066 6.036698818206787 C 8.891640663146973 5.322489261627197 10.02628040313721 5.252888202667236 10.82242012023926 5.874458789825439 L 12.16393375396729 6.921821117401123 C 12.5256814956665 6.748451232910156 12.89920997619629 6.593982219696045 13.28300857543945 6.459001541137695 L 13.49351024627686 4.768818855285645 C 13.61820983886719 3.767568826675415 14.46918964385986 3.015998840332031 15.47817993164062 3.015998840332031 L 18.52182006835938 3.015998840332031 C 19.53080940246582 3.015998840332031 20.38179016113281 3.767568826675415 20.50649070739746 4.768818855285645 L 20.71698379516602 6.458948135375977 C 21.10081672668457 6.593932628631592 21.47461128234863 6.748507976531982 21.83613586425781 6.92176628112793 L 23.17757987976074 5.874458789825439 C 23.97371864318848 5.252890586853027 25.10835838317871 5.322486877441406 25.82257080078125 6.036698818206787 L 27.97821044921875 8.192338943481445 C 28.69227027893066 8.906398773193359 28.76201057434082 10.04073905944824 28.14079093933105 10.83688926696777 L 27.09351348876953 12.17907333374023 C 27.26710891723633 12.54099369049072 27.42185020446777 12.91482162475586 27.55687141418457 13.29851818084717 L 29.2464599609375 13.50832843780518 C 30.2480297088623 13.63270854949951 31 14.4838285446167 31 15.493088722229 L 31 18.53780937194824 C 31 19.54679870605469 30.2484302520752 20.39777946472168 29.2471809387207 20.5224781036377 L 27.55676460266113 20.73300933837891 C 27.42190361022949 21.11624908447266 27.26727294921875 21.48989295959473 27.09364700317383 21.85200500488281 L 28.14079093933105 23.19401931762695 C 28.76201057434082 23.99016952514648 28.69227027893066 25.12450790405273 27.97821044921875 25.83856964111328 L 25.82257080078125 27.99420928955078 C 25.1085090637207 28.70827102661133 23.97417068481445 28.77800941467285 23.17802047729492 28.15678977966309 L 21.83590126037598 27.10956382751465 C 21.4750919342041 27.282470703125 21.10145378112793 27.4369068145752 20.71703720092773 27.57199859619141 L 20.50650024414062 29.26308822631836 C 20.38183975219727 30.26437950134277 19.53083992004395 31.01599884033203 18.52182006835938 31.01599884033203 Z" stroke="none" fill="#000"/></g><circle cx="5" cy="5" r="5" transform="translate(7 6.999)" fill="none" stroke="#000" stroke-linecap="round" stroke-linejoin="round" stroke-width="2"/></g></svg>