<svg xmlns="http://www.w3.org/2000/svg" viewBox="0 0 32 32">
    <g transform="translate(3 4.418)">
        <g transform="translate(0 -0.416)" fill="none">
            <path
                d="M18.309,0a2,2,0,0,1,1.759,1.047l5.417,10a2,2,0,0,1,0,1.905l-5.417,10A2,2,0,0,1,18.309,24H7.691a2,2,0,0,1-1.759-1.047l-5.417-10a2,2,0,0,1,0-1.905l5.417-10A2,2,0,0,1,7.691,0Z"
                stroke="none" />
            <path
                d="M 7.691219329833984 2 L 2.27454948425293 12 L 7.691219329833984 22 L 18.30878067016602 22 L 23.72545051574707 12 L 18.30876922607422 2 L 7.691219329833984 2 M 7.691230773925781 0 L 18.30876922607422 0 C 19.04275894165039 0 19.71778106689453 0.4020500183105469 20.06735992431641 1.047430038452148 L 25.48402976989746 11.04743003845215 C 25.80591011047363 11.64169025421143 25.80591011047363 12.35830974578857 25.48402976989746 12.95256996154785 L 20.06735992431641 22.95256996154785 C 19.71778106689453 23.59794998168945 19.04275894165039 24 18.30876922607422 24 L 7.691219329833984 24 C 6.957239151000977 24 6.282220840454102 23.59794998168945 5.932640075683594 22.95256996154785 L 0.5159702301025391 12.95256996154785 C 0.1940898895263672 12.35830974578857 0.1940898895263672 11.64169025421143 0.5159702301025391 11.04743003845215 L 5.932640075683594 1.047430038452148 C 6.282230377197266 0.4020500183105469 6.957239151000977 0 7.691230773925781 0 Z"
                stroke="none" fill="#000" />
        </g>
    </g>
</svg>