<svg xmlns="http://www.w3.org/2000/svg" viewBox="0 0 32 32">
    <g transform="translate(2.667 1.666)">
        <rect width="6" height="6" rx="1" transform="translate(1.333 6.334)" />
        <path d="M3.132,1.519a1,1,0,0,1,1.736,0L7.145,5.5A1,1,0,0,1,6.277,7H1.723A1,1,0,0,1,.855,5.5Z"
            transform="translate(18.333 5.334)" />
        <path
            d="M2.393.464a1,1,0,0,1,1.214,0l1.839,1.4a1,1,0,0,1,.348,1.09L5.072,5.3a1,1,0,0,1-.955.7H1.884a1,1,0,0,1-.955-.7L.206,2.958a1,1,0,0,1,.348-1.09Z"
            transform="translate(10.333 1.334)" />
        <g transform="translate(0.333 3.334)">
            <path d="M0,0A4,4,0,0,1,4,4,4,4,0,0,1,0,8" transform="translate(9 24) rotate(-90)" fill="none" stroke="#000"
                stroke-width="2" />
            <g transform="translate(-13 -3.68)" fill="none" stroke-miterlimit="10">
                <path d="M22,18.679a4,4,0,1,1,1.172,2.828A3.992,3.992,0,0,1,22,18.679Z" stroke="none" />
                <path
                    d="M 26.00000190734863 16.67899894714355 C 25.46699523925781 16.67899894714355 24.96502685546875 16.88645172119141 24.58621215820312 17.26321601867676 C 24.20816230773926 17.6433162689209 24.00000190734863 18.1460018157959 24.00000190734863 18.67899894714355 C 24.00000190734863 19.21070861816406 24.20815277099609 19.71267509460449 24.58621406555176 20.09278106689453 C 24.96631050109863 20.47083282470703 25.46829223632812 20.67899894714355 26.00000190734863 20.67899894714355 C 26.53262138366699 20.67899894714355 27.03540229797363 20.47011947631836 27.41376113891602 20.09280967712402 C 27.79180145263672 19.71474838256836 28.00000190734863 19.21264839172363 28.00000190734863 18.67899894714355 C 28.00000190734863 18.1440486907959 27.79180145263672 17.64124870300293 27.41572189331055 17.2651481628418 C 27.03669166564941 16.88716888427734 26.53391265869141 16.67899894714355 26.00000190734863 16.67899894714355 M 26.00000190734863 14.67899894714355 C 27.10599136352539 14.67899894714355 28.10200119018555 15.12499809265137 28.8279914855957 15.8489990234375 C 29.55398178100586 16.57499885559082 30.00000190734863 17.572998046875 30.00000190734863 18.67899894714355 C 30.00000190734863 19.78499984741211 29.55398178100586 20.7809886932373 28.8279914855957 21.50699996948242 C 28.10200119018555 22.23099899291992 27.10599136352539 22.67899894714355 26.00000190734863 22.67899894714355 C 24.89400100708008 22.67899894714355 23.89800262451172 22.23099899291992 23.1720027923584 21.50699996948242 C 22.44800186157227 20.7809886932373 22.00000190734863 19.78499984741211 22.00000190734863 18.67899894714355 C 22.00000190734863 17.572998046875 22.44800186157227 16.57499885559082 23.1720027923584 15.8489990234375 C 23.89800262451172 15.12499809265137 24.89400100708008 14.67899894714355 26.00000190734863 14.67899894714355 Z"
                    stroke="none" fill="#000" />
            </g>
        </g>
    </g>
</svg>