<svg xmlns="http://www.w3.org/2000/svg" viewBox="0 0 32 32">
    <g transform="translate(3 6)">
        <g transform="translate(0 22) rotate(-90)" fill="none">
            <path d="M9.248,3.186a2,2,0,0,1,3.5,0l7.617,13.85A2,2,0,0,1,18.617,20H3.383A2,2,0,0,1,1.63,17.036Z"
                stroke="none" />
            <path
                d="M 11 4.150074005126953 L 3.382539749145508 17.9999942779541 L 18.61746025085449 18.00000381469727 L 11 4.150074005126953 M 11 2.15007209777832 C 11.68625259399414 2.15007209777832 12.37250518798828 2.495460510253906 12.7524299621582 3.186235427856445 L 20.3698902130127 17.03616523742676 C 21.10298919677734 18.36906433105469 20.1386604309082 19.9999942779541 18.61746025085449 19.9999942779541 L 3.382539749145508 19.9999942779541 C 1.861339569091797 19.9999942779541 0.8970108032226562 18.36906433105469 1.630109786987305 17.03616523742676 L 9.247570037841797 3.186235427856445 C 9.627494812011719 2.495460510253906 10.31374740600586 2.15007209777832 11 2.15007209777832 Z"
                stroke="none" fill="#000" />
        </g>
        <line y2="18" transform="translate(23 2)" fill="none" stroke="#000" stroke-linecap="round" stroke-width="2" />
    </g>
</svg>