<svg xmlns="http://www.w3.org/2000/svg" width="32" height="32" viewBox="0 0 32 32"><rect width="32" height="32" fill="#fff" opacity="0"/><g transform="translate(-15882 -15443)" fill="none"><path d="M15906,15467h-15.243a3.207,3.207,0,0,1-.322-.017c-.144.011-.29.017-.437.017a6,6,0,0,1-1.951-11.676,5,5,0,0,1,6.516-4.073,8,8,0,0,1,14.434,4.549,6,6,0,0,1-2.692,11.192c-.073,0-.146.008-.221.008Z" stroke="none"/><path d="M 15906.0830078125 15464.9990234375 C 15906.107421875 15464.9990234375 15906.13671875 15464.998046875 15906.1708984375 15464.99609375 L 15906.2041015625 15464.994140625 C 15908.333984375 15464.8876953125 15910.001953125 15463.1337890625 15910.001953125 15461.0009765625 C 15910.001953125 15459.5751953125 15909.2333984375 15458.2451171875 15907.99609375 15457.53125 L 15907.0244140625 15456.9697265625 L 15906.9970703125 15455.8486328125 C 15906.9580078125 15454.27734375 15906.31640625 15452.8056640625 15905.1904296875 15451.7060546875 C 15904.064453125 15450.6044921875 15902.5751953125 15449.998046875 15901 15449.998046875 C 15899.0771484375 15449.998046875 15897.31640625 15450.8876953125 15896.1708984375 15452.4384765625 L 15895.3125 15453.6005859375 L 15893.939453125 15453.150390625 C 15893.63671875 15453.05078125 15893.3212890625 15453.0009765625 15893.0009765625 15453.0009765625 C 15891.505859375 15453.0009765625 15890.228515625 15454.1142578125 15890.029296875 15455.5908203125 L 15889.86328125 15456.8125 L 15888.6982421875 15457.2138671875 C 15887.083984375 15457.7705078125 15886 15459.2919921875 15886 15461.0009765625 C 15886 15463.205078125 15887.7939453125 15464.9990234375 15889.998046875 15464.9990234375 C 15890.0908203125 15464.9990234375 15890.1875 15464.9951171875 15890.28515625 15464.98828125 L 15890.4609375 15464.974609375 L 15890.6357421875 15464.9921875 C 15890.677734375 15464.9970703125 15890.71875 15464.9990234375 15890.7568359375 15464.9990234375 L 15906.0830078125 15464.9990234375 M 15906.0830078125 15466.9990234375 L 15890.7568359375 15466.9990234375 C 15890.6484375 15466.9990234375 15890.541015625 15466.9931640625 15890.4345703125 15466.982421875 C 15890.291015625 15466.9931640625 15890.14453125 15466.9990234375 15889.998046875 15466.9990234375 C 15886.6875 15466.9990234375 15884 15464.3154296875 15884 15461.0009765625 C 15884 15458.3701171875 15885.693359375 15456.1337890625 15888.046875 15455.3232421875 C 15888.376953125 15452.880859375 15890.4677734375 15451.0009765625 15893.0009765625 15451.0009765625 C 15893.5458984375 15451.0009765625 15894.0712890625 15451.0888671875 15894.5625 15451.25 C 15896.01953125 15449.27734375 15898.3603515625 15447.998046875 15901 15447.998046875 C 15905.349609375 15447.998046875 15908.888671875 15451.4716796875 15908.99609375 15455.798828125 C 15910.7919921875 15456.8359375 15912.001953125 15458.77734375 15912.001953125 15461.0009765625 C 15912.001953125 15464.212890625 15909.4765625 15466.8330078125 15906.3037109375 15466.9912109375 C 15906.23046875 15466.99609375 15906.1572265625 15466.9990234375 15906.0830078125 15466.9990234375 Z" stroke="none" fill="#000"/></g><g transform="translate(-471 -1732)"><line y2="5" transform="translate(487 1746)" fill="none" stroke="#000" stroke-linecap="round" stroke-miterlimit="10" stroke-width="2"/><g transform="translate(485 1745)" fill="none" stroke="#000" stroke-width="2"><circle cx="2" cy="2" r="2" stroke="none"/><circle cx="2" cy="2" r="1" fill="none"/></g></g></svg>