<svg xmlns="http://www.w3.org/2000/svg" viewBox="0 0 32 32">
    <g transform="translate(5.333 2.668)">
        <g transform="translate(-433.833 365.795)" fill="none" stroke-linecap="round" stroke-linejoin="round">
            <path
                d="M455.5-365.27h-15c-1.5,0-2,.5-2,2v8c0,1.5.5,2,2,2h2l.465,2.389c.261,1,1.242-.071,1.535-.389l2-2h9c1.5,0,2-.5,2-2v-8C457.5-364.773,457-365.27,455.5-365.27Z"
                stroke="none" />
            <path
                d="M 440.5 -363.26953125 L 440.5 -355.26953125 L 442.5 -355.26953125 C 443.3448486328125 -355.26953125 444.0851745605469 -354.7411193847656 444.3731079101562 -353.9710693359375 L 445.0857849121094 -354.6837463378906 C 445.4608459472656 -355.0588073730469 445.9695739746094 -355.26953125 446.5 -355.26953125 L 455.5 -355.26953125 L 455.5 -363.26953125 L 440.5 -363.26953125 M 440.5 -365.26953125 L 455.5 -365.26953125 C 456.9957580566406 -365.26953125 457.5 -364.7734375 457.5 -363.26953125 L 457.5 -355.26953125 C 457.5 -353.7693176269531 456.9963684082031 -353.26953125 455.5 -353.26953125 L 446.5 -353.26953125 L 444.5 -351.26953125 C 444.2065124511719 -350.9519958496094 443.2256164550781 -349.876953125 442.96484375 -350.880859375 L 442.5 -353.26953125 L 440.5 -353.26953125 C 439.000244140625 -353.26953125 438.5 -353.7741088867188 438.5 -355.26953125 L 438.5 -363.26953125 C 438.5 -364.7735900878906 438.9993286132812 -365.26953125 440.5 -365.26953125 Z"
                stroke="none" fill="#000" />
        </g>
        <path
            d="M-427.017,67.611a.185.185,0,0,0-.073-.079.263.263,0,0,0-.1-.033l-.632-.1a.3.3,0,0,1-.127-.06.317.317,0,0,1-.094-.108l-.282-.6a.277.277,0,0,0-.068-.093.168.168,0,0,0-.11-.043.168.168,0,0,0-.11.043.277.277,0,0,0-.068.093l-.282.6a.317.317,0,0,1-.094.108.3.3,0,0,1-.127.06l-.632.1a.243.243,0,0,0-.125.054.178.178,0,0,0-.045.059.175.175,0,0,0-.017.075.206.206,0,0,0,.023.092.292.292,0,0,0,.054.074l.457.466a.308.308,0,0,1,.061.1.391.391,0,0,1,.025.132.217.217,0,0,1,0,.035l-.108.657h0a.322.322,0,0,0,0,.055.215.215,0,0,0,.043.137.162.162,0,0,0,.06.046.168.168,0,0,0,.07.015.248.248,0,0,0,.119-.034l.565-.31a.3.3,0,0,1,.137-.03.3.3,0,0,1,.137.03l.565.31a.247.247,0,0,0,.119.034.169.169,0,0,0,.071-.015.169.169,0,0,0,.08-.078.233.233,0,0,0,.023-.1.336.336,0,0,0,0-.055l-.108-.658h0a.214.214,0,0,1,0-.035.393.393,0,0,1,.026-.132.3.3,0,0,1,.062-.1l.457-.466a.293.293,0,0,0,.054-.074.206.206,0,0,0,.023-.092A.178.178,0,0,0-427.017,67.611Z"
            transform="translate(439.666 -62.167)" />
        <path
            d="M-427.017,67.611a.185.185,0,0,0-.073-.079.263.263,0,0,0-.1-.033l-.632-.1a.3.3,0,0,1-.127-.06.317.317,0,0,1-.094-.108l-.282-.6a.277.277,0,0,0-.068-.093.168.168,0,0,0-.11-.043.168.168,0,0,0-.11.043.277.277,0,0,0-.068.093l-.282.6a.317.317,0,0,1-.094.108.3.3,0,0,1-.127.06l-.632.1a.243.243,0,0,0-.125.054.178.178,0,0,0-.045.059.175.175,0,0,0-.017.075.206.206,0,0,0,.023.092.292.292,0,0,0,.054.074l.457.466a.308.308,0,0,1,.061.1.391.391,0,0,1,.025.132.217.217,0,0,1,0,.035l-.108.657h0a.322.322,0,0,0,0,.055.215.215,0,0,0,.043.137.162.162,0,0,0,.06.046.168.168,0,0,0,.07.015.248.248,0,0,0,.119-.034l.565-.31a.3.3,0,0,1,.137-.03.3.3,0,0,1,.137.03l.565.31a.247.247,0,0,0,.119.034.169.169,0,0,0,.071-.015.169.169,0,0,0,.08-.078.233.233,0,0,0,.023-.1.336.336,0,0,0,0-.055l-.108-.658h0a.214.214,0,0,1,0-.035.393.393,0,0,1,.026-.132.3.3,0,0,1,.062-.1l.457-.466a.293.293,0,0,0,.054-.074.206.206,0,0,0,.023-.092A.178.178,0,0,0-427.017,67.611Z"
            transform="translate(445.666 -62.167)" />
        <path d="M0,0A4,4,0,0,1,4,4,4,4,0,0,1,0,8" transform="translate(-1.333 27.332) rotate(-90)" fill="none"
            stroke="#000" stroke-linejoin="round" stroke-width="2" />
        <g transform="translate(-1.333 14.332)" fill="none" stroke="#000" stroke-width="2">
            <rect width="8" height="8" rx="4" stroke="none" />
            <rect x="1" y="1" width="6" height="6" rx="3" fill="none" />
        </g>
    </g>
</svg>