<svg xmlns="http://www.w3.org/2000/svg" width="32" height="32" viewBox="0 0 32 32"><rect width="32" height="32" fill="#fff" opacity="0"/><g transform="translate(2.667 5.334)"><path d="M13.233,19.842H8.95l-.795,2.731H5.588l3.721-12h3.565l3.714,12H14.021Zm-.522-1.8-.758-2.614c-.288-1.013-.553-1.945-.866-3.121-.3,1.175-.577,2.108-.858,3.121l-.756,2.614Z" transform="translate(-4.255 -5.906)"/><path d="M22.653,16.128v7.358H20.945l-.208-.883-1.351.586a4.976,4.976,0,0,1-1.961.448c-1.692,0-2.773-1.143-2.773-3.135v-.177c0-1.85,1.135-2.917,3.676-2.917H20.4V15.865c0-.8-.278-1.253-1.151-1.253H18.5c-.742,0-1.143.246-1.143.948v.772H15.07V15.7c0-1.957,1.274-3.059,3.459-3.059h.68C21.34,12.637,22.653,13.578,22.653,16.128ZM20.4,19.137H18.275c-.889,0-1.3.272-1.3.942v.634c0,.67.331,1,.9,1a2.62,2.62,0,0,0,1.027-.23l1.5-.467Z" transform="translate(-1.319 -6.969)"/><path d="M25.077,9.238h2v24h-2Z" transform="translate(-1.744 -10.572)"/></g></svg>