<svg xmlns="http://www.w3.org/2000/svg" viewBox="0 0 32 32">
    <g transform="translate(3.667 6.666)">
        <path
            d="M13.731,20.708H8.28L7.268,24.35H4l4.736-16h4.538L18,24.35H14.735Zm-.666-2.4L12.1,14.822c-.367-1.351-.7-2.594-1.1-4.161-.387,1.567-.734,2.81-1.092,4.161l-.963,3.486Z"
            transform="translate(-3.667 -7.016)" />
        <path
            d="M27.4,15.755v8.695H25.483l-.234-1.043-1.52.692a5.358,5.358,0,0,1-2.207.53c-1.9,0-3.118-1.351-3.118-3.7v-.21c0-2.184,1.277-3.447,4.135-3.447h2.328V15.444c0-.951-.312-1.482-1.294-1.482H22.73c-.835,0-1.286.291-1.286,1.121v.911H18.873v-.749c0-2.314,1.434-3.616,3.892-3.616h.763C25.927,11.629,27.4,12.742,27.4,15.755Zm-2.537,3.557H22.478c-1,0-1.468.32-1.468,1.112v.751c0,.792.373,1.183,1.007,1.183a2.821,2.821,0,0,0,1.155-.271l1.685-.55Z"
            transform="translate(-3.07 -7.295)" />
    </g>
</svg>