<svg xmlns="http://www.w3.org/2000/svg" width="32" height="32" viewBox="0 0 32 32"><rect width="32" height="32" fill="#fff" opacity="0"/><g transform="translate(5.333 4)"><g transform="translate(1.667 0.999)" fill="none" stroke="#000" stroke-miterlimit="10" stroke-width="2"><path d="M0,0H18a0,0,0,0,1,0,0V21a3,3,0,0,1-3,3H3a3,3,0,0,1-3-3V0A0,0,0,0,1,0,0Z" stroke="none"/><path d="M2,1H16a1,1,0,0,1,1,1V21a2,2,0,0,1-2,2H3a2,2,0,0,1-2-2V2A1,1,0,0,1,2,1Z" fill="none"/></g><line x2="22" transform="translate(-0.333 2)" fill="none" stroke="#000" stroke-linecap="round" stroke-miterlimit="10" stroke-width="2"/><g transform="translate(13.667 2) rotate(-180)" fill="none" stroke="#000" stroke-miterlimit="10" stroke-width="2"><path d="M0,0H6A0,0,0,0,1,6,0V2A1,1,0,0,1,5,3H1A1,1,0,0,1,0,2V0A0,0,0,0,1,0,0Z" stroke="none"/><path d="M1,1H5A0,0,0,0,1,5,1V2A0,0,0,0,1,5,2H1A0,0,0,0,1,1,2V1A0,0,0,0,1,1,1Z" fill="none"/></g><line y2="8" transform="translate(7.667 9)" fill="none" stroke="#000" stroke-linecap="round" stroke-miterlimit="10" stroke-width="2"/><line y2="8" transform="translate(13.667 9)" fill="none" stroke="#000" stroke-linecap="round" stroke-miterlimit="10" stroke-width="2"/></g></svg>