<svg xmlns="http://www.w3.org/2000/svg" viewBox="0 0 32 32">
    <g transform="translate(7.709 9.695)">
        <g transform="translate(-3.709 -1.697)">
            <g transform="translate(-64.858 -8.148)" stroke-linecap="round" stroke-linejoin="round">
                <path
                    d="M 88.85825347900391 20.03581047058105 L 83.03926086425781 16.14837455749512 L 88.85825347900391 12.26094245910645 L 88.85825347900391 20.03581047058105 Z"
                    stroke="none" />
                <path
                    d="M 87.85825347900391 14.13161659240723 L 84.83943176269531 16.14837074279785 L 87.85825347900391 18.16512489318848 L 87.85825347900391 14.13161659240723 M 88.99422454833984 11.14837074279785 C 89.44100189208984 11.14842414855957 89.85825347900391 11.47965621948242 89.85825347900391 11.95493316650391 L 89.85825347900391 20.34182357788086 C 89.85825347900391 20.99623489379883 89.06737518310547 21.37754821777344 88.49726104736328 20.99726295471191 L 82.21866607666016 16.80279159545898 C 81.73812103271484 16.4822826385498 81.73812103271484 15.81446266174316 82.21866607666016 15.49395179748535 L 88.49726104736328 11.29948234558105 C 88.65332794189453 11.19538116455078 88.82582855224609 11.14835166931152 88.99422454833984 11.14837074279785 Z"
                    stroke="none" fill="#000" />
            </g>
            <g transform="translate(0 1.002)" fill="none" stroke="#000" stroke-width="2">
                <rect width="18" height="14" rx="2" stroke="none" />
                <rect x="1" y="1" width="16" height="12" rx="1" fill="none" />
            </g>
        </g>
        <circle cx="2.5" cy="2.5" r="2.5" transform="translate(-4.709 -1.695)" fill="#cb000f" />
    </g>
</svg>