<svg xmlns="http://www.w3.org/2000/svg" width="32" height="32" viewBox="0 0 32 32"><rect width="32" height="32" fill="#fff" opacity="0"/><g transform="translate(4 7.998)"><g transform="translate(-64.858 -8.148)" stroke-linecap="round" stroke-linejoin="round"><path d="M 88.85825347900391 20.03581047058105 L 83.03926086425781 16.14837455749512 L 88.85825347900391 12.26094245910645 L 88.85825347900391 20.03581047058105 Z" stroke="none"/><path d="M 87.85825347900391 14.13161659240723 L 84.83943176269531 16.14837074279785 L 87.85825347900391 18.16512489318848 L 87.85825347900391 14.13161659240723 M 88.99422454833984 11.14837074279785 C 89.44100189208984 11.14842414855957 89.85825347900391 11.47965621948242 89.85825347900391 11.95493316650391 L 89.85825347900391 20.34182357788086 C 89.85825347900391 20.99623489379883 89.06737518310547 21.37754821777344 88.49726104736328 20.99726295471191 L 82.21866607666016 16.80279159545898 C 81.73812103271484 16.4822826385498 81.73812103271484 15.81446266174316 82.21866607666016 15.49395179748535 L 88.49726104736328 11.29948234558105 C 88.65332794189453 11.19538116455078 88.82582855224609 11.14835166931152 88.99422454833984 11.14837074279785 Z" stroke="none" fill="#000"/></g><path d="M8171,18694h-6.759l2-2H8171v-4.76l2-2v6.76A2,2,0,0,1,8171,18694Zm-14.983-.256v0A2,2,0,0,1,8155,18692v-10a2,2,0,0,1,2-2h12.759l-2,2H8157v10h.759l-1.741,1.74Z" transform="translate(-8155 -18679)"/><line y1="24" x2="24" transform="translate(0 -3.998)" fill="none" stroke="#000" stroke-linecap="round" stroke-width="2"/></g></svg>