<svg xmlns="http://www.w3.org/2000/svg" width="32.001" height="32" viewBox="0 0 32.001 32">
    <rect transform="translate(0.001)" fill="none" />
    <path
        d="M7091.252,18723.99l0,0,3.737-3.736a4,4,0,0,1-3.736,3.738Zm-4.251-4.234V18710a4,4,0,1,1,8,0v1.76l-2,2V18710a2,2,0,0,0-4,0v7.758l-2,2Z"
        transform="translate(-7074.999 -18704)" />
    <path
        d="M7091,18728a8.711,8.711,0,0,1-3.174-.588l1.6-1.594a6.866,6.866,0,0,0,1.578.182c3.309,0,6-2.334,6-5.205V18719a1,1,0,1,1,2,0v1.795a6.807,6.807,0,0,1-2.389,5.135A8.42,8.42,0,0,1,7091,18728Zm-7.52-4.725v0a6.559,6.559,0,0,1-.482-2.479V18719a1,1,0,1,1,2,0v1.795a4.508,4.508,0,0,0,.086.879l-1.6,1.6Z"
        transform="translate(-7074.999 -18704)" />
    <line y2="6" transform="translate(16.001 23)" fill="none" stroke="#000" stroke-miterlimit="10" stroke-width="2" />
    <line x2="8" transform="translate(12.001 29)" fill="none" stroke="#000" stroke-linecap="round"
        stroke-miterlimit="10" stroke-width="2" />
    <line y1="24" x2="24" transform="translate(4.001 4)" fill="none" stroke="#000" stroke-linecap="round"
        stroke-width="2" />
</svg>