<svg xmlns="http://www.w3.org/2000/svg" viewBox="0 0 32 32">
    <rect fill="none" />
    <g transform="translate(7.389 10.736)">
        <g transform="translate(13.611 3.264)">
            <line y1="6" x2="6" transform="translate(0 -1)" fill="none" stroke="#000" stroke-linecap="round"
                stroke-miterlimit="10" stroke-width="2" />
            <line x2="6" y2="6" transform="translate(0 -1)" fill="none" stroke="#000" stroke-linecap="round"
                stroke-miterlimit="10" stroke-width="2" />
        </g>
        <g transform="translate(484.73 -72.725)" fill="none" stroke-linejoin="round">
            <path
                d="M-488.119,80.988a2.177,2.177,0,0,0,2,2h5a2.085,2.085,0,0,1,1,.5l3.454,3.207c.921.684,2.546.114,2.546-.958V70.251c0-1.073-1.624-1.652-2.546-.968l-3.454,3.206a2.088,2.088,0,0,1-1,.5h-5a2.151,2.151,0,0,0-2,2Z"
                stroke="none" />
            <path
                d="M -476.1192016601562 84.46855926513672 L -476.1192016601562 71.50624084472656 L -478.7585144042969 73.95608520507812 C -478.8114624023438 74.00521850585938 -478.8670349121094 74.05145263671875 -478.9249572753906 74.09458160400391 C -479.3445739746094 74.40691375732422 -480.1256408691406 74.98828125 -481.119140625 74.98828125 L -486.0342712402344 74.98828125 C -486.0638732910156 75.00941467285156 -486.0980224609375 75.04355621337891 -486.119140625 75.07313537597656 L -486.119140625 80.89159393310547 C -486.0945739746094 80.92524719238281 -486.054931640625 80.96414947509766 -486.0205993652344 80.98828125 L -481.119140625 80.98828125 C -480.1234130859375 80.98828125 -479.343994140625 81.56824493408203 -478.9252319335938 81.87982177734375 C -478.8671569824219 81.92301940917969 -478.8114929199219 81.96934509277344 -478.7584533691406 82.01856994628906 L -476.1192016601562 84.46855926513672 M -475.7095031738281 86.98844146728516 C -476.0492248535156 86.98842620849609 -476.3885498046875 86.89603424072266 -476.6647033691406 86.69108581542969 L -480.119140625 83.484375 C -480.3726501464844 83.29573822021484 -480.7893676757812 82.98828125 -481.119140625 82.98828125 L -486.119140625 82.98828125 C -487.08837890625 82.98828125 -488.1181640625 81.98828125 -488.119140625 80.98828125 L -488.119140625 74.98828125 C -488.119140625 73.98828125 -487.119140625 72.98828125 -486.119140625 72.98828125 L -481.119140625 72.98828125 C -480.7893676757812 72.98828125 -480.37255859375 72.67886352539062 -480.119140625 72.490234375 L -476.6647033691406 69.28379058837891 C -475.7430419921875 68.59984588623047 -474.1192016601562 69.1787109375 -474.1192016601562 70.25143432617188 L -474.1192016601562 85.73279571533203 C -474.1192016601562 86.48406219482422 -474.9155883789062 86.98847961425781 -475.7095031738281 86.98844146728516 Z"
                stroke="none" fill="#000" />
        </g>
    </g>
</svg>