<svg xmlns="http://www.w3.org/2000/svg" viewBox="0 0 32 32">
    <g transform="translate(3.999 6.666)">
        <path d="M-472.8,76.031a5.075,5.075,0,0,1,0,6" transform="translate(494.804 -69.696)" fill="none" stroke="#000"
            stroke-linecap="round" stroke-miterlimit="10" stroke-width="2" />
        <g transform="translate(488.119 -71.649)" fill="none" stroke-linejoin="round">
            <path
                d="M-488.119,84.982a2.193,2.193,0,0,0,2,2h7a1.421,1.421,0,0,1,1,.35l5.025,3.254a1.828,1.828,0,0,0,2.975-1.321V72.7a1.828,1.828,0,0,0-2.975-1.321l-5.025,3.3a1.383,1.383,0,0,1-1,.3h-7a2.193,2.193,0,0,0-2,2Z"
                stroke="none" />
            <path
                d="M -472.1192016601562 88.83419036865234 L -472.1192016601562 73.13211059570312 L -476.9632568359375 76.31747436523438 C -477.7496948242188 76.90179443359375 -478.492431640625 76.982421875 -479.11865234375 76.982421875 L -486.0157775878906 76.982421875 C -486.0516357421875 77.00927734375 -486.0929565429688 77.05226898193359 -486.11865234375 77.08949279785156 L -486.11865234375 84.87535095214844 C -486.0929565429688 84.91257476806641 -486.0516357421875 84.95556640625 -486.0157775878906 84.982421875 L -479.11865234375 84.982421875 C -478.2929382324219 84.982421875 -477.6250305175781 85.202880859375 -476.9668579101562 85.69517517089844 L -472.1192016601562 88.83419036865234 M -471.9450073242188 90.98255920410156 C -472.3395080566406 90.98251342773438 -472.7432556152344 90.85945129394531 -473.0938110351562 90.58579254150391 L -478.11865234375 87.33203125 C -478.4446105957031 87.07695007324219 -478.6946716308594 86.982421875 -479.11865234375 86.982421875 L -486.11865234375 86.982421875 C -487.1222229003906 86.982421875 -488.11865234375 85.92864227294922 -488.11865234375 84.982421875 L -488.11865234375 76.982421875 C -488.11865234375 76.03618621826172 -487.1222229003906 74.982421875 -486.11865234375 74.982421875 L -479.11865234375 74.982421875 C -478.6946716308594 74.982421875 -478.4446105957031 74.93868255615234 -478.11865234375 74.68358612060547 L -473.0938110351562 71.37932586669922 C -471.9091186523438 70.45445251464844 -470.1192016601562 71.24968719482422 -470.1192016601562 72.70033264160156 L -470.1192016601562 89.26480865478516 C -470.1192016601562 90.28623199462891 -471.00634765625 90.98267364501953 -471.9450073242188 90.98255920410156 Z"
                stroke="none" fill="#000" />
        </g>
    </g>
</svg>