<svg xmlns="http://www.w3.org/2000/svg" viewBox="0 0 32 32">
    <g transform="translate(2.667 4)">
        <line y2="6" transform="translate(13.333 7)" fill="none" stroke="#000" stroke-linecap="round"
            stroke-linejoin="round" stroke-width="2" />
        <line y1="2" transform="translate(13.333 17)" fill="none" stroke="#000" stroke-linecap="round"
            stroke-linejoin="round" stroke-width="2" />
        <g transform="translate(-313.667 -4.457)" fill="none" stroke-linecap="round" stroke-linejoin="round">
            <path
                d="M325.008,5.568a2.343,2.343,0,0,1,3.985,0l5.848,9.78,5.849,9.779a2.223,2.223,0,0,1-1.992,3.332H315.3a2.223,2.223,0,0,1-1.992-3.332l5.849-9.779Z"
                stroke="none" />
            <path
                d="M 326.9998779296875 6.457992553710938 C 326.9114074707031 6.457992553710938 326.7917175292969 6.481721878051758 326.72412109375 6.594812393188477 L 315.0281677246094 26.15247344970703 C 315.0061340332031 26.1893424987793 314.9787292480469 26.23522186279297 315.0251770019531 26.31711196899414 C 315.0619201660156 26.38182258605957 315.1399841308594 26.45896339416504 315.3035278320312 26.45896339416504 L 338.6962280273438 26.45896339416504 C 338.8597717285156 26.45896339416504 338.9378662109375 26.38181304931641 338.974609375 26.31709289550781 C 339.0210876464844 26.23519325256348 338.9936828613281 26.18931198120117 338.9721374511719 26.15327262878418 L 327.2756042480469 6.594741821289062 C 327.2080383300781 6.481721878051758 327.08837890625 6.457992553710938 326.9998779296875 6.457992553710938 M 326.9998779296875 4.45799446105957 C 327.7747497558594 4.45799446105957 328.5495910644531 4.82813835144043 328.9921875 5.568422317504883 L 340.6885375976562 25.12665176391602 C 341.5737609863281 26.60826301574707 340.4667053222656 28.45896339416504 338.6962280273438 28.45896339416504 L 315.3035278320312 28.45896339416504 C 313.5330505371094 28.45896339416504 312.426025390625 26.60826301574707 313.311279296875 25.12665176391602 L 325.007568359375 5.568422317504883 C 325.4501953125 4.82813835144043 326.2250366210938 4.45799446105957 326.9998779296875 4.45799446105957 Z"
                stroke="none" fill="#000" />
        </g>
    </g>
</svg>