<svg xmlns="http://www.w3.org/2000/svg" width="32" height="32" viewBox="0 0 32 32"><rect width="32" height="32" fill="#fff" opacity="0"/><g transform="translate(5.333 5.334)"><path d="M22.876,20.716a1,1,0,1,0,1,1h0A1,1,0,0,0,22.876,20.716Z" transform="translate(-3.208 -2.051)"/><line y2="6" transform="translate(-1.333 0.666)" fill="#040405" stroke="#000" stroke-linecap="round" stroke-miterlimit="10" stroke-width="2"/><line y2="6" transform="translate(4.667 0.666)" fill="#040405" stroke="#000" stroke-linecap="round" stroke-miterlimit="10" stroke-width="2"/><line y2="6" transform="translate(10.667 0.666)" fill="#040405" stroke="#000" stroke-linecap="round" stroke-miterlimit="10" stroke-width="2"/><g transform="translate(15.667 -0.334)" fill="none" stroke="#000" stroke-miterlimit="10" stroke-width="2"><rect width="8" height="8" rx="1" stroke="none"/><rect x="1" y="1" width="6" height="6" fill="none"/></g><path d="M23.016,27.216c-4.239,0-3.876-5-3.876-5l.985-7h6l1,7s.349,5-3.89,5Z" transform="translate(-3.466 -3.55)" fill="none" stroke="#000" stroke-linejoin="round" stroke-width="2"/></g></svg>