<svg xmlns="http://www.w3.org/2000/svg" width="24" height="24" viewBox="0 0 24 24"><rect width="24" height="24" fill="#fff" opacity="0"/><g transform="translate(-64.629 369.342)" fill="none" stroke-miterlimit="10"><path d="M77.144-365.369a.478.478,0,0,0-.335.139.476.476,0,0,0-.139.336v7.564H69.1a.478.478,0,0,0-.335.139.475.475,0,0,0-.14.335,8.514,8.514,0,0,0,8.514,8.514,8.513,8.513,0,0,0,8.514-8.514A8.512,8.512,0,0,0,77.144-365.369Z" stroke="none"/><path d="M 78.66970825195312 -363.1885681152344 L 78.66970825195312 -355.330078125 L 70.81049346923828 -355.330078125 C 71.4990234375 -352.4719848632812 74.07730102539062 -350.3423461914062 77.14373779296875 -350.3423461914062 C 80.73542022705078 -350.3423461914062 83.657470703125 -353.264404296875 83.657470703125 -356.8560791015625 C 83.657470703125 -359.9221496582031 81.52780151367188 -362.5001220703125 78.66970825195312 -363.1885681152344 M 77.14373779296875 -365.3690185546875 C 81.84729766845703 -365.3690185546875 85.657470703125 -361.558837890625 85.657470703125 -356.8560791015625 C 85.657470703125 -352.1541748046875 81.84729766845703 -348.3423461914062 77.14373779296875 -348.3423461914062 C 72.44181060791016 -348.3423461914062 68.62999725341797 -352.1541748046875 68.62999725341797 -356.8560791015625 C 68.62999725341797 -356.98095703125 68.68058013916016 -357.103271484375 68.76953125 -357.1914672851562 C 68.85762786865234 -357.279541015625 68.98001861572266 -357.330078125 69.10485076904297 -357.330078125 L 76.66970825195312 -357.330078125 L 76.66970825195312 -364.8941650390625 C 76.66970825195312 -365.0198364257812 76.71946716308594 -365.141357421875 76.80841064453125 -365.2303466796875 C 76.89651489257812 -365.3184204101562 77.01890563964844 -365.3690185546875 77.14373779296875 -365.3690185546875 Z" stroke="none" fill="#000"/></g><g transform="translate(-64.5 369.5)" fill="none" stroke-miterlimit="10"><path d="M74.366-359.635a.463.463,0,0,0,.134-.325v-7.079a.465.465,0,0,0-.134-.326.463.463,0,0,0-.325-.134,7.541,7.541,0,0,0-7.54,7.54.464.464,0,0,0,.135.325.463.463,0,0,0,.325.134h7.08A.463.463,0,0,0,74.366-359.635Z" stroke="none"/><path d="M 72.5 -361.5008239746094 L 72.5 -365.2821350097656 C 70.68170928955078 -364.7549743652344 69.24563598632812 -363.3190612792969 68.71817779541016 -361.5008239746094 L 72.5 -361.5008239746094 M 74.04044342041016 -359.5008239746094 L 66.96035003662109 -359.5008239746094 C 66.83933258056641 -359.5008239746094 66.72068786621094 -359.5498657226562 66.63524627685547 -359.6352844238281 C 66.54984283447266 -359.720703125 66.5 -359.83935546875 66.5 -359.9603576660156 C 66.50079345703125 -364.1241149902344 69.87592315673828 -367.5000305175781 74.04044342041016 -367.5000305175781 C 74.16146087646484 -367.5000305175781 74.28011322021484 -367.4509582519531 74.36553955078125 -367.3655395507812 C 74.45097351074219 -367.2793579101562 74.5 -367.1614685058594 74.5 -367.0396728515625 L 74.5 -359.9603576660156 C 74.5 -359.83935546875 74.45097351074219 -359.720703125 74.36553955078125 -359.6352844238281 C 74.28011322021484 -359.5498657226562 74.16146087646484 -359.5008239746094 74.04044342041016 -359.5008239746094 Z" stroke="none" fill="#000"/></g></svg>