<svg xmlns="http://www.w3.org/2000/svg" viewBox="0 0 24 24">
    <g transform="translate(3.6 2.652)">
        <g transform="translate(-4.4 -3.751)" fill="none" stroke-miterlimit="10">
            <path
                d="M12.811,22.311a4.412,4.412,0,0,1,.909.112,4.909,4.909,0,0,1,.909.362l.021.01c.112.054.228.11.347.161a1.525,1.525,0,0,0,.616.144,2.3,2.3,0,0,0,.953-.287,4.053,4.053,0,0,0,1.513-1.3,12.933,12.933,0,0,0,1.664-2.823c.088-.2.155-.363.212-.515a10.364,10.364,0,0,0,.6-6.312,4.877,4.877,0,0,0-1.936-2.9.442.442,0,0,1-.042-.03,3.294,3.294,0,0,0-.666-.418,4,4,0,0,0-1.738-.41h-.1a5.715,5.715,0,0,0-1.978.524l-.391.152c-.17.065-.566.2-.57.2a.453.453,0,0,1-.156.027H12.84a.163.163,0,0,0-.029,0H12.79l-.03,0h-.147a.458.458,0,0,1-.155-.027s-.4-.14-.571-.206l-.386-.15A5.759,5.759,0,0,0,9.518,8.1H9.411a4.04,4.04,0,0,0-1.729.411,3.322,3.322,0,0,0-.668.419.388.388,0,0,1-.04.029A4.96,4.96,0,0,0,5.05,11.814a10.361,10.361,0,0,0,.578,6.322c.084.222.159.4.228.551A12.881,12.881,0,0,0,7.519,21.51,4.023,4.023,0,0,0,8.978,22.79a2.507,2.507,0,0,0,1.011.309,1.53,1.53,0,0,0,.611-.142c.117-.05.231-.1.341-.158l.021-.01a5.022,5.022,0,0,1,.917-.365,4.2,4.2,0,0,1,.915-.112h.016Z"
                stroke="none" />
            <path
                d="M 9.97484016418457 21.04438209533691 C 10.00405120849609 21.03055191040039 10.0334358215332 21.01645278930664 10.06238269805908 21.00250625610352 L 10.11215209960938 20.97826957702637 C 10.44667148590088 20.81857109069824 10.86300182342529 20.61983108520508 11.38056182861328 20.48639106750488 C 11.77503204345703 20.38470077514648 12.21785163879395 20.32765960693359 12.73432159423828 20.31203079223633 L 12.84636211395264 20.31110954284668 L 12.88143157958984 20.31233978271484 C 13.20978164672852 20.3238697052002 13.70554161071777 20.35440063476562 14.21884155273438 20.48614120483398 C 14.74333190917969 20.62108039855957 15.16072177886963 20.8216609954834 15.49687194824219 20.98320960998535 L 15.53914165496826 21.00350952148438 C 15.56817436218262 21.0174388885498 15.59668159484863 21.0311164855957 15.62435531616211 21.04426383972168 C 15.66646385192871 21.02556419372559 15.70981979370117 21.00602149963379 15.74882125854492 20.98843955993652 C 15.93238162994385 20.90616035461426 16.12434196472168 20.75670051574707 16.51334190368652 20.26688957214355 C 17.03284072875977 19.61251068115234 17.50412178039551 18.8094310760498 17.9145622253418 17.87886047363281 C 17.98352241516113 17.72274971008301 18.03751182556152 17.59198951721191 18.08445167541504 17.46733093261719 L 18.10249137878418 17.4194507598877 L 18.12295150756836 17.37253952026367 C 19.24024200439453 14.81116008758545 18.63400077819824 12.39633083343506 18.62826156616211 12.37417030334473 L 18.61388206481934 12.32009029388428 L 18.60255241394043 12.26529026031494 C 18.39913368225098 11.281494140625 17.6048641204834 10.68781280517578 17.52569198608398 10.63080501556396 C 17.45952987670898 10.58768939971924 17.40749740600586 10.54876232147217 17.37192153930664 10.52134037017822 L 17.30989074707031 10.47220039367676 C 17.24616241455078 10.41963005065918 17.15643119812012 10.36508083343506 17.04035186767578 10.3087100982666 C 16.76530075073242 10.17460060119629 16.45942115783691 10.10074043273926 16.17906188964844 10.10074043273926 C 16.1610107421875 10.10074043273926 16.14295959472656 10.1005802154541 16.12973213195801 10.10086059570312 C 15.80838203430176 10.10877990722656 15.44683170318604 10.24536991119385 14.83545207977295 10.48611068725586 L 14.42451190948486 10.64568996429443 C 14.24443054199219 10.71435642242432 13.90376091003418 10.83401107788086 13.81296825408936 10.86578464508057 C 13.54721546173096 10.9607982635498 13.26914596557617 11.00896072387695 12.98626136779785 11.00896072387695 L 12.61270141601562 11.00896072387695 C 12.32804203033447 11.00896072387695 12.04866123199463 10.96051025390625 11.78232192993164 10.86495018005371 L 11.75230121612549 10.85429000854492 C 11.55971145629883 10.78604030609131 11.32007122039795 10.70062065124512 11.17515182495117 10.6454906463623 L 11.16029167175293 10.6397705078125 L 10.76894187927246 10.48729991912842 C 10.15560817718506 10.24668788909912 9.792171478271484 10.10986042022705 9.469342231750488 10.10089302062988 C 9.450567245483398 10.10047626495361 9.431124687194824 10.10000038146973 9.411321640014648 10.10000038146973 C 9.146421432495117 10.10000038146973 8.827362060546875 10.17829036712646 8.554512023925781 10.31105041503906 C 8.442370414733887 10.36536026000977 8.354514122009277 10.4187650680542 8.286118507385254 10.47421550750732 C 8.226228713989258 10.52366542816162 8.163754463195801 10.57033920288086 8.099706649780273 10.61350440979004 C 8.02799129486084 10.66589641571045 7.198098659515381 11.2900333404541 7.009601593017578 12.21378993988037 L 6.998651504516602 12.26743030548096 L 6.98479175567627 12.32038021087646 C 6.958581447601318 12.42051029205322 6.35556173324585 14.80185031890869 7.461051464080811 17.33654022216797 L 7.481371879577637 17.38313102722168 L 7.499301433563232 17.43070030212402 C 7.566481590270996 17.60894012451172 7.626991748809814 17.74846076965332 7.682371616363525 17.8726806640625 L 7.686281681060791 17.88150978088379 C 8.094381332397461 18.80891990661621 8.565151214599609 19.61143112182617 9.08541202545166 20.26662063598633 C 9.413211822509766 20.67938995361328 9.62667179107666 20.88865089416504 9.795051574707031 20.96450042724609 L 9.800541877746582 20.96696090698242 C 9.856377601623535 20.99196243286133 9.917924880981445 21.0195198059082 9.97484016418457 21.04438209533691 M 15.6140718460083 23.10000038146973 C 15.42050170898438 23.10000038146973 15.22479152679443 23.05433082580566 14.99837207794189 22.95637130737305 C 14.87908172607422 22.90554046630859 14.76337146759033 22.84955978393555 14.65123176574707 22.79578971862793 L 14.62980175018311 22.78548049926758 C 14.34624195098877 22.64920997619629 14.05267143249512 22.50852012634277 13.72053146362305 22.42307090759277 C 13.3962516784668 22.33983993530273 13.04197120666504 22.31921005249023 12.81126117706299 22.31110954284668 L 12.79484176635742 22.31110954284668 C 12.42984199523926 22.3221607208252 12.13128185272217 22.35824966430664 11.87985134124756 22.42307090759277 C 11.54557132720947 22.50925064086914 11.25129127502441 22.65068054199219 10.96273136138916 22.78841972351074 L 10.94201183319092 22.79873085021973 C 10.83201122283936 22.85177040100098 10.71773147583008 22.90627098083496 10.6005916595459 22.95637130737305 C 10.37559127807617 23.05286026000977 10.18060207366943 23.09852981567383 9.989171981811523 23.09852981567383 C 9.665611267089844 23.09852981567383 9.379181861877441 22.96961975097656 8.977761268615723 22.78989028930664 C 8.407061576843262 22.5328197479248 7.981351852416992 22.09234046936035 7.519221782684326 21.51043128967285 C 6.892801761627197 20.7215404510498 6.332811832427979 19.77132987976074 5.855681419372559 18.68706130981445 C 5.786391735076904 18.53164100646973 5.711391448974609 18.35781097412109 5.627821445465088 18.1360912322998 C 4.274991512298584 15.0342903137207 4.967841625213623 12.12770080566406 5.049981594085693 11.81391048431396 C 5.412831783294678 10.03577041625977 6.904941558837891 9.006750106811523 6.974941730499268 8.959609985351562 C 6.989941596984863 8.950030326843262 7.003511428833008 8.939720153808594 7.014941692352295 8.930140495300293 C 7.206371784210205 8.773250579833984 7.424221515655518 8.636240005493164 7.682791709899902 8.511020660400391 C 8.227781295776367 8.245850563049316 8.84205150604248 8.100000381469727 9.411321640014648 8.100000381469727 C 9.447761535644531 8.100000381469727 9.483471870422363 8.100740432739258 9.517751693725586 8.101469993591309 C 10.20917129516602 8.119150161743164 10.80773162841797 8.354120254516602 11.50057125091553 8.625930786132812 L 11.88628196716309 8.776190757751465 C 12.06056118011475 8.842490196228027 12.45627117156982 8.98169994354248 12.45770168304443 8.982439994812012 C 12.50698184967041 9.000120162963867 12.55912208557129 9.008960723876953 12.61270141601562 9.008960723876953 L 12.75984191894531 9.008960723876953 C 12.77055168151855 9.006750106811523 12.7812614440918 9.006010055541992 12.78983211517334 9.005270004272461 C 12.79269123077393 9.005270004272461 12.80698204040527 9.005270004272461 12.81126117706299 9.006010055541992 C 12.82198143005371 9.006010055541992 12.83126163482666 9.007480621337891 12.83983135223389 9.008960723876953 L 12.98626136779785 9.008960723876953 C 13.03912162780762 9.008960723876953 13.0912618637085 9.000120162963867 13.14197158813477 8.98169994354248 C 13.14626121520996 8.980230331420898 13.54196166992188 8.841750144958496 13.71196174621582 8.776930809020996 L 14.10267162322998 8.625190734863281 C 14.79480171203613 8.35265064239502 15.3926420211792 8.118410110473633 16.08049201965332 8.101469993591309 C 16.11335182189941 8.100740432739258 16.14620208740234 8.100740432739258 16.17906188964844 8.100740432739258 C 16.76405143737793 8.100740432739258 17.36547088623047 8.242160797119141 17.9168815612793 8.511020660400391 C 18.17473220825195 8.636240005493164 18.39330101013184 8.773250579833984 18.58259201049805 8.929400444030762 C 18.59616088867188 8.939720153808594 18.60973167419434 8.950770378112793 18.62473106384277 8.959609985351562 C 18.64044189453125 8.96992015838623 20.16756248474121 9.956950187683105 20.56112098693848 11.86031055450439 C 20.61184120178223 12.05109024047852 21.34611129760742 14.98568058013916 19.95613098144531 18.17218971252441 C 19.89899253845215 18.32392120361328 19.83185195922852 18.48818016052246 19.74399185180664 18.68706130981445 C 19.26543235778809 19.77206993103027 18.70544242858887 20.72228050231934 18.07974243164062 21.51043128967285 C 17.61760139465332 22.09234046936035 17.18476104736328 22.5365104675293 16.5669116973877 22.8134708404541 C 16.1976318359375 22.97994041442871 15.93049144744873 23.10000038146973 15.6140718460083 23.10000038146973 Z"
                stroke="none" fill="#000" />
        </g>
        <path d="M16.114,7.536s-.5-2.968.913-4" transform="translate(-7.624 -2.188)" fill="none" stroke="#000"
            stroke-linecap="round" stroke-linejoin="round" stroke-width="2" />
        <path d="M20.1,12.249s2.075,1.039,2,3" transform="translate(-10.704 -2.9)" fill="none" stroke="#000"
            stroke-linecap="round" stroke-linejoin="round" stroke-width="2" />
    </g>
</svg>