<svg xmlns="http://www.w3.org/2000/svg" width="24" height="24" viewBox="0 0 24 24"><rect width="24" height="24" fill="#fff" opacity="0"/><g transform="translate(3 2)"><path d="M-296.033,87.573a1.949,1.949,0,0,0,2,1.894,1.949,1.949,0,0,0,2-1.894v-.106h-4Z" transform="translate(303.033 -70.467)"/><g transform="translate(304.673 -66.5)" fill="none" stroke-miterlimit="10"><path d="M-294.159,66.71a5.68,5.68,0,0,1,4.407,5.431v3.016A6.969,6.969,0,0,0-287.1,80.69c.043.035.085.071.128.106a.974.974,0,0,1,.3.7,1.036,1.036,0,0,1-1.062,1.007h-15.877a1.036,1.036,0,0,1-1.062-1.007.974.974,0,0,1,.3-.7l.128-.106a6.97,6.97,0,0,0,2.654-5.532V72.141a5.668,5.668,0,0,1,4.25-5.389A5.843,5.843,0,0,1-294.159,66.71Z" stroke="none"/><path d="M -295.5807495117188 68.49999237060547 C -296.1671142578125 68.49999237060547 -296.6648254394531 68.63770294189453 -296.735107421875 68.65803527832031 L -296.7530822753906 68.66432189941406 L -296.8067016601562 68.67926025390625 C -298.4474792480469 69.13636779785156 -299.5934448242188 70.55998992919922 -299.5934448242188 72.14125061035156 L -299.5934448242188 75.15754699707031 C -299.5934448242188 76.55567932128906 -299.8886108398438 77.87753295898438 -300.4707336425781 79.08640289306641 C -300.7090759277344 79.58132934570312 -300.9934997558594 80.05307006835938 -301.3226318359375 80.49981689453125 L -290.0234069824219 80.49981689453125 C -290.3523864746094 80.05319976806641 -290.6369018554688 79.58132934570312 -290.875244140625 79.08638763427734 C -291.4573364257812 77.87754821777344 -291.7525024414062 76.55568695068359 -291.7525024414062 75.15754699707031 L -291.7525024414062 72.14125061035156 C -291.7525024414062 70.51229858398438 -292.9420166015625 69.07674407958984 -294.6451416015625 68.65023040771484 L -294.714599609375 68.63284301757812 L -294.7826232910156 68.61052703857422 C -295.0062561035156 68.53717803955078 -295.2747802734375 68.49999237060547 -295.5807495117188 68.49999237060547 M -295.5807495117188 66.49999237060547 C -295.1295166015625 66.49999237060547 -294.6366577148438 66.55357360839844 -294.1593017578125 66.71014404296875 C -291.6228637695312 67.34532165527344 -289.7525024414062 69.53556823730469 -289.7525024414062 72.14125061035156 L -289.7525024414062 75.15754699707031 C -289.7525024414062 77.36544799804688 -288.8258056640625 79.26857757568359 -287.0987854003906 80.68972015380859 C -287.0558471679688 80.72502136230469 -287.0136108398438 80.76109313964844 -286.9706420898438 80.79557800292969 C -286.7867736816406 80.97604370117188 -286.6730041503906 81.22145843505859 -286.6730041503906 81.49250793457031 C -286.6730041503906 82.04911041259766 -287.1485595703125 82.49981689453125 -287.7346496582031 82.49981689453125 L -303.6112670898438 82.49981689453125 C -304.1973876953125 82.49981689453125 -304.6730041503906 82.04911041259766 -304.6730041503906 81.49250793457031 C -304.6730041503906 81.22145843505859 -304.5591430664062 80.97604370117188 -304.3753051757812 80.79557800292969 C -304.3323364257812 80.76109313964844 -304.2901611328125 80.72502136230469 -304.2471313476562 80.68972015380859 C -302.5202026367188 79.26857757568359 -301.5934448242188 77.36544799804688 -301.5934448242188 75.15754699707031 L -301.5934448242188 72.14125061035156 C -301.5934448242188 69.590087890625 -299.7989807128906 67.43672180175781 -297.3434448242188 66.75263214111328 C -297.3434448242188 66.75263214111328 -296.5603332519531 66.49999237060547 -295.5807495117188 66.49999237060547 Z" stroke="none" fill="#000"/></g></g></svg>