<svg xmlns="http://www.w3.org/2000/svg" viewBox="0 0 24 24">
    <g transform="translate(3 2)">
        <path d="M-296.033,87.573a1.949,1.949,0,0,0,2,1.894,1.949,1.949,0,0,0,2-1.894v-.106h-4Z"
            transform="translate(303.033 -70.467)" />
        <g transform="translate(304.673 -66.5)" stroke-miterlimit="10">
            <path
                d="M -287.7346496582031 81.49980926513672 L -289.034912109375 81.49980926513672 L -289.7525024414062 81.49980926513672 L -301.5934448242188 81.49980926513672 L -302.4240112304688 81.49980926513672 L -303.6112670898438 81.49980926513672 C -303.6273498535156 81.49980926513672 -303.6400451660156 81.49710845947266 -303.6498107910156 81.49349975585938 L -303.61279296875 81.46275329589844 C -301.6371459960938 79.83694458007812 -300.5934448242188 77.65694427490234 -300.5934448242188 75.15753936767578 L -300.5934448242188 72.1412353515625 C -300.5934448242188 71.13332366943359 -300.2530212402344 70.17579650878906 -299.6089477539062 69.37216949462891 C -298.9766235351562 68.58319091796875 -298.0767517089844 67.99500274658203 -297.0750732421875 67.71593475341797 L -297.0556335449219 67.71052551269531 L -297.0364074707031 67.70432281494141 C -297.0332641601562 67.70334625244141 -296.3777160644531 67.49999237060547 -295.5807495117188 67.49999237060547 C -295.1687622070312 67.49999237060547 -294.7953491210938 67.55393981933594 -294.4709777832031 67.66033935546875 L -294.4369506835938 67.67149353027344 L -294.4022216796875 67.68019104003906 C -292.2533264160156 68.21829986572266 -290.7525024414062 70.05274963378906 -290.7525024414062 72.1412353515625 L -290.7525024414062 75.15753936767578 C -290.7525024414062 77.65701293945312 -289.7088012695312 79.83702087402344 -287.7341918945312 81.46188354492188 L -287.6961364746094 81.49349975585938 C -287.7059020996094 81.49710845947266 -287.7185668945312 81.49980926513672 -287.7346496582031 81.49980926513672 Z"
                stroke="none" />
            <path
                d="M -295.5807495117188 68.49999237060547 C -296.1670837402344 68.49999237060547 -296.664794921875 68.63768005371094 -296.735107421875 68.65802764892578 L -296.7530822753906 68.66431427001953 L -296.8067016601562 68.67925262451172 C -298.4474792480469 69.13637542724609 -299.5934448242188 70.55998229980469 -299.5934448242188 72.1412353515625 L -299.5934448242188 75.15753936767578 C -299.5934448242188 76.55567169189453 -299.8886108398438 77.87753295898438 -300.4707336425781 79.08640289306641 C -300.7090759277344 79.58132934570312 -300.9934997558594 80.05307769775391 -301.3226318359375 80.49980926513672 L -290.0234069824219 80.49980926513672 C -290.3523864746094 80.05319213867188 -290.6369018554688 79.58132934570312 -290.875244140625 79.08639526367188 C -291.4573364257812 77.87755584716797 -291.7525024414062 76.55569458007812 -291.7525024414062 75.15753936767578 L -291.7525024414062 72.1412353515625 C -291.7525024414062 70.51227569580078 -292.9419860839844 69.07672119140625 -294.6451416015625 68.65024566650391 L -294.7145690917969 68.63284301757812 L -294.7826232910156 68.61053466796875 C -295.0062561035156 68.53718566894531 -295.2747802734375 68.49999237060547 -295.5807495117188 68.49999237060547 M -295.5807800292969 66.49999237060547 C -295.1295166015625 66.49999237060547 -294.6366577148438 66.55357360839844 -294.1593017578125 66.71014404296875 C -291.6228637695312 67.34530639648438 -289.7525024414062 69.53555297851562 -289.7525024414062 72.1412353515625 L -289.7525024414062 75.15753936767578 C -289.7525024414062 77.36546325683594 -288.8258056640625 79.26856994628906 -287.0987854003906 80.68971252441406 C -287.0558471679688 80.72502136230469 -287.0136108398438 80.76109313964844 -286.9706420898438 80.79559326171875 C -286.7867736816406 80.97603607177734 -286.6730041503906 81.22145080566406 -286.6730041503906 81.49249267578125 C -286.6730041503906 82.04910278320312 -287.1485595703125 82.49980926513672 -287.7346496582031 82.49980926513672 L -303.6112670898438 82.49980926513672 C -304.1973876953125 82.49980926513672 -304.6730041503906 82.04910278320312 -304.6730041503906 81.49249267578125 C -304.6730041503906 81.22145080566406 -304.5591430664062 80.97603607177734 -304.3753051757812 80.79559326171875 C -304.3323364257812 80.76109313964844 -304.2901611328125 80.72502136230469 -304.2471313476562 80.68971252441406 C -302.5202026367188 79.26856994628906 -301.5934448242188 77.36546325683594 -301.5934448242188 75.15753936767578 L -301.5934448242188 72.1412353515625 C -301.5934448242188 69.59008026123047 -299.7989807128906 67.43672180175781 -297.3434448242188 66.75262451171875 C -297.3434448242188 66.75262451171875 -296.5603637695312 66.49999237060547 -295.5807800292969 66.49999237060547 Z"
                stroke="none" fill="#000" />
        </g>
    </g>
</svg>