<svg xmlns="http://www.w3.org/2000/svg" viewBox="0 0 24 24">
    <g transform="translate(307 -63.234)" fill="none" stroke-miterlimit="10">
        <path
            d="M-300,67.76V84a.257.257,0,0,0,.439.159l4.436-4.351a.18.18,0,0,1,.249,0l4.437,4.351A.257.257,0,0,0-290,84V67.76a1.6,1.6,0,0,0-1.664-1.527h-6.672A1.6,1.6,0,0,0-300,67.76Z"
            stroke="none" />
        <path
            d="M -298 68.23300170898438 L -298 79.82654571533203 L -296.5276489257812 78.38221740722656 C -296.1185913085938 77.97964477539062 -295.5763244628906 77.75799560546875 -295.0004272460938 77.75799560546875 C -294.4240417480469 77.75799560546875 -293.8812255859375 77.9801025390625 -293.4754028320312 78.38004302978516 L -292 79.82707977294922 L -292 68.23300170898438 L -298 68.23300170898438 M -298.3358459472656 66.23300170898438 L -291.6641540527344 66.23300170898438 C -290.7449951171875 66.23300170898438 -290 66.91680145263672 -290 67.76044464111328 L -290 84.00015258789062 C -290 84.21127319335938 -290.2816467285156 84.313720703125 -290.4391784667969 84.15925598144531 L -294.8758239746094 79.80791473388672 C -294.9433898925781 79.74134063720703 -295.0576171875 79.74138641357422 -295.125 79.80791473388672 L -299.5608215332031 84.15925598144531 C -299.7182922363281 84.31375122070312 -300 84.21125793457031 -300 84.00015258789062 L -300 67.76044464111328 C -300 66.91680145263672 -299.2550048828125 66.23300170898438 -298.3358459472656 66.23300170898438 Z"
            stroke="none" fill="#000" />
    </g>
</svg>