<svg xmlns="http://www.w3.org/2000/svg" viewBox="0 0 24 24">
    <g transform="translate(0 0.002)">
        <g transform="translate(307 -63.234)" stroke-miterlimit="10">
            <path
                d="M -291 82.20852661132812 L -294.1755981445312 79.09397125244141 C -294.3948364257812 78.87791442871094 -294.6883850097656 78.75799560546875 -295.0004272460938 78.75799560546875 C -295.3126831054688 78.75799560546875 -295.6063232421875 78.87804412841797 -295.8273010253906 79.09602355957031 L -299 82.20830535888672 L -299 67.76044464111328 C -299 67.47454071044922 -298.6958618164062 67.23301696777344 -298.3358459472656 67.23301696777344 L -291.6641540527344 67.23301696777344 C -291.3041381835938 67.23301696777344 -291 67.47454071044922 -291 67.76044464111328 L -291 82.20852661132812 Z"
                stroke="none" />
            <path
                d="M -298 68.23300170898438 L -298 79.82654571533203 L -296.5276489257812 78.38221740722656 C -296.1185913085938 77.97964477539062 -295.5763244628906 77.75799560546875 -295.0004272460938 77.75799560546875 C -294.4240417480469 77.75799560546875 -293.8812255859375 77.9801025390625 -293.4754028320312 78.38004302978516 L -292 79.82707977294922 L -292 68.23300170898438 L -298 68.23300170898438 M -298.3358459472656 66.23300170898438 L -291.6641540527344 66.23300170898438 C -290.7449951171875 66.23300170898438 -290 66.91680145263672 -290 67.76044464111328 L -290 84.00015258789062 C -290 84.21127319335938 -290.2816467285156 84.313720703125 -290.4391784667969 84.15925598144531 L -294.8758239746094 79.80791473388672 C -294.9433898925781 79.74134063720703 -295.0576171875 79.74138641357422 -295.125 79.80791473388672 L -299.5608215332031 84.15925598144531 C -299.7182922363281 84.31375122070312 -300 84.21125793457031 -300 84.00015258789062 L -300 67.76044464111328 C -300 66.91680145263672 -299.2550048828125 66.23300170898438 -298.3358459472656 66.23300170898438 Z"
                stroke="none" fill="#000" />
        </g>
    </g>
</svg>