<svg xmlns="http://www.w3.org/2000/svg" width="24" height="24" viewBox="0 0 24 24"><rect width="24" height="24" fill="#fff" opacity="0"/><g transform="translate(2 4.25)"><g transform="translate(-252 -7.031)" fill="none" stroke-miterlimit="10"><path d="M270,8.781h-3l-3-2h-6l-2,2h-2a2.087,2.087,0,0,0-2,2v10a2.087,2.087,0,0,0,2,2h16a2.087,2.087,0,0,0,2-2v-10A2.087,2.087,0,0,0,270,8.781Z" stroke="none"/><path d="M 258.8284301757812 8.78118896484375 L 256.8284301757812 10.78118896484375 L 254.0521545410156 10.78118896484375 C 254.0339660644531 10.79367637634277 254.0128173828125 10.81439399719238 254 10.83227348327637 L 254 20.73009872436523 C 254.0128173828125 20.74797630310059 254.0339660644531 20.76869964599609 254.0521850585938 20.78118896484375 L 269.9478149414062 20.78118896484375 C 269.9660034179688 20.76869964599609 269.9871826171875 20.74797248840332 270 20.73008728027344 L 270 10.83228302001953 C 269.9871826171875 10.81440353393555 269.9660034179688 10.79367828369141 269.9478149414062 10.78118896484375 L 266.3944396972656 10.78118896484375 L 263.3944396972656 8.78118896484375 L 258.8284301757812 8.78118896484375 M 258 6.78118896484375 L 264 6.78118896484375 L 267 8.78118896484375 L 270 8.78118896484375 C 271.0341491699219 8.782899856567383 271.9983215332031 9.729469299316406 272 10.78118896484375 L 272 20.78118896484375 C 271.9983215332031 21.83290863037109 271.0341491699219 22.77946853637695 270 22.78118896484375 L 254 22.78118896484375 C 252.9658203125 22.77946853637695 252.0016784667969 21.83290863037109 252 20.78118896484375 L 252 10.78118896484375 C 252.0016784667969 9.729469299316406 252.9658203125 8.782899856567383 254 8.78118896484375 L 256 8.78118896484375 L 258 6.78118896484375 Z" stroke="none" fill="#000"/></g><g transform="translate(5 3.75)" fill="none" stroke="#000" stroke-miterlimit="10" stroke-width="2"><circle cx="4.5" cy="4.5" r="4.5" stroke="none"/><circle cx="4.5" cy="4.5" r="3.5" fill="none"/></g></g></svg>