<svg xmlns="http://www.w3.org/2000/svg" viewBox="0 0 24 24">
    <g transform="translate(5.813 3.75)">
        <g transform="translate(-1.813 -1.75)" fill="none" stroke="#000" stroke-miterlimit="10" stroke-width="2">
            <path d="M3,0H14a1,1,0,0,1,1,1V19a1,1,0,0,1-1,1H3a3,3,0,0,1-3-3V3A3,3,0,0,1,3,0Z" stroke="none" />
            <path d="M3,1H14a0,0,0,0,1,0,0V19a0,0,0,0,1,0,0H3a2,2,0,0,1-2-2V3A2,2,0,0,1,3,1Z" fill="none" />
        </g>
        <line x2="5" transform="translate(3.188 7.25)" fill="none" stroke="#000" stroke-linecap="round"
            stroke-miterlimit="10" stroke-width="2" />
        <line x2="2" transform="translate(3.188 11.25)" fill="none" stroke="#000" stroke-linecap="round"
            stroke-miterlimit="10" stroke-width="2" />
        <line x2="13" transform="translate(-0.813 3.25)" fill="none" stroke="#000" stroke-width="2" />
    </g>
</svg>