<svg xmlns="http://www.w3.org/2000/svg" width="24" height="24" viewBox="0 0 24 24"><rect width="24" height="24" fill="#fff" opacity="0"/><g transform="translate(-187.309 -435.906)"><path d="M206.4,447.9a6,6,0,1,1-6,6,6,6,0,0,1,6-6Z" transform="translate(-7.089 -8.995)" fill="none" stroke="#000" stroke-miterlimit="22.926" stroke-width="2"/><path d="M205.557,451.061a2,2,0,1,1-2,2,2,2,0,0,1,2-2Z" transform="translate(-6.248 -8.153)" fill="none" stroke="#000" stroke-miterlimit="22.926" stroke-width="2"/><path d="M201.174,456.971l-2.758,5.119h1.964l.793,1.428h1.613l.834,1.161,2.759-4.378,2.759,4.378,1.015-1.161h1.474l1.048-1.428,1.741.018-2.789-5.429" transform="translate(-7.107 -7.773)" fill="none" stroke="#000" stroke-linecap="round" stroke-linejoin="round" stroke-width="2"/></g></svg>