<svg xmlns="http://www.w3.org/2000/svg" xmlns:xlink="http://www.w3.org/1999/xlink" width="24" height="24"
    viewBox="0 0 24 24">
    <defs>
        <clipPath id="a">
            <rect width="10" height="16" stroke="rgba(0,0,0,0)" stroke-width="1" />
        </clipPath>
    </defs>
    <g transform="translate(5 4)">
        <g clip-path="url(#a)">
            <path d="M1,4A1,1,0,0,0,2,3H6V4.758L9.758,1H2A1,1,0,0,0,0,1V3A1,1,0,0,0,1,4" stroke="rgba(0,0,0,0)"
                stroke-width="1" />
            <path d="M9,14H8V11.242l-2,2V14H5.242l-1.2,1.2A.985.985,0,0,0,5,16H9a1,1,0,0,0,0-2" stroke="rgba(0,0,0,0)"
                stroke-width="1" />
        </g>
    </g>
    <line y1="16" x2="16" transform="translate(4 4)" fill="none" stroke="#000" stroke-linecap="round"
        stroke-miterlimit="10" stroke-width="2" />
</svg>