<svg xmlns="http://www.w3.org/2000/svg" width="25" height="25" viewBox="0 0 25 25">
    <g transform="translate(0.5 0.5)">
        <rect fill="#fff" stroke="rgba(0,0,0,0)" stroke-miterlimit="10" stroke-width="1" opacity="0" />
        <g transform="translate(3.75 3.001)">
            <g transform="translate(0.25 6)" fill="none" stroke="#000" stroke-linejoin="round" stroke-width="2">
                <path
                    d="M.873,0H13.127A.873.873,0,0,1,14,.873V4a7,7,0,0,1-7,7H7A7,7,0,0,1,0,4V.873A.873.873,0,0,1,.873,0Z"
                    stroke="none" />
                <path d="M1,1H13a0,0,0,0,1,0,0V4a6,6,0,0,1-6,6H7A6,6,0,0,1,1,4V1A0,0,0,0,1,1,1Z" fill="none" />
            </g>
            <g transform="translate(12.25 13) rotate(-90)" fill="none" stroke="#000" stroke-linejoin="round"
                stroke-width="2">
                <path d="M0,0H7A0,0,0,0,1,7,0V2A3,3,0,0,1,4,5H3A3,3,0,0,1,0,2V0A0,0,0,0,1,0,0Z" stroke="none" />
                <path d="M1,1H6A0,0,0,0,1,6,1V2A2,2,0,0,1,4,4H3A2,2,0,0,1,1,2V1A0,0,0,0,1,1,1Z" fill="none" />
            </g>
            <line x2="16" transform="translate(-0.75 17)" fill="none" stroke="#000" stroke-linecap="round"
                stroke-linejoin="round" stroke-width="2" />
            <line y1="2" transform="translate(3.25 1)" fill="none" stroke="#000" stroke-linecap="round"
                stroke-width="2" />
            <line y1="2" transform="translate(7.25 1)" fill="none" stroke="#000" stroke-linecap="round"
                stroke-width="2" />
            <line y1="2" transform="translate(11.25 1)" fill="none" stroke="#000" stroke-linecap="round"
                stroke-width="2" />
        </g>
    </g>
</svg>