<svg xmlns="http://www.w3.org/2000/svg" viewBox="0 0 24 24">
    <g transform="translate(3 4.996)">
        <g transform="translate(53 -7.663)" fill="none" stroke-miterlimit="10">
            <path
                d="M-35.305,12.181l-8.427-4.452a.573.573,0,0,0-.535,0l-8.427,4.452a.572.572,0,0,0,0,1.013L-50,14.666v5a1.849,1.849,0,0,0,2,2h8a1.849,1.849,0,0,0,2-2v-5l2.695-1.472A.572.572,0,0,0-35.305,12.181Z"
                stroke="none" />
            <path
                d="M -44.00006866455078 9.849349975585938 L -49.41168975830078 12.70842361450195 L -48.00000381469727 13.47967052459717 L -48.00000381469727 19.66601943969727 L -40.00000381469727 19.66601943969727 L -40.00000381469727 13.47969055175781 L -38.58838653564453 12.70844459533691 L -44.00006866455078 9.849349975585938 M -44.00006484985352 7.662494659423828 C -43.90800094604492 7.662494659423828 -43.81594085693359 7.684610366821289 -43.73231506347656 7.728839874267578 L -35.30531311035156 12.18099021911621 C -34.89806365966797 12.3961296081543 -34.89806365966797 12.97861099243164 -35.30531311035156 13.19375991821289 L -38.00000381469727 14.66602039337158 L -38.00000381469727 19.66601943969727 C -38.00000381469727 20.90592956542969 -38.75875473022461 21.66601943969727 -40.00000381469727 21.66601943969727 L -48.00000381469727 21.66601943969727 C -49.24050521850586 21.66601943969727 -50.00000381469727 20.90592956542969 -50.00000381469727 19.66601943969727 L -50.00000381469727 14.66602039337158 L -52.69480514526367 13.19375991821289 C -53.10206604003906 12.97861099243164 -53.10206604003906 12.3961296081543 -52.69480514526367 12.18099021911621 L -44.26781463623047 7.728839874267578 C -44.18418884277344 7.684610366821289 -44.09212875366211 7.662494659423828 -44.00006484985352 7.662494659423828 Z"
                stroke="none" fill="#000" />
        </g>
        <g transform="translate(53 -7.663)" fill="none" stroke-miterlimit="10">
            <path
                d="M-44.268,17.6l-8.427-4.43a.568.568,0,0,1,0-1.008l8.427-4.43a.576.576,0,0,1,.535,0l8.427,4.43a.568.568,0,0,1,0,1.008l-8.427,4.43A.576.576,0,0,1-44.268,17.6Z"
                stroke="none" />
            <path
                d="M -44.00006103515625 15.47771453857422 L -38.64492416381836 12.66249752044678 L -44.00006484985352 9.847285270690918 L -49.35519790649414 12.66250324249268 L -44.00006103515625 15.47771453857422 M -44.00006484985352 17.66250228881836 C -44.09212875366211 17.66250228881836 -44.18418884277344 17.64049530029297 -44.26781463623047 17.59648132324219 L -52.69480514526367 13.16637992858887 C -53.10206604003906 12.95230007171631 -53.10206604003906 12.37270069122314 -52.69480514526367 12.15862083435059 L -44.26781463623047 7.728520393371582 C -44.10056304931641 7.640500068664551 -43.89956665039062 7.640500068664551 -43.73231506347656 7.728520393371582 L -35.30531311035156 12.15862083435059 C -34.89806365966797 12.37270069122314 -34.89806365966797 12.95230007171631 -35.30531311035156 13.16637992858887 L -43.73231506347656 17.59648132324219 C -43.81594085693359 17.64049530029297 -43.90800094604492 17.66250228881836 -44.00006484985352 17.66250228881836 Z"
                stroke="none" fill="#000" />
        </g>
        <path d="M0,0H2A0,0,0,0,1,2,0V5A1,1,0,0,1,1,6H1A1,1,0,0,1,0,5V0A0,0,0,0,1,0,0Z"
            transform="translate(16 5.004)" />
    </g>
</svg>