<svg xmlns="http://www.w3.org/2000/svg" viewBox="0 0 24 24">
    <g transform="translate(2.537 2.537)">
        <g transform="translate(3035 -679)" fill="rgba(0,0,0,0)" stroke-miterlimit="10">
            <path
                d="M -3024.537353515625 697.4630126953125 L -3032.537353515625 697.4630126953125 C -3033.64013671875 697.4630126953125 -3034.537109375 696.5659790039062 -3034.537109375 695.4633178710938 L -3034.537109375 687.4631958007812 C -3034.537109375 686.360107421875 -3033.64013671875 685.462646484375 -3032.537353515625 685.462646484375 L -3029.536865234375 685.462646484375 L -3028.536865234375 685.462646484375 L -3028.536865234375 684.462646484375 L -3028.536865234375 681.462890625 C -3028.536865234375 680.3602294921875 -3027.639892578125 679.4631958007812 -3026.537109375 679.4631958007812 L -3018.537109375 679.4631958007812 C -3017.434326171875 679.4631958007812 -3016.537353515625 680.3602294921875 -3016.537353515625 681.462890625 L -3016.537353515625 689.4630126953125 C -3016.537353515625 690.565673828125 -3017.434326171875 691.4627075195312 -3018.537109375 691.4627075195312 L -3021.536865234375 691.4627075195312 L -3022.536865234375 691.4627075195312 L -3022.536865234375 692.4627075195312 L -3022.536865234375 695.4633178710938 C -3022.536865234375 696.5659790039062 -3023.434326171875 697.4630126953125 -3024.537353515625 697.4630126953125 Z"
                stroke="none" />
            <path
                d="M -3024.537353515625 696.4630126953125 C -3023.985595703125 696.4630126953125 -3023.536865234375 696.0145263671875 -3023.536865234375 695.4633178710938 L -3023.536865234375 690.4627075195312 L -3018.537109375 690.4627075195312 C -3017.98583984375 690.4627075195312 -3017.537353515625 690.0142211914062 -3017.537353515625 689.4630126953125 L -3017.537353515625 681.462890625 C -3017.537353515625 680.9116821289062 -3017.98583984375 680.4631958007812 -3018.537109375 680.4631958007812 L -3026.537109375 680.4631958007812 C -3027.08837890625 680.4631958007812 -3027.536865234375 680.9116821289062 -3027.536865234375 681.462890625 L -3027.536865234375 686.462646484375 L -3032.537353515625 686.462646484375 C -3033.088623046875 686.462646484375 -3033.537109375 686.9114990234375 -3033.537109375 687.4631958007812 L -3033.537109375 695.4633178710938 C -3033.537109375 696.0145263671875 -3033.088623046875 696.4630126953125 -3032.537353515625 696.4630126953125 L -3024.537353515625 696.4630126953125 M -3024.537353515625 698.4630126953125 L -3032.537353515625 698.4630126953125 C -3034.193359375 698.4630126953125 -3035.537109375 697.1202392578125 -3035.537109375 695.4633178710938 L -3035.537109375 687.4631958007812 C -3035.537109375 685.8063354492188 -3034.193359375 684.462646484375 -3032.537353515625 684.462646484375 L -3029.536865234375 684.462646484375 L -3029.536865234375 681.462890625 C -3029.536865234375 679.8060302734375 -3028.194091796875 678.4631958007812 -3026.537109375 678.4631958007812 L -3018.537109375 678.4631958007812 C -3016.880126953125 678.4631958007812 -3015.537353515625 679.8060302734375 -3015.537353515625 681.462890625 L -3015.537353515625 689.4630126953125 C -3015.537353515625 691.1199340820312 -3016.880126953125 692.4627075195312 -3018.537109375 692.4627075195312 L -3021.536865234375 692.4627075195312 L -3021.536865234375 695.4633178710938 C -3021.536865234375 697.1202392578125 -3022.88037109375 698.4630126953125 -3024.537353515625 698.4630126953125 Z"
                stroke="none" fill="#000" />
        </g>
        <g transform="translate(9.463 3.463)">
            <line x2="4" transform="translate(1 3)" fill="none" stroke="#000" stroke-linecap="round"
                stroke-miterlimit="10" stroke-width="2" />
            <line y2="4" transform="translate(3 1)" fill="none" stroke="#000" stroke-linecap="round"
                stroke-miterlimit="10" stroke-width="2" />
        </g>
        <g transform="translate(5.463 -0.537)" fill="none" stroke="#000" stroke-miterlimit="10" stroke-width="2">
            <rect width="14" height="14" rx="3" stroke="none" />
            <rect x="1" y="1" width="12" height="12" rx="2" fill="none" />
        </g>
    </g>
</svg>