<svg xmlns="http://www.w3.org/2000/svg" width="24" height="24" viewBox="0 0 24 24"><rect width="24" height="24" fill="#fff" opacity="0"/><g transform="translate(3 3)"><g transform="translate(181.318 -66.664)" fill="none" stroke-miterlimit="10"><path d="M-166,67.129l2.2,2.194a1.641,1.641,0,0,1,.006,2.318L-175.38,83.327a1.64,1.64,0,0,1-.832.453l-4.151.868a.792.792,0,0,1-.938-.938l.9-4.233a1.641,1.641,0,0,1,.454-.829l11.708-11.527A1.592,1.592,0,0,1-166,67.129Z" stroke="none"/><path d="M -167.1242370605469 68.83084869384766 L -178.4664154052734 79.99774932861328 L -178.9582366943359 82.31038665771484 L -176.7261657714844 81.84373474121094 L -165.4659271240234 70.48597717285156 L -167.1242370605469 68.83084869384766 M -167.1219787597656 66.66448974609375 C -166.7149353027344 66.66448974609375 -166.3082122802734 66.81947326660156 -165.9978485107422 67.12935638427734 L -163.7999267578125 69.32306671142578 C -163.1597900390625 69.96299743652344 -163.1574096679688 70.99833679199219 -163.7943725585938 71.64064025878906 L -175.3803405761719 83.32695007324219 C -175.6069793701172 83.556396484375 -175.8964233398438 83.71360778808594 -176.2121124267578 83.77950286865234 L -180.3630218505859 84.64732360839844 C -180.9237976074219 84.76399230957031 -181.4190368652344 84.26778411865234 -181.300537109375 83.70964050292969 L -180.4004058837891 79.47704315185547 C -180.3336029052734 79.16182708740234 -180.1753540039062 78.87362670898438 -179.9463348388672 78.64813995361328 L -168.2386932373047 67.12142181396484 C -167.9288177490234 66.8167724609375 -167.5252532958984 66.66448974609375 -167.1219787597656 66.66448974609375 Z" stroke="none" fill="#000"/></g><line x2="4" y2="4" transform="translate(11 3)" fill="none" stroke="#000" stroke-miterlimit="10" stroke-width="2"/><line x2="3" y2="3" transform="translate(4 10.998)" fill="none" stroke="#000" stroke-miterlimit="10" stroke-width="2"/></g></svg>