<svg xmlns="http://www.w3.org/2000/svg" width="24" height="24" viewBox="0 0 24 24"><rect width="24" height="24" fill="#fff" opacity="0"/><g transform="translate(4.25 3.75)"><g transform="translate(-42.918 2.975)" fill="none" stroke-miterlimit="10"><path d="M46.327,14a.926.926,0,0,1-1.318,0c-.883-.94-2.341-2.581-2.341-3.175v-13a1.637,1.637,0,0,1,1.715-1.545h2.569A1.637,1.637,0,0,1,48.668-2.18v13C48.668,11.419,47.21,13.06,46.327,14Z" stroke="none"/><path d="M 45.66798782348633 11.75089454650879 C 46.21406173706055 11.12509822845459 46.52383041381836 10.70869255065918 46.66800308227539 10.48307991027832 L 46.66800308227539 -1.725004553794861 L 44.66800308227539 -1.725004553794861 L 44.66800308227539 10.48308086395264 C 44.81219100952148 10.70872116088867 45.12200546264648 11.12519359588623 45.66798782348633 11.75089454650879 M 45.66767501831055 14.27539539337158 C 45.42456817626953 14.27539539337158 45.18156814575195 14.18355560302734 45.00885391235352 13.99987506866455 C 44.12600326538086 13.05979537963867 42.66800308227539 11.41935539245605 42.66800308227539 10.82454586029053 L 42.66800308227539 -2.180294513702393 C 42.66800308227539 -3.033644437789917 43.43600463867188 -3.725004434585571 44.38314437866211 -3.725004434585571 L 46.95200347900391 -3.725004434585571 C 47.90000152587891 -3.725004434585571 48.66800308227539 -3.033644437789917 48.66800308227539 -2.180294513702393 L 48.66800308227539 10.82454586029053 C 48.66800308227539 11.41935539245605 47.21000289916992 13.05979537963867 46.32714462280273 13.99987506866455 C 46.15399932861328 14.18355560302734 45.91078186035156 14.27539539337158 45.66767501831055 14.27539539337158 Z" stroke="none" fill="#000"/></g><line x2="4" transform="translate(0.75 4.25)" fill="none" stroke="#000" stroke-linecap="round" stroke-width="2"/><g transform="translate(8.25 0)"><g transform="translate(-0.5 -0.75)" fill="none"><path d="M0,0H8V18H0Z" stroke="none"/><path d="M 2 2 L 2 16 L 6 16 L 6 2 L 2 2 M 0 0 L 8 0 L 8 18 L 0 18 L 0 0 Z" stroke="none" fill="#000"/></g><line x2="2" transform="translate(0.5 4.25)" fill="none" stroke="#000" stroke-linecap="round" stroke-width="2"/><line x2="2" transform="translate(0.5 8.25)" fill="none" stroke="#000" stroke-linecap="round" stroke-width="2"/><line x2="2" transform="translate(0.5 12.25)" fill="none" stroke="#000" stroke-linecap="round" stroke-width="2"/></g></g></svg>