<svg xmlns="http://www.w3.org/2000/svg" width="24" height="24" viewBox="0 0 24 24"><rect width="24" height="24" fill="#fff" opacity="0"/><g transform="translate(3.375 6.375)"><g transform="translate(-4.879 -8.875)" fill="none" stroke-linejoin="round"><path d="M22.477,14.336A8.925,8.925,0,0,0,20.6,11.4a9.017,9.017,0,0,0-2.764-2A10.152,10.152,0,0,0,13.5,8.5a10.15,10.15,0,0,0-4.332.9,9.161,9.161,0,0,0-3.634,3.064,8.142,8.142,0,0,0-1.007,1.868.51.51,0,0,0,0,.317A8.512,8.512,0,0,0,6.351,17.6a8.8,8.8,0,0,0,2.76,2,10.364,10.364,0,0,0,4.393.9,10.364,10.364,0,0,0,4.393-.9,8.883,8.883,0,0,0,3.615-3.07,7.788,7.788,0,0,0,.969-1.874A.51.51,0,0,0,22.477,14.336Z" stroke="none"/><path d="M 13.4981861114502 10.5 C 12.21042633056641 10.5 11.03885650634766 10.74132919311523 10.01446723937988 11.21801948547363 C 8.878686904907227 11.74534034729004 7.923385620117188 12.5527286529541 7.175537109375 13.61714935302734 C 6.932460784912109 13.96340084075928 6.75494384765625 14.27742481231689 6.63348388671875 14.51736164093018 C 6.837301254272461 14.9383430480957 7.208690643310547 15.58102035522461 7.81486701965332 16.23326873779297 C 8.423505783081055 16.88708877563477 9.141845703125 17.40787887573242 9.949926376342773 17.78115844726562 C 10.98249626159668 18.25814819335938 12.17823600769043 18.5 13.50392627716064 18.5 C 14.82961654663086 18.5 16.02535629272461 18.25814819335938 17.05804634094238 17.78109931945801 C 18.4756965637207 17.12635040283203 19.36442565917969 16.12408065795898 19.8603458404541 15.39857959747314 C 20.09241676330566 15.05906391143799 20.25979423522949 14.75262832641602 20.37409591674805 14.51704978942871 C 20.15699195861816 14.08838653564453 19.76565742492676 13.43246269226074 19.14518737792969 12.77429962158203 C 18.52470588684082 12.1168098449707 17.80051612854004 11.59309959411621 16.99227523803711 11.21749877929688 C 15.96852588653564 10.74143028259277 14.79679679870605 10.50002861022949 13.50966644287109 10.5 L 13.4981861114502 10.5 M 13.4981861114502 8.499998092651367 C 13.50208282470703 8.499998092651367 13.50576972961426 8.499998092651367 13.50966644287109 8.499998092651367 C 15.23262023925781 8.500034332275391 16.66541481018066 8.859830856323242 17.83560562133789 9.403999328613281 C 19.00793647766113 9.948799133300781 19.91496658325195 10.67599868774414 20.59973526000977 11.4015998840332 C 21.97007751464844 12.85519981384277 22.46154594421387 14.29439926147461 22.47719573974609 14.33599948883057 C 22.51162719726562 14.43839931488037 22.51319694519043 14.55039978027344 22.48032569885254 14.65279960632324 C 22.4693660736084 14.68639945983887 22.2103271484375 15.50479984283447 21.51146697998047 16.52719879150391 C 20.81260681152344 17.54959869384766 19.66688537597656 18.77919960021973 17.89664649963379 19.59679985046387 C 16.71727752685547 20.14159965515137 15.26476669311523 20.5 13.50392627716064 20.5 C 11.74307632446289 20.5 10.29057693481445 20.14159965515137 9.1112060546875 19.59679985046387 C 7.931825637817383 19.05199813842773 7.027925491333008 18.32320022583008 6.350976943969727 17.59600067138672 C 4.997085571289062 16.13919830322266 4.542396545410156 14.69679927825928 4.52752685546875 14.65279960632324 C 4.49543571472168 14.55039978027344 4.4962158203125 14.43839931488037 4.531436920166016 14.33599948883057 C 4.542396545410156 14.30399990081787 4.822566986083984 13.48799991607666 5.538637161254883 12.46799850463867 C 6.254716873168945 11.44879913330078 7.412965774536133 10.22080039978027 9.172246932983398 9.403999328613281 C 10.34172058105469 8.859798431396484 11.77508926391602 8.499998092651367 13.4981861114502 8.499998092651367 Z" stroke="none" fill="#000"/></g><g transform="translate(5.625 2.625)" fill="none" stroke="#000" stroke-linejoin="round" stroke-width="2"><circle cx="3" cy="3" r="3" stroke="none"/><circle cx="3" cy="3" r="2" fill="none"/></g></g></svg>