<svg xmlns="http://www.w3.org/2000/svg" width="24" height="24" viewBox="0 0 24 24"><rect width="24" height="24" transform="translate(24 24) rotate(180)" fill="#fff" opacity="0"/><g transform="translate(3.998 4.004)"><rect width="4" height="10" rx="2" transform="translate(13.002 0)" fill="none" stroke="#000" stroke-linejoin="round" stroke-width="2"/><path d="M11.971,12.09h.885l-.069.48h-.816a1.188,1.188,0,0,0,0,2.375h1.961L16.785,15s-.617,4.308,2,5.754c1.683.834,2-.754,2-.754V17l1-1s2-1.856,2-3.019V6a1.868,1.868,0,0,0-2-2H13.6a1.188,1.188,0,0,0,0,2.375h.08l-.069.481h-.825a1.187,1.187,0,0,0,0,2.375h.482l-.069.481H11.971a1.188,1.188,0,0,0,0,2.375Z" transform="translate(-10.786 -4.003)" fill="none" stroke="#000" stroke-linecap="round" stroke-linejoin="round" stroke-width="2"/></g></svg>