<svg xmlns="http://www.w3.org/2000/svg" viewBox="0 0 24 24">
    <g transform="translate(2.001 5.004)">
        <g transform="translate(18.993 13.995) rotate(180)" fill="none">
            <path
                d="M7,2.277v.379L3,.275a2.049,2.049,0,0,0-3,2v9.443a2.051,2.051,0,0,0,3,2l4-2.389v.385a2.054,2.054,0,0,0,3,2L17.92,9a2.4,2.4,0,0,0,0-4L10,.275A1.867,1.867,0,0,0,9.039,0,2.165,2.165,0,0,0,7,2.277Z"
                stroke="none" />
            <path
                d="M 9.055684089660645 2.039679527282715 C 9.027189254760742 2.084717750549316 8.998047828674316 2.161330223083496 8.998047828674316 2.27734375 L 8.998047828674316 6.174153327941895 L 2.055826187133789 2.042037963867188 C 2.027931213378906 2.087655067443848 1.999998092651367 2.163721084594727 1.999998092651367 2.27734375 L 1.999998092651367 11.720703125 C 1.999998092651367 11.8352632522583 2.028411865234375 11.91170024871826 2.056636810302734 11.95731544494629 L 8.998047828674316 7.81212329864502 L 8.998047828674316 11.720703125 C 8.998047828674316 11.83768844604492 9.02762508392334 11.9147367477417 9.056386947631836 11.9598217010498 L 16.89679718017578 7.279553413391113 C 16.95271682739258 7.246253490447998 16.99498748779297 7.125283241271973 16.9951171875 6.998153209686279 C 16.99524688720703 6.868993282318115 16.95148849487305 6.745353221893311 16.89603805541992 6.712183475494385 L 9.055684089660645 2.039679527282715 M 9.039057731628418 0.001953125 C 9.359377861022949 0.001953125 9.687498092651367 0.08789348602294922 10.00195789337158 0.2753934860229492 L 17.91991806030273 4.994143486022949 C 19.35351753234863 5.851563453674316 19.35351753234863 8.144533157348633 17.91991806030273 8.998043060302734 L 10.00195789337158 13.72461318969727 C 8.640625 14.53515338897705 6.998046875 13.439453125 6.998047828674316 11.720703125 L 6.998047828674316 11.33593368530273 L 2.998046875 13.72461318969727 C 1.642589569091797 14.53514957427979 -1.9073486328125e-06 13.43945598602295 -1.9073486328125e-06 11.720703125 L -1.9073486328125e-06 2.27734375 C -3.814697265625e-06 0.55859375 1.642580032348633 -0.5371074676513672 2.998046875 0.2753934860229492 L 6.998047828674316 2.656253814697266 L 6.998047828674316 2.27734375 C 6.998047828674316 0.955073356628418 7.970707893371582 0.001953125 9.039057731628418 0.001953125 Z"
                stroke="none" fill="#000" />
        </g>
        <g transform="translate(18.996 0.002) rotate(90)" fill="none">
            <path d="M5,10.923a2.4,2.4,0,0,0,4,0L13.722,3a2.053,2.053,0,0,0-2-3H2.274a2.053,2.053,0,0,0-2,3Z"
                stroke="none" />
            <path
                d="M 6.997231483459473 9.99941349029541 C 7.124821662902832 9.99941349029541 7.246941566467285 9.955984115600586 7.281291484832764 9.898384094238281 L 11.95705127716064 2.058027982711792 C 11.91227722167969 2.029367923736572 11.83599376678467 2.000003814697266 11.72038173675537 2.000003814697266 L 2.274081468582153 2.000003814697266 C 2.158389329910278 2.000003814697266 2.082086324691772 2.029404878616333 2.037326812744141 2.058083772659302 L 6.713161468505859 9.898364067077637 C 6.74752140045166 9.955973625183105 6.869641304016113 9.99941349029541 6.997231483459473 9.99941349029541 M 6.997235774993896 11.99941253662109 C 6.210372924804688 11.99941158294678 5.423506259918213 11.64053916931152 4.9954514503479 10.92279434204102 L 0.2723014950752258 3.003193855285645 C -0.5381385087966919 1.64427387714386 0.5578615069389343 3.905639459844679e-06 2.274081468582153 3.905639459844679e-06 L 11.72038173675537 3.905639459844679e-06 C 13.43661117553711 3.905639459844679e-06 14.53260135650635 1.64427387714386 13.72216129302979 3.003193855285645 L 8.999011039733887 10.92280387878418 C 8.570956230163574 11.64054393768311 7.784098148345947 11.99941349029541 6.997235774993896 11.99941253662109 Z"
                stroke="none" fill="#000" />
        </g>
    </g>
</svg>