<svg xmlns="http://www.w3.org/2000/svg" viewBox="0 0 24 24">
    <g transform="translate(-17189 -18886)" fill="none">
        <path
            d="M17199,18902.719v-.381l-4,2.383a2.049,2.049,0,0,1-3-2v-9.445a2.051,2.051,0,0,1,3-2l4,2.389v-.385a2.054,2.054,0,0,1,3-2l7.918,4.727a2.4,2.4,0,0,1,0,4l-7.918,4.721a1.867,1.867,0,0,1-.963.273A2.165,2.165,0,0,1,17199,18902.719Z"
            stroke="none" />
        <path
            d="M 17201.05859375 18902.95703125 L 17208.89453125 18898.283203125 C 17208.953125 18898.248046875 17208.998046875 18898.125 17208.99609375 18897.99609375 C 17208.99609375 18897.869140625 17208.955078125 18897.748046875 17208.896484375 18897.712890625 L 17201.05859375 18893.03515625 C 17201.029296875 18893.080078125 17201 18893.15625 17201 18893.2734375 L 17201 18897.181640625 L 17194.05859375 18893.037109375 C 17194.03125 18893.08203125 17194.001953125 18893.158203125 17194.001953125 18893.2734375 L 17194.001953125 18902.71875 C 17194.001953125 18902.83203125 17194.029296875 18902.908203125 17194.05859375 18902.953125 L 17201 18898.818359375 L 17201 18902.71875 C 17201 18902.833984375 17201.029296875 18902.912109375 17201.05859375 18902.95703125 M 17201.041015625 18904.994140625 C 17199.97265625 18904.994140625 17199 18904.041015625 17199 18902.71875 L 17199 18902.337890625 L 17195 18904.720703125 C 17194.6875 18904.908203125 17194.359375 18904.994140625 17194.0390625 18904.994140625 C 17192.974609375 18904.994140625 17192.001953125 18904.041015625 17192.001953125 18902.71875 L 17192.001953125 18893.2734375 C 17192.001953125 18891.951171875 17192.974609375 18890.998046875 17194.041015625 18890.998046875 C 17194.359375 18890.998046875 17194.6875 18891.08203125 17195 18891.26953125 L 17199 18893.658203125 L 17199 18893.2734375 C 17199 18891.951171875 17199.97265625 18890.998046875 17201.041015625 18890.998046875 C 17201.361328125 18890.998046875 17201.689453125 18891.08203125 17202.00390625 18891.26953125 L 17209.921875 18895.99609375 C 17211.35546875 18896.849609375 17211.35546875 18899.142578125 17209.921875 18900 L 17202.00390625 18904.720703125 C 17201.689453125 18904.908203125 17201.361328125 18904.994140625 17201.041015625 18904.994140625 Z"
            stroke="none" fill="#000" />
    </g>
    <g transform="translate(17.234 3.662) rotate(90)" fill="none">
        <path d="M6.333,3.312a2.4,2.4,0,0,1,4,0l4.723,7.92a2.054,2.054,0,0,1-2,3H3.612a2.054,2.054,0,0,1-2-3Z"
            stroke="none" />
        <path
            d="M 8.335285186767578 4.235296249389648 C 8.207634925842285 4.235296249389648 8.085454940795898 4.278766632080078 8.051074981689453 4.336406707763672 L 3.374958992004395 12.17719841003418 C 3.419744491577148 12.20589160919189 3.496073722839355 12.23529624938965 3.611804962158203 12.23529624938965 L 13.05876541137695 12.23529624938965 C 13.17456531524658 12.23529624938965 13.25092601776123 12.20585060119629 13.29570198059082 12.1771411895752 L 8.619504928588867 4.336416244506836 C 8.585124969482422 4.278766632080078 8.462935447692871 4.235296249389648 8.335285186767578 4.235296249389648 M 8.335285186767578 2.235296249389648 C 9.12220287322998 2.235296249389648 9.909120559692383 2.594186782836914 10.33720588684082 3.311966896057129 L 15.06068515777588 11.23196601867676 C 15.87117481231689 12.59094619750977 14.77510547637939 14.23529624938965 13.05876541137695 14.23529624938965 L 3.611804962158203 14.23529624938965 C 1.895464897155762 14.23529624938965 0.7993955612182617 12.59094619750977 1.609885215759277 11.23196601867676 L 6.333365440368652 3.311966896057129 C 6.761449813842773 2.594186782836914 7.548367500305176 2.235296249389648 8.335285186767578 2.235296249389648 Z"
            stroke="none" fill="#000" />
    </g>
</svg>