<svg xmlns="http://www.w3.org/2000/svg" width="24" height="24" viewBox="0 0 24 24"><rect width="24" height="24" fill="#fff" opacity="0"/><g transform="translate(5.371 3)"><g transform="translate(674.381 -65.96)" fill="none" stroke-linejoin="round"><path d="M-673.149,65.963l10.793,0a1.5,1.5,0,0,1,1.368,2.283l-3.586,5.955a1.139,1.139,0,0,0-.185.621v8.191a1.019,1.019,0,0,1-1.655.733l-3.627-2.49a1.854,1.854,0,0,1-.737-1.465v-4.8a1.8,1.8,0,0,0-.184-.795l-3.558-5.949A1.5,1.5,0,0,1-673.149,65.963Z" stroke="none"/><path d="M -663.1521606445312 67.96021270751953 L -672.355712890625 67.96276092529297 L -669.2547607421875 73.14724731445312 C -668.8004150390625 73.88265991210938 -668.7770385742188 74.80559539794922 -668.7770385742188 74.9862060546875 L -668.7770385742188 79.69293975830078 L -666.7587280273438 81.07881164550781 L -666.7587280273438 74.81776428222656 C -666.7587280273438 74.22563934326172 -666.5912475585938 73.64788055419922 -666.2739868164062 73.14421081542969 L -663.1521606445312 67.96021270751953 M -662.355712890625 65.95999145507812 C -661.1072998046875 65.95999145507812 -660.3388671875 67.2418212890625 -660.9874877929688 68.24253082275391 L -664.5733642578125 74.19709014892578 C -664.69482421875 74.38450622558594 -664.7587280273438 74.598876953125 -664.7587280273438 74.81776428222656 L -664.7587280273438 83.0086669921875 C -664.7587280273438 83.81150817871094 -665.75390625 84.25144958496094 -666.4137573242188 83.74177551269531 L -670.04052734375 81.25146484375 C -670.5069580078125 80.89089965820312 -670.7770385742188 80.35344696044922 -670.7770385742188 79.78675079345703 L -670.7770385742188 74.9862060546875 C -670.7770385742188 74.76806640625 -670.8401489257812 74.37729644775391 -670.960693359375 74.19138336181641 L -674.5188598632812 68.24253082275391 C -675.1635131835938 67.24105072021484 -674.3959350585938 65.96298217773438 -673.1489868164062 65.96298217773438 L -662.355712890625 65.95999145507812 Z" stroke="none" fill="#000"/></g></g></svg>