<svg xmlns="http://www.w3.org/2000/svg" width="24" height="24" viewBox="0 0 24 24"><rect width="24" height="24" fill="#fff" opacity="0"/><g transform="translate(5.371 3)"><g transform="translate(674.381 -65.96)" stroke-linejoin="round"><path d="M -665.7757568359375 82.95999145507812 C -665.7868041992188 82.95999145507812 -665.7927856445312 82.95783996582031 -665.8024291992188 82.95042419433594 L -665.8245849609375 82.93327331542969 L -665.8477172851562 82.91740417480469 L -669.447265625 80.44577026367188 C -669.6571655273438 80.27554321289062 -669.7770385742188 80.03659820556641 -669.7770385742188 79.78675079345703 L -669.7770385742188 74.9862060546875 C -669.7770385742188 74.69108581542969 -669.8472900390625 74.08649444580078 -670.1088256835938 73.66751098632812 L -673.66064453125 67.72922515869141 L -673.6691284179688 67.71510314941406 L -673.6780395507812 67.70127105712891 C -673.7938842773438 67.52125549316406 -673.7520751953125 67.36220550537109 -673.696533203125 67.26045989990234 C -673.658447265625 67.19068145751953 -673.5064697265625 66.96298217773438 -673.1489868164062 66.96298217773438 L -662.3554077148438 66.95999145507812 C -661.9974975585938 66.95999145507812 -661.8453979492188 67.18861389160156 -661.8073120117188 67.25868988037109 C -661.7520141601562 67.36045074462891 -661.71044921875 67.51939392089844 -661.82666015625 67.69863128662109 L -661.8356323242188 67.71249389648438 L -661.8441772460938 67.72665405273438 L -665.4227905273438 73.66916656494141 C -665.6426391601562 74.01490020751953 -665.7587280273438 74.41164398193359 -665.7587280273438 74.81776428222656 L -665.7587280273438 82.95798492431641 C -665.7640380859375 82.95920562744141 -665.7698364257812 82.95999145507812 -665.7757568359375 82.95999145507812 Z" stroke="none"/><path d="M -663.1521606445312 67.96021270751953 L -672.355712890625 67.96276092529297 L -669.2547607421875 73.14724731445312 C -668.8004150390625 73.88265991210938 -668.7770385742188 74.80559539794922 -668.7770385742188 74.9862060546875 L -668.7770385742188 79.69293975830078 L -666.7587280273438 81.07881164550781 L -666.7587280273438 74.81776428222656 C -666.7587280273438 74.22563934326172 -666.5912475585938 73.64788055419922 -666.2739868164062 73.14421081542969 L -663.1521606445312 67.96021270751953 M -662.355712890625 65.95999145507812 C -661.1072998046875 65.95999145507812 -660.3388671875 67.2418212890625 -660.9874877929688 68.24253082275391 L -664.5733642578125 74.19709014892578 C -664.69482421875 74.38450622558594 -664.7587280273438 74.598876953125 -664.7587280273438 74.81776428222656 L -664.7587280273438 83.0086669921875 C -664.7587280273438 83.81150817871094 -665.75390625 84.25144958496094 -666.4137573242188 83.74177551269531 L -670.04052734375 81.25146484375 C -670.5069580078125 80.89089965820312 -670.7770385742188 80.35344696044922 -670.7770385742188 79.78675079345703 L -670.7770385742188 74.9862060546875 C -670.7770385742188 74.76806640625 -670.8401489257812 74.37729644775391 -670.960693359375 74.19138336181641 L -674.5188598632812 68.24253082275391 C -675.1635131835938 67.24105072021484 -674.3959350585938 65.96298217773438 -673.1489868164062 65.96298217773438 L -662.355712890625 65.95999145507812 Z" stroke="none" fill="#000"/></g></g></svg>