<svg xmlns="http://www.w3.org/2000/svg" viewBox="0 0 24 24">
    <g transform="translate(-17430 -18770)" fill="none">
        <path
            d="M17434,18789a2,2,0,0,1-2-2v-11a2.018,2.018,0,0,1,1.711-2l6,0,.834,0,1.377,2H17450a2,2,0,0,1,2,2v9a2,2,0,0,1-2,2Z"
            stroke="none" />
        <path
            d="M 17450 18787 C 17450 18787 17450 18787 17450 18787 L 17450.001953125 18778.001953125 C 17450 18778.001953125 17450 18778 17450 18778 L 17440.876953125 18778 L 17439.49609375 18775.99609375 L 17434.009765625 18776 C 17434.005859375 18776.005859375 17434.00390625 18776.013671875 17434.001953125 18776.01953125 L 17434.001953125 18787 L 17450 18787 M 17450 18789 L 17434.001953125 18789 C 17432.892578125 18789 17432.001953125 18788.103515625 17432.001953125 18787 L 17432.001953125 18778 C 17432.001953125 18777.3515625 17432.001953125 18776.53515625 17432.001953125 18776 C 17432.001953125 18775 17432.85546875 18774.005859375 17433.712890625 18774 L 17439.716796875 18773.99609375 L 17440.55078125 18774 L 17441.927734375 18776 L 17450 18776 C 17451.103515625 18776 17452 18776.896484375 17452 18778 L 17452 18787 C 17452 18788.103515625 17451.103515625 18789 17450 18789 Z"
            stroke="none" fill="#000" />
    </g>
    <path d="M3.662,17.768l3-7h13" transform="translate(0.338 0.232)" fill="none" stroke="#000" stroke-linejoin="round"
        stroke-width="2" />
</svg>