<svg xmlns="http://www.w3.org/2000/svg" viewBox="0 0 24 24">
    <line x2="6" transform="translate(15 6)" fill="none" stroke="#000" stroke-linecap="round" stroke-miterlimit="10"
        stroke-width="2" />
    <line y2="6" transform="translate(18 3)" fill="none" stroke="#000" stroke-linecap="round" stroke-miterlimit="10"
        stroke-width="2" />
    <g transform="translate(11 11)" fill="none" stroke="#000" stroke-width="2">
        <rect width="7" height="7" rx="3.5" stroke="none" />
        <rect x="1" y="1" width="5" height="5" rx="2.5" fill="none" />
    </g>
    <path d="M0,0C1.657,0,3,.865,3,2.5S1.657,5,0,5" transform="translate(12 22) rotate(-90)" fill="none" stroke="#000"
        stroke-width="2" />
    <g transform="translate(2 10)" fill="none" stroke="#000" stroke-width="2">
        <rect width="8" height="8" rx="4" stroke="none" />
        <rect x="1" y="1" width="6" height="6" rx="3" fill="none" />
    </g>
    <path d="M0,0A3,3,0,0,1,3,3,3,3,0,0,1,0,6" transform="translate(3 22) rotate(-90)" fill="none" stroke="#000"
        stroke-linejoin="round" stroke-width="2" />
</svg>