<svg xmlns="http://www.w3.org/2000/svg" width="24" height="24" viewBox="0 0 24 24"><rect width="24" height="24" fill="#fff" opacity="0"/><g transform="translate(2 5)" fill="none" stroke="#000" stroke-width="2"><rect width="10" height="10" rx="5" stroke="none"/><rect x="1" y="1" width="8" height="8" rx="4" fill="none"/></g><path d="M0,0A4,4,0,0,1,4,4,4,4,0,0,1,0,8" transform="translate(3 20) rotate(-90)" fill="none" stroke="#000" stroke-linejoin="round" stroke-width="2"/><path d="M0,0A3,3,0,0,1,3,3,3,3,0,0,1,0,6" transform="translate(15 20) rotate(-90)" fill="none" stroke="#000" stroke-linejoin="round" stroke-width="2"/><g transform="translate(14 8)" fill="none" stroke="#000" stroke-width="2"><rect width="8.001" height="8.001" rx="4" stroke="none"/><rect x="1" y="1" width="6.001" height="6.001" rx="3" fill="none"/></g></svg>