<svg xmlns="http://www.w3.org/2000/svg" viewBox="0 0 24 24">
    <g transform="translate(557 -62.531)" fill="none" stroke-miterlimit="10">
        <path
            d="M-541.024,67.531a5.114,5.114,0,0,0-3.553,1.406l-.423.4-.423-.4a5.113,5.113,0,0,0-3.553-1.406,5.113,5.113,0,0,0-3.553,1.406A4.663,4.663,0,0,0-554,72.33a4.662,4.662,0,0,0,1.471,3.394l6.843,6.536a.991.991,0,0,0,.686.272.994.994,0,0,0,.686-.272l6.842-6.536A4.663,4.663,0,0,0-536,72.33a4.662,4.662,0,0,0-1.471-3.394A5.114,5.114,0,0,0-541.024,67.531Z"
            stroke="none" />
        <path
            d="M -548.9757080078125 69.53101348876953 C -549.8009033203125 69.53101348876953 -550.572021484375 69.83350372314453 -551.1470336914062 70.38284301757812 C -551.6970825195312 70.90823364257812 -552 71.59980773925781 -552 72.33017730712891 C -552 73.06055450439453 -551.6970825195312 73.75214385986328 -551.1471557617188 74.27747344970703 L -544.9996948242188 80.14890289306641 L -538.85302734375 74.27761077880859 C -538.3029174804688 73.75212097167969 -538 73.06050872802734 -538 72.33017730712891 C -538 71.59983825683594 -538.3029174804688 70.90824890136719 -538.8529052734375 70.38285827636719 C -539.4280395507812 69.83353424072266 -540.1991577148438 69.53101348876953 -541.0242919921875 69.53101348876953 C -541.8494262695312 69.53101348876953 -542.6205444335938 69.83353424072266 -543.1954956054688 70.38271331787109 L -544.9996948242188 72.10639190673828 L -546.8046264648438 70.38277435302734 C -547.3795776367188 69.83350372314453 -548.150634765625 69.53101348876953 -548.9757080078125 69.53101348876953 M -548.9757080078125 67.53101348876953 C -547.634033203125 67.53101348876953 -546.3717651367188 68.03034210205078 -545.423095703125 68.93659973144531 L -545 69.34064483642578 L -544.5770874023438 68.93659973144531 C -543.6282958984375 68.03034210205078 -542.365966796875 67.53101348876953 -541.0242919921875 67.53101348876953 C -539.6824951171875 67.53101348876953 -538.4202880859375 68.03034210205078 -537.4714965820312 68.93659973144531 C -536.5228271484375 69.84283447265625 -536 71.04782104492188 -536 72.33017730712891 C -536 73.61182403564453 -536.5228271484375 74.81752014160156 -537.4714965820312 75.72377777099609 L -544.3137817382812 82.25949859619141 C -544.4959716796875 82.43357849121094 -544.7427978515625 82.53102111816406 -545 82.53102111816406 C -545.2572631835938 82.53102111816406 -545.5040283203125 82.43357849121094 -545.685546875 82.25949859619141 L -552.5285034179688 75.72377777099609 C -553.4772338867188 74.81752014160156 -554 73.61253356933594 -554 72.33017730712891 C -554 71.04853820800781 -553.4772338867188 69.84283447265625 -552.5285034179688 68.93659973144531 C -551.579833984375 68.03034210205078 -550.3175048828125 67.53101348876953 -548.9757080078125 67.53101348876953 Z"
            stroke="none" fill="#000" />
    </g>
</svg>