<svg xmlns="http://www.w3.org/2000/svg" viewBox="0 0 24 24">
    <g transform="translate(2 3)">
        <g transform="translate(1835 -914)" fill="rgba(0,0,0,0)" stroke-miterlimit="10">
            <path
                d="M -1827.000122070312 931.0010986328125 L -1829.380249023438 931.0004272460938 C -1830.275268554688 930.998779296875 -1831.005615234375 930.2679443359375 -1831.006713867188 929.3712768554688 L -1831.006713867188 922.9122314453125 L -1831.006713867188 921.9122314453125 L -1832.006713867188 921.9122314453125 L -1833.804077148438 921.9122314453125 C -1833.813598632812 921.9121704101562 -1833.822998046875 921.912109375 -1833.832153320312 921.9119262695312 C -1833.82470703125 921.9055786132812 -1833.81689453125 921.8989868164062 -1833.808837890625 921.8922729492188 L -1825.774780273438 915.2575073242188 C -1825.573364257812 915.0927734375 -1825.296997070312 915.0004272460938 -1825.000244140625 915.0004272460938 C -1824.702880859375 915.0004272460938 -1824.426025390625 915.0929565429688 -1824.220825195312 915.260986328125 L -1816.188720703125 921.8932495117188 C -1816.181030273438 921.8995361328125 -1816.173706054688 921.9057006835938 -1816.166748046875 921.9117431640625 C -1816.177490234375 921.9119873046875 -1816.188720703125 921.9121704101562 -1816.200317382812 921.9122314453125 L -1817.992797851562 921.9122314453125 L -1818.992797851562 921.9122314453125 L -1818.992797851562 922.9122314453125 L -1818.992797851562 929.3724365234375 C -1818.993896484375 930.2678833007812 -1819.724243164062 930.998779296875 -1820.620849609375 931.0004272460938 L -1823.000366210938 931.0004272460938 L -1823.000366210938 927 L -1823.000366210938 926.0004272460938 L -1823.999877929688 926 L -1825.999633789062 925.9991455078125 L -1827.000122070312 925.9987182617188 L -1827.000122070312 926.9991455078125 L -1827.000122070312 931.0010986328125 Z"
                stroke="none" />
            <path
                d="M -1828.000122070312 930.0008544921875 L -1828.000122070312 924.998291015625 L -1822.000366210938 925.0008544921875 L -1822.000366210938 930.0004272460938 L -1820.622680664062 930.0004272460938 C -1820.275756835938 929.999755859375 -1819.993286132812 929.7169189453125 -1819.992797851562 929.3724365234375 L -1819.992797851562 920.9122314453125 L -1818.947387695312 920.9122314453125 L -1824.855224609375 916.0340576171875 C -1824.867553710938 916.024658203125 -1824.917236328125 916.0004272460938 -1825.000244140625 916.0004272460938 C -1825.08251953125 916.0004272460938 -1825.1318359375 916.0244140625 -1825.144165039062 916.03369140625 L -1831.051635742188 920.9122314453125 L -1830.006713867188 920.9122314453125 L -1830.006713867188 929.3700561523438 C -1830.00634765625 929.7169799804688 -1829.723754882812 929.999755859375 -1829.3798828125 930.0004272460938 L -1828.000122070312 930.0008544921875 M -1826.000122070312 932.0014038085938 L -1829.380493164062 932.0004272460938 C -1830.826904296875 931.9977416992188 -1832.005004882812 930.81884765625 -1832.006713867188 929.3724365234375 L -1832.006713867188 922.9122314453125 L -1833.804077148438 922.9122314453125 C -1834.033813476562 922.9111938476562 -1834.216796875 922.8857421875 -1834.380004882812 922.8321533203125 C -1834.59716796875 922.759765625 -1834.756713867188 922.646728515625 -1834.867797851562 922.4865112304688 C -1834.952514648438 922.3656005859375 -1835.001953125 922.2054443359375 -1835.000122070312 922.05810546875 C -1834.99853515625 921.8764038085938 -1834.941162109375 921.7020874023438 -1834.824584960938 921.5253295898438 C -1834.731689453125 921.3867797851562 -1834.611572265625 921.2587280273438 -1834.446655273438 921.1221313476562 L -1826.411499023438 914.4864501953125 C -1826.028442382812 914.1730346679688 -1825.527221679688 914.0004272460938 -1825.000244140625 914.0004272460938 C -1824.472534179688 914.0004272460938 -1823.970703125 914.17333984375 -1823.587280273438 914.4873046875 L -1815.552001953125 921.1221313476562 C -1815.389892578125 921.25634765625 -1815.270385742188 921.3844604492188 -1815.175903320312 921.5253295898438 C -1815.059326171875 921.7020874023438 -1815.001953125 921.8764038085938 -1815.000366210938 922.05810546875 C -1814.99853515625 922.2054443359375 -1815.047973632812 922.3656005859375 -1815.132690429688 922.4865112304688 C -1815.21044921875 922.599609375 -1815.3154296875 922.6910400390625 -1815.444946289062 922.75830078125 C -1815.651611328125 922.8640747070312 -1815.876220703125 922.9100952148438 -1816.196411132812 922.9122314453125 L -1817.992797851562 922.9122314453125 L -1817.992797851562 929.3724365234375 C -1817.99462890625 930.81884765625 -1819.172729492188 931.9977416992188 -1820.619018554688 932.0004272460938 L -1824.000366210938 932.0004272460938 L -1824.000366210938 927 L -1826.000122070312 926.9991455078125 L -1826.000122070312 932.0014038085938 Z"
                stroke="none" fill="#000" />
        </g>
    </g>
</svg>