<svg xmlns="http://www.w3.org/2000/svg" width="24" height="24" viewBox="0 0 24 24"><rect width="24" height="24" fill="#fff" opacity="0"/><path d="M196.434,253.189c0-.4,1.311-1.236,2-2a7.576,7.576,0,0,0,2-5v-2h-12v2a7.572,7.572,0,0,0,2,5c.689.765,2,1.6,2,2s-1.311,1.235-2,2a7.573,7.573,0,0,0-2,5v2h12v-2a7.58,7.58,0,0,0-2-5C197.745,254.424,196.434,253.586,196.434,253.189Z" transform="translate(-182.434 -241.189)" fill="none" stroke="#000" stroke-linejoin="round" stroke-miterlimit="10" stroke-width="2"/><line x1="12" transform="translate(6 7)" fill="none" stroke="#000" stroke-miterlimit="10" stroke-width="2"/><ellipse cx="3" cy="2" rx="3" ry="2" transform="translate(9 18)"/></svg>