<svg xmlns="http://www.w3.org/2000/svg" viewBox="0 0 24 24">
    <g transform="translate(4 4)">
        <path
            d="M3.4,16.34l1.151-4.282a.184.184,0,0,1,.331-.053,2.041,2.041,0,1,0,.8-2.961.183.183,0,0,1-.259-.211L6.574,4.55l4.3,1.148a.183.183,0,0,0,.212-.26,2.021,2.021,0,0,1-.141-1.428,2.045,2.045,0,1,1,3.113,2.221.183.183,0,0,0,.053.33L18.4,7.71,15.236,19.5Z"
            transform="translate(-3.405 -2.5)" fill="none" stroke="#000" stroke-linejoin="round" stroke-width="2" />
    </g>
</svg>