<svg xmlns="http://www.w3.org/2000/svg" width="24" height="24" viewBox="0 0 24 24"><rect width="24" height="24" fill="#fff" opacity="0"/><path d="M11,2.227A6.485,6.485,0,0,0,7.176,1,6.435,6.435,0,0,0,2.82,2.656,5.462,5.462,0,0,0,1,6.691a9,9,0,0,0,.906,3.9c.066.139.144.272.215.408" transform="translate(5 2)" fill="none" stroke="#040405" stroke-miterlimit="10" stroke-width="2"/><path d="M4.529,18.1a2.972,2.972,0,0,0,.884,1.3,3.868,3.868,0,0,0,4.889,0,2.86,2.86,0,0,0,1.05-2.181V15.13A15.222,15.222,0,0,0,13.589,11.8a9.881,9.881,0,0,0,.94-3.527" transform="translate(4.471 0.729)" fill="none" stroke="#040405" stroke-miterlimit="10" stroke-width="2"/><line y1="16" x2="16" transform="translate(4 4)" fill="none" stroke="#000" stroke-linecap="round" stroke-width="2"/></svg>