<svg xmlns="http://www.w3.org/2000/svg" viewBox="0 0 24 24">
    <g transform="translate(5 2)">
        <g transform="translate(178 -66.5)" fill="none" stroke-miterlimit="10">
            <path
                d="M-164,73.03a6.3,6.3,0,0,0-2.063-4.63A7.243,7.243,0,0,0-171,66.5a7.243,7.243,0,0,0-4.937,1.9A6.3,6.3,0,0,0-178,73.03a10.429,10.429,0,0,0,1.027,4.475,16.335,16.335,0,0,0,2.328,3.526v2.234a3.061,3.061,0,0,0,1.095,2.313A3.883,3.883,0,0,0-171,86.5a3.883,3.883,0,0,0,2.55-.923,3.061,3.061,0,0,0,1.095-2.313V81.047a16.179,16.179,0,0,0,2.334-3.535A10.478,10.478,0,0,0-164,73.03Z"
                stroke="none" />
            <path
                d="M -170.9999847412109 68.49998474121094 C -172.3569488525391 68.49998474121094 -173.6270599365234 68.98511505126953 -174.5773773193359 69.86698150634766 C -175.4953460693359 70.71761322021484 -176.0005798339844 71.84042358398438 -175.9999847412109 73.03067779541016 C -176.0006713867188 74.26495361328125 -175.7264862060547 75.45067596435547 -175.1621246337891 76.65485382080078 C -174.6987762451172 77.64244842529297 -174.0282592773438 78.6531982421875 -173.1122589111328 79.74486541748047 L -172.6443634033203 80.30249786376953 L -172.6443634033203 83.26624298095703 C -172.6447296142578 83.65766143798828 -172.3924560546875 83.93415832519531 -172.2386779785156 84.06705474853516 C -171.9170684814453 84.34623718261719 -171.4771575927734 84.49998474121094 -170.9999847412109 84.49998474121094 C -170.5228271484375 84.49998474121094 -170.0829162597656 84.34623718261719 -169.7579345703125 84.06413269042969 C -169.6075134277344 83.93415832519531 -169.3552398681641 83.65766143798828 -169.3556213378906 83.26434326171875 L -169.3556213378906 80.31732177734375 L -168.8858032226562 79.75910186767578 C -167.9685516357422 78.66924285888672 -167.2973785400391 77.65732574462891 -166.8343048095703 76.66624450683594 C -166.272216796875 75.46205139160156 -165.9993133544922 74.27284240722656 -165.9999847412109 73.02858734130859 C -165.9994049072266 71.84042358398438 -166.5046234130859 70.71761322021484 -167.4236755371094 69.86600494384766 C -168.3729248046875 68.98511505126953 -169.6430053710938 68.49998474121094 -170.9999847412109 68.49998474121094 M -170.9999847412109 66.49998474121094 C -169.0793609619141 66.49998474121094 -167.3319854736328 67.22259521484375 -166.063232421875 68.39998626708984 C -164.7944946289062 69.57564544677734 -163.9990997314453 71.21739196777344 -163.9999847412109 73.02956390380859 C -163.9990997314453 74.66346740722656 -164.3876037597656 76.15303802490234 -165.0220031738281 77.51216125488281 C -165.6204986572266 78.79304504394531 -166.4386138916016 79.95737457275391 -167.3556213378906 81.04694366455078 L -167.3556213378906 83.26434326171875 C -167.354736328125 84.18000793457031 -167.7861022949219 85.00347137451172 -168.4502410888672 85.577392578125 C -169.1143798828125 86.15390777587891 -170.0156097412109 86.49998474121094 -170.9999847412109 86.49998474121094 C -171.9843597412109 86.49998474121094 -172.8856048583984 86.15390777587891 -173.5497436523438 85.577392578125 C -174.2138824462891 85.00347137451172 -174.6452331542969 84.18000793457031 -174.6443634033203 83.26434326171875 L -174.6443634033203 81.03042602539062 C -175.557861328125 79.94173431396484 -176.3742523193359 78.77999114990234 -176.9727478027344 77.50434112548828 C -177.6097412109375 76.14521789550781 -178.0008850097656 74.65737152099609 -177.9999847412109 73.02956390380859 C -178.0008850097656 71.21739196777344 -177.2054901123047 69.57564544677734 -175.9367523193359 68.39998626708984 C -174.6679840087891 67.22259521484375 -172.9206237792969 66.49998474121094 -170.9999847412109 66.49998474121094 Z"
                stroke="none" fill="#000" />
        </g>
        <line x2="6" transform="translate(4 14)" fill="none" stroke="#000" stroke-miterlimit="10" stroke-width="2" />
        <line x1="2" y2="3" transform="translate(7 8)" fill="none" stroke="#000" stroke-linecap="round"
            stroke-linejoin="round" stroke-width="2" />
        <path d="M-172.261,76.4l2,3v3" transform="translate(177.261 -68.397)" fill="none" stroke="#000"
            stroke-linecap="round" stroke-linejoin="round" stroke-width="2" />
    </g>
</svg>