<svg xmlns="http://www.w3.org/2000/svg" viewBox="0 0 24 24">
    <g transform="translate(4 4)">
        <path
            d="M-606.212,77.152a4.584,4.584,0,0,0,6.446.936,4.555,4.555,0,0,0,.5-.434l2.762-2.783a4.659,4.659,0,0,0-.113-6.557,4.582,4.582,0,0,0-6.4,0L-604.6,69.9"
            transform="translate(612.212 -68.012)" fill="none" stroke="#000" stroke-linecap="round"
            stroke-linejoin="round" stroke-width="2" />
        <path
            d="M-604,76.536a4.584,4.584,0,0,0-6.446-.936,4.56,4.56,0,0,0-.5.434l-2.762,2.783a4.659,4.659,0,0,0,.113,6.557,4.582,4.582,0,0,0,6.4,0l1.575-1.585"
            transform="translate(614 -69.676)" fill="none" stroke="#000" stroke-linecap="round" stroke-linejoin="round"
            stroke-width="2" />
    </g>
</svg>