<svg xmlns="http://www.w3.org/2000/svg" viewBox="0 0 24 24">
    <rect fill="none" />
    <g transform="translate(4.949 5.924)">
        <line x2="5" transform="translate(3.05 11.074)" fill="none" stroke="#000" stroke-linecap="round"
            stroke-miterlimit="10" stroke-width="2" />
        <line x2="12" transform="translate(3.05 6.075)" fill="none" stroke="#000" stroke-linecap="round"
            stroke-miterlimit="10" stroke-width="2" />
        <line x2="8" transform="translate(3.05 1.076)" fill="none" stroke="#000" stroke-linecap="round"
            stroke-miterlimit="10" stroke-width="2" />
        <path d="M812.943,72.176h.472v-1.72l-.516.151v-.585l1.083-.3v2.455h.417v.545h-1.456Z"
            transform="translate(-813.848 -70.645)" stroke="rgba(0,0,0,0)" stroke-width="1" />
        <path
            d="M812.7,78.718a.824.824,0,0,1,.429-.831l.454-.274c.1-.063.135-.14.135-.308v-.158c0-.154-.055-.224-.169-.224h-.22c-.116,0-.171.067-.171.224v.32H812.7V77.18c0-.558.235-.83.659-.83h.171c.427,0,.658.276.658.82v.159a.816.816,0,0,1-.428.821l-.452.275a.277.277,0,0,0-.139.274v.1H814.2v.556H812.7Z"
            transform="translate(-813.645 -72.273)" stroke="rgba(0,0,0,0)" stroke-width="1" />
        <path
            d="M814.187,85.026v.09c0,.545-.225.817-.649.817h-.2c-.425,0-.65-.271-.65-.806v-.242h.456v.276c0,.14.057.21.169.21h.245c.111,0,.17-.073.17-.22v-.257c0-.142-.05-.215-.158-.215h-.363v-.519h.337c.107,0,.157-.07.157-.214v-.236c0-.145-.057-.215-.165-.215h-.206c-.107,0-.163.068-.163.205v.251h-.458v-.216c0-.533.224-.8.648-.8h.157c.423,0,.647.269.647.817v.074c0,.314-.118.531-.344.59C814.063,84.458,814.187,84.7,814.187,85.026Z"
            transform="translate(-813.637 -73.855)" stroke="rgba(0,0,0,0)" stroke-width="1" />
    </g>
</svg>