<svg xmlns="http://www.w3.org/2000/svg" viewBox="0 0 24 24">
    <g transform="translate(4.5 0.75)">
        <g transform="translate(2.5 5.25)" fill="none" stroke="#000" stroke-miterlimit="10" stroke-width="2">
            <rect width="10" height="8" rx="3" stroke="none" />
            <rect x="1" y="1" width="8" height="6" rx="2" fill="none" />
        </g>
        <path d="M259.1,8V6.7a1.869,1.869,0,0,1,2-1.7h0a1.869,1.869,0,0,1,2,1.7V8" transform="translate(-253.595 -2.75)"
            fill="none" stroke="#000" stroke-linecap="round" stroke-linejoin="round" stroke-width="2" />
    </g>
    <g transform="translate(-7.014 7)">
        <line y2="5" transform="translate(13.014 9)" fill="none" stroke="#000" stroke-linecap="round"
            stroke-width="1" />
        <line x1="4" y2="2.5" transform="translate(11.014 10.25)" fill="none" stroke="#000" stroke-linecap="round"
            stroke-width="1" />
        <line x1="4" y1="2.5" transform="translate(11.014 10.25)" fill="none" stroke="#000" stroke-linecap="round"
            stroke-width="1" />
    </g>
    <g transform="translate(-1.014 7)">
        <line y2="5" transform="translate(13.014 9)" fill="none" stroke="#000" stroke-linecap="round"
            stroke-width="1" />
        <line x1="4" y2="2.5" transform="translate(11.014 10.25)" fill="none" stroke="#000" stroke-linecap="round"
            stroke-width="1" />
        <line x1="4" y1="2.5" transform="translate(11.014 10.25)" fill="none" stroke="#000" stroke-linecap="round"
            stroke-width="1" />
    </g>
    <g transform="translate(4.986 7)">
        <line y2="5" transform="translate(13.014 9)" fill="none" stroke="#000" stroke-linecap="round"
            stroke-width="1" />
        <line x1="4" y2="2.5" transform="translate(11.014 10.25)" fill="none" stroke="#000" stroke-linecap="round"
            stroke-width="1" />
        <line x1="4" y1="2.5" transform="translate(11.014 10.25)" fill="none" stroke="#000" stroke-linecap="round"
            stroke-width="1" />
    </g>
</svg>