<svg xmlns="http://www.w3.org/2000/svg" viewBox="0 0 24 24">
    <g transform="translate(2.998 3.365)">
        <path
            d="M68,16.487a1.845,1.845,0,0,1-2-2v-8a1.845,1.845,0,0,1,2-2H82a1.845,1.845,0,0,1,2,2v8a1.845,1.845,0,0,1-2,2"
            transform="translate(-65.997 -4.852)" fill="none" stroke="#000" stroke-linecap="round"
            stroke-miterlimit="10" stroke-width="2" />
        <path d="M70.452,11.373l2-2h3l3-3" transform="translate(-65.45 -2.738)" fill="none" stroke="#000"
            stroke-linecap="round" stroke-linejoin="round" stroke-width="2" />
        <path d="M0,0A2,2,0,0,1,2,2,2,2,0,0,1,0,4" transform="translate(7.002 17.635) rotate(-90)" fill="none"
            stroke="#000" stroke-width="2" />
        <g transform="translate(-14.998 -4.044)" fill="none" stroke-miterlimit="10">
            <path d="M22,16.679a2,2,0,1,1,.586,1.414A2,2,0,0,1,22,16.679Z" stroke="none" />
            <path
                d="M 24.00000190734863 14.67900276184082 C 24.55300140380859 14.67900276184082 25.05100250244141 14.90200233459473 25.41400146484375 15.26400184631348 C 25.77700233459473 15.62700271606445 26.00000190734863 16.12600326538086 26.00000190734863 16.67900276184082 C 26.00000190734863 17.23200225830078 25.77700233459473 17.73000335693359 25.41400146484375 18.09300231933594 C 25.05100250244141 18.45500183105469 24.55300140380859 18.67900276184082 24.00000190734863 18.67900276184082 C 23.44700241088867 18.67900276184082 22.94900131225586 18.45500183105469 22.58600234985352 18.09300231933594 C 22.22400283813477 17.73000335693359 22.00000190734863 17.23200225830078 22.00000190734863 16.67900276184082 C 22.00000190734863 16.12600326538086 22.22400283813477 15.62700271606445 22.58600234985352 15.26400184631348 C 22.94900131225586 14.90200233459473 23.44700241088867 14.67900276184082 24.00000190734863 14.67900276184082 Z"
                stroke="none" fill="#000" />
        </g>
    </g>
</svg>