<svg xmlns="http://www.w3.org/2000/svg" viewBox="0 0 24 24">
    <g transform="translate(-16707 -19833)">
        <path
            d="M 16719.001953125 19853.53515625 C 16718.345703125 19852.80859375 16717.32421875 19851.611328125 16716.322265625 19850.177734375 C 16713.576171875 19846.263671875 16713 19843.5703125 16713 19842 C 16713 19838.69140625 16715.693359375 19835.998046875 16719.001953125 19835.998046875 C 16722.310546875 19835.998046875 16725.001953125 19838.69140625 16725.001953125 19842 C 16725.001953125 19843.5703125 16724.42578125 19846.263671875 16721.68359375 19850.1796875 C 16720.681640625 19851.609375 16719.658203125 19852.80859375 16719.001953125 19853.53515625 Z M 16719.001953125 19838 C 16716.796875 19838 16715.001953125 19839.794921875 16715.001953125 19842 C 16715.001953125 19844.205078125 16716.796875 19846 16719.001953125 19846 C 16721.20703125 19846 16723 19844.205078125 16723 19842 C 16723 19839.794921875 16721.20703125 19838 16719.001953125 19838 Z"
            stroke="none" />
        <path
            d="M 16719.001953125 19852.015625 C 16719.556640625 19851.357421875 16720.216796875 19850.53125 16720.86328125 19849.607421875 C 16722.88671875 19846.716796875 16724.001953125 19844.015625 16724.001953125 19842 C 16724.001953125 19839.2421875 16721.759765625 19836.998046875 16719.001953125 19836.998046875 C 16716.244140625 19836.998046875 16714 19839.2421875 16714 19842 C 16714 19844.015625 16715.115234375 19846.71484375 16717.140625 19849.603515625 C 16717.7890625 19850.53125 16718.447265625 19851.359375 16719.001953125 19852.015625 M 16719.001953125 19837 C 16721.7578125 19837 16724 19839.2421875 16724 19842 C 16724 19844.7578125 16721.7578125 19847 16719.001953125 19847 C 16716.244140625 19847 16714.001953125 19844.7578125 16714.001953125 19842 C 16714.001953125 19839.2421875 16716.244140625 19837 16719.001953125 19837 M 16719.001953125 19855 L 16719.001953125 19854.998046875 C 16718.984375 19854.98046875 16717.224609375 19853.21484375 16715.501953125 19850.75 C 16713.904296875 19848.47265625 16712 19845.10546875 16712 19842 C 16712 19838.138671875 16715.140625 19834.998046875 16719.001953125 19834.998046875 C 16722.861328125 19834.998046875 16726.001953125 19838.138671875 16726.001953125 19842 C 16726.001953125 19845.1015625 16724.099609375 19848.47265625 16722.501953125 19850.75390625 C 16720.783203125 19853.208984375 16719.01953125 19854.98046875 16719.001953125 19854.998046875 L 16719.001953125 19855 Z M 16719.001953125 19839 C 16717.34765625 19839 16716.001953125 19840.345703125 16716.001953125 19842 C 16716.001953125 19843.654296875 16717.34765625 19845 16719.001953125 19845 C 16720.65625 19845 16722 19843.654296875 16722 19842 C 16722 19840.345703125 16720.65625 19839 16719.001953125 19839 Z"
            stroke="none" fill="#000" />
    </g>
</svg>