<svg xmlns="http://www.w3.org/2000/svg" width="24" height="24" viewBox="0 0 24 24"><rect width="24" height="24" fill="#fff" opacity="0"/><g transform="translate(9 6)" fill="none" stroke="#000" stroke-width="2"><circle cx="3" cy="3" r="3" stroke="none"/><circle cx="3" cy="3" r="2" fill="none"/></g><g transform="translate(5 2)" fill="none"><path d="M7,0a7,7,0,0,1,7,7c0,6.009-7,13-7,13S0,13.005,0,7A7,7,0,0,1,7,0Z" stroke="none"/><path d="M 7 2 C 4.242989540100098 2 2 4.242989540100098 2 7 C 2 9.029939651489258 3.072680473327637 11.64173030853271 5.102089881896973 14.55300998687744 C 5.767276763916016 15.5072546005249 6.438339710235596 16.35145568847656 7.000837802886963 17.01765441894531 C 7.55104923248291 16.36596488952637 8.206266403198242 15.54201602935791 8.861770629882812 14.60598945617676 C 10.91481971740723 11.67432975769043 12 9.044219970703125 12 7 C 12 4.242989540100098 9.757009506225586 2 7 2 M 7 0 C 10.86598968505859 0 14 3.134010314941406 14 7 C 14 13.0086498260498 7 20 7 20 C 7 20 0 13.00533008575439 0 7 C 0 3.134010314941406 3.134010314941406 0 7 0 Z" stroke="none" fill="#000"/></g></svg>