<svg xmlns="http://www.w3.org/2000/svg" width="24" height="24" viewBox="0 0 24 24"><rect width="24" height="24" fill="#fff" opacity="0"/><g transform="translate(3 3)"><path d="M16.023,4.408l5.989,18-17.966-6S2.753,4.408,16.023,4.408Z" transform="translate(-4.013 -4.408)" fill="rgba(0,0,0,0)" stroke="#000" stroke-linecap="round" stroke-linejoin="round" stroke-width="2"/><path d="M6.263,16.84a9.664,9.664,0,0,1,.016-2.2,9.591,9.591,0,0,1,.981-1.986,9.765,9.765,0,0,1,1.018-1.97A10.428,10.428,0,0,1,10.063,9.3a10.291,10.291,0,0,1,1.809-1.356,10.872,10.872,0,0,1,2.239-.506,10.571,10.571,0,0,1,2.247-.47" transform="translate(-4.586 -5.049)" fill="rgba(0,0,0,0)" stroke="#000" stroke-linecap="round" stroke-linejoin="round" stroke-width="1.5"/><path d="M6.938,21.2c.3-1.14,2.338-1.365,3.387-1a2.773,2.773,0,0,1,1.613,3" transform="translate(-3.938 -9.204)" fill="rgba(0,0,0,0)" stroke="#000" stroke-width="2"/><path d="M24.282,20.4c-.661.308-1.484-.321-1.839-1.4s-.106-2.21.555-2.518" transform="translate(-8.282 -7.476)" fill="rgba(0,0,0,0)" stroke="#000" stroke-width="2"/><path d="M16.439,12.729a1.885,1.885,0,0,0-2.578,2.58.627.627,0,0,0,.465.3.644.644,0,0,0,.539-.184l.144-.123.811,1.164L17.6,14.686l-1.166-.83.123-.127a.645.645,0,0,0,.184-.54.626.626,0,0,0-.3-.464Z" transform="translate(-6.604 -7.47)"/></g></svg>