<svg xmlns="http://www.w3.org/2000/svg" width="24" height="24" viewBox="0 0 24 24"><rect width="24" height="24" fill="#fff" opacity="0"/><g transform="translate(22 3) rotate(90)" fill="none"><path d="M7.257,3.1a2,2,0,0,1,3.486,0l5.58,9.921A2,2,0,0,1,14.58,16H3.42a2,2,0,0,1-1.743-2.981Z" stroke="none"/><path d="M 9 4.07945728302002 L 9.000000953674316 4.079455375671387 L 3.41969108581543 13.99999618530273 L 14.58030128479004 13.99999618530273 L 9.00001049041748 4.079475402832031 C 9.000007629394531 4.079469680786133 9.000003814697266 4.079463005065918 9 4.07945728302002 M 9.000000953674316 2.079461097717285 C 9.680423736572266 2.079461097717285 10.3608455657959 2.419285774230957 10.74315071105957 3.098936080932617 L 16.32345008850098 13.01947593688965 C 17.07339096069336 14.35268592834473 16.10996055603027 15.99999618530273 14.58030128479004 15.99999618530273 L 3.41969108581543 15.99999618530273 C 1.890041351318359 15.99999618530273 0.9266109466552734 14.35268592834473 1.676540374755859 13.01947593688965 L 7.256851196289062 3.098936080932617 C 7.639156341552734 2.419285774230957 8.319578170776367 2.079461097717285 9.000000953674316 2.079461097717285 Z" stroke="none" fill="#000"/></g></svg>