<svg xmlns="http://www.w3.org/2000/svg" viewBox="0 0 24 24">
    <g transform="translate(-17897.998 -20480)" fill="none">
        <path
            d="M17902,20499a2,2,0,0,1-2-2v-7a2,2,0,0,1,2-2v-1a2,2,0,0,1,2-2h3a2,2,0,0,1,2,2v1h2v-1a2,2,0,0,1,2-2h3a2,2,0,0,1,2,2v1a2,2,0,0,1,2,2v7a2,2,0,0,1-2,2Z"
            stroke="none" />
        <path
            d="M 17918 20497 L 17918 20490.001953125 L 17916 20490.001953125 L 17916 20487.001953125 C 17916 20487.001953125 17915.998046875 20487.001953125 17915.998046875 20487.001953125 L 17912.998046875 20487.001953125 L 17912.998046875 20490.001953125 L 17907.001953125 20490.001953125 L 17907.001953125 20487.001953125 C 17907.001953125 20487.001953125 17907 20487.001953125 17907 20487.001953125 L 17904.001953125 20487.001953125 C 17904.001953125 20487.001953125 17904 20487.001953125 17904 20487.001953125 L 17904 20488.001953125 L 17903.99609375 20490.00390625 L 17901.998046875 20490.00390625 L 17902 20497 L 17918 20497 M 17918 20499 L 17902 20499 C 17900.89453125 20499 17899.998046875 20498.10546875 17899.998046875 20497 L 17899.998046875 20489.998046875 C 17899.998046875 20488.896484375 17900.89453125 20488.001953125 17902 20488.001953125 L 17902 20486.998046875 C 17902 20485.892578125 17902.89453125 20485.001953125 17904.001953125 20485.001953125 L 17907 20485.001953125 C 17908.107421875 20485.001953125 17909.001953125 20485.892578125 17909.001953125 20486.998046875 L 17909.001953125 20488.001953125 L 17910.998046875 20488.001953125 L 17910.998046875 20486.998046875 C 17910.998046875 20485.892578125 17911.892578125 20485.001953125 17912.998046875 20485.001953125 L 17915.998046875 20485.001953125 C 17917.103515625 20485.001953125 17918 20485.892578125 17918 20486.998046875 L 17918 20488.001953125 C 17919.10546875 20488.001953125 17920 20488.896484375 17920 20489.998046875 L 17920 20497 C 17920 20498.10546875 17919.10546875 20499 17918 20499 Z"
            stroke="none" fill="#000" />
    </g>
</svg>