<svg xmlns="http://www.w3.org/2000/svg" viewBox="0 0 24 24">
    <g transform="translate(3 4.439)">
        <g transform="translate(-4 -7.016)" fill="none" stroke-miterlimit="10">
            <path
                d="M20.553,10.577H5.5a1.524,1.524,0,0,0-1.5,1.5v7a1.5,1.5,0,0,0,1.5,1.5H7v1.5a1.527,1.527,0,0,0,1.5,1.5H17.5a1.525,1.525,0,0,0,1.5-1.5v-1.5h1.5a1.526,1.526,0,0,0,1.5-1.5V12.066A1.469,1.469,0,0,0,20.553,10.577Z"
                stroke="none" />
            <path
                d="M 6 12.57619857788086 L 6 18.576171875 L 9 18.576171875 L 9 21.576171875 L 17 21.576171875 L 17 18.576171875 L 20 18.576171875 L 20 12.57697105407715 L 6 12.57619857788086 M 5.5 10.576171875 L 20.55324935913086 10.57700157165527 C 21.35200119018555 10.57700157165527 22 11.24410247802734 22 12.06639099121094 L 22 19.07226181030273 C 22 19.89533233642578 21.29874992370605 20.576171875 20.5 20.576171875 L 19 20.576171875 L 19 22.076171875 C 19 22.89383316040039 18.29912948608398 23.576171875 17.50487899780273 23.576171875 L 8.4970703125 23.576171875 C 7.70281982421875 23.576171875 7 22.89383316040039 7 22.076171875 L 7 20.576171875 L 5.5 20.576171875 C 4.6650390625 20.57422256469727 4 19.89923095703125 4 19.076171875 L 4 12.076171875 C 4 11.25388145446777 4.701250076293945 10.576171875 5.5 10.576171875 Z"
                stroke="none" fill="#000" />
        </g>
        <g transform="translate(-4.635 -7.424)" fill="none" stroke-miterlimit="10">
            <path d="M7.635,16.984h12V22.7a1.333,1.333,0,0,1-1.375,1.287H9.01A1.333,1.333,0,0,1,7.635,22.7Z"
                stroke="none" />
            <path
                d="M 9.635000228881836 18.98400115966797 L 9.635000228881836 21.98361968994141 L 17.63500022888184 21.98361968994141 L 17.63500022888184 18.98400115966797 L 9.635000228881836 18.98400115966797 M 7.635000228881836 16.98400115966797 L 19.63500022888184 16.98400115966797 L 19.63500022888184 22.69699096679688 C 19.63500022888184 23.40776062011719 19.01958084106445 23.98361968994141 18.25997924804688 23.98361968994141 L 9.010009765625 23.98361968994141 C 8.250419616699219 23.98361968994141 7.635000228881836 23.40776062011719 7.635000228881836 22.69699096679688 L 7.635000228881836 16.98400115966797 Z"
                stroke="none" fill="#000" />
        </g>
        <line x2="2" transform="translate(11 7.561)" fill="none" stroke="#000" stroke-linecap="round"
            stroke-miterlimit="10" stroke-width="2" />
        <g transform="translate(5 -0.439)">
            <path d="M20.627,6.587h-2v-2Z" transform="translate(-12.626 -4.589)" fill="none" stroke="#000"
                stroke-linejoin="round" stroke-width="2" />
            <path d="M10.726,9.587V5.782a1.2,1.2,0,0,1,1.21-1.195h4.912L18.726,6.4V9.587"
                transform="translate(-10.726 -4.587)" fill="none" stroke="#000" stroke-miterlimit="10"
                stroke-width="2" />
        </g>
    </g>
</svg>