<svg xmlns="http://www.w3.org/2000/svg" viewBox="0 0 24 24">
    <path
        d="M-2425,927a4.963,4.963,0,0,1-4-2,3,3,0,0,0,3-3,3,3,0,0,0-3-3,4.963,4.963,0,0,1,4-2,4.964,4.964,0,0,1,4,2,3.006,3.006,0,0,0-3,3,3,3,0,0,0,3,3A4.958,4.958,0,0,1-2425,927Z"
        transform="translate(2437 -913)" fill="rgba(0,0,0,0)" stroke="#000" stroke-width="2" />
    <path d="M0,0A6,6,0,0,1,6,6a6,6,0,0,1-6,6" transform="translate(6 22) rotate(-90)" fill="none" stroke="#000"
        stroke-linejoin="round" stroke-width="2" />
    <g transform="translate(4 5)" fill="rgba(0,0,0,0)" stroke="#000" stroke-width="2">
        <circle cx="4" cy="4" r="4" stroke="none" />
        <circle cx="4" cy="4" r="3" fill="none" />
    </g>
    <g transform="translate(12 5)" fill="none" stroke="#000" stroke-width="2">
        <circle cx="4" cy="4" r="4" stroke="none" />
        <circle cx="4" cy="4" r="3" fill="none" />
    </g>
</svg>