<svg xmlns="http://www.w3.org/2000/svg" xmlns:xlink="http://www.w3.org/1999/xlink" width="24" height="24"
    viewBox="0 0 24 24">
    <defs>
        <clipPath id="a">
            <rect width="17.997" height="17.996" transform="translate(0 0)" fill="none" stroke="#000"
                stroke-width="1" />
        </clipPath>
    </defs>
    <g transform="translate(3 3)">
        <g clip-path="url(#a)">
            <path
                d="M8.955,4.786,7.143,2.975A.821.821,0,0,1,6.9,2.4V1.395a.4.4,0,0,0-.681-.279L1.114,6.224a.4.4,0,0,0,.279.68H2.4a.808.808,0,0,1,.574.239L4.786,8.955"
                fill="none" stroke="#000" stroke-miterlimit="10" stroke-width="2" />
            <path
                d="M7.249,14.976A7.548,7.548,0,0,0,8.36,16.707a.822.822,0,0,0,1.16.092.63.63,0,0,0,.047-.043l7.191-7.191a.824.824,0,0,0,0-1.164l-.045-.041a7.552,7.552,0,0,0-1.732-1.111"
                fill="none" stroke="#000" stroke-miterlimit="10" stroke-width="2" />
        </g>
        <line x2="3" y2="3" transform="translate(14 14)" fill="none" stroke="#000" stroke-linecap="round"
            stroke-miterlimit="10" stroke-width="2" />
        <line y1="16" x2="16" transform="translate(1 1)" fill="none" stroke="#000" stroke-linecap="round"
            stroke-miterlimit="10" stroke-width="2" />
    </g>
</svg>