<svg xmlns="http://www.w3.org/2000/svg" width="24" height="24" viewBox="0 0 24 24"><rect width="24" height="24" fill="#fff" opacity="0"/><g transform="translate(3 3.75)"><g transform="translate(-1 3)"><line x2="2" y2="2" transform="translate(3 1.25)" fill="none" stroke="#000" stroke-linecap="round" stroke-miterlimit="10" stroke-width="2"/><circle cx="1" cy="1" r="1" transform="translate(1 -0.75)" fill="none" stroke="#000" stroke-linecap="round" stroke-miterlimit="10" stroke-width="2"/></g><g transform="translate(7 1)"><line y2="2" transform="translate(2 2.25)" fill="none" stroke="#000" stroke-linecap="round" stroke-miterlimit="10" stroke-width="2"/><circle cx="1" cy="1" r="1" transform="translate(1 -0.75)" fill="none" stroke="#000" stroke-linecap="round" stroke-miterlimit="10" stroke-width="2"/></g><g transform="translate(14 2.25)"><line x1="2" y2="2" transform="translate(0 2)" fill="none" stroke="#000" stroke-linecap="round" stroke-miterlimit="10" stroke-width="2"/><circle cx="1" cy="1" r="1" transform="translate(2)" fill="none" stroke="#000" stroke-linecap="round" stroke-miterlimit="10" stroke-width="2"/></g><path d="M0,0A3,3,0,0,1,3,3,3,3,0,0,1,0,6" transform="translate(6 18.25) rotate(-90)" fill="none" stroke="#000" stroke-linejoin="round" stroke-width="2"/><g transform="translate(6 8.25)" fill="none" stroke="#000" stroke-width="2"><rect width="6.001" height="6.001" rx="3" stroke="none"/><rect x="1" y="1" width="4.001" height="4.001" rx="2" fill="none"/></g></g></svg>