<svg xmlns="http://www.w3.org/2000/svg" width="24" height="24" viewBox="0 0 24 24"><rect width="24" height="24" fill="#fff" opacity="0"/><g transform="translate(0 1)"><g transform="translate(-17430 -18770.998)" fill="none"><path d="M17434,18791a2,2,0,0,1-2-2v-12.732c0-1.133.859-2.26,1.717-2.264l6-.006.834.006,1.379,2.264H17450a2,2,0,0,1,2,2V18789a2,2,0,0,1-2,2Z" stroke="none"/><path d="M 17450 18789 C 17450 18789 17450 18789 17450 18789 L 17450.001953125 18778.26953125 C 17450 18778.26953125 17450 18778.267578125 17450 18778.267578125 L 17440.8046875 18778.267578125 L 17440.21875 18777.30859375 L 17439.421875 18775.998046875 L 17434.076171875 18776.00390625 C 17434.033203125 18776.083984375 17433.998046875 18776.18359375 17433.998046875 18776.267578125 L 17433.99609375 18788.998046875 C 17433.998046875 18788.998046875 17433.998046875 18789 17433.998046875 18789 L 17450 18789 M 17450 18791 L 17433.998046875 18791 C 17432.89453125 18791 17431.998046875 18790.103515625 17431.998046875 18789 L 17431.998046875 18778.267578125 C 17431.998046875 18777.5859375 17431.998046875 18776.80078125 17431.998046875 18776.267578125 C 17431.998046875 18775.134765625 17432.857421875 18774.0078125 17433.71484375 18774.00390625 L 17439.71484375 18773.998046875 L 17440.548828125 18774.00390625 L 17441.927734375 18776.267578125 L 17450 18776.267578125 C 17451.103515625 18776.267578125 17452 18777.1640625 17452 18778.267578125 L 17452 18789 C 17452 18790.103515625 17451.103515625 18791 17450 18791 Z" stroke="none" fill="#000"/></g><g transform="translate(9.25 2)"><path d="M0,0,2,2,4,0" transform="translate(7.75 11) rotate(180)" fill="none" stroke="#000" stroke-linecap="round" stroke-linejoin="round" stroke-width="2"/><line y2="4" transform="translate(5.75 10)" fill="none" stroke="#000" stroke-linecap="round" stroke-linejoin="round" stroke-width="2"/></g></g></svg>