<svg xmlns="http://www.w3.org/2000/svg" width="24" height="24" viewBox="0 0 24 24"><rect width="24" height="24" fill="#fff" opacity="0"/><g transform="translate(4.884 5.999)"><rect width="8" height="4" rx="0.5" transform="translate(7.117 -1.998)" fill="none" stroke="#000" stroke-width="2"/><path d="M812.988,73.812h.944V70.946L812.9,71.2v-.976l2.165-.5v4.091h.835v.909h-2.911Z" transform="translate(-813.783 -71.721)"/><path d="M812.708,80.3a1.333,1.333,0,0,1,.858-1.385l.908-.456a.481.481,0,0,0,.271-.514v-.263c0-.257-.109-.373-.338-.373h-.44c-.231,0-.341.112-.341.373v.533h-.93v-.479a1.2,1.2,0,0,1,1.318-1.384h.341a1.2,1.2,0,0,1,1.317,1.367v.264a1.322,1.322,0,0,1-.857,1.368l-.9.458a.446.446,0,0,0-.279.456v.16H815.7v.926h-2.988Z" transform="translate(-813.58 -68.35)"/><g transform="translate(6.615 5.295)"><g transform="translate(0.5 3.705)" fill="none" stroke="#000" stroke-miterlimit="10" stroke-width="2"><rect width="8" height="6" rx="2" stroke="none"/><rect x="1" y="1" width="6" height="4" rx="1" fill="none"/></g><path d="M259.1,8V6.7a1.869,1.869,0,0,1,2-1.7h0a1.869,1.869,0,0,1,2,1.7V8" transform="translate(-256.595 -4.295)" fill="none" stroke="#000" stroke-linecap="round" stroke-linejoin="round" stroke-width="2"/></g></g></svg>