<svg xmlns="http://www.w3.org/2000/svg" viewBox="0 0 24 24">
    <g transform="translate(3.75 3.762)">
        <g transform="translate(-4.75 -4.778)" fill="none" stroke-linecap="round" stroke-linejoin="round">
            <path
                d="M11.985,21.016h2.029l.248-1.992.344-.095a6.075,6.075,0,0,0,1.436-.595l.311-.18,1.585,1.237,1.437-1.437-1.237-1.585.18-.312a6.093,6.093,0,0,0,.595-1.436l.095-.343L21,14.031V12l-1.991-.247-.095-.344a6.082,6.082,0,0,0-.6-1.436l-.18-.311,1.237-1.585L17.939,6.639,16.353,7.877l-.311-.18A6.087,6.087,0,0,0,14.607,7.1l-.344-.095-.248-1.991H11.985l-.248,1.991-.344.095A6.087,6.087,0,0,0,9.958,7.7l-.311.18L8.061,6.639,6.624,8.076,7.861,9.662l-.18.312a6.071,6.071,0,0,0-.6,1.435l-.095.345L5,12v2.03l1.991.248.095.344a6.071,6.071,0,0,0,.6,1.435l.18.312L6.624,17.955l1.437,1.437,1.585-1.237.311.18a6.087,6.087,0,0,0,1.436.595l.344.095Z"
                stroke="none" />
            <path
                d="M 14.01455116271973 21.01600074768066 L 14.26254081726074 19.02400016784668 L 14.60654067993164 18.92945098876953 C 15.11854076385498 18.78909111022949 15.60218048095703 18.58909034729004 16.04218101501465 18.33454132080078 L 16.35346031188965 18.15491104125977 L 17.93891143798828 19.39200019836426 L 19.37600135803223 17.95491027832031 L 18.1389102935791 16.36945152282715 L 18.31927108764648 16.05745124816895 C 18.57309150695801 15.61745071411133 18.7738208770752 15.13455104827881 18.91418075561523 14.6218204498291 L 19.00873184204102 14.27855110168457 L 21 14.03054046630859 L 21 12.00073051452637 L 19.00873184204102 11.75345039367676 L 18.91418075561523 11.40945053100586 C 18.7738208770752 10.89673042297363 18.57309150695801 10.41382122039795 18.31855010986328 9.973091125488281 L 18.1389102935791 9.661820411682129 L 19.37600135803223 8.076360702514648 L 17.93891143798828 6.639270782470703 L 16.35346031188965 7.877090930938721 L 16.04218101501465 7.696730613708496 C 15.60145092010498 7.442180633544922 15.11854076385498 7.242180824279785 14.60654067993164 7.101820945739746 L 14.26254081726074 7.007270812988281 L 14.01455116271973 5.016000747680664 L 11.98545074462891 5.016000747680664 L 11.73745059967041 7.007270812988281 L 11.39345073699951 7.101820945739746 C 10.88145065307617 7.242180824279785 10.39855098724365 7.442180633544922 9.957820892333984 7.696730613708496 L 9.646540641784668 7.877090930938721 L 8.061091423034668 6.639270782470703 L 6.624001026153564 8.076360702514648 L 7.861091136932373 9.661820411682129 L 7.681450843811035 9.973820686340332 C 7.426910877227783 10.41382122039795 7.226181030273438 10.89673042297363 7.085821151733398 11.40873050689697 L 6.991271018981934 11.75345039367676 L 5.000000953674316 12.00073051452637 L 5.000000953674316 14.03054046630859 L 6.991271018981934 14.27855110168457 L 7.085821151733398 14.62255096435547 C 7.226181030273438 15.13455104827881 7.426910877227783 15.61745071411133 7.681450843811035 16.05745124816895 L 7.861091136932373 16.36945152282715 L 6.624001026153564 17.95491027832031 L 8.061091423034668 19.39200019836426 L 9.646540641784668 18.15491104125977 L 9.957820892333984 18.33454132080078 C 10.39855098724365 18.58909034729004 10.88145065307617 18.78909111022949 11.39345073699951 18.92945098876953 L 11.73745059967041 19.02400016784668 L 11.98545074462891 21.01600074768066 L 14.01455116271973 21.01600074768066 M 14.01455116271973 23.01600074768066 L 11.98545074462891 23.01600074768066 C 10.97643089294434 23.01600074768066 10.12543106079102 22.26438140869141 10.00077056884766 21.26309013366699 L 9.909932136535645 20.53345108032227 C 9.896685600280762 20.52801704406738 9.883544921875 20.52258491516113 9.870335578918457 20.5170841217041 L 9.291431427001953 20.96879005432129 C 8.495281219482422 21.59001541137695 7.360940933227539 21.5202693939209 6.646881103515625 20.80621147155762 L 5.20979118347168 19.36912155151367 C 4.495730876922607 18.65507125854492 4.425991058349609 17.52073097229004 5.047201156616211 16.72458076477051 L 5.498655796051025 16.14599418640137 C 5.493119239807129 16.13271713256836 5.487592697143555 16.11936187744141 5.482123374938965 16.10604476928711 L 4.752810955047607 16.01521110534668 C 3.751560926437378 15.89050102233887 3.000000953674316 15.03953075408936 3.000000953674316 14.03054046630859 L 3.000000953674316 12.00073051452637 C 3.000000953674316 10.99147033691406 3.75196099281311 10.14035034179688 4.753530979156494 10.01598072052002 L 5.482071399688721 9.925509452819824 C 5.4875807762146 9.912097930908203 5.493123054504395 9.898709297180176 5.498701572418213 9.885335922241211 L 5.047201156616211 9.30669116973877 C 4.425991058349609 8.510540962219238 4.495730876922607 7.376200675964355 5.20979118347168 6.662150859832764 L 6.646881103515625 5.225060939788818 C 7.361090660095215 4.510840892791748 8.495732307434082 4.441249847412109 9.29188060760498 5.062830924987793 L 9.870174407958984 5.514326095581055 C 9.883441925048828 5.508800029754639 9.89667797088623 5.503329277038574 9.909982681274414 5.497870445251465 L 10.00078105926514 4.768820762634277 C 10.12548065185547 3.767570734024048 10.97646141052246 3.016000747680664 11.98545074462891 3.016000747680664 L 14.01455116271973 3.016000747680664 C 15.02354049682617 3.016000747680664 15.87452125549316 3.767570734024048 15.9992208480835 4.7688307762146 L 16.09000587463379 5.497793674468994 C 16.10333061218262 5.503259658813477 16.11660194396973 5.508744716644287 16.1298885345459 5.514277935028076 L 16.70812034606934 5.062830924987793 C 17.5042724609375 4.441251277923584 18.6389102935791 4.510839939117432 19.35312080383301 5.225060939788818 L 20.79021072387695 6.662150859832764 C 21.50427055358887 7.376200675964355 21.57401084899902 8.510540962219238 20.95280075073242 9.30669116973877 L 20.50129127502441 9.885348320007324 C 20.50686645507812 9.898724555969238 20.51239776611328 9.912091255187988 20.51790428161621 9.925505638122559 L 21.2464714050293 10.01598072052002 C 22.2480411529541 10.14035034179688 23 10.99147033691406 23 12.00073051452637 L 23 14.03054046630859 C 23 15.03953075408936 22.24844169616699 15.89050102233887 21.24719047546387 16.01521110534668 L 20.51790428161621 16.10604286193848 C 20.51242256164551 16.11939239501953 20.50691413879395 16.13270568847656 20.50136375427246 16.14601707458496 L 20.95280075073242 16.72458076477051 C 21.57401084899902 17.52073097229004 21.50427055358887 18.65507125854492 20.79021072387695 19.36912155151367 L 19.35312080383301 20.80621147155762 C 18.63906097412109 21.5202693939209 17.50472068786621 21.59000968933105 16.70857048034668 20.96879005432129 L 16.12980079650879 20.51719093322754 C 16.11654663085938 20.52270698547363 16.10334014892578 20.52816009521484 16.09004402160645 20.53361129760742 L 15.99923133850098 21.26308059692383 C 15.87457084655762 22.26438140869141 15.02358055114746 23.01600074768066 14.01455116271973 23.01600074768066 Z"
                stroke="none" fill="#000" />
        </g>
        <circle cx="3" cy="3" r="3" transform="translate(5.25 5.238)" fill="none" stroke="#000" stroke-linecap="round"
            stroke-linejoin="round" stroke-width="2" />
    </g>
</svg>