<svg xmlns="http://www.w3.org/2000/svg" width="24" height="24" viewBox="0 0 24 24"><rect width="24" height="24" fill="none"/><g transform="translate(3 4)" fill="none"><path d="M12.33,0a2,2,0,0,1,1.743,1.019l3.375,6a2,2,0,0,1,0,1.961l-3.375,6A2,2,0,0,1,12.33,16H5.67a2,2,0,0,1-1.743-1.019l-3.375-6a2,2,0,0,1,0-1.961l3.375-6A2,2,0,0,1,5.67,0Z" stroke="none"/><path d="M 5.669698715209961 2 L 2.294689178466797 8 L 5.669698715209961 14 L 12.33030891418457 14 L 15.70530891418457 8 L 12.33030891418457 2 L 5.669698715209961 2 M 5.669698715209961 0 L 12.33030891418457 0 C 13.05284881591797 0 13.71921920776367 0.3897199630737305 14.07345962524414 1.019479751586914 L 17.44845962524414 7.019479751586914 C 17.79091835021973 7.628299713134766 17.79091835021973 8.371700286865234 17.44845962524414 8.980520248413086 L 14.07345962524414 14.98052024841309 C 13.71921920776367 15.61028003692627 13.05284881591797 16 12.33030891418457 16 L 5.669698715209961 16 C 4.947149276733398 16 4.280778884887695 15.61028003692627 3.926539421081543 14.98052024841309 L 0.5515384674072266 8.980520248413086 C 0.2090797424316406 8.371689796447754 0.2090797424316406 7.628299713134766 0.5515384674072266 7.019479751586914 L 3.926548957824707 1.019479751586914 C 4.280778884887695 0.3897199630737305 4.947149276733398 0 5.669698715209961 0 Z" stroke="none" fill="#000"/></g></svg>