<svg xmlns="http://www.w3.org/2000/svg" width="24" height="24" viewBox="0 0 24 24"><rect width="24" height="24" fill="#fff" opacity="0"/><g transform="translate(2.988 2.25)"><path d="M0,0A3,3,0,0,1,3,3,3,3,0,0,1,0,6" transform="translate(6.012 19.75) rotate(-90)" fill="none" stroke="#000" stroke-linejoin="round" stroke-width="2"/><g transform="translate(6.012 9.75)" fill="none" stroke="#000" stroke-width="2"><rect width="6.001" height="6.001" rx="3" stroke="none"/><rect x="1" y="1" width="4.001" height="4.001" rx="2" fill="none"/></g><rect width="5" height="5" rx="1" transform="translate(-0.988 3.75)"/><path d="M2.636,1.481a1,1,0,0,1,1.728,0L6.123,4.5A1,1,0,0,1,5.259,6H1.741A1,1,0,0,1,.877,4.5Z" transform="translate(12.012 2.75)"/><path d="M2.393.464a1,1,0,0,1,1.214,0l1.839,1.4a1,1,0,0,1,.348,1.09L5.072,5.3a1,1,0,0,1-.955.7H1.884a1,1,0,0,1-.955-.7L.206,2.958a1,1,0,0,1,.348-1.09Z" transform="translate(6.012 -0.25)"/></g></svg>