<svg xmlns="http://www.w3.org/2000/svg" width="24" height="24" viewBox="0 0 24 24"><rect width="24" height="24" fill="#fff" opacity="0"/><g transform="translate(3.389 5.953)"><g transform="translate(18.611 -1.953) rotate(90)" fill="none"><path d="M6.264,3.039a2,2,0,0,1,3.473,0l4.554,7.969A2,2,0,0,1,12.554,14H3.446A2,2,0,0,1,1.71,11.008Z" stroke="none"/><path d="M 7.999999046325684 4.031130790710449 L 3.446358680725098 12.00000095367432 L 12.55363845825195 12.00000095367432 L 8.000009536743164 4.031130790710449 C 8.000005722045898 4.031130790710449 8.000001907348633 4.031130790710449 7.999999046325684 4.031130790710449 M 7.999999046325684 2.031128883361816 C 8.676296234130859 2.031128883361816 9.352594375610352 2.367035865783691 9.736488342285156 3.038850784301758 L 14.29012870788574 11.00772094726562 C 15.0520191192627 12.34103107452393 14.08928871154785 14.00000095367432 12.55363845825195 14.00000095367432 L 3.446358680725098 14.00000095367432 C 1.910709381103516 14.00000095367432 0.9479789733886719 12.34103107452393 1.709869384765625 11.00772094726562 L 6.263508796691895 3.038850784301758 C 6.647403717041016 2.367035865783691 7.323701858520508 2.031128883361816 7.999999046325684 2.031128883361816 Z" stroke="none" fill="#000"/></g><line y2="12" transform="translate(1.611 0.047)" fill="none" stroke="#000" stroke-linecap="round" stroke-width="2"/></g></svg>