<svg xmlns="http://www.w3.org/2000/svg" viewBox="0 0 24 24">
    <g transform="translate(1.999 3.54)">
        <g transform="translate(0.001 0.46)" fill="none">
            <path d="M3,0H17a3,3,0,0,1,3,3v8a3,3,0,0,1-3,3H3a3,3,0,0,1-3-3V3A3,3,0,0,1,3,0Z" stroke="none" />
            <path
                d="M 2.999822616577148 2.000349998474121 C 2.448423385620117 2.000349998474121 1.999822616577148 2.448949813842773 1.999822616577148 3.000349998474121 L 1.999822616577148 11.00037002563477 C 1.999822616577148 11.55177021026611 2.448423385620117 12.00037002563477 2.999822616577148 12.00037002563477 L 17.00010299682617 12.00037002563477 C 17.5515022277832 12.00037002563477 18.00010299682617 11.55177021026611 18.00010299682617 11.00037002563477 L 18.00010299682617 3.000349998474121 C 18.00010299682617 2.448949813842773 17.5515022277832 2.000349998474121 17.00010299682617 2.000349998474121 L 2.999822616577148 2.000349998474121 M 2.999822616577148 0.0003499984741210938 L 17.00010299682617 0.0003499984741210938 C 18.65695190429688 0.0003499984741210938 20.00010299682617 1.343500137329102 20.00010299682617 3.000349998474121 L 20.00010299682617 11.00037002563477 C 20.00010299682617 12.65721988677979 18.65695190429688 14.00037002563477 17.00010299682617 14.00037002563477 L 2.999822616577148 14.00037002563477 C 1.342962265014648 14.00037002563477 -0.0001773834228515625 12.65721988677979 -0.0001773834228515625 11.00037002563477 L -0.0001773834228515625 3.000349998474121 C -0.0001773834228515625 1.343500137329102 1.342962265014648 0.0003499984741210938 2.999822616577148 0.0003499984741210938 Z"
                stroke="none" fill="#000" />
        </g>
        <line x2="8" transform="translate(6.001 5.46)" fill="none" stroke="#000" stroke-linecap="round"
            stroke-linejoin="round" stroke-width="2" />
        <line x2="5" transform="translate(6.001 9.461)" fill="none" stroke="#000" stroke-linecap="round"
            stroke-linejoin="round" stroke-width="2" />
        <g transform="translate(2.132 13.054)" fill="none">
            <path d="M1.869.406h4l-4,4Z" stroke="none" />
            <path
                d="M 1.86865234375 0.40631103515625 L 5.86865234375 0.40631103515625 L 1.868662357330322 4.40631103515625 L 1.86865234375 0.40631103515625 Z"
                stroke="none" fill="#000" />
        </g>
    </g>
</svg>