<svg xmlns="http://www.w3.org/2000/svg" width="24" height="24" viewBox="0 0 24 24"><rect width="24" height="24" fill="#fff" opacity="0"/><g transform="translate(-1070 -1896.998)"><g transform="translate(-16481.998 -23051)" fill="none" stroke-linecap="round"><path d="M17570,24966h-12a4,4,0,0,1-1.977-7.479,5,5,0,0,1,4.977-4.52,4.783,4.783,0,0,1,.5.025A6,6,0,0,1,17572,24958c0,.176-.008.35-.021.521A4,4,0,0,1,17570,24966Z" stroke="none"/><path d="M 17569.998046875 24963.998046875 C 17571.099609375 24963.998046875 17571.99609375 24963.103515625 17571.99609375 24962.001953125 C 17571.99609375 24961.28125 17571.609375 24960.61328125 17570.984375 24960.2578125 L 17569.880859375 24959.62890625 L 17569.98046875 24958.361328125 C 17569.990234375 24958.232421875 17569.99609375 24958.11328125 17569.99609375 24957.998046875 C 17569.99609375 24955.794921875 17568.203125 24954.001953125 17566 24954.001953125 C 17564.853515625 24954.001953125 17563.759765625 24954.494140625 17563.001953125 24955.3515625 L 17562.318359375 24956.123046875 L 17561.29296875 24956.013671875 C 17561.203125 24956.00390625 17561.10546875 24956 17561 24956 C 17559.4453125 24956 17558.162109375 24957.1640625 17558.013671875 24958.708984375 L 17557.916015625 24959.7421875 L 17557.015625 24960.255859375 C 17556.390625 24960.61328125 17556.001953125 24961.28125 17556.001953125 24962.001953125 C 17556.001953125 24963.103515625 17556.8984375 24963.998046875 17558 24963.998046875 L 17569.998046875 24963.998046875 M 17569.998046875 24965.998046875 L 17558 24965.998046875 C 17555.79296875 24965.998046875 17554.001953125 24964.20703125 17554.001953125 24962.001953125 C 17554.001953125 24960.509765625 17554.81640625 24959.208984375 17556.0234375 24958.51953125 C 17556.265625 24955.982421875 17558.3984375 24954 17561 24954 C 17561.169921875 24954 17561.337890625 24954.0078125 17561.50390625 24954.025390625 C 17562.603515625 24952.783203125 17564.2109375 24952.001953125 17566 24952.001953125 C 17569.30859375 24952.001953125 17571.99609375 24954.68359375 17571.99609375 24957.998046875 C 17571.99609375 24958.173828125 17571.98828125 24958.34765625 17571.974609375 24958.51953125 C 17573.181640625 24959.20703125 17573.99609375 24960.5078125 17573.99609375 24962.001953125 C 17573.99609375 24964.20703125 17572.208984375 24965.998046875 17569.998046875 24965.998046875 Z" stroke="none" fill="#000"/></g><g transform="translate(1079.749 1904.748)"><line y2="3" transform="translate(2.25 3.25)" fill="none" stroke="#000" stroke-linecap="round" stroke-miterlimit="10" stroke-width="2"/><g transform="translate(0.25 0.25)" fill="none" stroke="#000" stroke-width="2"><circle cx="2" cy="2" r="2" stroke="none"/><circle cx="2" cy="2" r="1" fill="none"/></g></g></g></svg>