<svg xmlns="http://www.w3.org/2000/svg" width="24" height="24" viewBox="0 0 24 24"><rect width="24" height="24" fill="#fff" opacity="0"/><g transform="translate(2.751 3)"><rect width="4" height="10" rx="2" transform="translate(0.25 7.001)" fill="none" stroke="#000" stroke-linejoin="round" stroke-width="2"/><path d="M22.6,12.914h-.885l.069-.48H22.6a1.188,1.188,0,0,0,0-2.375H20.641L17.787,10s.617-4.309-2-5.754c-1.683-.834-2,.754-2,.754V8l-1,1s-2,1.856-2,3.019V19a1.868,1.868,0,0,0,2,2h8.185a1.188,1.188,0,0,0,0-2.375h-.08l.069-.481h.825a1.187,1.187,0,0,0,0-2.375H21.3l.069-.481H22.6a1.188,1.188,0,0,0,0-2.375Z" transform="translate(-6.534 -4)" fill="none" stroke="#000" stroke-linecap="round" stroke-linejoin="round" stroke-width="2"/></g></svg>