<svg xmlns="http://www.w3.org/2000/svg" viewBox="0 0 24 24">
    <g transform="translate(3.051 7.5)">
        <g transform="translate(-564.658 49.961)" fill="none" stroke-miterlimit="10">
            <path d="M567.607-40.461a6,6,0,0,1,6-6,6,6,0,0,1,6,6Z" stroke="none" />
            <path
                d="M 577.0711059570312 -42.46057510375977 C 576.37841796875 -43.65546798706055 575.085205078125 -44.46099472045898 573.6074829101562 -44.46099472045898 C 572.1296997070312 -44.46099472045898 570.83642578125 -43.65546798706055 570.1437377929688 -42.46057510375977 L 577.0711059570312 -42.46057510375977 M 579.6078491210938 -40.46057510375977 L 567.6069946289062 -40.46057510375977 C 567.6069946289062 -43.77515411376953 570.2929077148438 -46.46099472045898 573.6074829101562 -46.46099472045898 C 576.9220581054688 -46.46099472045898 579.6078491210938 -43.77515411376953 579.6078491210938 -40.46057510375977 Z"
                stroke="none" fill="#000" />
        </g>
        <line y1="1" transform="translate(8.949 -0.5)" fill="none" stroke="#000" stroke-linecap="round"
            stroke-miterlimit="10" stroke-width="2" />
        <line x2="18" transform="translate(-0.051 8.5)" fill="none" stroke="#000" stroke-linecap="round"
            stroke-miterlimit="10" stroke-width="2" />
        <line x2="1" y2="1" transform="translate(1.95 1.499)" fill="none" stroke="#000" stroke-linecap="round"
            stroke-miterlimit="10" stroke-width="2" />
        <line y1="1" x2="1" transform="translate(14.949 1.499)" fill="none" stroke="#000" stroke-linecap="round"
            stroke-miterlimit="10" stroke-width="2" />
    </g>
</svg>