<svg xmlns="http://www.w3.org/2000/svg" width="24" height="24" viewBox="0 0 24 24"><rect width="24" height="24" fill="#fff" opacity="0"/><g transform="translate(3 2.25)"><g transform="translate(-434.5 364.02)" fill="none" stroke-linecap="round" stroke-linejoin="round"><path d="M451.5-364.27h-12a.881.881,0,0,0-1,1v6a.88.88,0,0,0,1,1h2l.5,1.5c.266.7.573.528.8.3l1.7-1.8h7a.88.88,0,0,0,1-1v-6A.881.881,0,0,0,451.5-364.27Z" stroke="none"/><path d="M 440.5 -362.26953125 L 440.5 -358.26953125 L 441.5 -358.26953125 C 442.086181640625 -358.26953125 442.6274719238281 -358.01416015625 442.9992065429688 -357.5934448242188 L 443.0484313964844 -357.6453857421875 C 443.4261169433594 -358.0438537597656 443.9509887695312 -358.26953125 444.5 -358.26953125 L 450.5 -358.26953125 L 450.5 -362.26953125 L 440.5 -362.26953125 M 439.5 -364.26953125 L 451.5 -364.26953125 C 452.1731872558594 -364.26953125 452.5 -363.9382019042969 452.5 -363.26953125 L 452.5 -357.26953125 C 452.5 -356.6002197265625 452.1731872558594 -356.26953125 451.5 -356.26953125 L 444.5 -356.26953125 L 442.796875 -354.47265625 C 442.5685729980469 -354.2459411621094 442.2617492675781 -354.0694885253906 441.99609375 -354.7734375 L 441.5 -356.26953125 L 439.5 -356.26953125 C 438.8268127441406 -356.26953125 438.5 -356.6002197265625 438.5 -357.26953125 L 438.5 -363.26953125 C 438.5 -363.9382019042969 438.8268127441406 -364.26953125 439.5 -364.26953125 Z" stroke="none" fill="#000"/></g><path d="M-428.011,67.24a.123.123,0,0,0-.049-.053.175.175,0,0,0-.065-.022l-.421-.064a.2.2,0,0,1-.085-.04.211.211,0,0,1-.063-.072l-.188-.4a.183.183,0,0,0-.045-.062A.112.112,0,0,0-429,66.5a.112.112,0,0,0-.073.029.184.184,0,0,0-.045.062l-.188.4a.212.212,0,0,1-.063.072.2.2,0,0,1-.085.04l-.421.064a.162.162,0,0,0-.084.036.118.118,0,0,0-.03.039.117.117,0,0,0-.011.05.137.137,0,0,0,.015.061.2.2,0,0,0,.036.049l.3.31a.205.205,0,0,1,.041.07.26.26,0,0,1,.017.088.142.142,0,0,1,0,.024l-.072.438h0a.217.217,0,0,0,0,.037.143.143,0,0,0,.029.091.108.108,0,0,0,.04.031.112.112,0,0,0,.047.01.166.166,0,0,0,.079-.023l.376-.207a.2.2,0,0,1,.091-.02.2.2,0,0,1,.091.02l.377.207a.165.165,0,0,0,.079.023.112.112,0,0,0,.047-.01.112.112,0,0,0,.053-.052.154.154,0,0,0,.015-.07.222.222,0,0,0,0-.037l-.072-.438h0a.143.143,0,0,1,0-.023.262.262,0,0,1,.017-.088.2.2,0,0,1,.041-.07l.3-.31a.2.2,0,0,0,.036-.049.137.137,0,0,0,.015-.061A.119.119,0,0,0-428.011,67.24Z" transform="translate(438.001 -63.75)"/><path d="M-428.011,67.24a.123.123,0,0,0-.049-.053.175.175,0,0,0-.065-.022l-.421-.064a.2.2,0,0,1-.085-.04.211.211,0,0,1-.063-.072l-.188-.4a.183.183,0,0,0-.045-.062A.112.112,0,0,0-429,66.5a.112.112,0,0,0-.073.029.184.184,0,0,0-.045.062l-.188.4a.212.212,0,0,1-.063.072.2.2,0,0,1-.085.04l-.421.064a.162.162,0,0,0-.084.036.118.118,0,0,0-.03.039.117.117,0,0,0-.011.05.137.137,0,0,0,.015.061.2.2,0,0,0,.036.049l.3.31a.205.205,0,0,1,.041.07.26.26,0,0,1,.017.088.142.142,0,0,1,0,.024l-.072.438h0a.217.217,0,0,0,0,.037.143.143,0,0,0,.029.091.108.108,0,0,0,.04.031.112.112,0,0,0,.047.01.166.166,0,0,0,.079-.023l.376-.207a.2.2,0,0,1,.091-.02.2.2,0,0,1,.091.02l.377.207a.165.165,0,0,0,.079.023.112.112,0,0,0,.047-.01.112.112,0,0,0,.053-.052.154.154,0,0,0,.015-.07.222.222,0,0,0,0-.037l-.072-.438h0a.143.143,0,0,1,0-.023.262.262,0,0,1,.017-.088.2.2,0,0,1,.041-.07l.3-.31a.2.2,0,0,0,.036-.049.137.137,0,0,0,.015-.061A.119.119,0,0,0-428.011,67.24Z" transform="translate(442.001 -63.75)"/><path d="M0,0A3,3,0,0,1,3,3,3,3,0,0,1,0,6" transform="translate(1 19.75) rotate(-90)" fill="none" stroke="#000" stroke-linejoin="round" stroke-width="2"/><g transform="translate(1 9.75)" fill="none" stroke="#000" stroke-width="2"><rect width="6.001" height="6.001" rx="3" stroke="none"/><rect x="1" y="1" width="4.001" height="4.001" rx="2" fill="none"/></g></g></svg>