<svg xmlns="http://www.w3.org/2000/svg" viewBox="0 0 24 24">
    <g transform="translate(2.25 5.625)">
        <path
            d="M11.148,17.524H8.033l-.578,2.049H5.588l2.706-9h2.593l2.7,9H11.721Zm-.38-1.35-.551-1.961c-.209-.76-.4-1.459-.63-2.34-.221.882-.42,1.581-.624,2.34l-.55,1.961Z"
            transform="translate(-5.838 -8.198)" />
        <path
            d="M20.653,15.176v5.351H19.372l-.156-.642-1.013.426a3.829,3.829,0,0,1-1.47.326,2.015,2.015,0,0,1-2.079-2.28v-.129c0-1.345.851-2.121,2.757-2.121h1.552V14.985c0-.585-.209-.912-.863-.912h-.561c-.556,0-.857.179-.857.689v.562H14.966v-.462c0-1.423.956-2.225,2.594-2.225h.51C19.668,12.637,20.653,13.321,20.653,15.176Zm-1.691,2.188H17.369c-.667,0-.979.2-.979.685v.461c0,.487.248.729.672.729a2.017,2.017,0,0,0,.77-.167l1.124-.339Z"
            transform="translate(-5.902 -9.261)" />
        <path d="M25.077,9.238h2v16h-2Z" transform="translate(-7.326 -10.863)" />
    </g>
</svg>