<svg xmlns="http://www.w3.org/2000/svg" viewBox="0 0 24 24">
    <g transform="translate(2 5)">
        <path
            d="M11.646,18.391H7.363l-.8,2.959H4l3.721-13h3.566L15,21.35H12.434Zm-.523-1.95-.756-2.832c-.288-1.1-.553-2.108-.866-3.381-.3,1.273-.577,2.283-.858,3.381l-.756,2.832Z"
            transform="translate(-4 -8.35)" />
        <path
            d="M26.4,14.8v6.688H24.694l-.208-.8-1.351.532a5.372,5.372,0,0,1-1.961.408,2.592,2.592,0,0,1-2.771-2.85v-.161c0-1.68,1.135-2.651,3.674-2.651h2.068v-1.4c0-.731-.278-1.14-1.15-1.14h-.748c-.742,0-1.142.224-1.142.863v.7H18.821v-.576c0-1.78,1.274-2.782,3.458-2.782h.678C25.088,11.629,26.4,12.485,26.4,14.8Zm-2.254,2.736H22.024c-.887,0-1.3.246-1.3.855v.577a.811.811,0,0,0,.895.91,2.832,2.832,0,0,0,1.027-.209l1.5-.423Z"
            transform="translate(-6.401 -8.629)" />
    </g>
</svg>