<svg xmlns="http://www.w3.org/2000/svg" viewBox="0 0 24 24">
    <g transform="translate(4.5 3)">
        <g transform="translate(0.5 1.999)" fill="none" stroke="#000" stroke-miterlimit="10" stroke-width="2">
            <path d="M0,0H14a0,0,0,0,1,0,0V13a3,3,0,0,1-3,3H3a3,3,0,0,1-3-3V0A0,0,0,0,1,0,0Z" stroke="none" />
            <path d="M2,1H12a1,1,0,0,1,1,1V13a2,2,0,0,1-2,2H3a2,2,0,0,1-2-2V2A1,1,0,0,1,2,1Z" fill="none" />
        </g>
        <line x2="16" transform="translate(-0.5 3)" fill="none" stroke="#000" stroke-linecap="round"
            stroke-miterlimit="10" stroke-width="2" />
        <g transform="translate(10.498 3) rotate(-180)" fill="none" stroke="#000" stroke-miterlimit="10"
            stroke-width="2">
            <path d="M0,0H6A0,0,0,0,1,6,0V2A1,1,0,0,1,5,3H1A1,1,0,0,1,0,2V0A0,0,0,0,1,0,0Z" stroke="none" />
            <path d="M1,1H5A0,0,0,0,1,5,1V2A0,0,0,0,1,5,2H1A0,0,0,0,1,1,2V1A0,0,0,0,1,1,1Z" fill="none" />
        </g>
        <line y2="6" transform="translate(5.5 7)" fill="none" stroke="#000" stroke-linecap="round"
            stroke-miterlimit="10" stroke-width="2" />
        <line y2="6" transform="translate(9.5 7)" fill="none" stroke="#000" stroke-linecap="round"
            stroke-miterlimit="10" stroke-width="2" />
    </g>
</svg>