<svg xmlns="http://www.w3.org/2000/svg" viewBox="0 0 24 24">
    <g transform="translate(5.748 6.75)">
        <g transform="translate(-71.607 -9.898)" stroke-linecap="round" stroke-linejoin="round">
            <path
                d="M 86.85825347900391 17.81435394287109 L 83.11704254150391 15.14837074279785 L 86.85825347900391 12.48239898681641 L 86.85825347900391 17.81435394287109 Z"
                stroke="none" />
            <path
                d="M 85.85825347900391 14.42291736602783 L 84.8402099609375 15.1483678817749 L 85.85825347900391 15.87382030487061 L 85.85825347900391 14.42291736602783 M 87.21023559570312 11.14837455749512 C 87.54531860351562 11.14841842651367 87.85825347900391 11.41340065002441 87.85825347900391 11.79362487792969 L 87.85825347900391 18.50312423706055 C 87.85825347900391 19.02666473388672 87.26509857177734 19.33171081542969 86.83750152587891 19.02748489379883 L 82.12856292724609 15.67190456390381 C 81.76815032958984 15.41550445556641 81.76815032958984 14.88124465942383 82.12856292724609 14.62483501434326 L 86.83750152587891 11.26926422119141 C 86.95455169677734 11.18598365783691 87.08393096923828 11.14835929870605 87.21023559570312 11.14837455749512 Z"
                stroke="none" fill="#000" />
        </g>
        <g transform="translate(-69.748 -9.751)" fill="none" stroke-linecap="round" stroke-linejoin="round">
            <path
                d="M68.868,9H79.132A1.8,1.8,0,0,1,81,10.715v8.57A1.8,1.8,0,0,1,79.132,21H68.868A1.8,1.8,0,0,1,67,19.285v-8.57A1.8,1.8,0,0,1,68.868,9Z"
                stroke="none" />
            <path
                d="M 69 11 L 69 19 L 79.00000762939453 19 L 79.00000762939453 11 L 69 11 M 68.86773681640625 9 L 79.13226318359375 9 C 80.16396331787109 9 81.00000762939453 9.767999649047852 81.00000762939453 10.71513938903809 L 81.00000762939453 19.28485870361328 C 81.00000762939453 20.23200035095215 80.16396331787109 21 79.13226318359375 21 L 68.86773681640625 21 C 67.83603668212891 21 67 20.23200035095215 67 19.28485870361328 L 67 10.71513938903809 C 67 9.767999649047852 67.83603668212891 9 68.86773681640625 9 Z"
                stroke="none" fill="#000" />
        </g>
    </g>
</svg>