<svg xmlns="http://www.w3.org/2000/svg" width="24" height="24" viewBox="0 0 24 24"><rect width="24" height="24" fill="#fff" opacity="0"/><g transform="translate(6.001 2)"><line y2="3.5" transform="translate(6 15.5)" fill="none" stroke="#000" stroke-miterlimit="10" stroke-width="2"/><line x2="6" transform="translate(3 19)" fill="none" stroke="#000" stroke-linecap="round" stroke-miterlimit="10" stroke-width="2"/><path d="M5,6.743V3A1,1,0,0,1,7,3V4.743L8.976,2.767A2.992,2.992,0,0,0,3,3V8.743Z" stroke="rgba(0,0,0,0)" stroke-width="1"/><path d="M8.047,12.181c.046-.043.091-.088.134-.134Z" stroke="rgba(0,0,0,0)" stroke-width="1"/><path d="M.17,11.573,2,9.743V9A1,1,0,0,0,0,9v1.386a5.867,5.867,0,0,0,.17,1.188" stroke="rgba(0,0,0,0)" stroke-width="1"/><path d="M10,10.227v.083a3.835,3.835,0,0,1-3.755,3.672L4.4,15.827A5.521,5.521,0,0,0,5.765,16c.067,0,.133,0,.2,0A5.862,5.862,0,0,0,12,10.347V9a.978.978,0,0,0-.2-.571Z" stroke="rgba(0,0,0,0)" stroke-width="1"/></g><line y1="16" x2="16" transform="translate(4.001 4)" fill="none" stroke="#000" stroke-linecap="round" stroke-width="2"/></svg>