<svg xmlns="http://www.w3.org/2000/svg" width="24" height="24" viewBox="0 0 24 24"><rect width="24" height="24" fill="#fff" opacity="0"/><g transform="translate(3.389 6.736)"><path d="M-411.694,74.031a5.075,5.075,0,0,1,0,6" transform="translate(423.306 -71.768)" fill="none" stroke="#000" stroke-linecap="round" stroke-miterlimit="10" stroke-width="2"/><path d="M-409.3,72.031a8.593,8.593,0,0,1,0,8" transform="translate(424.913 -70.768)" fill="none" stroke="#000" stroke-linecap="round" stroke-miterlimit="10" stroke-width="2"/><g transform="translate(486.731 -70.725)" fill="none" stroke-linejoin="round"><path d="M-488.119,77.842a1.886,1.886,0,0,0,1.5,1.384h3.5a1.227,1.227,0,0,1,.708.219l3.292,2.32c.724.513,2,.086,2-.719V70.936c0-.8-1.276-1.239-2-.726l-3,2.332a2.338,2.338,0,0,1-1,.214h-3.5a1.882,1.882,0,0,0-1.5,1.385Z" stroke="none"/><path d="M -479.119140625 79.31855010986328 L -479.119140625 72.74303436279297 L -480.8917846679688 74.12082672119141 C -480.9144592285156 74.13845825195312 -480.9375 74.15559387207031 -480.9609375 74.17223358154297 C -481.7431335449219 74.72785949707031 -482.8959655761719 74.75599670410156 -483.119140625 74.75599670410156 L -486.119140625 74.75599670410156 L -486.119140625 77.22634887695312 L -483.119140625 77.22634887695312 C -482.4518432617188 77.22634887695312 -481.7910461425781 77.43400573730469 -481.2577819824219 77.81114959716797 L -479.119140625 79.31855010986328 M -478.3686218261719 81.98844146728516 C -478.6355590820312 81.98843383789062 -478.9021606445312 81.91913604736328 -479.119140625 81.76542663574219 L -482.410888671875 79.44526672363281 C -482.6100463867188 79.30378723144531 -482.8600463867188 79.22634887695312 -483.119140625 79.22634887695312 L -486.615234375 79.22634887695312 C -487.2285766601562 79.22634887695312 -488.119140625 78.36721801757812 -488.119140625 77.84243774414062 L -488.119140625 74.14134979248047 C -488.119140625 73.6165771484375 -487.2322387695312 72.75599670410156 -486.618896484375 72.75599670410156 L -483.119140625 72.75599670410156 C -482.8600463867188 72.75599670410156 -482.3182983398438 72.68319702148438 -482.119140625 72.54172515869141 L -479.119140625 70.20995330810547 C -478.3951416015625 69.69705200195312 -477.119140625 70.13112640380859 -477.119140625 70.93568420410156 L -477.119140625 81.04670715332031 C -477.119140625 81.61016082763672 -477.744873046875 81.98847198486328 -478.3686218261719 81.98844146728516 Z" stroke="none" fill="#000"/></g></g></svg>