<svg xmlns="http://www.w3.org/2000/svg" width="24" height="24" viewBox="0 0 24 24"><rect width="24" height="24" fill="#fff" opacity="0"/><g transform="translate(5.908 6.736)"><path d="M-472.8,76.031a2.552,2.552,0,0,1,0,4" transform="translate(485.894 -72.768)" fill="none" stroke="#000" stroke-linecap="round" stroke-miterlimit="10" stroke-width="2"/><g transform="translate(485.211 -72.719)" fill="none" stroke-linejoin="round"><path d="M-488.119,80.5a1.671,1.671,0,0,0,1.479,1.48h4.76a1.387,1.387,0,0,1,.837.276l3.776,2.446a1.326,1.326,0,0,0,2.148-.925v-11.6a1.326,1.326,0,0,0-2.148-.925l-3.776,2.446a1.387,1.387,0,0,1-.837.276h-4.76a1.688,1.688,0,0,0-1.479,1.5Z" stroke="none"/><path d="M -477.1190185546875 82.41788482666016 L -477.1190185546875 73.54720306396484 L -479.9079895019531 75.35395812988281 C -480.4757080078125 75.75991058349609 -481.1723022460938 75.9825439453125 -481.8800354003906 75.9825439453125 L -486.119140625 75.9825439453125 L -486.119140625 79.9825439453125 L -481.8800354003906 79.9825439453125 C -481.1723022460938 79.9825439453125 -480.4757080078125 80.20517730712891 -479.9079895019531 80.61112976074219 L -477.1190185546875 82.41788482666016 M -476.4376831054688 84.98252105712891 C -476.7225646972656 84.98249053955078 -477.0141906738281 84.89634704589844 -477.2673645019531 84.70478057861328 L -481.04296875 82.25886535644531 C -481.2783813476562 82.08030700683594 -481.5738220214844 81.9825439453125 -481.8800354003906 81.9825439453125 L -486.6400146484375 81.9825439453125 C -487.3648681640625 81.9825439453125 -488.119140625 81.16507720947266 -488.119140625 80.50271606445312 L -488.119140625 75.4794921875 C -488.119140625 74.81713104248047 -487.3648681640625 73.9825439453125 -486.6400146484375 73.9825439453125 L -481.8800354003906 73.9825439453125 C -481.5738220214844 73.9825439453125 -481.2783813476562 73.88478088378906 -481.04296875 73.70622253417969 L -477.2673645019531 71.26030731201172 C -476.4117126464844 70.61286926269531 -475.1190185546875 71.16954803466797 -475.1190185546875 72.18499755859375 L -475.1190185546875 83.78010559082031 C -475.1190185546875 84.49509429931641 -475.7597351074219 84.98260498046875 -476.4376831054688 84.98252105712891 Z" stroke="none" fill="#000"/></g></g></svg>