<svg xmlns="http://www.w3.org/2000/svg" width="24" height="24" viewBox="0 0 24 24"><rect width="24" height="24" fill="#fff" opacity="0"/><g transform="translate(2.25 3.344)"><g transform="translate(-313.25 -4.802)" fill="none" stroke-linecap="round" stroke-linejoin="round"><path d="M321.577,5.291a1.632,1.632,0,0,1,2.846,0l4.177,7.334,4.178,7.334a1.666,1.666,0,0,1-1.423,2.5H314.645a1.666,1.666,0,0,1-1.423-2.5l4.178-7.334Z" stroke="none"/><path d="M 322.999755859375 6.83342170715332 L 315.2396545410156 20.4580078125 L 330.7598876953125 20.4580078125 L 322.999755859375 6.83342170715332 M 322.999755859375 4.458002090454102 C 323.55322265625 4.458002090454102 324.106689453125 4.735597610473633 324.4228210449219 5.290786743164062 L 332.7772827148438 19.95887756347656 C 333.4095764160156 21.07002639770508 332.6188354492188 22.4580078125 331.3542175292969 22.4580078125 L 314.6452941894531 22.4580078125 C 313.3806762695312 22.4580078125 312.5899353027344 21.07002639770508 313.2222595214844 19.95887756347656 L 321.5766906738281 5.290786743164062 C 321.8928527832031 4.735597610473633 322.4463195800781 4.458002090454102 322.999755859375 4.458002090454102 Z" stroke="none" fill="#000"/></g><line y2="4" transform="translate(9.75 5.656)" fill="none" stroke="#000" stroke-linecap="round" stroke-linejoin="round" stroke-width="2"/><line transform="translate(9.75 13.656)" fill="none" stroke="#000" stroke-linecap="round" stroke-linejoin="round" stroke-width="2"/></g></svg>