<svg xmlns="http://www.w3.org/2000/svg" width="24" height="24" viewBox="0 0 24 24"><rect width="24" height="24" fill="#fff" opacity="0"/><g transform="translate(2.998 3.136)"><g transform="translate(-9.998 -4.815)" fill="none" stroke-miterlimit="10"><path d="M22,16.179a1.5,1.5,0,1,1,.44,1.06A1.5,1.5,0,0,1,22,16.179Z" stroke="none"/><path d="M 23.5 14.67900085449219 C 23.91474914550781 14.67900085449219 24.28824996948242 14.84625053405762 24.56049919128418 15.11775016784668 C 24.83275032043457 15.39000129699707 25 15.76425170898438 25 16.17900085449219 C 25 16.59375 24.83275032043457 16.96725082397461 24.56049919128418 17.239501953125 C 24.28824996948242 17.51100158691406 23.91474914550781 17.67900085449219 23.5 17.67900085449219 C 23.08525085449219 17.67900085449219 22.71175003051758 17.51100158691406 22.43950080871582 17.239501953125 C 22.16799926757812 16.96725082397461 22 16.59375 22 16.17900085449219 C 22 15.76425170898438 22.16799926757812 15.39000129699707 22.43950080871582 15.11775016784668 C 22.71175003051758 14.84625053405762 23.08525085449219 14.67900085449219 23.5 14.67900085449219 Z" stroke="none" fill="#000"/></g><g transform="translate(-16.998 0.185)" fill="none" stroke-miterlimit="10"><path d="M22,16.179a1.5,1.5,0,1,1,.44,1.06A1.5,1.5,0,0,1,22,16.179Z" stroke="none"/><path d="M 23.5 14.67900085449219 C 23.91474914550781 14.67900085449219 24.28824996948242 14.84625053405762 24.56049919128418 15.11775016784668 C 24.83275032043457 15.39000129699707 25 15.76425170898438 25 16.17900085449219 C 25 16.59375 24.83275032043457 16.96725082397461 24.56049919128418 17.239501953125 C 24.28824996948242 17.51100158691406 23.91474914550781 17.67900085449219 23.5 17.67900085449219 C 23.08525085449219 17.67900085449219 22.71175003051758 17.51100158691406 22.43950080871582 17.239501953125 C 22.16799926757812 16.96725082397461 22 16.59375 22 16.17900085449219 C 22 15.76425170898438 22.16799926757812 15.39000129699707 22.43950080871582 15.11775016784668 C 22.71175003051758 14.84625053405762 23.08525085449219 14.67900085449219 23.5 14.67900085449219 Z" stroke="none" fill="#000"/></g><g transform="translate(-11.998 0.185)" fill="none" stroke-miterlimit="10"><path d="M22,16.179a1.5,1.5,0,1,1,.44,1.06A1.5,1.5,0,0,1,22,16.179Z" stroke="none"/><path d="M 23.5 14.67900085449219 C 23.91474914550781 14.67900085449219 24.28824996948242 14.84625053405762 24.56049919128418 15.11775016784668 C 24.83275032043457 15.39000129699707 25 15.76425170898438 25 16.17900085449219 C 25 16.59375 24.83275032043457 16.96725082397461 24.56049919128418 17.239501953125 C 24.28824996948242 17.51100158691406 23.91474914550781 17.67900085449219 23.5 17.67900085449219 C 23.08525085449219 17.67900085449219 22.71175003051758 17.51100158691406 22.43950080871582 17.239501953125 C 22.16799926757812 16.96725082397461 22 16.59375 22 16.17900085449219 C 22 15.76425170898438 22.16799926757812 15.39000129699707 22.43950080871582 15.11775016784668 C 22.71175003051758 14.84625053405762 23.08525085449219 14.67900085449219 23.5 14.67900085449219 Z" stroke="none" fill="#000"/></g><g transform="translate(-14.498 -4.815)" fill="none" stroke-miterlimit="10"><path d="M22,16.179a1.5,1.5,0,1,1,.44,1.06A1.5,1.5,0,0,1,22,16.179Z" stroke="none"/><path d="M 23.5 14.67900276184082 C 23.91474914550781 14.67900276184082 24.28824996948242 14.84625244140625 24.56049919128418 15.11775207519531 C 24.83275032043457 15.3900032043457 25 15.76425361633301 25 16.17900276184082 C 25 16.59375381469727 24.83275032043457 16.96725273132324 24.56049919128418 17.239501953125 C 24.28824996948242 17.51100158691406 23.91474914550781 17.67900276184082 23.5 17.67900276184082 C 23.08525085449219 17.67900276184082 22.71175003051758 17.51100158691406 22.43950080871582 17.239501953125 C 22.16799926757812 16.96725273132324 22 16.59375381469727 22 16.17900276184082 C 22 15.76425361633301 22.16799926757812 15.3900032043457 22.43950080871582 15.11775207519531 C 22.71175003051758 14.84625244140625 23.08525085449219 14.67900276184082 23.5 14.67900276184082 Z" stroke="none" fill="#000"/></g><g transform="translate(-18.998 -4.815)" fill="none" stroke-miterlimit="10"><path d="M22,16.179a1.5,1.5,0,1,1,.44,1.06A1.5,1.5,0,0,1,22,16.179Z" stroke="none"/><path d="M 23.5 14.67900085449219 C 23.91474914550781 14.67900085449219 24.28824996948242 14.84625053405762 24.56049919128418 15.11775016784668 C 24.83275032043457 15.39000129699707 25 15.76425170898438 25 16.17900085449219 C 25 16.59375 24.83275032043457 16.96725082397461 24.56049919128418 17.239501953125 C 24.28824996948242 17.51100158691406 23.91474914550781 17.67900085449219 23.5 17.67900085449219 C 23.08525085449219 17.67900085449219 22.71175003051758 17.51100158691406 22.43950080871582 17.239501953125 C 22.16799926757812 16.96725082397461 22 16.59375 22 16.17900085449219 C 22 15.76425170898438 22.16799926757812 15.39000129699707 22.43950080871582 15.11775016784668 C 22.71175003051758 14.84625053405762 23.08525085449219 14.67900085449219 23.5 14.67900085449219 Z" stroke="none" fill="#000"/></g><path d="M66,14.487v-8a1.845,1.845,0,0,1,2-2H82a1.845,1.845,0,0,1,2,2v8" transform="translate(-65.997 -4.623)" fill="none" stroke="#000" stroke-linecap="round" stroke-miterlimit="10" stroke-width="2"/></g></svg>