<svg xmlns="http://www.w3.org/2000/svg" width="24" height="24" viewBox="0 0 24 24"><rect width="24" height="24" fill="#fff" opacity="0"/><g transform="translate(4.705 2.625)"><g transform="translate(9.436 6.75)"><path d="M21.175,19.486c3.067-1.347,1.838-6.986,1.838-6.986H17.5s-1.23,5.639,1.838,6.986a1.7,1.7,0,0,0,.4.014H20.8A1.46,1.46,0,0,0,21.175,19.486Z" transform="translate(-17.397 -12.875)" fill="none" stroke="#000" stroke-linecap="round" stroke-linejoin="round" stroke-width="2" fill-rule="evenodd"/><line y2="4" transform="translate(2.858 7.625)" fill="none" stroke="#000" stroke-linecap="round" stroke-linejoin="round" stroke-width="2"/><line x1="4" transform="translate(0.859 11.625)" fill="none" stroke="#000" stroke-linecap="round" stroke-linejoin="round" stroke-width="2"/></g><g transform="translate(1)"><path d="M7.226,21.5a1.219,1.219,0,0,1-.652-.3,1,1,0,0,1-.3-.7v-9c.015-.318,0-1,0-1l1.5-3v-4h3v4l1.5,3c.01.009-.015.682,0,1v9a1,1,0,0,1-.3.7.851.851,0,0,1-.7.3Z" transform="translate(-7.979 -3.125)" fill="none" stroke="#000" stroke-linejoin="round" stroke-width="2" fill-rule="evenodd"/><rect width="3" height="6" transform="translate(-1.705 9.376)" fill="none" stroke="#000" stroke-linejoin="round" stroke-width="2"/></g></g></svg>