<svg version="1.2" xmlns="http://www.w3.org/2000/svg" viewBox="0 0 150 41" width="150" height="41">
    <style>
        .a {
            fill: #45cb85
        }

        .b {
            fill: #fff
        }

        .c {
            fill: #fff
        }

        .d {
            opacity: .7;
            fill: #fff
        }
    </style>
    <path class="a"
        d="m20.3 41c-11.2 0-20.3-9.2-20.3-20.5 0-11.3 9.1-20.5 20.3-20.5 11.3 0 20.4 9.2 20.4 20.5 0 11.3-9.1 20.5-20.4 20.5z" />
    <path fill-rule="evenodd" class="b"
        d="m32.5 20.4q0.7 0 1.1 0.3 0.3 0.3 0.3 0.8 0 0.8-0.5 1.4-0.4 0.6-1.5 0.7-2.4 0-4.3-0.5-2.2 4.7-5.2 7.7-3.1 2.9-6.1 2.9-3.2 0-4.7-3.6-1.6-3.7-1.6-10 0-5.4 0.8-9.7 0.3-1.6 0.7-2.2 0.5-0.5 1.8-0.5 2 0 2 1.7 0 0.2 0 0.7-1 5.4-1 10 0 4.7 0.8 7.1 0.7 2.4 2.3 2.4 1.6 0 3.4-2.2 1.9-2.2 3.4-5.5-1.8-1.2-2.8-3-0.9-1.9-0.9-4.3 0-2.5 0.8-4.1 0.7-1.7 2-2.5 1.3-0.8 2.9-0.8 1.9 0 3 1.3 1.2 1.5 1.2 4 0 3.5-1.5 7.7 1.6 0.2 3.6 0.2zm-8.9-6.1q0 3 1.9 4.5 1.2-3.4 1.2-5.6 0-1.3-0.3-1.9-0.4-0.6-1-0.6-0.8 0-1.3 0.9-0.5 1-0.5 2.7z" />
    <path fill-rule="evenodd" class="c"
        d="m65.2 5h3.1l-4.9 14.6h-3.4l-4.9-14.6h3.1l2.7 8.8q0.1 0.1 0.3 0.7 0.1 0.6 0.2 1.3 0.2 0.7 0.3 1.1 0.1-0.4 0.2-1.1 0.1-0.6 0.3-1.3 0.2-0.6 0.3-0.7zm14.7 8.9q0 1.5-0.3 2.5-0.4 1.1-1.1 1.9-0.7 0.7-1.7 1.1-1 0.3-2.3 0.3-1.1 0-2.1-0.3-1-0.4-1.7-1.1-0.7-0.8-1.1-1.9-0.5-1-0.5-2.5 0-1.9 0.7-3.1 0.7-1.3 1.9-2 1.2-0.7 2.9-0.7 1.6 0 2.8 0.7 1.1 0.7 1.8 2 0.7 1.2 0.7 3.1zm-7.6 0q0 1.1 0.2 1.9 0.2 0.8 0.7 1.1 0.5 0.4 1.4 0.4 0.7 0 1.2-0.4 0.5-0.3 0.8-1.1 0.3-0.8 0.3-1.9 0-1.1-0.3-1.8-0.3-0.7-0.8-1.1-0.5-0.4-1.2-0.4-1.2 0-1.8 0.8-0.5 0.9-0.5 2.5zm13.2-9.9v15.6h-3.1v-15.6zm8.9 15.6h-3l-4.2-11.2h3.1l2.1 6.4q0.2 0.5 0.3 1.1 0.1 0.7 0.1 1.1h0.1q0.1-0.5 0.2-1.1 0.1-0.6 0.3-1.1l2.1-6.4h3.2zm10.4-11.5q1.5 0 2.6 0.6 1.1 0.6 1.7 1.8 0.7 1.1 0.7 2.7v1.5h-7.2q0.1 1.3 0.8 2 0.7 0.8 2 0.8 1 0 1.9-0.2 0.9-0.2 1.8-0.7v2.4q-0.8 0.4-1.7 0.6-0.9 0.1-2.2 0.1-1.7 0-2.9-0.6-1.3-0.6-2.1-1.8-0.6-1.3-0.6-3.3 0-1.9 0.6-3.2 0.6-1.3 1.8-2 1.2-0.7 2.8-0.7zm0 2.2q-0.8 0-1.4 0.6-0.6 0.6-0.7 1.8h4.2q0-0.6-0.2-1.2-0.3-0.6-0.7-0.8-0.5-0.4-1.2-0.4zm13.6-2.2q0.2 0 0.6 0.1 0.3 0 0.5 0.1l-0.3 2.8q-0.2-0.1-0.4-0.1-0.3 0-0.4 0-0.6 0-1.2 0.2-0.5 0.1-1 0.4-0.5 0.4-0.7 1-0.3 0.5-0.3 1.2v5.8h-2.9v-11.2h2.3l0.4 1.9h0.1q0.4-0.6 0.8-1.1 0.5-0.5 1.2-0.7 0.6-0.4 1.3-0.4z" />
    <path fill-rule="evenodd" class="d"
        d="m61.4 28.4h1v5.9q0 1.1-0.5 1.7-0.3 0.8-1.1 1.2-0.8 0.5-2 0.5-1.6 0-2.5-0.9-0.9-0.9-0.9-2.5v-5.9h1v5.9q0 1.2 0.7 1.8 0.6 0.7 1.8 0.7 0.8 0 1.4-0.3 0.5-0.3 0.8-0.9 0.3-0.5 0.3-1.3zm3.3 0h1.1v9.2h-1.1zm12.2 0h1.1l-3.3 9.1h-1.1l-3.2-9.1h1.1l2.1 6q0.1 0.4 0.2 0.7 0.2 0.4 0.3 0.6 0 0.4 0.1 0.6 0-0.2 0.1-0.6 0.1-0.2 0.2-0.6 0.1-0.3 0.2-0.7zm6.8 2.3h1v6.9h-0.8l-0.2-1q-0.2 0.4-0.6 0.6-0.3 0.2-0.7 0.4-0.5 0.1-0.9 0.1-0.8 0-1.3-0.3-0.6-0.2-0.9-0.8-0.2-0.6-0.2-1.4v-4.5h1v4.4q0 0.9 0.4 1.3 0.3 0.4 1.2 0.4 0.8 0 1.2-0.2 0.4-0.4 0.7-0.9 0.1-0.6 0.1-1.4zm5.9-0.1q0.8 0 1.4 0.4 0.7 0.3 1 1 0.3 0.8 0.3 1.7v0.6h-4.7q0 1.2 0.6 1.9 0.6 0.6 1.6 0.6 0.7 0 1.2-0.1 0.5-0.2 1-0.4v0.9q-0.5 0.3-1 0.4-0.5 0.1-1.2 0.1-1 0-1.8-0.4-0.6-0.4-1.1-1.2-0.4-0.8-0.4-1.9 0-1.2 0.4-1.9 0.4-0.9 1.1-1.3 0.6-0.4 1.6-0.4zm0 0.8q-0.9 0-1.4 0.6-0.5 0.5-0.6 1.5h3.7q0-0.6-0.3-1.1-0.2-0.5-0.5-0.7-0.4-0.3-0.9-0.3zm13 6.2h-5.1v-9.2h1.1v8.2h4zm1.4-6.8h1v6.8h-1zm0.6-2.5q0.2 0 0.4 0.1 0.2 0.2 0.2 0.6 0 0.3-0.2 0.5-0.2 0.1-0.4 0.1-0.4 0-0.5-0.1-0.2-0.2-0.2-0.5 0-0.4 0.2-0.6 0.1-0.1 0.5-0.1zm2.6-0.4h1c0 0.3 0 3 0 3.3q0 0.4 0 0.6 0.4-0.5 0.9-0.8 0.5-0.3 1.3-0.3 1.3 0 2.1 0.9 0.7 0.9 0.7 2.6 0 1.2-0.3 2-0.4 0.8-1 1.2-0.6 0.4-1.6 0.4-0.7 0-1.2-0.3-0.5-0.3-0.9-0.8h-0.1l-0.1 1h-0.8zm3.1 3.6q-0.8 0-1.2 0.3-0.5 0.2-0.6 0.8-0.3 0.6-0.3 1.6 0 1.3 0.4 1.9 0.5 0.7 1.7 0.7 0.9 0 1.4-0.7 0.4-0.6 0.4-1.9 0-1.4-0.4-2.1-0.5-0.6-1.4-0.6zm7.7-0.9q0.3 0 0.6 0.1 0.1 0 0.3 0l-0.1 1q-0.2-0.1-0.4-0.1-0.2-0.1-0.4-0.1-0.4 0-0.7 0.2-0.4 0.2-0.7 0.5-0.2 0.4-0.4 0.8-0.2 0.4-0.2 0.9v3.7h-1v-6.8h0.8l0.1 1.2h0.1q0.2-0.4 0.5-0.7 0.3-0.3 0.7-0.5 0.4-0.2 0.8-0.2zm4.7 0q1.3 0 1.9 0.6 0.6 0.5 0.6 1.7v4.7h-0.8l-0.3-1q-0.3 0.4-0.5 0.7-0.4 0.1-0.8 0.3-0.3 0.1-0.9 0.1-0.7 0-1.1-0.2-0.5-0.2-0.8-0.7-0.3-0.4-0.3-1.1 0-1 0.8-1.5 0.8-0.6 2.5-0.7h1.1v-0.4q0-0.9-0.4-1.3-0.3-0.3-1-0.3-0.6 0-1 0.1-0.5 0.2-0.9 0.4l-0.4-0.8q0.4-0.3 1.1-0.4 0.6-0.2 1.2-0.2zm1.4 4.3v-0.7l-1.1 0.1q-1.2 0.1-1.7 0.4-0.5 0.3-0.5 1 0 0.6 0.3 0.9 0.3 0.3 0.9 0.3 1 0 1.6-0.5 0.5-0.5 0.5-1.5zm6.2-4.3q0.3 0 0.5 0.1 0.2 0 0.4 0l-0.2 1q-0.2-0.1-0.3-0.1-0.3-0.1-0.4-0.1-0.4 0-0.8 0.2-0.4 0.2-0.6 0.5-0.3 0.4-0.4 0.8-0.2 0.4-0.2 0.9v3.7h-1v-6.8h0.8l0.1 1.2h0.1q0.2-0.4 0.5-0.7 0.3-0.3 0.7-0.5 0.3-0.2 0.8-0.2zm3.8 7l-2.7-6.8h1.1l1.5 3.9q0.1 0.3 0.2 0.7 0.1 0.3 0.2 0.6 0.1 0.3 0.2 0.6 0.1-0.4 0.2-0.9 0.2-0.5 0.4-1l1.4-3.9h1.1l-3 7.8q-0.1 0.6-0.5 1.1-0.3 0.5-0.7 0.7-0.5 0.3-1.1 0.3-0.3 0-0.5 0-0.3-0.1-0.4-0.1v-0.9q0.1 0 0.3 0.1 0.2 0 0.4 0 0.4 0 0.7-0.2 0.2 0 0.5-0.4 0.2-0.2 0.3-0.7z" />
</svg>