<svg version="1.2" xmlns="http://www.w3.org/2000/svg" viewBox="0 0 177 48" width="177" height="48"><style>.a{fill:#45cb85}.b{fill:#fff}.c{fill:#191919}.d{opacity:.7}</style><path class="a" d="m24 48c-13.3 0-24-10.7-24-24 0-13.3 10.7-24 24-24 13.3 0 24 10.7 24 24 0 13.3-10.7 24-24 24z"/><path fill-rule="evenodd" class="b" d="m38.4 23.9q0.8 0 1.2 0.3 0.4 0.4 0.4 1 0 0.9-0.6 1.6-0.5 0.7-1.7 0.8-2.9 0-5.1-0.5-2.6 5.4-6.2 8.9-3.6 3.5-7.2 3.5-3.7 0-5.5-4.3-1.9-4.3-1.9-11.7 0-6.3 0.9-11.3 0.4-1.9 0.9-2.6 0.6-0.6 2.1-0.6 2.3 0 2.3 2 0 0.2 0 0.8-1.1 6.4-1.1 11.7 0 5.5 0.9 8.3 0.9 2.9 2.7 2.9 1.9 0 4.1-2.6 2.2-2.6 4-6.5-2.2-1.4-3.3-3.5-1.1-2.2-1.1-5 0-2.9 0.9-4.8 0.9-2 2.4-2.9 1.5-1 3.4-1 2.3 0 3.6 1.6 1.4 1.7 1.4 4.6 0 4.1-1.8 9 1.9 0.3 4.3 0.3zm-10.6-7.1q0 3.5 2.3 5.2 1.4-4 1.4-6.6 0-1.5-0.4-2.2-0.4-0.7-1.1-0.7-1 0-1.6 1.1-0.6 1.1-0.6 3.2z"/><path class="c" d="m76.9 5.9h3.7l-5.8 17.1h-4l-5.8-17.1h3.7l3.2 10.2q0.1 0.2 0.3 0.9 0.1 0.7 0.3 1.5 0.2 0.8 0.3 1.3 0.1-0.5 0.3-1.3 0.1-0.7 0.3-1.5 0.2-0.7 0.3-0.9zm17.4 10.5q0 1.7-0.4 2.9-0.4 1.3-1.3 2.2-0.8 0.8-2 1.3-1.2 0.4-2.7 0.4-1.3 0-2.5-0.4-1.1-0.5-2-1.3-0.8-0.9-1.3-2.2-0.5-1.2-0.5-2.9 0-2.2 0.8-3.7 0.8-1.5 2.2-2.3 1.4-0.8 3.4-0.8 1.9 0 3.3 0.8 1.4 0.8 2.2 2.3 0.8 1.5 0.8 3.7zm-9 0q0 1.3 0.3 2.2 0.2 0.9 0.8 1.3 0.6 0.5 1.6 0.5 0.9 0 1.5-0.5 0.6-0.4 0.9-1.3 0.3-0.9 0.3-2.2 0-1.3-0.3-2.1-0.3-0.9-0.9-1.3-0.6-0.5-1.5-0.5-1.4 0-2.1 1-0.6 1-0.6 2.9zm15.6-11.6v18.2h-3.6v-18.2zm10.5 18.2h-3.6l-5-13.1h3.7l2.5 7.5q0.2 0.6 0.4 1.3 0.1 0.8 0.1 1.3h0.1q0.1-0.6 0.2-1.3 0.1-0.7 0.4-1.3l2.5-7.5h3.7zm12.3-13.4q1.8 0 3.1 0.7 1.3 0.7 2 2.1 0.8 1.3 0.8 3.2v1.7h-8.5q0.1 1.5 0.9 2.4 0.9 0.9 2.4 0.9 1.2 0 2.3-0.3 1-0.2 2.1-0.8v2.8q-1 0.5-2 0.7-1.1 0.2-2.6 0.2-2 0-3.5-0.7-1.5-0.7-2.4-2.2-0.8-1.5-0.8-3.8 0-2.3 0.8-3.8 0.7-1.5 2.1-2.3 1.4-0.8 3.3-0.8zm0 2.6q-1 0-1.7 0.7-0.7 0.6-0.8 2.1h5q0-0.8-0.3-1.5-0.3-0.6-0.8-0.9-0.6-0.4-1.4-0.4zm16.1-2.6q0.2 0 0.6 0.1 0.4 0 0.6 0.1l-0.3 3.3q-0.2-0.1-0.5-0.1-0.3 0-0.5 0-0.7 0-1.4 0.2-0.6 0.1-1.2 0.5-0.5 0.4-0.8 1.1-0.3 0.6-0.3 1.5v6.7h-3.5v-13.1h2.7l0.5 2.2h0.2q0.4-0.7 0.9-1.2 0.6-0.6 1.4-0.9 0.7-0.4 1.6-0.4z"/><path class="d" d="m72.4 33.3h1.2v6.9q0 1.2-0.5 2-0.4 0.9-1.3 1.4-1 0.5-2.4 0.5-1.9 0-3-1-1-1.1-1-2.9v-6.9h1.2v6.9q0 1.4 0.8 2.1 0.7 0.8 2.1 0.8 1 0 1.6-0.4 0.6-0.3 1-1 0.3-0.6 0.3-1.5zm5.3 10.7h-1.3v-10.7h1.3zm13-10.7h1.3l-3.9 10.7h-1.2l-3.8-10.7h1.3l2.5 7.1q0.1 0.4 0.2 0.8 0.2 0.4 0.3 0.7 0 0.4 0.1 0.7 0.1-0.3 0.2-0.7 0.1-0.3 0.2-0.7 0.1-0.4 0.3-0.8zm8 2.6h1.2v8.1h-1l-0.2-1.2q-0.3 0.5-0.7 0.7-0.4 0.3-0.9 0.5-0.5 0.1-1 0.1-1 0-1.6-0.3-0.7-0.3-1-0.9-0.3-0.7-0.3-1.7v-5.3h1.2v5.2q0 1 0.5 1.5 0.4 0.5 1.4 0.5 0.9 0 1.4-0.3 0.5-0.4 0.8-1 0.2-0.7 0.2-1.6zm6.9-0.2q1 0 1.7 0.5 0.8 0.4 1.2 1.2 0.3 0.9 0.3 2v0.7h-5.5q0 1.4 0.7 2.2 0.7 0.7 1.9 0.7 0.8 0 1.4-0.1 0.6-0.2 1.2-0.5v1.1q-0.6 0.3-1.2 0.4-0.6 0.1-1.4 0.1-1.2 0-2.1-0.4-0.8-0.5-1.3-1.4-0.5-0.9-0.5-2.3 0-1.3 0.5-2.2 0.4-1 1.2-1.5 0.8-0.5 1.9-0.5zm0 1q-1 0-1.6 0.7-0.6 0.6-0.7 1.7h4.3q0-0.7-0.3-1.2-0.2-0.6-0.6-0.9-0.5-0.3-1.1-0.3zm15.4 7.2h-6v-10.7h1.2v9.6h4.8zm1.6-8h1.2v8h-1.2zm0.7-3q0.3 0 0.5 0.2 0.2 0.2 0.2 0.6 0 0.4-0.2 0.6-0.2 0.2-0.5 0.2-0.4 0-0.6-0.2-0.2-0.2-0.2-0.6 0-0.4 0.2-0.6 0.2-0.2 0.6-0.2zm3.1-0.4h1.2v2.9q0 0.5 0 0.9 0 0.5 0 0.7 0.4-0.5 1-0.9 0.6-0.4 1.6-0.4 1.5 0 2.4 1.1 0.9 1 0.9 3.1 0 1.3-0.4 2.3-0.4 0.9-1.2 1.4-0.7 0.5-1.8 0.5-0.9 0-1.5-0.4-0.6-0.4-1-0.9h-0.1l-0.2 1.1h-0.9zm3.6 4.3q-0.9 0-1.4 0.3-0.5 0.3-0.7 1-0.3 0.7-0.3 1.8 0 1.5 0.5 2.3 0.5 0.8 1.9 0.8 1.1 0 1.7-0.8 0.5-0.8 0.5-2.3 0-1.6-0.5-2.4-0.6-0.7-1.7-0.7zm9.2-1.1q0.3 0 0.6 0.1 0.2 0 0.4 0l-0.1 1.2q-0.2-0.1-0.5-0.1-0.2-0.1-0.4-0.1-0.5 0-0.9 0.2-0.5 0.2-0.8 0.6-0.3 0.4-0.5 0.9-0.2 0.5-0.2 1.1v4.3h-1.2v-8h1l0.1 1.5h0.1q0.2-0.5 0.6-0.9 0.3-0.3 0.8-0.6 0.5-0.2 1-0.2zm5.5 0q1.5 0 2.2 0.7 0.7 0.6 0.7 2v5.5h-0.9l-0.3-1.2q-0.4 0.5-0.7 0.8-0.4 0.2-0.9 0.4-0.4 0.1-1.1 0.1-0.8 0-1.3-0.2-0.6-0.3-0.9-0.8-0.4-0.5-0.4-1.3 0-1.2 1-1.8 0.9-0.7 2.9-0.8h1.4v-0.5q0-1-0.5-1.5-0.4-0.4-1.2-0.4-0.7 0-1.2 0.2-0.6 0.2-1.1 0.4l-0.4-0.9q0.5-0.3 1.3-0.5 0.7-0.2 1.4-0.2zm1.7 5v-0.8l-1.3 0.1q-1.5 0.1-2.1 0.5-0.6 0.4-0.6 1.2 0 0.7 0.4 1 0.4 0.4 1.1 0.4 1.1 0 1.8-0.6 0.7-0.6 0.7-1.8zm7.3-5q0.3 0 0.5 0.1 0.3 0 0.5 0l-0.2 1.2q-0.2-0.1-0.4-0.1-0.3-0.1-0.5-0.1-0.4 0-0.9 0.2-0.4 0.2-0.7 0.6-0.3 0.4-0.5 0.9-0.2 0.5-0.2 1.1v4.3h-1.2v-8h1l0.1 1.5h0.1q0.2-0.5 0.6-0.9 0.3-0.3 0.8-0.6 0.4-0.2 1-0.2zm4.4 8.2l-3.2-8h1.3l1.8 4.6q0.2 0.4 0.3 0.8 0.1 0.4 0.2 0.7 0.1 0.4 0.2 0.7 0.1-0.4 0.3-1 0.2-0.6 0.4-1.2l1.7-4.6h1.3l-3.5 9.2q-0.2 0.7-0.6 1.3-0.4 0.5-0.9 0.8-0.5 0.3-1.3 0.3-0.3 0-0.6 0-0.3-0.1-0.4-0.1v-1q0.1 0 0.3 0.1 0.3 0 0.5 0 0.5 0 0.8-0.2 0.3-0.1 0.6-0.5 0.2-0.3 0.4-0.8z"/></svg>