<svg version="1.2" xmlns="http://www.w3.org/2000/svg" viewBox="0 0 400 400" width="192" height="192">
    <style>
        tspan {
            white-space: pre
        }

        .a {
            fill: #45cb85
        }

        .b {
            fill: #fff
        }

        .c {
            fill: #1d282c
        }
    </style>
    <path class="a"
        d="m200 400c-110.6 0-200-89.4-200-200 0-110.6 89.4-200 200-200 110.6 0 200 89.4 200 200 0 110.6-89.4 200-200 200z" />
    <path fill-rule="evenodd" class="b"
        d="m320 198.9q6.8 0 9.8 3 3.3 3 3.3 7.8 0 7.8-4.8 13.7-4.4 6-14.3 6.3-23.9 0.6-42.4-3.6-21.2 44.5-51.4 74.1-29.9 29.3-60.1 29.3-31 0-46.3-36.2-15.2-36.1-15.2-97.6 0-52.6 7.5-94.4 2.7-15.6 7.4-21 5.1-5.6 17.1-5.6 19.7 0 19.7 17 0 1.8-0.6 6.6-9 53.7-9 97.4 0 45.7 7.5 69.6 7.8 23.6 23 23.6 15.5 0 33.8-21.5 18.2-21.6 33.4-54.1-18.2-11.4-27.5-29.3-9.2-18.2-9.2-41.8 0-23.6 7.1-39.8 7.5-16.4 20.1-24.4 12.8-8.1 28.3-8.1 19.2 0 30.2 13.7 11.4 13.8 11.4 37.7 0 34.3-15 75 15.9 2.6 36.2 2.6zm-88.2-58.8q0 29.3 18.9 43.3 11.6-33.5 11.6-55.3 0-12.5-3.3-18.2-3.3-6-8.9-6-8.1 0-13.2 9.6-5.1 9.3-5.1 26.6z" />
    <path class="c"
        d="m236 336c0-6.1 4.9-11 11-11h129c6.1 0 11 4.9 11 11v44.4c0 6.1-4.9 11-11 11h-129c-6.1 0-11-4.9-11-11z" />
    <path class="b"
        d="m263.5 343.4h6v18.5q0 3-1.3 5.4-1.3 2.3-3.9 3.7-2.6 1.4-6.6 1.4-5.7 0-8.7-2.9-2.9-2.9-2.9-7.7v-18.4h6v17.5q0 3.6 1.5 5 1.4 1.4 4.2 1.4 2 0 3.3-0.7 1.2-0.7 1.8-2.1 0.6-1.4 0.6-3.6zm19.1 28.6h-6.1v-28.6h6.1zm15.3-8.3h-10.5v-4.9h10.5zm21-20.3h6.2l-9.7 28.6h-6.7l-9.6-28.6h6.1l5.3 17q0.2 0.5 0.5 1.6 0.3 1.2 0.6 2.5 0.4 1.4 0.5 2.2 0.1-0.8 0.4-2.2 0.3-1.3 0.6-2.4 0.3-1.2 0.4-1.7zm27 0h6v18.5q0 3-1.3 5.3-1.3 2.4-3.9 3.8-2.6 1.4-6.6 1.4-5.7 0-8.7-2.9-2.9-2.9-2.9-7.7v-18.4h6v17.5q0 3.6 1.4 5 1.5 1.4 4.3 1.4 2 0 3.2-0.7 1.3-0.7 1.9-2.1 0.6-1.4 0.6-3.6zm29.5 23.5v5.1h-16.5v-28.6h16.5v4.9h-10.4v6.3h9.6v5h-9.6v7.3z" />
</svg>