<svg version="1.2" xmlns="http://www.w3.org/2000/svg" viewBox="0 0 400 400" width="192" height="192">
    <style>
        .a {
            fill: #45cb85
        }

        .b {
            fill: #fff
        }

        .c {
            fill: #cc5545
        }
    </style>
    <path class="a"
        d="m200 400c-110.6 0-200-89.4-200-200 0-110.6 89.4-200 200-200 110.6 0 200 89.4 200 200 0 110.6-89.4 200-200 200z" />
    <path fill-rule="evenodd" class="b"
        d="m320 198.9q6.8 0 9.8 3 3.3 3 3.3 7.8 0 7.8-4.8 13.7-4.4 6-14.3 6.3-23.9 0.6-42.4-3.6-21.2 44.5-51.4 74.1-29.9 29.3-60.1 29.3-31 0-46.3-36.2-15.2-36.1-15.2-97.6 0-52.6 7.5-94.4 2.7-15.6 7.4-21 5.1-5.6 17.1-5.6 19.7 0 19.7 17 0 1.8-0.6 6.6-9 53.7-9 97.4 0 45.7 7.5 69.6 7.8 23.6 23 23.6 15.5 0 33.8-21.5 18.2-21.6 33.4-54.1-18.2-11.4-27.5-29.3-9.2-18.2-9.2-41.8 0-23.6 7.1-39.8 7.5-16.4 20.1-24.4 12.8-8.1 28.3-8.1 19.2 0 30.2 13.7 11.4 13.8 11.4 37.7 0 34.3-15 75 15.9 2.6 36.2 2.6zm-88.2-58.8q0 29.3 18.9 43.3 11.6-33.5 11.6-55.3 0-12.5-3.3-18.2-3.3-6-8.9-6-8.1 0-13.2 9.6-5.1 9.3-5.1 26.6z" />
    <path class="c"
        d="m236 336c0-6.1 4.9-11 11-11h129c6.1 0 11 4.9 11 11v44.4c0 6.1-4.9 11-11 11h-129c-6.1 0-11-4.9-11-11z" />
    <path fill-rule="evenodd" class="b"
        d="m258.2 374.5v-31.6h9.8q6.3 0 9.6 1.7 3.2 1.8 3.2 6.3 0 1.8-0.6 3.2-0.5 1.5-1.6 2.4-1.1 0.9-2.6 1.2v0.2q1.5 0.3 2.8 1.1 1.3 0.8 2 2.3 0.8 1.5 0.8 4 0 2.9-1.4 4.9-1.4 2.1-4 3.2-2.6 1.1-6.2 1.1zm6.7-26.1v7h3.9q2.9 0 4.1-0.9 1.1-1 1.1-2.7 0-1.9-1.4-2.6-1.3-0.8-4.2-0.8zm4.2 12.3h-4.2v8.2h4.4q3 0 4.2-1.1 1.2-1.2 1.2-3.2 0-1.1-0.5-2-0.5-0.9-1.8-1.4-1.2-0.5-3.3-0.5zm37.1 8.2v5.6h-18.2v-31.6h18.2v5.5h-11.5v6.9h10.7v5.5h-10.7v8.1zm18.8-20.5v26.1h-6.7v-26.1h-8.6v-5.5h23.8v5.5zm40 26.1h-7.2l-2.3-7.6h-11.5l-2.3 7.6h-7.2l11.2-31.8h8.1zm-19.3-13.1h8.2l-2.3-7.3q-0.2-0.8-0.5-1.9-0.4-1.2-0.7-2.4-0.4-1.2-0.6-2.1-0.2 0.9-0.6 2.2-0.4 1.3-0.7 2.5-0.4 1.2-0.5 1.7z" />
</svg>