<svg xmlns="http://www.w3.org/2000/svg" viewBox="0 0 16 16">
    <rect transform="translate(0)" fill="#fff" opacity="0" />
    <g transform="translate(1.333 1.334)">
        <g transform="translate(-68.958 365.042)" fill="none" stroke-miterlimit="10">
            <path
                d="M76.121-365.377a.579.579,0,0,0-.346.15.58.58,0,0,0-.15.348v6.5h-6.5a.59.59,0,0,0-.35.15.585.585,0,0,0-.15.35,7.629,7.629,0,0,0,7.66,7.5,7.215,7.215,0,0,0,7.34-7.335A7.635,7.635,0,0,0,76.121-365.377Z"
                stroke="none" />
            <path
                d="M 76.625 -364.3569030761719 L 76.625 -357.376953125 L 69.64471435546875 -357.376953125 C 69.76639556884766 -355.8387451171875 70.44825744628906 -354.4019775390625 71.59546661376953 -353.2872924804688 C 72.86415863037109 -352.0546264648438 74.52944946289062 -351.375732421875 76.28457641601562 -351.375732421875 C 78.02548980712891 -351.375732421875 79.63063049316406 -352.0216369628906 80.8043212890625 -353.1944885253906 C 81.97795104980469 -354.3672790527344 82.62429809570312 -355.9712829589844 82.62429809570312 -357.7110290527344 C 82.62429809570312 -359.4670715332031 81.94513702392578 -361.1336975097656 80.71192932128906 -362.4039306640625 C 79.59770965576172 -363.5516052246094 78.161865234375 -364.2341918945312 76.625 -364.3569030761719 M 76.12108612060547 -365.376953125 C 80.27236175537109 -365.376953125 83.62429809570312 -361.8617553710938 83.62429809570312 -357.7110290527344 C 83.62429809570312 -353.56103515625 80.43586730957031 -350.375732421875 76.28457641601562 -350.375732421875 C 72.13475799560547 -350.375732421875 68.625 -353.7269592285156 68.625 -357.876953125 C 68.625 -357.9871520996094 68.69651031494141 -358.1490783691406 68.77500152587891 -358.2269592285156 C 68.85276031494141 -358.3046875 69.01483154296875 -358.376953125 69.125 -358.376953125 L 75.625 -358.376953125 L 75.625 -364.87890625 C 75.625 -364.9897766113281 75.69651031494141 -365.1483459472656 75.77500152587891 -365.2269592285156 C 75.85277557373047 -365.3046264648438 76.01092529296875 -365.376953125 76.12108612060547 -365.376953125 Z"
                stroke="none" fill="#000" />
        </g>
        <g transform="translate(-67.833 366.166)" fill="none" stroke-miterlimit="10">
            <path
                d="M73.382-360.618a.405.405,0,0,0,.118-.285V-367.1a.407.407,0,0,0-.118-.285.405.405,0,0,0-.284-.118,6.6,6.6,0,0,0-6.6,6.6.406.406,0,0,0,.118.285.405.405,0,0,0,.284.118h6.2A.405.405,0,0,0,73.382-360.618Z"
                stroke="none" />
            <path
                d="M 72.49999237060547 -361.5 L 72.49999237060547 -366.4682922363281 C 69.89032745361328 -366.1898803710938 67.81065368652344 -364.1100158691406 67.53180694580078 -361.5 L 72.49999237060547 -361.5 M 73.09787750244141 -360.5 L 66.90280914306641 -360.5 C 66.79691314697266 -360.5 66.69310760498047 -360.5429077148438 66.61834716796875 -360.6176147460938 C 66.54360961914062 -360.6923828125 66.5 -360.7962036132812 66.5 -360.9021606445312 C 66.50068664550781 -364.5457763671875 69.45393371582031 -367.5 73.09787750244141 -367.5 C 73.20377349853516 -367.5 73.30758666992188 -367.4570922851562 73.38233184814453 -367.38232421875 C 73.45707702636719 -367.306884765625 73.49999237060547 -367.2037353515625 73.49999237060547 -367.0971069335938 L 73.49999237060547 -360.9021606445312 C 73.49999237060547 -360.7962036132812 73.45707702636719 -360.6923828125 73.38233184814453 -360.6176147460938 C 73.30758666992188 -360.5429077148438 73.20377349853516 -360.5 73.09787750244141 -360.5 Z"
                stroke="none" fill="#000" />
        </g>
    </g>
</svg>