<svg xmlns="http://www.w3.org/2000/svg" width="16" height="16.14" viewBox="0 0 16 16.14">
    <g transform="translate(0 0.14)">
        <g transform="translate(0.667 0.466)">
            <g transform="translate(-4.465 -5.565)" fill="none" stroke-miterlimit="10">
                <path
                    d="M11.809,20.416a3.9,3.9,0,0,1,.8.1,4.318,4.318,0,0,1,.8.314l.019.009c.1.047.2.1.3.139a1.345,1.345,0,0,0,.539.124,2.029,2.029,0,0,0,.834-.248,3.537,3.537,0,0,0,1.324-1.129,11.185,11.185,0,0,0,1.456-2.447c.077-.172.136-.315.186-.446a8.9,8.9,0,0,0,.529-5.47,4.23,4.23,0,0,0-1.694-2.514.386.386,0,0,1-.037-.026,2.886,2.886,0,0,0-.582-.363,3.523,3.523,0,0,0-1.52-.356h-.086a5.038,5.038,0,0,0-1.73.454l-.342.132c-.149.056-.495.176-.5.177a.4.4,0,0,1-.136.024h-.128l-.025,0H11.79l-.026,0h-.129a.4.4,0,0,1-.136-.023s-.347-.121-.5-.179l-.337-.13A5.076,5.076,0,0,0,8.927,8.1H8.834a3.562,3.562,0,0,0-1.512.356,2.91,2.91,0,0,0-.584.363.339.339,0,0,1-.035.026,4.3,4.3,0,0,0-1.684,2.474A8.9,8.9,0,0,0,5.524,16.8c.073.192.139.343.2.477a11.141,11.141,0,0,0,1.455,2.447,3.51,3.51,0,0,0,1.276,1.109,2.208,2.208,0,0,0,.885.267,1.35,1.35,0,0,0,.535-.123c.1-.043.2-.091.3-.137l.018-.009a4.419,4.419,0,0,1,.8-.317,3.706,3.706,0,0,1,.8-.1h.014Z"
                    stroke="none" />
                <path
                    d="M 14.260986328125 20.09961318969727 C 14.32536697387695 20.09961318969727 14.50913619995117 20.01754379272461 14.68877696990967 19.93733406066895 C 15.00012683868408 19.7990837097168 15.25736618041992 19.57120323181152 15.63781642913818 19.09665298461914 C 16.13151741027832 18.48062324523926 16.57657623291016 17.73093414306641 16.96085739135742 16.8679141998291 C 17.0268669128418 16.71989440917969 17.07902717590332 16.5946044921875 17.1250171661377 16.47362327575684 L 17.14455604553223 16.42595481872559 C 18.23100662231445 13.95873355865479 17.62941741943359 11.64108371734619 17.62321662902832 11.61796379089355 L 17.61015701293945 11.5631742477417 C 17.36825752258301 10.4043436050415 16.43461799621582 9.741438865661621 16.35490608215332 9.686763763427734 C 16.31573867797852 9.66197395324707 16.28406715393066 9.638636589050293 16.25646591186523 9.617584228515625 L 16.22528648376465 9.593124389648438 C 16.12227630615234 9.508934020996094 15.99695682525635 9.43182373046875 15.8407564163208 9.356674194335938 C 15.49393653869629 9.189173698425293 15.11858654022217 9.10063362121582 14.75527667999268 9.10063362121582 C 14.73395347595215 9.100632667541504 14.71262550354004 9.100553512573242 14.69343662261963 9.100974082946777 C 14.26431655883789 9.111443519592285 13.83969688415527 9.277084350585938 13.2977466583252 9.488473892211914 L 12.95023632049561 9.622143745422363 C 12.79885864257812 9.679323196411133 12.4832010269165 9.789033889770508 12.42975902557373 9.807562828063965 C 12.27939224243164 9.860764503479004 12.12204647064209 9.887733459472656 11.96197700500488 9.887733459472656 L 11.63514614105225 9.887733459472656 C 11.47371673583984 9.887733459472656 11.31545639038086 9.860584259033203 11.16475677490234 9.80704402923584 L 11.1370964050293 9.797313690185547 C 10.98491668701172 9.743893623352051 10.76855659484863 9.667583465576172 10.64699649810791 9.621773719787598 L 10.63960647583008 9.618964195251465 L 10.29893684387207 9.487483978271484 C 9.758896827697754 9.277624130249023 9.33234691619873 9.11185359954834 8.906126976013184 9.101043701171875 C 8.882996559143066 9.100553512573242 8.858916282653809 9.100004196166992 8.834336280822754 9.100004196166992 C 8.488106727600098 9.100004196166992 8.095166206359863 9.193683624267578 7.7546067237854 9.357833862304688 C 7.602083206176758 9.43099308013916 7.476366519927979 9.508245468139648 7.370387077331543 9.593930244445801 C 7.33384895324707 9.623902320861816 7.29572868347168 9.651962280273438 7.256727695465088 9.677605628967285 C 7.195810317993164 9.720224380493164 6.225821495056152 10.4150915145874 5.99812650680542 11.52038383483887 L 5.985506534576416 11.57410430908203 C 5.959956645965576 11.67080402374268 5.371976375579834 13.97023391723633 6.439456462860107 16.39472389221191 L 6.458856582641602 16.44202423095703 C 6.524376392364502 16.61422348022461 6.582476615905762 16.74697303771973 6.637466430664062 16.86920356750488 C 7.01992654800415 17.73015403747559 7.46463680267334 18.47954368591309 7.9591965675354 19.09651374816895 C 8.334726333618164 19.56493377685547 8.587996482849121 19.7951545715332 8.860456466674805 19.91673469543457 L 8.865276336669922 19.91886329650879 C 9.064207077026367 20.00709342956543 9.269916534423828 20.09833335876465 9.339886665344238 20.09833335876465 C 9.349576950073242 20.09833335876465 9.38858699798584 20.09519386291504 9.484686851501465 20.05437469482422 C 9.567099571228027 20.01944732666016 9.654199600219727 19.97832870483398 9.736672401428223 19.9389591217041 L 9.773836135864258 19.92097473144531 C 10.05079650878906 19.79001426696777 10.36470699310303 19.64157485961914 10.74653625488281 19.54405403137207 C 11.03658676147461 19.46997451782227 11.3695764541626 19.42821311950684 11.76453685760498 19.41637420654297 L 11.82625675201416 19.41592407226562 L 11.84363651275635 19.41652297973633 C 12.09560680389404 19.42529487609863 12.47415637969971 19.44802474975586 12.8513069152832 19.54392433166504 C 13.2381067276001 19.64249420166016 13.56612682342529 19.79865455627441 13.82985687255859 19.92420387268066 L 13.86786651611328 19.94228363037109 C 13.95346641540527 19.98296356201172 14.03431701660156 20.02139472961426 14.11122703552246 20.05385398864746 L 14.11623668670654 20.05598449707031 C 14.18092632293701 20.08371353149414 14.23368644714355 20.09961318969727 14.260986328125 20.09961318969727 M 14.260986328125 21.09961318969727 C 14.09163665771484 21.09961318969727 13.92041683197021 21.06003379821777 13.72231674194336 20.97513389587402 C 13.6179666519165 20.93108367919922 13.51672649383545 20.88256454467773 13.41861629486084 20.83596420288086 L 13.39986705780029 20.82703399658203 C 13.15178680419922 20.70893478393555 12.89494705200195 20.58700370788574 12.60436630249023 20.51295471191406 C 12.32066631317139 20.4408130645752 12.01071643829346 20.42294311523438 11.80887699127197 20.41592407226562 L 11.79449653625488 20.41592407226562 C 11.47517681121826 20.42549324035645 11.21396636962891 20.45677375793457 10.99400615692139 20.51295471191406 C 10.70154666900635 20.58764457702637 10.44408702850342 20.71021461486816 10.19162654876709 20.8295841217041 L 10.17350673675537 20.83852386474609 C 10.07726669311523 20.88448333740234 9.977286338806152 20.93171310424805 9.87480640411377 20.97513389587402 C 9.677956581115723 21.05875396728516 9.507356643676758 21.09833335876465 9.339886665344238 21.09833335876465 C 9.056806564331055 21.09833335876465 8.806216239929199 20.98661422729492 8.455026626586914 20.83085441589355 C 7.955726623535156 20.60807418823242 7.583286762237549 20.22633361816406 7.178976535797119 19.72202301025391 C 6.630936622619629 19.03833389282227 6.141016483306885 18.21485328674316 5.723586559295654 17.27518463134766 C 5.662966728210449 17.14048385620117 5.597356796264648 16.98983383178711 5.524236679077148 16.79768371582031 C 4.340676784515381 14.109543800354 4.946836471557617 11.59056377410889 5.018696784973145 11.31862354278564 C 5.336146831512451 9.777613639831543 6.641566753387451 8.885824203491211 6.70280647277832 8.844964027404785 C 6.715926647186279 8.836673736572266 6.72779655456543 8.827733993530273 6.737796783447266 8.81943416595459 C 6.905276775360107 8.683464050292969 7.095866680145264 8.564723968505859 7.322086811065674 8.456203460693359 C 7.798886775970459 8.226393699645996 8.336297035217285 8.100004196166992 8.834336280822754 8.100004196166992 C 8.866216659545898 8.100004196166992 8.897456169128418 8.10063362121582 8.927456855773926 8.101273536682129 C 9.532356262207031 8.116603851318359 10.05602645874023 8.320234298706055 10.66217708587646 8.555793762207031 L 10.99962615966797 8.686014175415039 C 11.15210628509521 8.743474006652832 11.4982967376709 8.864124298095703 11.49954700469971 8.864753723144531 C 11.5426664352417 8.880073547363281 11.58828639984131 8.887733459472656 11.63514614105225 8.887733459472656 L 11.76387691497803 8.887733459472656 C 11.77324676513672 8.885824203491211 11.78262615203857 8.885184288024902 11.79012680053711 8.884544372558594 C 11.79262638092041 8.884544372558594 11.80511665344238 8.884544372558594 11.80887699127197 8.885184288024902 C 11.81824684143066 8.885184288024902 11.82636642456055 8.88646411895752 11.83386707305908 8.887733459472656 L 11.96197700500488 8.887733459472656 C 12.00821685791016 8.887733459472656 12.05383682250977 8.880073547363281 12.09820652008057 8.864124298095703 C 12.10194683074951 8.86284351348877 12.44814682006836 8.742834091186523 12.59687614440918 8.686654090881348 L 12.93869686126709 8.555153846740723 C 13.54421615600586 8.318953514099121 14.0672664642334 8.115954399108887 14.66904640197754 8.101273536682129 C 15.20958518981934 8.089235305786133 15.76615619659424 8.21012020111084 16.27566719055176 8.456203460693359 C 16.50125694274902 8.564723968505859 16.69247627258301 8.683464050292969 16.85807609558105 8.818794250488281 C 16.86994743347168 8.827733993530273 16.88181686401367 8.83730411529541 16.89494705200195 8.844964027404785 C 16.9086856842041 8.853903770446777 18.24472618103027 9.709314346313477 18.58905601501465 11.3588342666626 C 18.6334171295166 11.52417373657227 19.27581596374512 14.06740379333496 18.05975723266602 16.82896423339844 C 18.00976753234863 16.96046447753906 17.95102691650391 17.10282325744629 17.87416648864746 17.27518463134766 C 17.45547676086426 18.21548461914062 16.96555709838867 19.03897476196289 16.41814613342285 19.72202301025391 C 16.01383590698242 20.22633361816406 15.63514614105225 20.61126327514648 15.09460639953613 20.85128402709961 C 14.77152633666992 20.99555397033691 14.53781700134277 21.09961318969727 14.260986328125 21.09961318969727 Z"
                    stroke="none" fill="#000" />
            </g>
            <path d="M16.026,7.035a2.771,2.771,0,0,1,2-3.5" transform="translate(-8.693 -3.501)" fill="none"
                stroke="#000" stroke-linecap="round" stroke-linejoin="round" stroke-width="1" />
            <path d="M20.1,12.249s2.075,1.039,2,3" transform="translate(-10.769 -6.715)" fill="none" stroke="#000"
                stroke-linecap="round" stroke-linejoin="round" stroke-width="1" />
        </g>
    </g>
</svg>