<svg xmlns="http://www.w3.org/2000/svg" width="16.207" height="16.202" viewBox="0 0 16.207 16.202">
    <g transform="translate(0 0.202)">
        <g transform="translate(0.5 0.5)">
            <path
                d="M-475.375,74.032l-7.091,6.688a4.832,4.832,0,0,1-6.552,0,4.2,4.2,0,0,1,0-6.179l7.092-6.689a3.223,3.223,0,0,1,4.368,0,2.8,2.8,0,0,1,0,4.119l-7.1,6.688a1.609,1.609,0,0,1-2.183,0,1.4,1.4,0,0,1,0-2.059l6.551-6.172"
                transform="translate(490.375 -67)" fill="none" stroke="#000" stroke-linecap="round"
                stroke-linejoin="round" stroke-width="1" />
        </g>
    </g>
</svg>