<svg xmlns="http://www.w3.org/2000/svg" width="16" height="16" viewBox="0 0 16 16"><rect width="16" height="16" fill="#fff" opacity="0"/><g transform="translate(2 2.334)"><path d="M-296.033,87.573a1.949,1.949,0,0,0,2,1.894,1.949,1.949,0,0,0,2-1.894v-.106h-4Z" transform="translate(300.032 -75.802)"/><g transform="translate(303.673 -68.833)" fill="none" stroke-miterlimit="10"><path d="M-296.5,66.671a5.454,5.454,0,0,1,3.823,4.829v2A5.518,5.518,0,0,0-291,78.029l.1.086a.808.808,0,0,1,.232.566.822.822,0,0,1-.826.818h-12.349a.822.822,0,0,1-.826-.818.808.808,0,0,1,.232-.566l.1-.086a5.519,5.519,0,0,0,1.669-4.529v-2a5.471,5.471,0,0,1,3.7-4.795A4.359,4.359,0,0,1-296.5,66.671Z" stroke="none"/><path d="M -297.6012878417969 67.49999237060547 C -298.1766967773438 67.49999237060547 -298.6528625488281 67.65291595458984 -298.6529235839844 67.65290069580078 L -298.6928405761719 67.66543579101562 C -300.2524719238281 68.11935424804688 -301.6728515625 69.94704437255859 -301.6728515625 71.5 L -301.6728515625 73.5 C -301.6728515625 75.05319213867188 -301.8749389648438 76.99569702148438 -303.379638671875 78.5 L -291.9664916992188 78.5 C -293.4706726074219 76.99653625488281 -293.6728515625 75.05354309082031 -293.6728515625 73.5 L -293.6728515625 71.5 C -293.6728515625 69.9000244140625 -295.1389770507812 68.05934143066406 -296.7488098144531 67.63818359375 L -296.7847595214844 67.6287841796875 L -296.8198547363281 67.61675262451172 C -297.0459594726562 67.53926849365234 -297.3088989257812 67.49999237060547 -297.6012878417969 67.49999237060547 M -297.6012878417969 66.49999237060547 C -297.2503356933594 66.49999237060547 -296.8670043945312 66.54352569580078 -296.4957275390625 66.67074584960938 C -294.52294921875 67.18684387207031 -292.6728515625 69.38286590576172 -292.6728515625 71.5 L -292.6728515625 73.5 C -292.6728515625 75.29393005371094 -292.347412109375 76.87459564208984 -291.0042114257812 78.02927398681641 C -290.9708251953125 78.05795288085938 -290.9379272460938 78.08724975585938 -290.904541015625 78.11529541015625 C -290.7615356445312 78.26190185546875 -290.6730346679688 78.46131896972656 -290.6730346679688 78.68154907226562 C -290.6730346679688 79.1337890625 -291.0429077148438 79.5 -291.4987182617188 79.5 L -303.8472290039062 79.5 C -304.3030395507812 79.5 -304.6730346679688 79.1337890625 -304.6730346679688 78.68154907226562 C -304.6730346679688 78.46131896972656 -304.58447265625 78.26190185546875 -304.4414672851562 78.11529541015625 C -304.4080200195312 78.08724975585938 -304.375244140625 78.05795288085938 -304.341796875 78.02927398681641 C -302.9986572265625 76.87459564208984 -302.6728515625 75.29393005371094 -302.6728515625 73.5 L -302.6728515625 71.5 C -302.6728515625 69.42715454101562 -300.8821411132812 67.26112365722656 -298.9722900390625 66.70526885986328 C -298.9722900390625 66.70526885986328 -298.3631896972656 66.49999237060547 -297.6012878417969 66.49999237060547 Z" stroke="none" fill="#000"/></g></g></svg>