<svg xmlns="http://www.w3.org/2000/svg" viewBox="0 0 16 16">
    <g transform="translate(2 2.334)">
        <path d="M-296.033,87.573a1.949,1.949,0,0,0,2,1.894,1.949,1.949,0,0,0,2-1.894v-.106h-4Z"
            transform="translate(300.032 -75.802)" />
        <g transform="translate(303.673 -68.833)" stroke-miterlimit="10">
            <path
                d="M -291.4987182617188 79 L -292.5100708007812 79 L -293.0681762695312 79 L -301.6728515625 79 L -302.6728515625 79 L -303.8472290039062 79 C -304.0268859863281 79 -304.1730346679688 78.85713958740234 -304.1730346679688 78.68154907226562 C -304.1730346679688 78.60665130615234 -304.1457824707031 78.53497314453125 -304.0958862304688 78.47779846191406 C -304.0814514160156 78.46543121337891 -304.0670776367188 78.45291900634766 -304.0527038574219 78.44036865234375 L -304.016357421875 78.40885162353516 C -302.38232421875 77.00411224365234 -302.1728515625 75.04761505126953 -302.1728515625 73.5 L -302.1728515625 71.5 C -302.1728515625 69.71942901611328 -300.6119689941406 67.70323181152344 -298.8325805664062 67.18534851074219 L -298.822509765625 67.18243408203125 L -298.8125915527344 67.17908477783203 C -298.8083190917969 67.17767333984375 -298.2648620605469 66.99999237060547 -297.6012878417969 66.99999237060547 C -297.2536315917969 66.99999237060547 -296.9361877441406 67.04836273193359 -296.6578063964844 67.14374542236328 L -296.6402282714844 67.14976501464844 L -296.6222839355469 67.15446472167969 C -295.7676391601562 67.37804412841797 -294.89697265625 67.97749328613281 -294.2334899902344 68.79910278320312 C -293.5594482421875 69.63384246826172 -293.1728515625 70.61827850341797 -293.1728515625 71.5 L -293.1728515625 73.5 C -293.1728515625 76.44650268554688 -292.1880798339844 77.67091369628906 -291.3301696777344 78.40843200683594 L -291.2943725585938 78.43947601318359 C -291.2796325683594 78.45229339599609 -291.2649230957031 78.46509552001953 -291.2501831054688 78.47774505615234 C -291.2002868652344 78.53489685058594 -291.1730346679688 78.60659790039062 -291.1730346679688 78.68154907226562 C -291.1730346679688 78.85713958740234 -291.3191223144531 79 -291.4987182617188 79 Z"
                stroke="none" />
            <path
                d="M -297.6012878417969 67.49999237060547 C -298.1766967773438 67.49999237060547 -298.6528625488281 67.65291595458984 -298.6529235839844 67.65290069580078 L -298.6928405761719 67.66543579101562 C -300.2524719238281 68.11935424804688 -301.6728515625 69.94704437255859 -301.6728515625 71.5 L -301.6728515625 73.5 C -301.6728515625 75.05319213867188 -301.8749389648438 76.99569702148438 -303.379638671875 78.5 L -291.9664916992188 78.5 C -293.4706726074219 76.99653625488281 -293.6728515625 75.05354309082031 -293.6728515625 73.5 L -293.6728515625 71.5 C -293.6728515625 69.9000244140625 -295.1389770507812 68.05934143066406 -296.7488098144531 67.63818359375 L -296.7847595214844 67.6287841796875 L -296.8198547363281 67.61675262451172 C -297.0459594726562 67.53926849365234 -297.3088989257812 67.49999237060547 -297.6012878417969 67.49999237060547 M -297.6012878417969 66.49999237060547 C -297.2503356933594 66.49999237060547 -296.8670043945312 66.54352569580078 -296.4957275390625 66.67074584960938 C -294.52294921875 67.18684387207031 -292.6728515625 69.38286590576172 -292.6728515625 71.5 L -292.6728515625 73.5 C -292.6728515625 75.29393005371094 -292.347412109375 76.87459564208984 -291.0042114257812 78.02927398681641 C -290.9708251953125 78.05795288085938 -290.9379272460938 78.08724975585938 -290.904541015625 78.11529541015625 C -290.7615356445312 78.26190185546875 -290.6730346679688 78.46131896972656 -290.6730346679688 78.68154907226562 C -290.6730346679688 79.1337890625 -291.0429077148438 79.5 -291.4987182617188 79.5 L -303.8472290039062 79.5 C -304.3030395507812 79.5 -304.6730346679688 79.1337890625 -304.6730346679688 78.68154907226562 C -304.6730346679688 78.46131896972656 -304.58447265625 78.26190185546875 -304.4414672851562 78.11529541015625 C -304.4080200195312 78.08724975585938 -304.375244140625 78.05795288085938 -304.341796875 78.02927398681641 C -302.9986572265625 76.87459564208984 -302.6728515625 75.29393005371094 -302.6728515625 73.5 L -302.6728515625 71.5 C -302.6728515625 69.42715454101562 -300.8821411132812 67.26112365722656 -298.9722900390625 66.70526885986328 C -298.9722900390625 66.70526885986328 -298.3631896972656 66.49999237060547 -297.6012878417969 66.49999237060547 Z"
                stroke="none" fill="#000" />
        </g>
    </g>
</svg>