<svg xmlns="http://www.w3.org/2000/svg" width="16" height="16" viewBox="0 0 16 16"><rect width="16" height="16" fill="#fff" opacity="0"/><g transform="translate(4)"><g transform="translate(300 -66.233)" fill="none" stroke-miterlimit="10"><path d="M-300,67.591V82.026a.2.2,0,0,0,.351.141L-296.1,78.3a.134.134,0,0,1,.2,0l3.549,3.868a.2.2,0,0,0,.351-.141V67.591a1.345,1.345,0,0,0-1.331-1.358h-5.337A1.345,1.345,0,0,0-300,67.591Z" stroke="none"/><path d="M -298.668701171875 67.23300933837891 C -298.8513793945312 67.23300933837891 -299 67.39345550537109 -299 67.59067535400391 L -299 79.98077392578125 L -296.8387145996094 77.62516784667969 C -296.6239624023438 77.38980865478516 -296.3183898925781 77.25482940673828 -296.0003356933594 77.25482940673828 C -295.6824340820312 77.25482940673828 -295.3769226074219 77.38971710205078 -295.1638488769531 77.62307739257812 L -293 79.98108673095703 L -293 67.59067535400391 C -293 67.39345550537109 -293.1486206054688 67.23300933837891 -293.331298828125 67.23300933837891 L -298.668701171875 67.23300933837891 M -298.668701171875 66.23300933837891 L -293.331298828125 66.23300933837891 C -292.5960083007812 66.23300933837891 -292 66.84080505371094 -292 67.59067535400391 L -292 82.02552032470703 C -292 82.21314239501953 -292.2253112792969 82.30426788330078 -292.3513793945312 82.16693878173828 L -295.900634765625 78.29920196533203 C -295.9546508789062 78.24002838134766 -296.0460510253906 78.24002838134766 -296.1000061035156 78.29920196533203 L -299.648681640625 82.16693878173828 C -299.774658203125 82.30422973632812 -300 82.21319580078125 -300 82.02552032470703 L -300 67.59067535400391 C -300 66.84080505371094 -299.404052734375 66.23300933837891 -298.668701171875 66.23300933837891 Z" stroke="none" fill="#000"/></g></g></svg>