<svg xmlns="http://www.w3.org/2000/svg" viewBox="0 0 16 16">
    <g transform="translate(4.667 2)">
        <g transform="translate(299.333 -68.233)" stroke-miterlimit="10">
            <path
                d="M -293 79.9810791015625 L -295.1638793945312 77.62306976318359 C -295.3768920898438 77.38973999023438 -295.6824035644531 77.25482940673828 -296.0003356933594 77.25482940673828 C -296.318359375 77.25482940673828 -296.6239013671875 77.38978576660156 -296.8386535644531 77.62510681152344 L -299 79.98079681396484 L -299 67.59067535400391 C -299 67.39345550537109 -298.8513793945312 67.23300933837891 -298.6686706542969 67.23300933837891 L -293.3313293457031 67.23300933837891 C -293.1486206054688 67.23300933837891 -293 67.39345550537109 -293 67.59067535400391 L -293 79.9810791015625 Z"
                stroke="none" />
            <path
                d="M -298 68.23300933837891 L -298 77.41169738769531 L -297.5736999511719 76.94707489013672 L -297.5736999511719 76.94708251953125 C -297.1701354980469 76.50706481933594 -296.5970153808594 76.25482940673828 -296.0003356933594 76.25482940673828 C -295.4021606445312 76.25482940673828 -294.8275146484375 76.50843048095703 -294.4270935058594 76.94693756103516 L -294 77.412353515625 L -294 68.23300933837891 L -298 68.23300933837891 M -298.6686706542969 66.23300933837891 L -293.3313293457031 66.23300933837891 C -292.5960083007812 66.23300933837891 -292 66.84080505371094 -292 67.59067535400391 L -292 82.02552032470703 C -292.0000305175781 82.21319580078125 -292.2254333496094 82.30421447753906 -292.3513488769531 82.16693115234375 L -295.9006652832031 78.29920196533203 C -295.9547119140625 78.23999786376953 -296.0460815429688 78.24005889892578 -296.1000061035156 78.29920196533203 L -299.6486511230469 82.16693115234375 C -299.774658203125 82.30426025390625 -300 82.21317291259766 -300 82.02552032470703 L -300 67.59067535400391 C -300 66.84080505371094 -299.4040222167969 66.23300933837891 -298.6686706542969 66.23300933837891 Z"
                stroke="none" fill="#000" />
        </g>
    </g>
</svg>