<svg xmlns="http://www.w3.org/2000/svg" width="16" height="16" viewBox="0 0 16 16"><rect width="16" height="16" fill="#fff" opacity="0"/><g transform="translate(-1 1.5)"><g transform="translate(-251 -6.281)" fill="none" stroke-miterlimit="10"><path d="M266,7.781h-5l-1-1h-4l-1,1h-1a1.8,1.8,0,0,0-2,2v7a1.794,1.794,0,0,0,2,2h12a1.8,1.8,0,0,0,2-2v-7A1.8,1.8,0,0,0,266,7.781Z" stroke="none"/><path d="M 256.4142150878906 7.78125 L 255.4142150878906 8.78125 L 254 8.78125 C 253.2523498535156 8.78125 253 9.033590316772461 253 9.78125 L 253 16.78125 C 253 17.52890968322754 253.2523498535156 17.78125 254 17.78125 L 266 17.78125 C 266.7476806640625 17.78125 267 17.52890968322754 267 16.78125 L 267 9.78125 C 267 9.033590316772461 266.7476806640625 8.78125 266 8.78125 L 260.5857849121094 8.78125 L 259.5857849121094 7.78125 L 256.4142150878906 7.78125 M 256 6.78125 L 260 6.78125 L 261 7.78125 L 266 7.78125 C 267.2962341308594 7.78125 268 8.476490020751953 268 9.78125 L 268 16.78125 C 268 18.08267974853516 267.2978515625 18.78125 266 18.78125 L 254 18.78125 C 252.6979370117188 18.78125 252 18.08216094970703 252 16.78125 L 252 9.78125 C 252 8.484369277954102 252.7000732421875 7.78125 254 7.78125 L 255 7.78125 L 256 6.78125 Z" stroke="none" fill="#000"/></g><g transform="translate(5 4.501)" fill="none" stroke="#000" stroke-miterlimit="10" stroke-width="1"><circle cx="2.5" cy="2.5" r="2.5" stroke="none"/><circle cx="2.5" cy="2.5" r="2" fill="none"/></g></g></svg>