<svg xmlns="http://www.w3.org/2000/svg" viewBox="0 0 16 16">
    <g transform="translate(-1 1.5)">
        <path
            d="M13163.5,18685h-9.882l1-1h8.883c.747,0,1-.252,1-1v-7c0-.713-.231-.975-.884-1l.84-.84a1.8,1.8,0,0,1,1.043,1.838v7A1.789,1.789,0,0,1,13163.5,18685Zm-13.547-.576v0a2.083,2.083,0,0,1-.451-1.426v-7a1.789,1.789,0,0,1,2-2h1l1-1h4l1,1h1.88l-1,1h-1.29l-1-1h-3.17l-1,1h-1.417c-.747,0-1,.252-1,1v7a1.2,1.2,0,0,0,.164.719l-.709.707Z"
            transform="translate(-13148.5 -18672.5)" />
        <path
            d="M13156.731,18681.891h0l1.662-1.664A2.494,2.494,0,0,1,13156.731,18681.891Zm-2.968-1.275v0a2.468,2.468,0,0,1-.262-1.113,2.5,2.5,0,0,1,3.615-2.236l-.775.775a1.488,1.488,0,0,0-.34-.041,1.5,1.5,0,0,0-1.5,1.5,1.457,1.457,0,0,0,.039.34l-.774.773Z"
            transform="translate(-13148.5 -18672.5)" />
        <line y1="14" x2="14" transform="translate(2 -0.5)" fill="none" stroke="#000" stroke-linecap="round"
            stroke-miterlimit="10" stroke-width="1" />
    </g>
</svg>