<svg xmlns="http://www.w3.org/2000/svg" viewBox="0 0 16 16">
    <g transform="translate(2.667 1.334)">
        <g transform="translate(-0.667 -1.334)" fill="none" stroke="#000" stroke-miterlimit="10" stroke-width="1">
            <path d="M2,0h9a1,1,0,0,1,1,1V15a1,1,0,0,1-1,1H2a2,2,0,0,1-2-2V2A2,2,0,0,1,2,0Z" stroke="none" />
            <path d="M2,.5h9a.5.5,0,0,1,.5.5V15a.5.5,0,0,1-.5.5H2A1.5,1.5,0,0,1,.5,14V2A1.5,1.5,0,0,1,2,.5Z"
                fill="none" />
        </g>
        <line x2="5" transform="translate(2.833 7.166)" fill="none" stroke="#000" stroke-linecap="round"
            stroke-miterlimit="10" stroke-width="1" />
        <line x2="3" transform="translate(2.833 10.166)" fill="none" stroke="#000" stroke-linecap="round"
            stroke-miterlimit="10" stroke-width="1" />
        <line x2="10" transform="translate(0.333 3.166)" fill="none" stroke="#000" stroke-width="1" />
    </g>
</svg>