<svg xmlns="http://www.w3.org/2000/svg" width="16" height="16" viewBox="0 0 16 16"><rect width="16" height="16" fill="#fff" opacity="0"/><g transform="translate(2 1.334)"><line x2="13" transform="translate(-0.5 6.166)" fill="none" stroke="#000" stroke-linecap="round" stroke-width="1"/><line x2="13" transform="translate(-0.5 14.166)" fill="none" stroke="#000" stroke-linecap="round" stroke-width="1"/><g transform="translate(2)"><path d="M0,0A2,2,0,0,1,2,2,2,2,0,0,1,0,4" transform="translate(-1 5.667) rotate(-90)" fill="none" stroke="#000" stroke-width="1"/><g transform="translate(-23 -15.013)" fill="none" stroke-miterlimit="10"><path d="M22,16.679a2,2,0,1,1,.586,1.414A2,2,0,0,1,22,16.679Z" stroke="none"/><path d="M 24.00000381469727 15.67900276184082 C 23.7330436706543 15.67900276184082 23.48165321350098 15.78308296203613 23.2940845489502 15.97013282775879 C 23.10444450378418 16.16030311584473 23.00000381469727 16.41204261779785 23.00000381469727 16.67900276184082 C 23.00000381469727 16.9453125 23.10444450378418 17.19670295715332 23.29213333129883 17.38492202758789 C 23.48230361938477 17.57456207275391 23.73369407653809 17.67900276184082 24.00000381469727 17.67900276184082 C 24.26631355285645 17.67900276184082 24.51770401000977 17.57456207275391 24.70688438415527 17.38589286804199 C 24.89590454101562 17.19687271118164 25.00000381469727 16.94583320617676 25.00000381469727 16.67900276184082 C 25.00000381469727 16.41153335571289 24.89590454101562 16.16013336181641 24.70785331726074 15.97207260131836 C 24.51834297180176 15.78308296203613 24.26696395874023 15.67900276184082 24.00000381469727 15.67900276184082 M 24.00000381469727 14.67900276184082 C 24.55300331115723 14.67900276184082 25.05100440979004 14.90200233459473 25.41399383544922 15.26400184631348 C 25.7769947052002 15.62700271606445 26.00000381469727 16.12600326538086 26.00000381469727 16.67900276184082 C 26.00000381469727 17.23200225830078 25.7769947052002 17.73000335693359 25.41399383544922 18.09300231933594 C 25.05100440979004 18.45500183105469 24.55300331115723 18.67900276184082 24.00000381469727 18.67900276184082 C 23.4470043182373 18.67900276184082 22.94900321960449 18.45500183105469 22.58600425720215 18.09300231933594 C 22.2240047454834 17.73000335693359 22.00000381469727 17.23200225830078 22.00000381469727 16.67900276184082 C 22.00000381469727 16.12600326538086 22.2240047454834 15.62700271606445 22.58600425720215 15.26400184631348 C 22.94900321960449 14.90200233459473 23.4470043182373 14.67900276184082 24.00000381469727 14.67900276184082 Z" stroke="none" fill="#000"/></g></g><g transform="translate(8)"><path d="M0,0A2,2,0,0,1,2,2,2,2,0,0,1,0,4" transform="translate(-1 5.667) rotate(-90)" fill="none" stroke="#000" stroke-width="1"/><g transform="translate(-23 -15.013)" fill="none" stroke-miterlimit="10"><path d="M22,16.679a2,2,0,1,1,.586,1.414A2,2,0,0,1,22,16.679Z" stroke="none"/><path d="M 24.00000381469727 15.67900276184082 C 23.7330436706543 15.67900276184082 23.48165321350098 15.78308296203613 23.2940845489502 15.97013282775879 C 23.10444450378418 16.16030311584473 23.00000381469727 16.41204261779785 23.00000381469727 16.67900276184082 C 23.00000381469727 16.9453125 23.10444450378418 17.19670295715332 23.29213333129883 17.38492202758789 C 23.48230361938477 17.57456207275391 23.73369407653809 17.67900276184082 24.00000381469727 17.67900276184082 C 24.26631355285645 17.67900276184082 24.51770401000977 17.57456207275391 24.70688438415527 17.38589286804199 C 24.89590454101562 17.19687271118164 25.00000381469727 16.94583320617676 25.00000381469727 16.67900276184082 C 25.00000381469727 16.41153335571289 24.89590454101562 16.16013336181641 24.70785331726074 15.97207260131836 C 24.51834297180176 15.78308296203613 24.26696395874023 15.67900276184082 24.00000381469727 15.67900276184082 M 24.00000381469727 14.67900276184082 C 24.55300331115723 14.67900276184082 25.05100440979004 14.90200233459473 25.41399383544922 15.26400184631348 C 25.7769947052002 15.62700271606445 26.00000381469727 16.12600326538086 26.00000381469727 16.67900276184082 C 26.00000381469727 17.23200225830078 25.7769947052002 17.73000335693359 25.41399383544922 18.09300231933594 C 25.05100440979004 18.45500183105469 24.55300331115723 18.67900276184082 24.00000381469727 18.67900276184082 C 23.4470043182373 18.67900276184082 22.94900321960449 18.45500183105469 22.58600425720215 18.09300231933594 C 22.2240047454834 17.73000335693359 22.00000381469727 17.23200225830078 22.00000381469727 16.67900276184082 C 22.00000381469727 16.12600326538086 22.2240047454834 15.62700271606445 22.58600425720215 15.26400184631348 C 22.94900321960449 14.90200233459473 23.4470043182373 14.67900276184082 24.00000381469727 14.67900276184082 Z" stroke="none" fill="#000"/></g></g><g transform="translate(5 8)"><path d="M0,0A2,2,0,0,1,2,2,2,2,0,0,1,0,4" transform="translate(-1 5.667) rotate(-90)" fill="none" stroke="#000" stroke-width="1"/><g transform="translate(-23 -15.013)" fill="none" stroke-miterlimit="10"><path d="M22,16.679a2,2,0,1,1,.586,1.414A2,2,0,0,1,22,16.679Z" stroke="none"/><path d="M 24.00000381469727 15.67900276184082 C 23.7330436706543 15.67900276184082 23.48165321350098 15.78308296203613 23.2940845489502 15.97013282775879 C 23.10444450378418 16.16030311584473 23.00000381469727 16.41204261779785 23.00000381469727 16.67900276184082 C 23.00000381469727 16.9453125 23.10444450378418 17.19670295715332 23.29213333129883 17.38492202758789 C 23.48230361938477 17.57456207275391 23.73369407653809 17.67900276184082 24.00000381469727 17.67900276184082 C 24.26631355285645 17.67900276184082 24.51770401000977 17.57456207275391 24.70688438415527 17.38589286804199 C 24.89590454101562 17.19687271118164 25.00000381469727 16.94583320617676 25.00000381469727 16.67900276184082 C 25.00000381469727 16.41153335571289 24.89590454101562 16.16013336181641 24.70785331726074 15.97207260131836 C 24.51834297180176 15.78308296203613 24.26696395874023 15.67900276184082 24.00000381469727 15.67900276184082 M 24.00000381469727 14.67900276184082 C 24.55300331115723 14.67900276184082 25.05100440979004 14.90200233459473 25.41399383544922 15.26400184631348 C 25.7769947052002 15.62700271606445 26.00000381469727 16.12600326538086 26.00000381469727 16.67900276184082 C 26.00000381469727 17.23200225830078 25.7769947052002 17.73000335693359 25.41399383544922 18.09300231933594 C 25.05100440979004 18.45500183105469 24.55300331115723 18.67900276184082 24.00000381469727 18.67900276184082 C 23.4470043182373 18.67900276184082 22.94900321960449 18.45500183105469 22.58600425720215 18.09300231933594 C 22.2240047454834 17.73000335693359 22.00000381469727 17.23200225830078 22.00000381469727 16.67900276184082 C 22.00000381469727 16.12600326538086 22.2240047454834 15.62700271606445 22.58600425720215 15.26400184631348 C 22.94900321960449 14.90200233459473 23.4470043182373 14.67900276184082 24.00000381469727 14.67900276184082 Z" stroke="none" fill="#000"/></g></g></g></svg>