<svg xmlns="http://www.w3.org/2000/svg" width="16" height="16.002" viewBox="0 0 16 16.002">
    <g transform="translate(2.667 2.666)">
        <rect width="7" height="10" transform="translate(0.333 0.334)" fill="none" />
        <path d="M12797.21,17008.336h-9.876a.5.5,0,0,1,0-1h10.876l-1,1Z" transform="translate(-12788.5 -17008.5)" />
        <path d="M0,3.5A.5.5,0,0,1-.5,3V0A.5.5,0,0,1,0-.5.5.5,0,0,1,.5,0V3A.5.5,0,0,1,0,3.5Z"
            transform="translate(-1.167 -2.166)" />
        <line x1="3" transform="translate(3.833 12.834)" fill="none" stroke="#000" stroke-linecap="round"
            stroke-width="1" />
        <path
            d="M12793.832,17021.836a.549.549,0,0,1-.5-.586v-4.793l1-1v5.793A.549.549,0,0,1,12793.832,17021.836Zm-.5-9.623v-3.8a.506.506,0,1,1,1,0v2.8l-1,1Z"
            transform="translate(-12788.5 -17008.5)" />
        <line y1="14" x2="14" transform="translate(-1.667 -1.666)" fill="none" stroke="#000" stroke-linecap="round"
            stroke-width="1" />
    </g>
</svg>