<svg xmlns="http://www.w3.org/2000/svg" width="16" height="16" viewBox="0 0 16 16"><rect width="16" height="16" fill="#fff" opacity="0"/><g transform="translate(0 1.775)"><g transform="translate(53 -7.438)" fill="none" stroke-miterlimit="10"><path d="M-37.272,11.679l-7.49-3.957a.51.51,0,0,0-.476,0l-7.49,3.957a.509.509,0,0,0,0,.9L-50,14.072v3.592a1.8,1.8,0,0,0,2,2h6a1.8,1.8,0,0,0,2-2V14.072l2.728-1.493A.509.509,0,0,0-37.272,11.679Z" stroke="none"/><path d="M -45.00037002563477 8.726720809936523 L -51.45432662963867 12.13645839691162 L -49.00000381469727 13.47955322265625 L -49.00000381469727 17.6640625 C -49.00000381469727 18.41172409057617 -48.74766540527344 18.6640625 -48.00000381469727 18.6640625 L -42.00000381469727 18.6640625 C -41.25234222412109 18.6640625 -41.00000381469727 18.41172409057617 -41.00000381469727 17.6640625 L -41.00000381469727 13.47963333129883 L -38.54629516601562 12.13652324676514 L -45.00037002563477 8.726720809936523 M -45.00037002563477 7.662500381469727 C -44.91853713989258 7.662500381469727 -44.83670806884766 7.682157516479492 -44.76237487792969 7.721473693847656 L -37.2719841003418 11.67878246307373 C -36.91000366210938 11.87002277374268 -36.91000366210938 12.38776302337646 -37.2719841003418 12.57899284362793 L -40.00000381469727 14.07226276397705 L -40.00000381469727 17.6640625 C -40.00000381469727 18.96406173706055 -40.70000457763672 19.6640625 -42.00000381469727 19.6640625 L -48.00000381469727 19.6640625 C -49.29507446289062 19.6640625 -50.00000381469727 18.96878242492676 -50.00000381469727 17.6640625 L -50.00000381469727 14.07226276397705 L -52.72875213623047 12.57899284362793 C -53.09074401855469 12.38776302337646 -53.09074401855469 11.87002277374268 -52.72875213623047 11.67878246307373 L -45.23836517333984 7.721473693847656 C -45.16402816772461 7.682157516479492 -45.08219909667969 7.662500381469727 -45.00037002563477 7.662500381469727 Z" stroke="none" fill="#000"/></g><g transform="translate(53 -7.436)" fill="none" stroke-miterlimit="10"><path d="M-45.238,16.6l-7.49-3.987a.514.514,0,0,1,0-.907l7.49-3.987a.506.506,0,0,1,.476,0l7.49,3.987a.514.514,0,0,1,0,.907l-7.49,3.987A.506.506,0,0,1-45.238,16.6Z" stroke="none"/><path d="M -45.0003662109375 15.59692192077637 L -38.54824829101562 12.16250038146973 L -45.00037002563477 8.728068351745605 L -51.45248031616211 12.16250419616699 L -45.0003662109375 15.59692192077637 M -45.00037002563477 16.66250228881836 C -45.08219909667969 16.66250228881836 -45.16402816772461 16.6426944732666 -45.23836517333984 16.60308074951172 L -52.72875213623047 12.61599063873291 C -53.09074401855469 12.42331027984619 -53.09074401855469 11.90167999267578 -52.72875213623047 11.70901012420654 L -45.23836517333984 7.72191047668457 C -45.08968353271484 7.642688751220703 -44.91103363037109 7.642692089080811 -44.76237487792969 7.72191047668457 L -37.2719841003418 11.70901012420654 C -36.91000366210938 11.90167999267578 -36.91000366210938 12.42331027984619 -37.2719841003418 12.61599063873291 L -44.76237487792969 16.60308074951172 C -44.83670806884766 16.6426944732666 -44.91853713989258 16.66250228881836 -45.00037002563477 16.66250228881836 Z" stroke="none" fill="#000"/></g><rect width="1" height="5" rx="0.5" transform="translate(15 4.226)"/></g></svg>