<svg xmlns="http://www.w3.org/2000/svg" width="16" height="16.002" viewBox="0 0 16 16.002"><rect width="16" height="16" transform="translate(0 0.002)" fill="#fff" opacity="0"/><g transform="translate(-0.157 -1.154)"><g transform="translate(-12908 -20860)" fill="rgba(0,0,0,0)" stroke-miterlimit="10"><path d="M 12917.154296875 20876.65625 L 12910.1552734375 20876.65625 C 12909.330078125 20876.65625 12908.658203125 20875.982421875 12908.658203125 20875.154296875 L 12908.658203125 20868.154296875 C 12908.658203125 20867.328125 12909.330078125 20866.654296875 12910.1552734375 20866.654296875 L 12913.1572265625 20866.654296875 L 12913.6572265625 20866.654296875 L 12913.6572265625 20866.154296875 L 12913.6572265625 20863.15625 C 12913.6572265625 20862.328125 12914.330078125 20861.654296875 12915.158203125 20861.654296875 L 12922.158203125 20861.654296875 C 12922.9833984375 20861.654296875 12923.654296875 20862.328125 12923.654296875 20863.15625 L 12923.654296875 20870.15625 C 12923.654296875 20870.984375 12922.9833984375 20871.658203125 12922.158203125 20871.658203125 L 12919.15625 20871.658203125 L 12918.65625 20871.658203125 L 12918.65625 20872.158203125 L 12918.65625 20875.154296875 C 12918.65625 20875.982421875 12917.982421875 20876.65625 12917.154296875 20876.65625 Z" stroke="none"/><path d="M 12917.154296875 20876.15625 C 12917.70703125 20876.15625 12918.15625 20875.70703125 12918.15625 20875.154296875 L 12918.15625 20871.158203125 L 12922.158203125 20871.158203125 C 12922.70703125 20871.158203125 12923.154296875 20870.708984375 12923.154296875 20870.15625 L 12923.154296875 20863.15625 C 12923.154296875 20862.603515625 12922.70703125 20862.154296875 12922.158203125 20862.154296875 L 12915.158203125 20862.154296875 C 12914.6064453125 20862.154296875 12914.1572265625 20862.603515625 12914.1572265625 20863.15625 L 12914.1572265625 20867.154296875 L 12910.1552734375 20867.154296875 C 12909.60546875 20867.154296875 12909.158203125 20867.603515625 12909.158203125 20868.154296875 L 12909.158203125 20875.154296875 C 12909.158203125 20875.70703125 12909.60546875 20876.15625 12910.1552734375 20876.15625 L 12917.154296875 20876.15625 M 12917.154296875 20877.15625 L 12910.1552734375 20877.15625 C 12909.0546875 20877.15625 12908.158203125 20876.259765625 12908.158203125 20875.154296875 L 12908.158203125 20868.154296875 C 12908.158203125 20867.048828125 12909.0546875 20866.154296875 12910.1552734375 20866.154296875 L 12913.1572265625 20866.154296875 L 12913.1572265625 20863.15625 C 12913.1572265625 20862.05078125 12914.052734375 20861.154296875 12915.158203125 20861.154296875 L 12922.158203125 20861.154296875 C 12923.263671875 20861.154296875 12924.154296875 20862.05078125 12924.154296875 20863.15625 L 12924.154296875 20870.15625 C 12924.154296875 20871.26171875 12923.263671875 20872.158203125 12922.158203125 20872.158203125 L 12919.15625 20872.158203125 L 12919.15625 20875.154296875 C 12919.15625 20876.259765625 12918.2607421875 20877.15625 12917.154296875 20877.15625 Z" stroke="none" fill="#000"/></g><g transform="translate(5.157 1.156)" fill="rgba(0,0,0,0)" stroke="#000" stroke-miterlimit="10" stroke-width="1"><rect width="11" height="11" rx="2" stroke="none"/><rect x="0.5" y="0.5" width="10" height="10" rx="1.5" fill="none"/></g><g transform="translate(9.03 4.283)"><line x2="4" transform="translate(-0.373 2.373)" fill="none" stroke="#000" stroke-linecap="round" stroke-miterlimit="10" stroke-width="1"/><line y2="4" transform="translate(1.627 0.373)" fill="none" stroke="#000" stroke-linecap="round" stroke-miterlimit="10" stroke-width="1"/></g></g></svg>