<svg xmlns="http://www.w3.org/2000/svg" width="16" height="16.011" viewBox="0 0 16 16.011">
    <rect transform="translate(0 0.011)" fill="#fff" opacity="0" />
    <g transform="translate(0 0.011)">
        <line x2="3" y2="3" transform="translate(10 3)" fill="none" stroke="#000" stroke-miterlimit="10"
            stroke-width="1" />
        <line x2="4" y2="4" transform="translate(2 10)" fill="none" stroke="#000" stroke-miterlimit="10"
            stroke-width="1" />
        <g transform="translate(180.729 -66.831)" fill="none" stroke-miterlimit="10">
            <path
                d="M-166.873,67.546l1.414,1.414a1.719,1.719,0,0,1,.132,2.7l-9.45,9.45a1.174,1.174,0,0,1-.683.334l-4.206,1.193a.793.793,0,0,1-.86-.861l1.215-4.274a1.173,1.173,0,0,1,.336-.68l9.406-9.406a1.716,1.716,0,0,1,2.7.132Z"
                stroke="none" />
            <path
                d="M -168.3228149414062 67.82054901123047 C -168.5205383300781 67.82054901123047 -168.7257385253906 67.98423767089844 -168.8630523681641 68.12155914306641 L -178.2751312255859 77.53357696533203 C -178.3054504394531 77.56334686279297 -178.317138671875 77.60749816894531 -178.3215942382812 77.63928985595703 L -178.3311767578125 77.70747375488281 L -179.4166259765625 81.52448272705078 L -175.6658935546875 80.46072387695312 L -175.5963745117188 80.45118713378906 C -175.5641479492188 80.44676971435547 -175.5195465087891 80.43524169921875 -175.4901123046875 80.40538024902344 L -175.4851226806641 80.40035247802734 L -166.0346374511719 70.94998168945312 C -165.7197723388672 70.63512420654297 -165.5123443603516 70.32128143310547 -166.1662292480469 69.66738128662109 L -167.5804901123047 68.25315093994141 C -167.8594512939453 67.97418212890625 -168.1230773925781 67.82054901123047 -168.3228149414062 67.82054901123047 M -168.3228149414062 66.82054901123047 C -167.8462066650391 66.82054901123047 -167.3568267822266 67.06258392333984 -166.8733673095703 67.54605865478516 L -166.8733520507812 67.54605865478516 L -165.4591369628906 68.96027374267578 C -164.5407257080078 69.87867736816406 -164.4969024658203 70.82646942138672 -165.3275299072266 71.65708923339844 L -174.7780151367188 81.10746002197266 C -174.9573059082031 81.28931427001953 -175.1948394775391 81.40548706054688 -175.4605407714844 81.44191741943359 L -179.6668090820312 82.63488006591797 C -180.1388549804688 82.69935607910156 -180.5934448242188 82.24393463134766 -180.5272979736328 81.77425384521484 L -179.3118743896484 77.50018310546875 C -179.2746124267578 77.23493194580078 -179.1574859619141 76.99857330322266 -178.9759216308594 76.82021331787109 L -169.5701599121094 67.41445159912109 C -169.174072265625 67.01837158203125 -168.753662109375 66.82054901123047 -168.3228149414062 66.82054901123047 Z"
                stroke="none" fill="#000" />
        </g>
    </g>
</svg>