<svg xmlns="http://www.w3.org/2000/svg" width="16" height="16" viewBox="0 0 16 16"><rect width="16" height="16" fill="#fff" opacity="0"/><g transform="translate(3.667 2)"><g transform="translate(-1.667 -2)"><g transform="translate(-42.668 3.725)" fill="none" stroke-miterlimit="10"><path d="M45.668,12.029a.632.632,0,0,1-1,0,11.769,11.769,0,0,1-2-3.713V-2.347A1.4,1.4,0,0,1,44.1-3.725h2.141a1.4,1.4,0,0,1,1.43,1.378V8.317A11.769,11.769,0,0,1,45.668,12.029Z" stroke="none"/><path d="M 45.16794204711914 11.049485206604 C 45.77964019775391 10.20328521728516 46.56356048583984 8.69914436340332 46.66796493530273 8.26326847076416 L 46.66800308227539 -2.347212076187134 C 46.66800308227539 -2.555521965026855 46.47510528564453 -2.72500205039978 46.23799514770508 -2.72500205039978 L 44.09728240966797 -2.72500205039978 C 43.86057281494141 -2.72500205039978 43.66800308227539 -2.555521965026855 43.66800308227539 -2.347212076187134 L 43.66796493530273 8.263269424438477 C 43.77238464355469 8.699199676513672 44.55646896362305 10.20363521575928 45.16794204711914 11.049485206604 M 45.16769790649414 12.27500057220459 C 44.98974990844727 12.27500057220459 44.81189346313477 12.19308280944824 44.66796493530273 12.02924823760986 C 43.93225479125977 11.19075775146484 42.66796493530273 8.847098350524902 42.66796493530273 8.316557884216309 L 42.66800308227539 -2.347212076187134 C 42.66800308227539 -3.108351945877075 43.3079948425293 -3.72500205039978 44.09728240966797 -3.72500205039978 L 46.23799514770508 -3.72500205039978 C 47.02799224853516 -3.72500205039978 47.66800308227539 -3.108351945877075 47.66800308227539 -2.347212076187134 L 47.66796493530273 8.316557884216309 C 47.66796493530273 8.847098350524902 46.40368270874023 11.19075775146484 45.66796493530273 12.02924823760986 C 45.52367782592773 12.19308280944824 45.34564590454102 12.27500057220459 45.16769790649414 12.27500057220459 Z" stroke="none" fill="#000"/></g><line x2="3" transform="translate(1 4.014)" fill="none" stroke="#000" stroke-linecap="round" stroke-width="1"/></g><g transform="translate(5.333 0)"><g transform="translate(0 -2)" fill="none"><path d="M0,0H5V16H0Z" stroke="none"/><path d="M 1 1 L 1 15 L 4 15 L 4 1 L 1 1 M 0 0 L 5 0 L 5 16 L 0 16 L 0 0 Z" stroke="none" fill="#000"/></g><line x2="2" transform="translate(0.5 1.5)" fill="none" stroke="#000" stroke-linecap="round" stroke-width="1"/><line x2="2" transform="translate(0.5 4.5)" fill="none" stroke="#000" stroke-linecap="round" stroke-width="1"/><line x2="2" transform="translate(0.5 7.5)" fill="none" stroke="#000" stroke-linecap="round" stroke-width="1"/><line x2="2" transform="translate(0.5 10.5)" fill="none" stroke="#000" stroke-linecap="round" stroke-width="1"/></g></g></svg>