<svg xmlns="http://www.w3.org/2000/svg" width="16.002" height="16" viewBox="0 0 16.002 16"><rect width="16" height="16" transform="translate(0.001)" fill="#fff" opacity="0"/><g transform="translate(2.668 2.666)"><path d="M12793.834,21130.836a2.991,2.991,0,0,1-.779-.1l.9-.9a2,2,0,0,0,1.872-1.871l.9-.9a3,3,0,0,1-2.9,3.779Zm-2.9-2.225v0a2.923,2.923,0,0,1-.1-.775,3,3,0,0,1,3.776-2.9l-.9.9a2,2,0,0,0-1.869,1.869l-.9.9Z" transform="translate(-12788.5 -21122.5)" fill="#040405"/><path d="M12793.834,21132.836a10.545,10.545,0,0,1-2.576-.307l.843-.842a10.108,10.108,0,0,0,1.733.145,8.81,8.81,0,0,0,3.507-.668,6.782,6.782,0,0,0,2.8-2.232,5.814,5.814,0,0,0,.642-1.088,6.942,6.942,0,0,0-2.223-2.619l.717-.717a7.954,7.954,0,0,1,.864.742,7.439,7.439,0,0,1,1.665,2.445.378.378,0,0,1,.006.266,6.326,6.326,0,0,1-.859,1.564,7.846,7.846,0,0,1-3.215,2.557A9.822,9.822,0,0,1,12793.834,21132.836Zm-5.472-1.652v0a7.51,7.51,0,0,1-.887-.766,6.879,6.879,0,0,1-1.618-2.455.377.377,0,0,1,0-.266,6.847,6.847,0,0,1,.9-1.555,8.052,8.052,0,0,1,3.23-2.551,9.485,9.485,0,0,1,3.846-.754h.011a10.309,10.309,0,0,1,2.56.311l-.838.838a9.646,9.646,0,0,0-1.722-.15h-.011a8.581,8.581,0,0,0-3.448.668,7.056,7.056,0,0,0-2.827,2.238,1.662,1.662,0,0,0,.631,2.971,6.651,6.651,0,0,0,.9.754l-.717.717Z" transform="translate(-12788.5 -21122.5)"/><line y1="14" x2="14" transform="translate(-1.667 -1.666)" fill="none" stroke="#000" stroke-linecap="round" stroke-miterlimit="10" stroke-width="1"/></g></svg>