<svg xmlns="http://www.w3.org/2000/svg" width="17.003" height="16" viewBox="0 0 17.003 16"><g transform="translate(0.502)"><rect width="16" height="16" transform="translate(0)" fill="#fff" opacity="0"/><g transform="translate(0 2.001)"><path d="M20.48,13.363a7.364,7.364,0,0,0-1.669-2.445,8.014,8.014,0,0,0-2.457-1.665A9.537,9.537,0,0,0,12.5,8.5a9.534,9.534,0,0,0-3.85.753,8.021,8.021,0,0,0-3.23,2.553,6.641,6.641,0,0,0-.9,1.557.4.4,0,0,0,0,.264A7.005,7.005,0,0,0,6.146,16.08,7.817,7.817,0,0,0,8.6,17.747a9.738,9.738,0,0,0,3.9.753,9.738,9.738,0,0,0,3.9-.753,7.772,7.772,0,0,0,3.213-2.558,6.334,6.334,0,0,0,.861-1.562A.4.4,0,0,0,20.48,13.363Z" transform="translate(-4.504 -7.5)" fill="none" stroke="#000" stroke-width="1"/><circle cx="3" cy="3" r="3" transform="translate(5 3)" fill="none" stroke="#000" stroke-width="1"/></g></g></svg>