<svg xmlns="http://www.w3.org/2000/svg" width="16" height="16.009" viewBox="0 0 16 16.009"><rect width="16" height="16" transform="translate(16 16) rotate(180)" fill="#fff" opacity="0"/><g transform="translate(0.5 1.5)"><rect width="3" height="8" rx="1" transform="translate(12 0)" fill="none" stroke="#000" stroke-linejoin="round" stroke-width="1"/><path d="M11.788,10.656h.749l-.059.4h-.69a.978.978,0,1,0,0,1.956h1.5l3.5-.013s-.918,3.612,1.3,4.8c1.424.686,1.7-.6,1.7-.6V14.5l1-.5s1.992-1.2,2-2.5v-6a1.314,1.314,0,0,0-1.5-1.5h-8a1.1,1.1,0,0,0-1.12.978.993.993,0,0,0,1,.978h.068l-.059.4h-.7a.978.978,0,1,0,0,1.955h.408l-.059.4H11.788a.978.978,0,1,0,0,1.956Z" transform="translate(-10.786 -3.997)" fill="none" stroke="#000" stroke-linecap="round" stroke-linejoin="round" stroke-width="1"/></g></svg>