<svg xmlns="http://www.w3.org/2000/svg" viewBox="0 0 16 16">
    <g transform="translate(1.999 3.332)">
        <g transform="translate(-12668 -18787)" fill="none">
            <path
                d="M12672,18795.045v-.359l-3.5,1.789a1.7,1.7,0,0,1-2.5-1.43v-6.752a1.7,1.7,0,0,1,2.5-1.428l3.5,1.785v-.357a1.7,1.7,0,0,1,2.5-1.428l6.6,3.373a1.588,1.588,0,0,1,0,2.857l-6.6,3.379a1.775,1.775,0,0,1-.8.2A1.665,1.665,0,0,1,12672,18795.045Z"
                stroke="none" />
            <path
                d="M 12673.7021484375 18795.669921875 C 12673.8212890625 18795.669921875 12673.939453125 18795.640625 12674.0498046875 18795.583984375 L 12680.6513671875 18792.205078125 C 12680.9658203125 18792.044921875 12681 18791.77734375 12681.0009765625 18791.669921875 C 12681.0009765625 18791.5625 12680.966796875 18791.291015625 12680.650390625 18791.12890625 L 12674.0517578125 18787.755859375 C 12673.939453125 18787.69921875 12673.822265625 18787.669921875 12673.701171875 18787.669921875 C 12673.3642578125 18787.669921875 12673.0009765625 18787.908203125 12673.0009765625 18788.29296875 L 12673.0009765625 18790.283203125 L 12668.0498046875 18787.755859375 C 12667.939453125 18787.69921875 12667.8232421875 18787.669921875 12667.703125 18787.669921875 C 12667.365234375 18787.669921875 12667.0009765625 18787.908203125 12667.0009765625 18788.29296875 L 12667.0009765625 18795.044921875 C 12667.0009765625 18795.212890625 12667.06640625 18795.357421875 12667.1943359375 18795.474609375 C 12667.330078125 18795.59765625 12667.515625 18795.669921875 12667.703125 18795.669921875 C 12667.8232421875 18795.669921875 12667.939453125 18795.640625 12668.0498046875 18795.583984375 L 12673.0009765625 18793.05078125 L 12673.0009765625 18795.044921875 C 12673.0009765625 18795.431640625 12673.365234375 18795.669921875 12673.7021484375 18795.669921875 M 12673.7021484375 18796.669921875 C 12672.810546875 18796.669921875 12672.0009765625 18795.98828125 12672.0009765625 18795.044921875 L 12672.0009765625 18794.685546875 L 12668.505859375 18796.474609375 C 12667.373046875 18797.056640625 12666 18796.271484375 12666.0009765625 18795.044921875 L 12666.0009765625 18788.29296875 C 12666.001953125 18787.0703125 12667.3740234375 18786.28515625 12668.505859375 18786.865234375 L 12672.0009765625 18788.650390625 L 12672.0009765625 18788.29296875 C 12672.001953125 18787.0703125 12673.3681640625 18786.28515625 12674.505859375 18786.865234375 L 12681.10546875 18790.23828125 C 12682.298828125 18790.8515625 12682.298828125 18792.48828125 12681.10546875 18793.095703125 L 12674.505859375 18796.474609375 C 12674.244140625 18796.607421875 12673.96875 18796.669921875 12673.7021484375 18796.669921875 Z"
                stroke="none" fill="#000" />
        </g>
        <g transform="translate(8.001 -0.332) rotate(90)" fill="none">
            <path d="M3.57.9A1.589,1.589,0,0,1,6.43.9L9.805,7.5A1.7,1.7,0,0,1,8.375,10H1.625A1.7,1.7,0,0,1,.195,7.5Z"
                stroke="none" />
            <path
                d="M 4.999999046325684 0.9999933242797852 C 4.891819000244141 0.9999933242797852 4.622629165649414 1.034342765808105 4.4599289894104 1.352513313293457 L 1.084918975830078 7.952512741088867 C 0.9629993438720703 8.190942764282227 0.9732389450073242 8.468993186950684 1.112309455871582 8.69631290435791 C 1.181698799133301 8.809732437133789 1.340569496154785 9.000002861022949 1.62498950958252 9.000002861022949 L 8.375019073486328 9.000002861022949 C 8.659429550170898 9.000002861022949 8.818299293518066 8.809732437133789 8.887688636779785 8.696323394775391 C 9.026759147644043 8.469002723693848 9.036998748779297 8.190942764282227 8.915079116821289 7.952512741088867 L 5.540069103240967 1.352522850036621 C 5.377358913421631 1.034342765808105 5.108179092407227 0.9999933242797852 4.999999046325684 0.9999933242797852 M 4.999999046325684 -1.9073486328125e-06 C 5.56226634979248 -1.9073486328125e-06 6.124534130096436 0.2990732192993164 6.430408954620361 0.8972225189208984 L 9.805418968200684 7.497222900390625 C 10.38452911376953 8.629702568054199 9.60136890411377 10.00000286102295 8.375019073486328 10.00000286102295 L 1.62498950958252 10.00000286102295 C 0.3986291885375977 10.00000286102295 -0.3845310211181641 8.629702568054199 0.1945791244506836 7.497222900390625 L 3.569589138031006 0.8972225189208984 C 3.875463962554932 0.2990732192993164 4.437731742858887 -1.9073486328125e-06 4.999999046325684 -1.9073486328125e-06 Z"
                stroke="none" fill="#000" />
        </g>
    </g>
</svg>