<svg xmlns="http://www.w3.org/2000/svg" width="16" height="16" viewBox="0 0 16 16"><rect width="16" height="16" transform="translate(0)" fill="#fff" opacity="0"/><g transform="translate(0 3)"><g transform="translate(15.999 10.002) rotate(180)" fill="none"><path d="M6,1.625v.359L2.5.2A1.7,1.7,0,0,0,0,1.625V8.377A1.7,1.7,0,0,0,2.5,9.8L6,8.02v.357A1.7,1.7,0,0,0,8.5,9.8l6.6-3.373a1.588,1.588,0,0,0,0-2.857L8.5.2A1.775,1.775,0,0,0,7.7,0,1.665,1.665,0,0,0,6,1.625Z" stroke="none"/><path d="M 7.701175689697266 1 C 7.363955497741699 1 6.999996185302734 1.238949775695801 6.999996185302734 1.625 L 6.999996185302734 3.619639873504639 L 2.04909610748291 1.085399627685547 C 1.938705444335938 1.02886962890625 1.822065353393555 1.000209808349609 1.702415466308594 1.000209808349609 C 1.364605903625488 1.000209808349609 0.9999961853027344 1.239080429077148 0.9999961853027344 1.625 L 0.9999961853027344 8.376950263977051 C 0.9999961853027344 8.761670112609863 1.36452579498291 8.999810218811035 1.702256202697754 8.999810218811035 C 1.821986198425293 8.999810218811035 1.938685417175293 8.971139907836914 2.050025939941406 8.914130210876465 L 6.999996185302734 6.385879993438721 L 6.999996185302734 8.376950263977051 C 6.999996185302734 8.761670112609863 7.363696098327637 8.999810218811035 7.700665473937988 8.999810218811035 C 7.821075439453125 8.999810218811035 7.938715934753418 8.970930099487305 8.049785614013672 8.914250373840332 L 14.64741611480713 5.542220115661621 C 14.96583557128906 5.378570079803467 14.99972534179688 5.108230113983154 14.99951553344727 4.999589920043945 C 14.99930572509766 4.892230033874512 14.96491622924805 4.625259876251221 14.64876556396484 4.464340209960938 L 8.052366256713867 1.08705997467041 C 7.938515663146973 1.029290199279785 7.820365905761719 1 7.701175689697266 1 M 7.701175689697266 0 C 7.967775344848633 0 8.243165969848633 0.0625 8.504885673522949 0.1953096389770508 L 15.10449600219727 3.574220180511475 C 16.29785537719727 4.181640148162842 16.29785537719727 5.818359851837158 15.10449600219727 6.431639671325684 L 8.504885673522949 9.804690361022949 C 7.368165016174316 10.38477039337158 5.999996185302734 9.601559638977051 5.999996185302734 8.376950263977051 L 5.999996185302734 8.019530296325684 L 2.504885673522949 9.804690361022949 C 1.372066497802734 10.38476943969727 -3.814697265625e-06 9.601560592651367 -3.814697265625e-06 8.376950263977051 L -3.814697265625e-06 1.625 C -3.814697265625e-06 0.3984403610229492 1.372067451477051 -0.3847675323486328 2.504885673522949 0.1953096389770508 L 5.999996185302734 1.984370231628418 L 5.999996185302734 1.625 C 5.999996185302734 0.6816396713256836 6.809565544128418 0 7.701175689697266 0 Z" stroke="none" fill="#000"/></g><g transform="translate(15.999) rotate(90)" fill="none"><path d="M3.57,9.1a1.589,1.589,0,0,0,2.861,0L9.805,2.5A1.7,1.7,0,0,0,8.375,0H1.625A1.7,1.7,0,0,0,.195,2.5Z" stroke="none"/><path d="M 4.999999046325684 9.000006675720215 C 5.108179092407227 9.000006675720215 5.377368927001953 8.965657234191895 5.540069103240967 8.647486686706543 L 8.915079116821289 2.047487020492554 C 9.036998748779297 1.809057116508484 9.026759147644043 1.530997037887573 8.887688636779785 1.303677082061768 C 8.818299293518066 1.190267086029053 8.659428596496582 0.999997079372406 8.375019073486328 0.999997079372406 L 1.624989032745361 0.999997079372406 C 1.340569019317627 0.999997079372406 1.18169903755188 1.190267086029053 1.112309098243713 1.30368709564209 C 0.9732390642166138 1.531007051467896 0.9629990458488464 1.809057116508484 1.084919095039368 2.047487020492554 L 4.4599289894104 8.647477149963379 C 4.622639179229736 8.965657234191895 4.891819000244141 9.000006675720215 4.999999046325684 9.000006675720215 M 4.999999046325684 10.00000190734863 C 4.437731742858887 10.00000190734863 3.875463962554932 9.700926780700684 3.569589138031006 9.102777481079102 L 0.1945790499448776 2.502777099609375 C -0.3845309615135193 1.370297074317932 0.3986290395259857 -2.913513071689522e-06 1.624989032745361 -2.913513071689522e-06 L 8.375019073486328 -2.913513071689522e-06 C 9.60136890411377 -2.913513071689522e-06 10.38452911376953 1.370297074317932 9.805418968200684 2.502777099609375 L 6.430408954620361 9.102777481079102 C 6.124534130096436 9.700926780700684 5.56226634979248 10.00000190734863 4.999999046325684 10.00000190734863 Z" stroke="none" fill="#000"/></g></g></svg>