<svg xmlns="http://www.w3.org/2000/svg" width="16" height="16" viewBox="0 0 16 16"><rect width="16" height="16" fill="#fff" opacity="0"/><g transform="translate(-232 -5782)"><path d="M13261.284,23185.5a.731.731,0,0,1-.786-.832v-9.332a.732.732,0,0,1,.786-.838h4.219v-3.166a.727.727,0,0,1,.785-.832h4.5l2.712,2.705v7.461a.731.731,0,0,1-.792.832h-4.213v3.17a.727.727,0,0,1-.785.832Z" transform="translate(-13027 -17388)" fill="rgba(0,0,0,0)" stroke="#000" stroke-linejoin="round" stroke-width="1"/><g transform="translate(234.333 5788)"><g transform="translate(-132.648 -7)" fill="none" stroke-linejoin="round"><path d="M140.315,8v7.667A1.216,1.216,0,0,1,139.029,17H132.6a1.216,1.216,0,0,1-1.286-1.333V6.333A1.216,1.216,0,0,1,132.6,5h4.715Z" stroke="none"/><path d="M 132.6002197265625 6.000001907348633 C 132.4343109130859 6.000001907348633 132.3144226074219 6.000001907348633 132.3144226074219 6.333331108093262 L 132.3144226074219 15.66667079925537 C 132.3144226074219 16 132.4343109130859 16 132.6002197265625 16 L 139.0291137695312 16 C 139.1950378417969 16 139.3149108886719 16 139.3149108886719 15.66663074493408 L 139.3151702880859 8.414206504821777 L 136.9009704589844 6.000001907348633 L 132.6002197265625 6.000001907348633 M 132.6002197265625 5.000001907348633 L 137.315185546875 5.000001907348633 L 140.315185546875 8.000000953674316 L 140.3149108886719 15.66667079925537 C 140.3149108886719 16.49521064758301 139.8161468505859 17 139.0291137695312 17 L 132.6002197265625 17 C 131.8132019042969 17 131.3144226074219 16.49521064758301 131.3144226074219 15.66667079925537 L 131.3144226074219 6.333331108093262 C 131.3144226074219 5.504791259765625 131.8132019042969 5.000001907348633 132.6002197265625 5.000001907348633 Z" stroke="none" fill="#000"/></g><path d="M145.478,8.917h-3v-3Z" transform="translate(-138.312 -7.416)" stroke="#000" stroke-linejoin="round" stroke-width="1"/></g><path d="M145.478,8.917h-3v-3Z" transform="translate(101.021 5776.584)" stroke="#000" stroke-linejoin="round" stroke-width="1"/></g></svg>