<svg xmlns="http://www.w3.org/2000/svg" viewBox="0 0 16 16">
    <g transform="translate(3.334 2)">
        <path d="M1,0H6" transform="translate(1.166 7)" fill="none" stroke="#000" stroke-linecap="round"
            stroke-width="1" />
        <g transform="translate(-0.001)">
            <g transform="translate(-132.648 -7)" fill="none" stroke-linejoin="round">
                <path
                    d="M143.315,9V19.222A1.621,1.621,0,0,1,141.6,21h-8.572a1.621,1.621,0,0,1-1.714-1.778V6.778A1.621,1.621,0,0,1,133.029,5h6.287Z"
                    stroke="none" />
                <path
                    d="M 133.0288238525391 6.000001907348633 C 132.6755676269531 6.000001907348633 132.3144378662109 6.092411041259766 132.3144378662109 6.777780532836914 L 132.3144378662109 19.22222137451172 C 132.3144378662109 19.90759086608887 132.6755676269531 20 133.0288238525391 20 L 141.6006927490234 20 C 141.9539489746094 20 142.3150787353516 19.90759086608887 142.3150787353516 19.22219085693359 L 142.3154144287109 9.414207458496094 L 138.9012145996094 6.000001907348633 L 133.0288238525391 6.000001907348633 M 133.0288238525391 5.000001907348633 L 139.3154296875 5.000001907348633 L 143.3154296875 9.000001907348633 L 143.3150787353516 19.22222137451172 C 143.3150787353516 20.32695007324219 142.6500549316406 21 141.6006927490234 21 L 133.0288238525391 21 C 131.9794616699219 21 131.3144378662109 20.32695007324219 131.3144378662109 19.22222137451172 L 131.3144378662109 6.777780532836914 C 131.3144378662109 5.673051834106445 131.9794616699219 5.000001907348633 133.0288238525391 5.000001907348633 Z"
                    stroke="none" fill="#000" />
            </g>
            <path d="M146.478,9.917h-4v-4Z" transform="translate(-136.312 -7.415)" stroke="#000" stroke-linejoin="round"
                stroke-width="1" />
        </g>
    </g>
</svg>