<svg xmlns="http://www.w3.org/2000/svg" width="16" height="16.009" viewBox="0 0 16 16.009"><rect width="16" height="16" fill="#fff" opacity="0"/><g transform="translate(1.999 0)"><g transform="translate(674.752 -65.96)" fill="none" stroke-linejoin="round"><path d="M-674.378,65.963l11.252,0a1.335,1.335,0,0,1,1.173,2.029l-3.64,5.3a1.04,1.04,0,0,0-.159.552v7.281a.87.87,0,0,1-1.419.652l-3.95-2.268a1.67,1.67,0,0,1-.631-1.3V73.938a1.652,1.652,0,0,0-.157-.707l-3.643-5.242A1.335,1.335,0,0,1-674.378,65.963Z" stroke="none"/><path d="M -663.1260986328125 66.95998382568359 L -663.1259155273438 66.95998382568359 L -674.3779296875 66.96265411376953 C -674.5850830078125 66.96265411376953 -674.6798095703125 67.09273529052734 -674.7109375 67.14866638183594 C -674.7493896484375 67.21779632568359 -674.779541015625 67.32441711425781 -674.711669921875 67.44607543945312 L -671.088134765625 72.66078948974609 C -671.078857421875 72.67414093017578 -671.0699462890625 72.68769836425781 -671.0613403320312 72.70148468017578 C -670.7606201171875 73.18267059326172 -670.751953125 73.86204528808594 -670.751953125 73.93792724609375 L -670.751953125 78.205078125 C -670.751953125 78.38613128662109 -670.67578125 78.55857849121094 -670.5411376953125 78.68667602539062 L -666.751953125 80.86200714111328 L -666.751953125 73.84224700927734 C -666.751953125 73.46012878417969 -666.6444702148438 73.08613586425781 -666.441162109375 72.76070404052734 C -666.4335327148438 72.74848937988281 -666.4256591796875 72.73643493652344 -666.41748046875 72.72455596923828 L -662.793701171875 67.44622802734375 C -662.7238159179688 67.32410430908203 -662.7539672851562 67.21654510498047 -662.7926025390625 67.14689636230469 C -662.82373046875 67.0906982421875 -662.9185791015625 66.96000671386719 -663.1260986328125 66.95998382568359 M -663.1261596679688 65.95998382568359 C -662.0560302734375 65.95998382568359 -661.3973999023438 67.09939575195312 -661.9533081054688 67.98892974853516 L -665.5930786132812 73.29055023193359 C -665.6971435546875 73.45713043212891 -665.751953125 73.64768981933594 -665.751953125 73.84224700927734 L -665.751953125 81.123046875 C -665.751953125 81.83664703369141 -666.6050415039062 82.22783660888672 -667.170654296875 81.77470397949219 L -671.1206665039062 79.50704956054688 C -671.5203857421875 79.18655395507812 -671.751953125 78.70879364013672 -671.751953125 78.205078125 L -671.751953125 73.93792724609375 C -671.751953125 73.74403381347656 -671.8060913085938 73.39667510986328 -671.9093627929688 73.23141479492188 L -675.5521850585938 67.98892974853516 C -676.1047973632812 67.09872436523438 -675.4468383789062 65.96265411376953 -674.3779296875 65.96265411376953 L -663.1261596679688 65.95998382568359 Z" stroke="none" fill="#000"/></g></g></svg>