<svg xmlns="http://www.w3.org/2000/svg" width="16" height="16.009" viewBox="0 0 16 16.009">
    <rect transform="translate(0 0.001)" fill="#fff" opacity="0" />
    <g transform="translate(3.333 2.001)">
        <g transform="translate(673.419 -67.961)" stroke-linejoin="round">
            <path
                d="M -666.623779296875 81.46867370605469 C -666.70947265625 81.46867370605469 -666.788330078125 81.44034576416016 -666.8580322265625 81.38449096679688 L -666.88818359375 81.36032867431641 L -666.9216918945312 81.34108734130859 L -670.8352661132812 79.09435272216797 C -671.1005249023438 78.86886596679688 -671.251953125 78.54673767089844 -671.251953125 78.205078125 L -671.251953125 73.93792724609375 C -671.251953125 73.73109436035156 -671.3007202148438 73.26187896728516 -671.4853515625 72.96644592285156 L -671.4918212890625 72.95611572265625 L -671.498779296875 72.94610595703125 L -675.1333618164062 67.7154541015625 C -675.2872314453125 67.46045684814453 -675.2926635742188 67.16593933105469 -675.1478881835938 66.90561676025391 C -674.9935913085938 66.62825012207031 -674.7057495117188 66.46265411376953 -674.3779296875 66.46265411376953 L -663.1260375976562 66.45998382568359 C -662.7977294921875 66.45998382568359 -662.509521484375 66.62615966796875 -662.3552856445312 66.90449523925781 C -662.21044921875 67.165771484375 -662.216796875 67.46089172363281 -662.3721923828125 67.71567535400391 L -666.0053100585938 73.00754547119141 L -666.0114135742188 73.01646423339844 L -666.0171508789062 73.02565002441406 C -666.1707763671875 73.27154541015625 -666.251953125 73.55392456054688 -666.251953125 73.84224700927734 L -666.251953125 81.123046875 C -666.251953125 81.3614501953125 -666.4693603515625 81.46867370605469 -666.623779296875 81.46867370605469 Z"
                stroke="none" />
            <path
                d="M -663.1260986328125 66.95998382568359 L -663.1259155273438 66.95998382568359 L -674.3779296875 66.96265411376953 C -674.5850830078125 66.96265411376953 -674.6798095703125 67.09273529052734 -674.7109375 67.14866638183594 C -674.7493896484375 67.21779632568359 -674.779541015625 67.32441711425781 -674.711669921875 67.44607543945312 L -671.088134765625 72.66078948974609 C -671.078857421875 72.67414093017578 -671.0699462890625 72.68769836425781 -671.0613403320312 72.70148468017578 C -670.7606201171875 73.18267059326172 -670.751953125 73.86204528808594 -670.751953125 73.93792724609375 L -670.751953125 78.205078125 C -670.751953125 78.38613128662109 -670.67578125 78.55857849121094 -670.5411376953125 78.68667602539062 L -666.751953125 80.86200714111328 L -666.751953125 73.84224700927734 C -666.751953125 73.46012878417969 -666.6444702148438 73.08613586425781 -666.441162109375 72.76070404052734 C -666.4335327148438 72.74848937988281 -666.4256591796875 72.73643493652344 -666.41748046875 72.72455596923828 L -662.793701171875 67.44622802734375 C -662.7238159179688 67.32410430908203 -662.7539672851562 67.21654510498047 -662.7926025390625 67.14689636230469 C -662.82373046875 67.0906982421875 -662.9185791015625 66.96000671386719 -663.1260986328125 66.95998382568359 M -663.1261596679688 65.95998382568359 C -662.0560302734375 65.95998382568359 -661.3973999023438 67.09939575195312 -661.9533081054688 67.98892974853516 L -665.5930786132812 73.29055023193359 C -665.6971435546875 73.45713043212891 -665.751953125 73.64768981933594 -665.751953125 73.84224700927734 L -665.751953125 81.123046875 C -665.751953125 81.83664703369141 -666.6050415039062 82.22783660888672 -667.170654296875 81.77470397949219 L -671.1206665039062 79.50704956054688 C -671.5203857421875 79.18655395507812 -671.751953125 78.70879364013672 -671.751953125 78.205078125 L -671.751953125 73.93792724609375 C -671.751953125 73.74403381347656 -671.8060913085938 73.39667510986328 -671.9093627929688 73.23141479492188 L -675.5521850585938 67.98892974853516 C -676.1047973632812 67.09872436523438 -675.4468383789062 65.96265411376953 -674.3779296875 65.96265411376953 L -663.1261596679688 65.95998382568359 Z"
                stroke="none" fill="#000" />
        </g>
    </g>
</svg>