<svg xmlns="http://www.w3.org/2000/svg" viewBox="0 0 16 16">
    <g transform="translate(-0.156 1.518)">
        <g transform="translate(0.156 0.482)" fill="none">
            <path
                d="M2,12a2,2,0,0,1-2-2V3c0-.02,0-.04,0-.06V.6A1.638,1.638,0,0,1,1.43-1l5,0,.693,0L8.559,1H14a2,2,0,0,1,2,2v7a2,2,0,0,1-2,2Z"
                stroke="none" />
            <path
                d="M 14.00040054321289 10.99970054626465 C 14.55169010162354 10.99970054626465 15.00020027160645 10.55079078674316 15.00020027160645 9.999000549316406 L 15.00020027160645 2.999700307846069 C 15.00020027160645 2.447910308837891 14.55169010162354 1.999000310897827 14.00040054321289 1.999000310897827 L 8.046740531921387 1.999000310897827 L 6.609145641326904 0.000567753566429019 L 6.429960250854492 0.0001003410361590795 L 1.435529828071594 0.001898515853099525 C 1.313629150390625 0.01016018912196159 1.001800298690796 0.3027100265026093 1.001800298690796 0.6039003133773804 L 1.001370310783386 2.969350337982178 C 1.001080274581909 2.979450225830078 1.000900268554688 2.989530324935913 1.000900268554688 2.999700307846069 L 1.000900268554688 9.999000549316406 C 1.000900268554688 10.55079078674316 1.449410319328308 10.99970054626465 2.000700235366821 10.99970054626465 L 14.00040054321289 10.99970054626465 M 14.00040054321289 11.99970054626465 L 2.000700235366821 11.99970054626465 C 0.8964002728462219 11.99970054626465 0.0009002700680866838 11.10420036315918 0.0009002700680866838 9.999000549316406 L 0.0009002700680866838 2.999700307846069 C 0.0009002700680866838 2.979730367660522 0.001220270060002804 2.959940433502197 0.001800270052626729 2.940110445022583 C 0.001800270052626729 2.634180307388306 0.001800270052626729 1.307190299034119 0.001800270052626729 0.6039003133773804 C 0.001800270052626729 -0.1970996558666229 0.7128002643585205 -0.994499683380127 1.430100321769714 -0.998099684715271 L 6.429600238800049 -0.999899685382843 L 7.122600078582764 -0.998099684715271 L 8.559240341186523 0.9990003705024719 L 14.00040054321289 0.9990003705024719 C 15.10470008850098 0.9990003705024719 16.00020027160645 1.894500374794006 16.00020027160645 2.999700307846069 L 16.00020027160645 9.999000549316406 C 16.00020027160645 11.10420036315918 15.10470008850098 11.99970054626465 14.00040054321289 11.99970054626465 Z"
                stroke="none" fill="#000" />
        </g>
        <path d="M3.1,16.588l4-5.5h10" transform="translate(-1.947 -5.105)" fill="none" stroke="#000"
            stroke-linejoin="round" stroke-width="1" />
    </g>
</svg>