<svg xmlns="http://www.w3.org/2000/svg" width="16" height="16.001" viewBox="0 0 16 16.001"><g transform="translate(0)"><rect width="16" height="16" fill="#fff" opacity="0"/><g transform="translate(1.333 2)"><g transform="translate(5.667 7)" fill="none" stroke="#000" stroke-width="1"><rect width="5" height="5" rx="2.5" stroke="none"/><rect x="0.5" y="0.5" width="4" height="4" rx="2" fill="none"/></g><g transform="translate(-1.333 5)" fill="none" stroke="#000" stroke-width="1"><rect width="6" height="6" rx="3" stroke="none"/><rect x="0.5" y="0.5" width="5" height="5" rx="2.5" fill="none"/></g><path d="M0,0A2,2,0,0,1,2,2,2,2,0,0,1,0,4" transform="translate(6.167 14.001) rotate(-90)" fill="none" stroke="#000" stroke-linejoin="round" stroke-width="1"/><path d="M0,0A2.5,2.5,0,0,1,2.5,2.5,2.5,2.5,0,0,1,0,5" transform="translate(-0.833 14.001) rotate(-90)" fill="none" stroke="#000" stroke-linejoin="round" stroke-width="1"/><g transform="translate(9.167 -1)"><line x2="6" transform="translate(-1 2.5)" fill="none" stroke="#000" stroke-linecap="round" stroke-miterlimit="10" stroke-width="1"/><line y2="6" transform="translate(2 -0.5)" fill="none" stroke="#000" stroke-linecap="round" stroke-miterlimit="10" stroke-width="1"/></g></g></g></svg>