<svg xmlns="http://www.w3.org/2000/svg" viewBox="0 0 16 16">
    <g transform="translate(0)">
        <g transform="translate(1.333 1.334)">
            <g transform="translate(-1.333 0.666)" fill="none" stroke="#000" stroke-width="1">
                <rect width="8" height="8" rx="4" stroke="none" />
                <rect x="0.5" y="0.5" width="7" height="7" rx="3.5" fill="none" />
            </g>
            <path d="M0,0A3.5,3.5,0,0,1,3.5,3.5,3.5,3.5,0,0,1,0,7" transform="translate(-0.833 12.666) rotate(-90)"
                fill="none" stroke="#000" stroke-linejoin="round" stroke-width="1" />
            <path d="M0,0A2.5,2.5,0,0,1,2.5,2.5,2.5,2.5,0,0,1,0,5" transform="translate(9.167 12.666) rotate(-90)"
                fill="none" stroke="#000" stroke-linejoin="round" stroke-width="1" />
            <g transform="translate(8.667 3.666)" fill="none" stroke="#000" stroke-width="1">
                <rect width="6" height="6" rx="3" stroke="none" />
                <rect x="0.5" y="0.5" width="5" height="5" rx="2.5" fill="none" />
            </g>
        </g>
    </g>
</svg>