<svg xmlns="http://www.w3.org/2000/svg" width="16" height="16" viewBox="0 0 16 16"><rect width="16" height="16" fill="#fff" opacity="0"/><g transform="translate(0 1)"><g transform="translate(554 -67.531)" fill="none" stroke-miterlimit="10"><path d="M-542.466,67.531a4.431,4.431,0,0,0-3.158,1.312l-.376.377-.376-.377a4.431,4.431,0,0,0-3.158-1.312,4.431,4.431,0,0,0-3.158,1.312A4.458,4.458,0,0,0-554,72.01a4.457,4.457,0,0,0,1.308,3.167l6.083,6.1a.858.858,0,0,0,.609.253.861.861,0,0,0,.61-.253l6.082-6.1A4.458,4.458,0,0,0-538,72.01a4.457,4.457,0,0,0-1.308-3.167A4.431,4.431,0,0,0-542.466,67.531Z" stroke="none"/><path d="M -549.5339965820312 68.53101348876953 C -550.4594116210938 68.53101348876953 -551.3295288085938 68.89251708984375 -551.98388671875 69.54894256591797 C -552.63916015625 70.20616149902344 -553 71.08026123046875 -553 72.01024627685547 C -553 72.94020080566406 -552.63916015625 73.81431579589844 -551.9839477539062 74.47149658203125 L -545.999755859375 80.47276306152344 L -540.0162353515625 74.47156524658203 C -539.3609008789062 73.81424713134766 -539 72.94012451171875 -539 72.01024627685547 C -539 71.08034515380859 -539.3609008789062 70.20624542236328 -540.0162353515625 69.5489501953125 C -540.670654296875 68.89252471923828 -541.5407104492188 68.53101348876953 -542.466064453125 68.53101348876953 C -543.3914184570312 68.53101348876953 -544.261474609375 68.89252471923828 -544.9158325195312 69.54889678955078 L -545.999755859375 70.63624572753906 L -547.0843505859375 69.54891967773438 C -547.73876953125 68.89251708984375 -548.6087036132812 68.53101348876953 -549.5339965820312 68.53101348876953 M -549.5339965820312 67.53101348876953 C -548.3413696289062 67.53101348876953 -547.2194213867188 67.99703979492188 -546.3761596679688 68.84290313720703 L -546 69.22001647949219 L -545.6240844726562 68.84290313720703 C -544.78076171875 67.99703979492188 -543.65869140625 67.53101348876953 -542.466064453125 67.53101348876953 C -541.2733764648438 67.53101348876953 -540.1513671875 67.99703979492188 -539.3080444335938 68.84290313720703 C -538.4647827148438 69.68871307373047 -538 70.81336975097656 -538 72.01024627685547 C -538 73.20643615722656 -538.4647827148438 74.33175659179688 -539.3080444335938 75.17759704589844 L -545.3900756835938 81.27760314941406 C -545.552001953125 81.44007110595703 -545.7714233398438 81.53101348876953 -546 81.53101348876953 C -546.2286987304688 81.53101348876953 -546.4480590820312 81.44007110595703 -546.609375 81.27760314941406 L -552.6920776367188 75.17759704589844 C -553.5353393554688 74.33175659179688 -554 73.20708465576172 -554 72.01024627685547 C -554 70.81405639648438 -553.5353393554688 69.68871307373047 -552.6920776367188 68.84290313720703 C -551.8488159179688 67.99703979492188 -550.7267456054688 67.53101348876953 -549.5339965820312 67.53101348876953 Z" stroke="none" fill="#000"/></g></g></svg>