<svg xmlns="http://www.w3.org/2000/svg" viewBox="0 0 16 16">
    <g transform="translate(0 1)">
        <g transform="translate(554 -67.531)" stroke-miterlimit="10">
            <path
                d="M -545.999755859375 80.47274780273438 L -551.9839477539062 74.47150421142578 C -552.63916015625 73.81432342529297 -553 72.94020080566406 -553 72.01023864746094 C -553 71.08026885986328 -552.63916015625 70.20616149902344 -551.98388671875 69.54892730712891 C -551.3294677734375 68.89250946044922 -550.4594116210938 68.53101348876953 -549.5339965820312 68.53101348876953 C -548.6087036132812 68.53101348876953 -547.73876953125 68.89250946044922 -547.0843505859375 69.54891967773438 L -546.7080078125 69.92622375488281 L -545.999755859375 70.63623809814453 L -545.2918090820312 69.92600250244141 L -544.9158325195312 69.54888916015625 C -544.261474609375 68.89252471923828 -543.3914184570312 68.53101348876953 -542.466064453125 68.53101348876953 C -541.5407104492188 68.53101348876953 -540.670654296875 68.89252471923828 -540.0161743164062 69.5489501953125 C -539.3609008789062 70.20623779296875 -539 71.08035278320312 -539 72.01023864746094 C -539 72.94013214111328 -539.3609008789062 73.81425476074219 -540.0162353515625 74.47157287597656 L -545.999755859375 80.47274780273438 Z"
                stroke="none" />
            <path
                d="M -549.5339965820312 69.53101348876953 C -550.1917724609375 69.53101348876953 -550.810302734375 69.78810882568359 -551.2756958007812 70.25497436523438 C -551.7427978515625 70.72344207763672 -552 71.34680938720703 -552 72.01023864746094 C -552 72.67366790771484 -551.7427978515625 73.29705047607422 -551.27587890625 73.76540374755859 L -545.999755859375 79.05648803710938 L -540.7244262695312 73.76554870605469 C -540.2572631835938 73.29697418212891 -540 72.67359161376953 -540 72.01023864746094 C -540 71.34689331054688 -540.2572631835938 70.72351837158203 -540.724365234375 70.2550048828125 C -541.1898193359375 69.78813171386719 -541.8084106445312 69.53101348876953 -542.466064453125 69.53101348876953 C -543.1237182617188 69.53101348876953 -543.7423095703125 69.78813171386719 -544.2076416015625 70.2548828125 L -545.9995727539062 72.05245971679688 L -547.7925415039062 70.25494384765625 C -548.2579345703125 69.78810882568359 -548.8764038085938 69.53101348876953 -549.5339965820312 69.53101348876953 M -549.5339965820312 67.53101348876953 C -548.3413696289062 67.53101348876953 -547.2194213867188 67.99704742431641 -546.3761596679688 68.84290313720703 L -546 69.22000885009766 L -545.6240844726562 68.84290313720703 C -544.78076171875 67.99704742431641 -543.65869140625 67.53101348876953 -542.466064453125 67.53101348876953 C -541.2733764648438 67.53101348876953 -540.1513671875 67.99704742431641 -539.3080444335938 68.84290313720703 C -538.4647827148438 69.688720703125 -538 70.81336975097656 -538 72.01023864746094 C -538 73.20642852783203 -538.4647827148438 74.33176422119141 -539.3080444335938 75.17760467529297 L -545.3900756835938 81.27760314941406 C -545.552001953125 81.44007873535156 -545.7714233398438 81.53102111816406 -546 81.53102111816406 C -546.2286987304688 81.53102111816406 -546.4480590820312 81.44007873535156 -546.609375 81.27760314941406 L -552.6920776367188 75.17760467529297 C -553.5353393554688 74.33176422119141 -554 73.20709228515625 -554 72.01023864746094 C -554 70.81404876708984 -553.5353393554688 69.688720703125 -552.6920776367188 68.84290313720703 C -551.8488159179688 67.99704742431641 -550.7267456054688 67.53101348876953 -549.5339965820312 67.53101348876953 Z"
                stroke="none" fill="#000" />
        </g>
    </g>
</svg>