<svg xmlns="http://www.w3.org/2000/svg" width="16" height="16" viewBox="0 0 16 16"><rect width="16" height="16" transform="translate(0)" fill="#fff" opacity="0"/><g transform="translate(-0.09 -0.352)"><g transform="translate(0.09 0.352)" fill="rgba(0,0,0,0)" stroke-miterlimit="10"><path d="M 6.500200271606445 14.49947547912598 L 5.000430107116699 14.49940013885498 C 4.14663028717041 14.49806976318359 3.501140117645264 13.77134037017822 3.49970006942749 12.80895042419434 L 3.49970006942749 7.999199867248535 L 3.49970006942749 7.499199867248535 L 2.99970006942749 7.499199867248535 L 0.9567001461982727 7.499199867248535 C 0.8324501514434814 7.499199867248535 0.7371201515197754 7.486480236053467 0.6567001342773438 7.459159851074219 C 0.5731701254844666 7.430240154266357 0.5416601300239563 7.396399974822998 0.5222301483154297 7.367249965667725 C 0.5104201436042786 7.349760055541992 0.499780148267746 7.318809986114502 0.4999901354312897 7.29095983505249 C 0.5001983642578125 7.249019145965576 0.5079524517059326 7.19917106628418 0.5624661445617676 7.111691474914551 C 0.6091914772987366 7.039515495300293 0.6727991104125977 6.969462394714355 0.7620422840118408 6.891958713531494 L 7.181450366973877 1.796520113945007 L 7.188390254974365 1.791020035743713 L 7.195120334625244 1.785280108451843 C 7.410820007324219 1.601250052452087 7.696700096130371 1.499900102615356 8.000100135803223 1.499900102615356 C 8.303520202636719 1.499900102615356 8.589179992675781 1.601380109786987 8.804470062255859 1.785660028457642 L 8.811530113220215 1.791700124740601 L 8.81881046295166 1.797470092773438 L 15.23848438262939 6.891508102416992 C 15.3276424407959 6.969587326049805 15.39114284515381 7.039757251739502 15.43764019012451 7.111541271209717 C 15.491868019104 7.198548793792725 15.49979400634766 7.249892711639404 15.50022983551025 7.292409896850586 C 15.50042057037354 7.318809986114502 15.48978042602539 7.349760055541992 15.47966003417969 7.364729881286621 L 15.47825050354004 7.366819858551025 L 15.4768705368042 7.368919849395752 C 15.46095561981201 7.39299201965332 15.43653964996338 7.414951324462891 15.40792465209961 7.430988788604736 C 15.3406867980957 7.466127872467041 15.24885272979736 7.498362064361572 15.04147052764893 7.499199867248535 L 13.0004997253418 7.499199867248535 L 12.5004997253418 7.499199867248535 L 12.5004997253418 7.999199867248535 L 12.5004997253418 12.99960041046143 C 12.49917030334473 13.89498043060303 11.89577007293701 14.49800968170166 10.99902057647705 14.49940013885498 L 9.5 14.49940013885498 L 9.5 11.00069999694824 L 9.5 10.50069999694824 L 9 10.50069999694824 L 7.000200271606445 10.50069999694824 L 6.500200271606445 10.50069999694824 L 6.500200271606445 11.00069999694824 L 6.500200271606445 14.49947547912598 Z" stroke="none"/><path d="M 6.000200271606445 13.99944972991943 L 6.000200271606445 10.00069999694824 L 10 10.00069999694824 L 10 13.99940013885498 L 10.99824047088623 13.99940013885498 C 11.62489032745361 13.9984302520752 11.9995698928833 13.62411022186279 12.0004997253418 12.99960041046143 L 12.0004997253418 6.999199867248535 L 14.56981563568115 6.999207973480225 L 8.479340553283691 2.165510177612305 C 8.354570388793945 2.058720111846924 8.184370040893555 1.999900102615356 8.000100135803223 1.999900102615356 C 7.815560340881348 1.999900102615356 7.644930362701416 2.058770179748535 7.51963996887207 2.165650129318237 L 7.492310047149658 2.18815016746521 L 1.431184887886047 6.999199867248535 L 3.99970006942749 6.999199867248535 L 3.99970006942749 12.8082103729248 C 4.000730037689209 13.49752998352051 4.422240257263184 13.99849987030029 5.000450134277344 13.99940013885498 L 6.000200271606445 13.99944972991943 M 7.000200271606445 14.9995002746582 L 5.000400066375732 14.99940013885498 C 3.861670017242432 14.99763011932373 3.001560211181641 14.05626010894775 2.99970006942749 12.80970001220703 L 2.99970006942749 7.999199867248535 L 0.9567001461982727 7.999199867248535 C 0.776120126247406 7.999199867248535 0.6296901106834412 7.978040218353271 0.4959001243114471 7.932600021362305 C 0.3229501247406006 7.872730255126953 0.1954801380634308 7.778520107269287 0.106200136244297 7.644599914550781 C 0.03779013454914093 7.543320178985596 -0.0009198642219416797 7.413080215454102 1.358032193365943e-07 7.287300109863281 C 0.0007701357826590538 7.135960102081299 0.0453801341354847 6.994969844818115 0.1404001414775848 6.843600273132324 C 0.2152901291847229 6.727020263671875 0.3113701343536377 6.620069980621338 0.4428001344203949 6.506999969482422 L 6.87060022354126 1.404900074005127 C 7.17671012878418 1.143740057945251 7.577850341796875 0.9999000430107117 8.000100135803223 0.9999000430107117 C 8.422659873962402 0.9999000430107117 8.823790550231934 1.144050121307373 9.129600524902344 1.405800104141235 L 15.55830001831055 6.506999969482422 C 15.68955993652344 6.620759963989258 15.78534984588623 6.727710247039795 15.85980033874512 6.843600273132324 C 15.95403003692627 6.993710041046143 15.9986400604248 7.134690284729004 16.00020027160645 7.287300109863281 C 16.00111961364746 7.413090229034424 15.96240997314453 7.543320178985596 15.89400005340576 7.644599914550781 C 15.83250999450684 7.737639904022217 15.74629974365234 7.816070079803467 15.644700050354 7.871399879455566 C 15.47735023498535 7.959949970245361 15.29755973815918 7.998169898986816 15.04349994659424 7.999199867248535 L 13.0004997253418 7.999199867248535 L 13.0004997253418 12.99960041046143 C 12.99874973297119 14.17522048950195 12.17603015899658 14.9975700378418 10.99979972839355 14.99940013885498 L 9 14.99940013885498 L 9 11.00069999694824 L 7.000200271606445 11.00069999694824 L 7.000200271606445 14.9995002746582 Z" stroke="none" fill="#000"/></g></g></svg>