<svg xmlns="http://www.w3.org/2000/svg" width="16" height="16" viewBox="0 0 16 16"><rect width="16" height="16" fill="#fff" opacity="0"/><g transform="translate(2 0.375)"><path d="M195.767,251.689c0-.33,1.2-1.03,1.833-1.667a6.017,6.017,0,0,0,1.833-4.167v-1.667h-11v1.667a6.014,6.014,0,0,0,1.833,4.167c.631.637,1.833,1.337,1.833,1.667s-1.2,1.03-1.833,1.667a6.015,6.015,0,0,0-1.833,4.167v1.667h11v-1.667a6.02,6.02,0,0,0-1.833-4.167C196.968,252.718,195.767,252.02,195.767,251.689Z" transform="translate(-187.933 -244.064)" fill="none" stroke="#000" stroke-linejoin="round" stroke-miterlimit="10" stroke-width="1"/><line x1="9" transform="translate(1.5 4.125)" fill="none" stroke="#000" stroke-linecap="round" stroke-miterlimit="10" stroke-width="1"/><ellipse cx="4" cy="1" rx="4" ry="1" transform="translate(2 13.625)"/></g></svg>