<svg xmlns="http://www.w3.org/2000/svg" width="16" height="16.007" viewBox="0 0 16 16.007"><g transform="translate(0 0.007)"><rect width="16" height="16" fill="#fff" opacity="0"/><g transform="translate(1.5 0.5)"><path d="M3.4,14.712l1-3.778a.158.158,0,0,1,.287-.047,1.762,1.762,0,0,0,3.161-.452A1.8,1.8,0,0,0,6.621,8.15a1.741,1.741,0,0,0-1.242.124.16.16,0,0,1-.225-.186l1-3.779L9.876,5.322a.161.161,0,0,0,.183-.229,1.812,1.812,0,0,1-.122-1.26A1.768,1.768,0,0,1,12.19,2.586,1.807,1.807,0,0,1,13.376,4.7a1.788,1.788,0,0,1-.741,1.089.162.162,0,0,0,.046.291L16.405,7.1,13.658,17.5Z" transform="translate(-3.405 -2.5)" fill="none" stroke="#000" stroke-linejoin="round" stroke-width="1"/></g></g></svg>