<svg xmlns="http://www.w3.org/2000/svg" width="16" height="16" viewBox="0 0 16 16"><rect width="16" height="16" fill="#fff" opacity="0"/><path d="M12197,18688a2.8,2.8,0,0,1-1.825-.648,2.119,2.119,0,0,1-.778-1.617v-.014l1-1v1.018a1.109,1.109,0,0,0,.432.854,1.784,1.784,0,0,0,1.173.408,1.8,1.8,0,0,0,1.173-.408,1.143,1.143,0,0,0,.431-.857v-1.924l.239-.281a10.14,10.14,0,0,0,1.524-2.252,6.226,6.226,0,0,0,.606-2.135l1-1a4.332,4.332,0,0,1,.022.434,7.244,7.244,0,0,1-.731,3.137,11.083,11.083,0,0,1-1.665,2.473v1.553a2.124,2.124,0,0,1-.784,1.617A2.772,2.772,0,0,1,12197,18688Zm-3.755-5.369v0a9,9,0,0,1-.513-.924,7.153,7.153,0,0,1-.731-3.133,4.328,4.328,0,0,1,1.473-3.242,5.336,5.336,0,0,1,7.055,0,.027.027,0,0,0,.006.008h0l0,0-.71.709a4.344,4.344,0,0,0-5.684.023,3.347,3.347,0,0,0-1.145,2.5,6.2,6.2,0,0,0,.633,2.7c.1.205.21.412.34.631l-.726.725Z" transform="translate(-12189 -18673)"/><line y1="14" x2="14" transform="translate(1 1)" fill="none" stroke="#000" stroke-linecap="round" stroke-miterlimit="10" stroke-width="1"/></svg>