<svg xmlns="http://www.w3.org/2000/svg" viewBox="0 0 16 16">
    <g transform="translate(2.666 0.443)">
        <g transform="translate(178.333 -65.943)" fill="none" stroke-miterlimit="10">
            <path
                d="M-168,71.071a4.372,4.372,0,0,0-1.474-3.241A5.233,5.233,0,0,0-173,66.5a5.233,5.233,0,0,0-3.527,1.33A4.372,4.372,0,0,0-178,71.071a7.179,7.179,0,0,0,.734,3.132,11.418,11.418,0,0,0,1.663,2.468v1.564a2.126,2.126,0,0,0,.782,1.619A2.808,2.808,0,0,0-173,80.5a2.808,2.808,0,0,0,1.821-.646,2.126,2.126,0,0,0,.782-1.619V76.683a11.308,11.308,0,0,0,1.667-2.474A7.213,7.213,0,0,0-168,71.071Z"
                stroke="none" />
            <path
                d="M -172.9994964599609 67.49998474121094 C -174.0811309814453 67.49998474121094 -175.0946350097656 67.87992095947266 -175.8538513183594 68.5703125 C -176.5934295654297 69.24186706542969 -177.0004730224609 70.12965393066406 -176.9999847412109 71.07126617431641 C -177.0005187988281 71.99250793457031 -176.7924957275391 72.87577819824219 -176.3642272949219 73.77119445800781 C -176.0182189941406 74.49388122558594 -175.5207214355469 75.22975158691406 -174.8433074951172 76.0208740234375 L -174.6028900146484 76.30164337158203 L -174.6028900146484 78.23600769042969 C -174.6033020019531 78.66413116455078 -174.3348083496094 78.95545196533203 -174.1730041503906 79.09246826171875 C -173.8640441894531 79.35525512695312 -173.4472961425781 79.49998474121094 -172.9994964599609 79.49998474121094 C -172.5516967773438 79.49998474121094 -172.1349334716797 79.35525512695312 -171.8242950439453 79.09102630615234 C -171.6641998291016 78.95546722412109 -171.3956909179688 78.66412353515625 -171.3961181640625 78.23503112792969 L -171.3961181640625 76.31236267089844 L -171.1547241210938 76.03130340576172 C -170.4760589599609 75.24112701416016 -169.9778900146484 74.50409698486328 -169.6318969726562 73.77846527099609 C -169.2055053710938 72.88332366943359 -168.9984893798828 71.99778747558594 -168.9990081787109 71.07018280029297 C -168.99853515625 70.12965393066406 -169.4055786132812 69.24185180664062 -170.1456756591797 68.56982421875 C -170.9043579101562 67.87992095947266 -171.9178619384766 67.49998474121094 -172.9994964599609 67.49998474121094 M -172.9994964599609 66.49998474121094 C -171.6274719238281 66.49998474121094 -170.3792419433594 67.00580596923828 -169.472900390625 67.82997131347656 C -168.5665740966797 68.65294647216797 -167.9983673095703 69.80216217041016 -167.9990081787109 71.07068634033203 C -167.9983673095703 72.21441650390625 -168.2759094238281 73.25711822509766 -168.7290954589844 74.20850372314453 C -169.1566162109375 75.10513305664062 -169.7410583496094 75.92015838623047 -170.3961181640625 76.68285369873047 L -170.3961181640625 78.23503112792969 C -170.3954772949219 78.87599182128906 -170.7036437988281 79.45243835449219 -171.1780700683594 79.85417175292969 C -171.6524963378906 80.25772094726562 -172.2962951660156 80.49998474121094 -172.9994964599609 80.49998474121094 C -173.7026977539062 80.49998474121094 -174.3464965820312 80.25772094726562 -174.8209228515625 79.85417175292969 C -175.2953796386719 79.45243835449219 -175.603515625 78.87599182128906 -175.6028900146484 78.23503112792969 L -175.6028900146484 76.67128753662109 C -176.2554321289062 75.90921783447266 -176.8386383056641 75.09599304199219 -177.2661743164062 74.20303344726562 C -177.7212219238281 73.25164794921875 -178.0006408691406 72.21015167236328 -177.9999847412109 71.07068634033203 C -178.0006408691406 69.80216217041016 -177.4324340820312 68.65294647216797 -176.5260925292969 67.82997131347656 C -175.6197509765625 67.00580596923828 -174.3715209960938 66.49998474121094 -172.9994964599609 66.49998474121094 Z"
                stroke="none" fill="#000" />
        </g>
        <line x2="4" transform="translate(3.335 10.557)" fill="none" stroke="#000" stroke-miterlimit="10"
            stroke-width="1" />
        <line x1="1" y2="3" transform="translate(5.334 6.057)" fill="none" stroke="#000" stroke-linecap="round"
            stroke-linejoin="round" stroke-width="1" />
        <path d="M-172.261,76.4l1,2.5v1.5" transform="translate(176.595 -70.339)" fill="none" stroke="#000"
            stroke-linecap="round" stroke-linejoin="round" stroke-width="1" />
    </g>
</svg>