<svg xmlns="http://www.w3.org/2000/svg" width="16.001" height="16.002" viewBox="0 0 16.001 16.002">
    <g transform="translate(0 0.001)">
        <g transform="translate(2 2)">
            <g transform="translate(0.5 2)">
                <path d="M0,0A2,2,0,0,1,2,2,2,2,0,0,1,0,4" transform="translate(0 4.001) rotate(-90)" fill="none"
                    stroke="#000" stroke-width="1" />
                <g transform="translate(-22 -16.679)" fill="none" stroke-miterlimit="10">
                    <path d="M22,16.679a2,2,0,1,1,.586,1.414A2,2,0,0,1,22,16.679Z" stroke="none" />
                    <path
                        d="M 24.0000057220459 15.67900466918945 C 23.73304557800293 15.67900466918945 23.48165512084961 15.78308486938477 23.29408645629883 15.97013473510742 C 23.10444641113281 16.16030502319336 23.0000057220459 16.41204452514648 23.0000057220459 16.67900466918945 C 23.0000057220459 16.94531440734863 23.10444641113281 17.19670486450195 23.29213523864746 17.38492584228516 C 23.4823055267334 17.57456588745117 23.73369598388672 17.67900466918945 24.0000057220459 17.67900466918945 C 24.26631546020508 17.67900466918945 24.5177059173584 17.57456588745117 24.70687484741211 17.38591384887695 C 24.89590644836426 17.19688415527344 25.0000057220459 16.94582557678223 25.0000057220459 16.67900466918945 C 25.0000057220459 16.41153526306152 24.89590644836426 16.16012382507324 24.70787620544434 15.97208404541016 C 24.51835632324219 15.78308486938477 24.26696586608887 15.67900466918945 24.0000057220459 15.67900466918945 M 24.0000057220459 14.67900466918945 C 24.55300521850586 14.67900466918945 25.05100631713867 14.90200424194336 25.41400527954102 15.26400375366211 C 25.77699661254883 15.62700462341309 26.0000057220459 16.12600517272949 26.0000057220459 16.67900466918945 C 26.0000057220459 17.23200416564941 25.77699661254883 17.72999572753906 25.41400527954102 18.09300422668457 C 25.05100631713867 18.45500564575195 24.55300521850586 18.67900466918945 24.0000057220459 18.67900466918945 C 23.44700622558594 18.67900466918945 22.94900512695312 18.45500564575195 22.58600616455078 18.09300422668457 C 22.22400665283203 17.72999572753906 22.0000057220459 17.23200416564941 22.0000057220459 16.67900466918945 C 22.0000057220459 16.12600517272949 22.22400665283203 15.62700462341309 22.58600616455078 15.26400375366211 C 22.94900512695312 14.90200424194336 23.44700622558594 14.67900466918945 24.0000057220459 14.67900466918945 Z"
                        stroke="none" fill="#000" />
                </g>
            </g>
            <g transform="translate(4 10)">
                <path d="M0,0A2,2,0,0,1,2,2,2,2,0,0,1,0,4" transform="translate(0 4.001) rotate(-90)" fill="none"
                    stroke="#000" stroke-width="1" />
                <g transform="translate(-22 -16.679)" fill="none" stroke-miterlimit="10">
                    <path d="M22,16.679a2,2,0,1,1,.586,1.414A2,2,0,0,1,22,16.679Z" stroke="none" />
                    <path
                        d="M 24.0000057220459 15.67900466918945 C 23.73304557800293 15.67900466918945 23.48165512084961 15.78308486938477 23.29408645629883 15.97013473510742 C 23.10444641113281 16.16030502319336 23.0000057220459 16.41204452514648 23.0000057220459 16.67900466918945 C 23.0000057220459 16.94531440734863 23.10444641113281 17.19670486450195 23.29213523864746 17.38492584228516 C 23.4823055267334 17.57456588745117 23.73369598388672 17.67900466918945 24.0000057220459 17.67900466918945 C 24.26631546020508 17.67900466918945 24.5177059173584 17.57456588745117 24.70687484741211 17.38591384887695 C 24.89590644836426 17.19688415527344 25.0000057220459 16.94582557678223 25.0000057220459 16.67900466918945 C 25.0000057220459 16.41153526306152 24.89590644836426 16.16012382507324 24.70787620544434 15.97208404541016 C 24.51835632324219 15.78308486938477 24.26696586608887 15.67900466918945 24.0000057220459 15.67900466918945 M 24.0000057220459 14.67900466918945 C 24.55300521850586 14.67900466918945 25.05100631713867 14.90200424194336 25.41400527954102 15.26400375366211 C 25.77699661254883 15.62700462341309 26.0000057220459 16.12600517272949 26.0000057220459 16.67900466918945 C 26.0000057220459 17.23200416564941 25.77699661254883 17.72999572753906 25.41400527954102 18.09300422668457 C 25.05100631713867 18.45500564575195 24.55300521850586 18.67900466918945 24.0000057220459 18.67900466918945 C 23.44700622558594 18.67900466918945 22.94900512695312 18.45500564575195 22.58600616455078 18.09300422668457 C 22.22400665283203 17.72999572753906 22.0000057220459 17.23200416564941 22.0000057220459 16.67900466918945 C 22.0000057220459 16.12600517272949 22.22400665283203 15.62700462341309 22.58600616455078 15.26400375366211 C 22.94900512695312 14.90200424194336 23.44700622558594 14.67900466918945 24.0000057220459 14.67900466918945 Z"
                        stroke="none" fill="#000" />
                </g>
            </g>
            <g transform="translate(7.5 2)">
                <path d="M0,0A2,2,0,0,1,2,2,2,2,0,0,1,0,4" transform="translate(0 4.001) rotate(-90)" fill="none"
                    stroke="#000" stroke-width="1" />
                <g transform="translate(-22 -16.679)" fill="none" stroke-miterlimit="10">
                    <path d="M22,16.679a2,2,0,1,1,.586,1.414A2,2,0,0,1,22,16.679Z" stroke="none" />
                    <path
                        d="M 24.0000057220459 15.67900466918945 C 23.73304557800293 15.67900466918945 23.48165512084961 15.78308486938477 23.29408645629883 15.97013473510742 C 23.10444641113281 16.16030502319336 23.0000057220459 16.41204452514648 23.0000057220459 16.67900466918945 C 23.0000057220459 16.94531440734863 23.10444641113281 17.19670486450195 23.29213523864746 17.38492584228516 C 23.4823055267334 17.57456588745117 23.73369598388672 17.67900466918945 24.0000057220459 17.67900466918945 C 24.26631546020508 17.67900466918945 24.5177059173584 17.57456588745117 24.70687484741211 17.38591384887695 C 24.89590644836426 17.19688415527344 25.0000057220459 16.94582557678223 25.0000057220459 16.67900466918945 C 25.0000057220459 16.41153526306152 24.89590644836426 16.16012382507324 24.70787620544434 15.97208404541016 C 24.51835632324219 15.78308486938477 24.26696586608887 15.67900466918945 24.0000057220459 15.67900466918945 M 24.0000057220459 14.67900466918945 C 24.55300521850586 14.67900466918945 25.05100631713867 14.90200424194336 25.41400527954102 15.26400375366211 C 25.77699661254883 15.62700462341309 26.0000057220459 16.12600517272949 26.0000057220459 16.67900466918945 C 26.0000057220459 17.23200416564941 25.77699661254883 17.72999572753906 25.41400527954102 18.09300422668457 C 25.05100631713867 18.45500564575195 24.55300521850586 18.67900466918945 24.0000057220459 18.67900466918945 C 23.44700622558594 18.67900466918945 22.94900512695312 18.45500564575195 22.58600616455078 18.09300422668457 C 22.22400665283203 17.72999572753906 22.0000057220459 17.23200416564941 22.0000057220459 16.67900466918945 C 22.0000057220459 16.12600517272949 22.22400665283203 15.62700462341309 22.58600616455078 15.26400375366211 C 22.94900512695312 14.90200424194336 23.44700622558594 14.67900466918945 24.0000057220459 14.67900466918945 Z"
                        stroke="none" fill="#000" />
                </g>
            </g>
            <path
                d="M67.666,14.487A1.537,1.537,0,0,1,66,12.82V6.154a1.537,1.537,0,0,1,1.667-1.667H79.333A1.537,1.537,0,0,1,81,6.154V12.82a1.537,1.537,0,0,1-1.667,1.667"
                transform="translate(-67.499 -5.988)" fill="none" stroke="#000" stroke-linecap="round"
                stroke-miterlimit="10" stroke-width="1" />
        </g>
    </g>
</svg>