<svg xmlns="http://www.w3.org/2000/svg" width="16" height="16.001" viewBox="0 0 16 16.001"><rect width="16" height="16" fill="#fff" opacity="0"/><g transform="translate(3 2)"><g transform="translate(-0.611 -2)"><g transform="translate(-0.389 3)" fill="none" stroke="#000" stroke-miterlimit="10" stroke-width="1"><rect width="12" height="8" rx="2" stroke="none"/><rect x="0.5" y="0.5" width="11" height="7" rx="1.5" fill="none"/></g><path d="M259.1,7.268A2.393,2.393,0,0,1,261.6,5h0a2.392,2.392,0,0,1,2.5,2.268" transform="translate(-255.983 -4.5)" fill="none" stroke="#000" stroke-linecap="square" stroke-linejoin="round" stroke-width="1"/></g><g transform="translate(0 10.667)"><line y2="3" transform="translate(1.5 -0.166)" fill="none" stroke="#000" stroke-linecap="round" stroke-width="1"/><line x1="3" y2="2" transform="translate(0 0.333)" fill="none" stroke="#000" stroke-linecap="round" stroke-width="1"/><line x1="3" y1="2" transform="translate(0 0.333)" fill="none" stroke="#000" stroke-linecap="round" stroke-width="1"/></g><g transform="translate(7 10.667)"><line y2="3" transform="translate(1.5 -0.166)" fill="none" stroke="#000" stroke-linecap="round" stroke-width="1"/><line x1="3" y2="2" transform="translate(0 0.333)" fill="none" stroke="#000" stroke-linecap="round" stroke-width="1"/><line x1="3" y1="2" transform="translate(0 0.333)" fill="none" stroke="#000" stroke-linecap="round" stroke-width="1"/></g></g></svg>