<svg xmlns="http://www.w3.org/2000/svg" width="16" height="16" viewBox="0 0 16 16"><rect width="16" height="16" fill="#fff" opacity="0"/><g transform="translate(2.666 3.334)"><line x2="5" transform="translate(2.834 8.666)" fill="none" stroke="#000" stroke-linecap="round" stroke-miterlimit="10" stroke-width="1"/><line x2="10" transform="translate(2.834 4.666)" fill="none" stroke="#000" stroke-linecap="round" stroke-miterlimit="10" stroke-width="1"/><line x2="7" transform="translate(2.834 0.666)" fill="none" stroke="#000" stroke-linecap="round" stroke-miterlimit="10" stroke-width="1"/><path d="M812.943,72.176h.472v-1.72l-.516.151v-.585l1.083-.3v2.455h.417v.545h-1.456Z" transform="translate(-814.565 -70.555)" stroke="rgba(0,0,0,0)" stroke-width="1"/><path d="M812.7,78.718a.824.824,0,0,1,.429-.831l.454-.274c.1-.063.135-.14.135-.308v-.158c0-.154-.055-.224-.169-.224h-.22c-.116,0-.171.067-.171.224v.32H812.7V77.18c0-.558.235-.83.659-.83h.171c.427,0,.658.276.658.82v.159a.816.816,0,0,1-.428.821l-.452.275a.277.277,0,0,0-.139.274v.1H814.2v.556H812.7Z" transform="translate(-814.362 -73.184)" stroke="rgba(0,0,0,0)" stroke-width="1"/><path d="M814.187,85.026v.09c0,.545-.225.817-.649.817h-.2c-.425,0-.65-.271-.65-.806v-.242h.456v.276c0,.14.057.21.169.21h.245c.111,0,.17-.073.17-.22v-.257c0-.142-.05-.215-.158-.215h-.363v-.519h.337c.107,0,.157-.07.157-.214v-.236c0-.145-.057-.215-.165-.215h-.206c-.107,0-.163.068-.163.205v.251h-.458v-.216c0-.533.224-.8.648-.8h.157c.423,0,.647.269.647.817v.074c0,.314-.118.531-.344.59C814.063,84.458,814.187,84.7,814.187,85.026Z" transform="translate(-814.354 -75.766)" stroke="rgba(0,0,0,0)" stroke-width="1"/></g></svg>