<svg xmlns="http://www.w3.org/2000/svg" width="16" height="16" viewBox="0 0 16 16"><rect width="16" height="16" fill="#fff" opacity="0"/><g transform="translate(2 2)"><path d="M67.666,14.487A1.537,1.537,0,0,1,66,12.82V6.154a1.537,1.537,0,0,1,1.667-1.667H79.333A1.537,1.537,0,0,1,81,6.154V12.82a1.537,1.537,0,0,1-1.667,1.667" transform="translate(-67.499 -5.987)" fill="none" stroke="#000" stroke-linecap="round" stroke-miterlimit="10" stroke-width="1"/><path d="M69.452,10.375l2-2h3l2-2" transform="translate(-66.952 -4.874)" fill="none" stroke="#000" stroke-linecap="round" stroke-linejoin="round" stroke-width="1"/><path d="M0,0A2.5,2.5,0,0,1,2.5,2.5,2.5,2.5,0,0,1,0,5" transform="translate(3.5 14) rotate(-90)" fill="none" stroke="#000" stroke-width="1"/><g transform="translate(-18.5 -8.68)" fill="none" stroke-miterlimit="10"><path d="M22,17.179a2.5,2.5,0,1,1,.732,1.767A2.5,2.5,0,0,1,22,17.179Z" stroke="none"/><path d="M 24.50000190734863 18.67900085449219 C 24.8995418548584 18.67900085449219 25.27646255493164 18.52253150939941 25.56038284301758 18.2393913269043 C 25.8438720703125 17.95590019226074 26.00000190734863 17.57931137084961 26.00000190734863 17.17900085449219 C 26.00000190734863 16.77788162231445 25.8438720703125 16.40085029602051 25.56135177612305 16.11832046508789 C 25.27727127075195 15.83502101898193 24.90034103393555 15.67900085449219 24.50000190734863 15.67900085449219 C 24.09966278076172 15.67900085449219 23.72272109985352 15.83502101898193 23.44058227539062 16.11638069152832 C 23.15647125244141 16.40128135681152 23.00000190734863 16.77866172790527 23.00000190734863 17.17900085449219 C 23.00000190734863 17.57854080200195 23.15647125244141 17.95547103881836 23.43863105773926 18.2384204864502 C 23.72353172302246 18.52253150939941 24.10046195983887 18.67900085449219 24.50000190734863 18.67900085449219 M 24.50000190734863 19.67900085449219 C 23.80875205993652 19.67900085449219 23.18625259399414 19.39900016784668 22.73250198364258 18.94650077819824 C 22.28000259399414 18.49275016784668 22.00000190734863 17.8702507019043 22.00000190734863 17.17900085449219 C 22.00000190734863 16.48775100708008 22.28000259399414 15.86400127410889 22.73250198364258 15.41025066375732 C 23.18625259399414 14.95775127410889 23.80875205993652 14.67900085449219 24.50000190734863 14.67900085449219 C 25.19125175476074 14.67900085449219 25.81375122070312 14.95775127410889 26.26749229431152 15.41025066375732 C 26.72124099731445 15.86400127410889 27.00000190734863 16.48775100708008 27.00000190734863 17.17900085449219 C 27.00000190734863 17.8702507019043 26.72124099731445 18.49275016784668 26.26749229431152 18.94650077819824 C 25.81375122070312 19.39900016784668 25.19125175476074 19.67900085449219 24.50000190734863 19.67900085449219 Z" stroke="none" fill="#000"/></g></g></svg>