<svg xmlns="http://www.w3.org/2000/svg" width="16" height="16.001" viewBox="0 0 16 16.001">
    <rect transform="translate(0 0.001)" fill="#fff" opacity="0" />
    <g transform="translate(2.707 -0.127)">
        <g transform="translate(-0.706 0.127)">
            <path
                d="M 5.999536514282227 15.30169868469238 C 5.479208469390869 14.78049564361572 4.440342426300049 13.68923950195312 3.39965033531189 12.30195331573486 C 1.003060221672058 9.107213020324707 0.5000002980232239 6.894423007965088 0.5000002980232239 5.600693225860596 C 0.5000002980232239 2.788152933120728 2.967020273208618 0.4999929964542389 5.99940013885498 0.4999929964542389 C 9.032279968261719 0.4999929964542389 11.49970054626465 2.788152933120728 11.49970054626465 5.600693225860596 C 11.49970054626465 6.895173072814941 10.9965705871582 9.108733177185059 8.599650382995605 12.302903175354 C 7.55824613571167 13.6906909942627 6.519756317138672 14.78095531463623 5.999536514282227 15.30169868469238 Z M 6.001200199127197 1.500692963600159 C 4.07096004486084 1.500692963600159 2.500600337982178 3.070652961730957 2.500600337982178 5.000392913818359 C 2.500600337982178 6.930132865905762 4.07096004486084 8.500093460083008 6.001200199127197 8.500093460083008 C 7.9309401512146 8.500093460083008 9.500900268554688 6.930132865905762 9.500900268554688 5.000392913818359 C 9.500900268554688 3.070652961730957 7.9309401512146 1.500692963600159 6.001200199127197 1.500692963600159 Z"
                stroke="none" />
            <path
                d="M 5.999643325805664 14.58690547943115 C 6.553726196289062 14.00939655303955 7.374898910522461 13.10197067260742 8.199729919433594 12.00279331207275 C 10.51393032073975 8.918852806091309 10.99970054626465 6.819112777709961 10.99970054626465 5.600693225860596 C 10.99970054626465 3.063863039016724 8.756569862365723 0.9999930262565613 5.99940013885498 0.9999930262565613 C 3.242720365524292 0.9999930262565613 1.000000238418579 3.063863039016724 1.000000238418579 5.600693225860596 C 1.000000238418579 6.81838321685791 1.485710263252258 8.917383193969727 3.799620389938354 12.00191307067871 C 4.623931884765625 13.10075664520264 5.44540548324585 14.0089054107666 5.999643325805664 14.58690547943115 M 6.001200199127197 1.000692963600159 C 8.206640243530273 1.000692963600159 10.00090026855469 2.794953107833862 10.00090026855469 5.000392913818359 C 10.00090026855469 7.205832958221436 8.206640243530273 9.000093460083008 6.001200199127197 9.000093460083008 C 3.795260190963745 9.000093460083008 2.000600337982178 7.205832958221436 2.000600337982178 5.000392913818359 C 2.000600337982178 2.794953107833862 3.795260190963745 1.000692963600159 6.001200199127197 1.000692963600159 M 5.99940013885498 16.00021362304688 L 5.998720169067383 15.99956321716309 C 5.936860084533691 15.94162273406982 4.466890335083008 14.55785274505615 2.999680280685425 12.6019926071167 C 1.631240248680115 10.77781295776367 2.731323149873788e-07 8.082383155822754 2.731323149873788e-07 5.600693225860596 C 2.731323149873788e-07 2.512463092803955 2.691320180892944 -7.003173777775373e-06 5.99940013885498 -7.003173777775373e-06 C 9.307980537414551 -7.003173777775373e-06 11.99970054626465 2.512463092803955 11.99970054626465 5.600693225860596 C 11.99970054626465 8.083772659301758 10.36822032928467 10.77912330627441 8.999569892883301 12.60300254821777 C 7.530570507049561 14.56061267852783 6.061890125274658 15.94172286987305 6.000080108642578 15.99956321716309 L 5.99940013885498 16.00021362304688 Z M 6.001200199127197 2.000693082809448 C 4.346660137176514 2.000693082809448 3.000600337982178 3.346353054046631 3.000600337982178 5.000392913818359 C 3.000600337982178 6.654432773590088 4.346660137176514 8.000093460083008 6.001200199127197 8.000093460083008 C 7.655240058898926 8.000093460083008 9.000900268554688 6.654432773590088 9.000900268554688 5.000392913818359 C 9.000900268554688 3.346353054046631 7.655240058898926 2.000693082809448 6.001200199127197 2.000693082809448 Z"
                stroke="none" fill="#000" />
        </g>
    </g>
</svg>