<svg xmlns="http://www.w3.org/2000/svg" width="16" height="16" viewBox="0 0 16 16"><rect width="16" height="16" fill="#fff" opacity="0"/><g transform="translate(1.335 -0.667)"><g transform="translate(0.667 0.667)" fill="none"><path d="M6,0a5.81,5.81,0,0,1,6,5.6C12,10.405,6,16,6,16S0,10.4,0,5.6A5.81,5.81,0,0,1,6,0Z" stroke="none"/><path d="M 5.999406814575195 1.000003814697266 C 3.242727279663086 1.000003814697266 0.9999971389770508 3.063163757324219 0.9999971389770508 5.599123954772949 C 0.9999971389770508 7.338594436645508 1.961506843566895 9.543024063110352 3.780587196350098 11.9741039276123 C 4.605518817901611 13.07657241821289 5.439213752746582 13.99809551239014 5.999834060668945 14.58317279815674 C 6.554970264434814 14.00419330596924 7.378316879272461 13.09447288513184 8.199256896972656 12.00042343139648 C 10.03074645996094 9.55964469909668 10.99881649017334 7.346103668212891 10.99881649017334 5.599123954772949 C 10.99881649017334 3.063163757324219 8.756086349487305 1.000003814697266 5.999406814575195 1.000003814697266 M 5.999406814575195 3.814697265625e-06 C 9.312787055969238 3.814697265625e-06 11.99881649017334 2.506814002990723 11.99881649017334 5.599123954772949 C 11.99881649017334 10.40528392791748 5.999406814575195 15.99748420715332 5.999406814575195 15.99748420715332 C 5.999406814575195 15.99748420715332 -2.86102294921875e-06 10.40262413024902 -2.86102294921875e-06 5.599123954772949 C -2.86102294921875e-06 2.506814002990723 2.686026573181152 3.814697265625e-06 5.999406814575195 3.814697265625e-06 Z" stroke="none" fill="#000"/></g><g transform="translate(3.665 3.667)" fill="none" stroke="#000" stroke-width="1"><circle cx="3" cy="3" r="3" stroke="none"/><circle cx="3" cy="3" r="2.5" fill="none"/></g></g></svg>