<svg xmlns="http://www.w3.org/2000/svg" viewBox="0 0 16 16">
    <g transform="translate(2 -0.4)">
        <g transform="translate(14 0.4) rotate(90)" fill="none">
            <path d="M7.132,1.519a1,1,0,0,1,1.736,0l6,10.984A1,1,0,0,1,14,14H2a1,1,0,0,1-.868-1.5Z" stroke="none" />
            <path
                d="M 8 2.015949249267578 L 2 12.99999523162842 L 13.9999885559082 12.99999523162842 L 13.99063014984131 12.98323535919189 L 8 2.015949249267578 M 8 1.015560150146484 C 8.33814811706543 1.015560150146484 8.676294326782227 1.183515548706055 8.868240356445312 1.519425392150879 L 14.86824035644531 12.50386524200439 C 15.24919033050537 13.1705150604248 14.76782035827637 13.99999523162842 14 13.99999523162842 L 2 13.99999523162842 C 1.232179641723633 13.99999523162842 0.7508096694946289 13.1705150604248 1.131759643554688 12.50386524200439 L 7.131759643554688 1.519425392150879 C 7.323704719543457 1.183515548706055 7.661852836608887 1.015560150146484 8 1.015560150146484 Z"
                stroke="none" fill="#000" />
        </g>
    </g>
</svg>