<svg xmlns="http://www.w3.org/2000/svg" width="16.002" height="16" viewBox="0 0 16.002 16">
    <g transform="translate(-17899.998 -20482.602)" fill="none">
        <path
            d="M17902,20495.6a2,2,0,0,1-2-2v-5a2,2,0,0,1,2-2v-1a1,1,0,0,1,1-1h3a1,1,0,0,1,1,1v1h2v-1a1,1,0,0,1,1-1h3a1,1,0,0,1,1,1v1a2,2,0,0,1,2,2v5a2,2,0,0,1-2,2Z"
            stroke="none" />
        <path
            d="M 17914 20494.6015625 C 17914.55078125 20494.6015625 17915 20494.15234375 17915 20493.599609375 L 17915 20488.599609375 C 17915 20488.048828125 17914.55078125 20487.599609375 17914 20487.599609375 L 17913 20487.599609375 L 17913.001953125 20485.60546875 L 17912.99609375 20485.603515625 L 17910 20485.6015625 L 17910 20487.599609375 L 17905.998046875 20487.599609375 L 17905.99609375 20485.603515625 L 17902.998046875 20485.6015625 L 17902.998046875 20487.599609375 L 17901.998046875 20487.599609375 C 17901.447265625 20487.599609375 17900.998046875 20488.048828125 17900.998046875 20488.599609375 L 17900.998046875 20493.599609375 C 17900.998046875 20494.15234375 17901.447265625 20494.6015625 17901.998046875 20494.6015625 L 17914 20494.6015625 M 17914 20495.6015625 L 17901.998046875 20495.6015625 C 17900.892578125 20495.6015625 17899.998046875 20494.705078125 17899.998046875 20493.599609375 L 17899.998046875 20488.599609375 C 17899.998046875 20487.494140625 17900.892578125 20486.599609375 17901.998046875 20486.599609375 L 17901.998046875 20485.6015625 C 17901.998046875 20485.05078125 17902.447265625 20484.603515625 17902.99609375 20484.603515625 L 17905.99609375 20484.603515625 C 17906.55078125 20484.603515625 17906.998046875 20485.05078125 17906.998046875 20485.6015625 L 17906.998046875 20486.599609375 L 17909 20486.599609375 L 17909 20485.6015625 C 17909 20485.05078125 17909.447265625 20484.603515625 17909.998046875 20484.603515625 L 17912.99609375 20484.603515625 C 17913.55078125 20484.603515625 17914 20485.05078125 17914 20485.6015625 L 17914 20486.599609375 C 17915.10546875 20486.599609375 17916 20487.494140625 17916 20488.599609375 L 17916 20493.599609375 C 17916 20494.705078125 17915.10546875 20495.6015625 17914 20495.6015625 Z"
            stroke="none" fill="#000" />
    </g>
</svg>