<svg xmlns="http://www.w3.org/2000/svg" viewBox="0 0 16 16">
    <g transform="translate(0 0.777)">
        <g transform="translate(-4 -7.019)" fill="none" stroke-miterlimit="10">
            <path
                d="M18,10.242H6a2,2,0,0,0-2,2v5a2.008,2.008,0,0,0,2,2H7v2a1.073,1.073,0,0,0,1,1h8a1.074,1.074,0,0,0,1-1v-2h1a2,2,0,0,0,2-2v-5A2.011,2.011,0,0,0,18,10.242Z"
                stroke="none" />
            <path
                d="M 6 11.2421875 C 5.448600769042969 11.2421875 5 11.69078826904297 5 12.2421875 L 5 17.2421875 C 5 17.78424835205078 5.457939147949219 18.2421875 6 18.2421875 L 8 18.2421875 L 8 21.20050811767578 C 8.01015567779541 21.21502685546875 8.026595115661621 21.23179626464844 8.040849685668945 21.2421875 L 15.95835113525391 21.2421875 C 15.97286891937256 21.23184585571289 15.98962688446045 21.21512794494629 16 21.20064163208008 L 16 18.2421875 L 18 18.2421875 C 18.55139923095703 18.2421875 19 17.79358673095703 19 17.2421875 L 19 12.2421875 C 19 11.70012664794922 18.54206085205078 11.2421875 18 11.2421875 L 6 11.2421875 M 6 10.2421875 L 18 10.2421875 C 19.09766006469727 10.2421875 20 11.14711761474609 20 12.2421875 L 20 17.2421875 C 20 18.34375762939453 19.10369110107422 19.2421875 18 19.2421875 L 17 19.2421875 L 17 21.2421875 C 17 21.74394607543945 16.50030899047852 22.2421875 16 22.2421875 L 8 22.2421875 C 7.492429733276367 22.2421875 7 21.73750686645508 7 21.2421875 L 7 19.2421875 L 6 19.2421875 C 4.901899337768555 19.2421875 4 18.34020614624023 4 17.2421875 L 4 12.2421875 C 4 11.14028739929199 4.896770477294922 10.2421875 6 10.2421875 Z"
                stroke="none" fill="#000" />
        </g>
        <g transform="translate(-4.635 -7.762)" fill="none" stroke-miterlimit="10">
            <path d="M7.635,16.984h10v4.9a1.125,1.125,0,0,1-1.146,1.1H8.781a1.125,1.125,0,0,1-1.146-1.1Z"
                stroke="none" />
            <path
                d="M 8.635000228881836 17.98399925231934 L 8.635000228881836 21.8811092376709 C 8.635000228881836 21.92977905273438 8.694900512695312 21.98399925231934 8.780849456787109 21.98399925231934 L 16.48915100097656 21.98399925231934 C 16.57509994506836 21.98399925231934 16.63500022888184 21.92977905273438 16.63500022888184 21.8811092376709 L 16.63500022888184 17.98399925231934 L 8.635000228881836 17.98399925231934 M 7.635000228881836 16.98399925231934 L 17.63500022888184 16.98399925231934 L 17.63500022888184 21.8811092376709 C 17.63500022888184 22.49037933349609 17.12215042114258 22.98399925231934 16.48915100097656 22.98399925231934 L 8.780849456787109 22.98399925231934 C 8.147850036621094 22.98399925231934 7.635000228881836 22.49037933349609 7.635000228881836 21.8811092376709 L 7.635000228881836 16.98399925231934 Z"
                stroke="none" fill="#000" />
        </g>
        <line x2="2" transform="translate(10.5 6.723)" fill="none" stroke="#000" stroke-linecap="round"
            stroke-miterlimit="10" stroke-width="1" />
        <g transform="translate(4.5 -0.277)">
            <path d="M19.627,5.587h-1v-1Z" transform="translate(-13.126 -4.087)" fill="none" stroke="#000"
                stroke-linejoin="round" stroke-width="1" />
            <path d="M10.726,8.585V5.542a1.011,1.011,0,0,1,1.059-.955h4.3L17.725,6.04V8.585"
                transform="translate(-10.726 -4.585)" fill="none" stroke="#000" stroke-miterlimit="10"
                stroke-width="1" />
        </g>
    </g>
</svg>