<svg xmlns="http://www.w3.org/2000/svg" viewBox="0 0 16 16">
    <g transform="translate(4 2.666)">
        <path
            d="M12669.5,19582.334a4.472,4.472,0,0,1-3.83-2.141,2.5,2.5,0,1,0,0-4.721,4.5,4.5,0,0,1,7.659,0,2.5,2.5,0,1,0,0,4.721A4.479,4.479,0,0,1,12669.5,19582.334Z"
            transform="translate(-12665.5 -19574.5)" fill="rgba(0,0,0,0)" stroke="#000" stroke-width="1" />
        <path d="M0,0A4.5,4.5,0,0,1,4.5,4.5,4.5,4.5,0,0,1,0,9" transform="translate(-0.5 13.334) rotate(-90)"
            fill="none" stroke="#000" stroke-linejoin="round" stroke-width="1" />
        <circle cx="2.5" cy="2.5" r="2.5" transform="translate(-1.5 0.834)" fill="rgba(0,0,0,0)" stroke="#000"
            stroke-width="1" />
        <circle cx="2.5" cy="2.5" r="2.5" transform="translate(4.5 0.834)" fill="rgba(0,0,0,0)" stroke="#000"
            stroke-width="1" />
    </g>
</svg>