<svg xmlns="http://www.w3.org/2000/svg" viewBox="0 0 16 16">
    <g transform="translate(1.834 1.834)">
        <path
            d="M13034.654,17664.666a1.257,1.257,0,0,1-.967-.449,6.8,6.8,0,0,1-1.521-2.93l.885-.885a5.35,5.35,0,0,0,1.4,3.172.262.262,0,0,0,.2.094.272.272,0,0,0,.19-.08l6.743-6.738a.27.27,0,0,0,.075-.209.251.251,0,0,0-.093-.191,5.347,5.347,0,0,0-3.174-1.393l.89-.889a6.818,6.818,0,0,1,2.932,1.52,1.291,1.291,0,0,1,.447.914,1.27,1.27,0,0,1-.372.953l-6.739,6.738A1.247,1.247,0,0,1,13034.654,17664.666Zm-3.356-6.752v0l-2.632-2.627a.244.244,0,0,0-.187-.08l-.944-.006a.885.885,0,0,1-.8-.541.873.873,0,0,1,.19-.947l4.784-4.789a.878.878,0,0,1,1.494.617l0,.939a.257.257,0,0,0,.075.186l2.634,2.635-.707.707-2.631-2.633a1.274,1.274,0,0,1-.373-.891v-.639l-4.357,4.359.638,0a1.268,1.268,0,0,1,.892.367l2.631,2.633-.706.705Z"
            transform="translate(-13028.5 -17650.5)" />
        <line x2="3" y2="3" transform="translate(10.166 10.166)" fill="none" stroke="#000" stroke-linecap="round"
            stroke-miterlimit="10" stroke-width="1" />
        <line y1="14" x2="14" transform="translate(-0.834 -0.834)" fill="none" stroke="#000" stroke-linecap="round"
            stroke-miterlimit="10" stroke-width="1" />
    </g>
</svg>