<svg xmlns="http://www.w3.org/2000/svg" viewBox="0 0 16 16">
    <g transform="translate(-0.666 -0.666)">
        <g transform="translate(0.666 0.666)" fill="none" stroke="#000" stroke-miterlimit="10" stroke-width="1">
            <rect width="5" height="5" rx="1" stroke="none" />
            <rect x="0.5" y="0.5" width="4" height="4" rx="0.5" fill="none" />
        </g>
        <g transform="translate(0.666 11.666)" fill="none" stroke="#000" stroke-miterlimit="10" stroke-width="1">
            <rect width="5" height="5" rx="1" stroke="none" />
            <rect x="0.5" y="0.5" width="4" height="4" rx="0.5" fill="none" />
        </g>
        <g transform="translate(11.666 0.666)" fill="none" stroke="#000" stroke-miterlimit="10" stroke-width="1">
            <rect width="5" height="5" rx="1" stroke="none" />
            <rect x="0.5" y="0.5" width="4" height="4" rx="0.5" fill="none" />
        </g>
        <path d="M128.927,78h7v3" transform="translate(-127.761 -69.833)" fill="none" stroke="#000"
            stroke-linecap="round" stroke-linejoin="round" stroke-width="1" />
        <path d="M143.5,78h4v2" transform="translate(-131.334 -69.833)" fill="none" stroke="#000" stroke-linecap="round"
            stroke-linejoin="round" stroke-width="1" />
        <path d="M143.5,78h4" transform="translate(-133.334 -64.833)" fill="none" stroke="#000" stroke-linecap="round"
            stroke-linejoin="round" stroke-width="1" />
        <path d="M143.5,78h4v2" transform="translate(-69.834 148.667) rotate(-90)" fill="none" stroke="#000"
            stroke-linecap="round" stroke-linejoin="round" stroke-width="1" />
        <path d="M0,0V7H3" transform="translate(9.166 16.166) rotate(-90)" fill="none" stroke="#000"
            stroke-linecap="round" stroke-linejoin="round" stroke-width="1" />
    </g>
</svg>