<svg xmlns="http://www.w3.org/2000/svg" viewBox="0 0 16 16">
    <g transform="translate(2 2.666)">
        <g transform="translate(-1 0.333)">
            <line x2="2" y2="2" transform="translate(1.5 0.5)" fill="none" stroke="#000" stroke-linecap="round"
                stroke-miterlimit="10" stroke-width="1" />
            <circle cx="1" cy="1" r="1" transform="translate(-0.5 -1.5)" fill="none" stroke="#000"
                stroke-linecap="round" stroke-miterlimit="10" stroke-width="1" />
        </g>
        <g transform="translate(9.5 -1.166)">
            <line x1="2" y2="2" transform="translate(0 1.999)" fill="none" stroke="#000" stroke-linecap="round"
                stroke-miterlimit="10" stroke-width="1" />
            <circle cx="1" cy="1" r="1" transform="translate(2 -0.001)" fill="none" stroke="#000" stroke-linecap="round"
                stroke-miterlimit="10" stroke-width="1" />
        </g>
        <g transform="translate(5.333 -0.5)">
            <line y2="3" transform="translate(0.667 0.334)" fill="none" stroke="#000" stroke-linecap="round"
                stroke-miterlimit="10" stroke-width="1" />
            <circle cx="1" cy="1" r="1" transform="translate(-0.333 -1.666)" fill="none" stroke="#000"
                stroke-linecap="round" stroke-miterlimit="10" stroke-width="1" />
        </g>
        <path d="M0,0A3,3,0,0,1,3,3,3,3,0,0,1,0,6" transform="translate(3 13.334) rotate(-90)" fill="none" stroke="#000"
            stroke-linejoin="round" stroke-width="1" />
        <g transform="translate(3 4.334)" fill="none" stroke="#000" stroke-width="1">
            <rect width="6" height="6" rx="3" stroke="none" />
            <rect x="0.5" y="0.5" width="5" height="5" rx="2.5" fill="none" />
        </g>
    </g>
</svg>