<svg xmlns="http://www.w3.org/2000/svg" width="16" height="16" viewBox="0 0 16 16"><rect width="16" height="16" fill="#fff" opacity="0"/><g transform="translate(-0.334 -0.334)"><g transform="translate(-3.666 -3.682)" fill="none" stroke-linecap="round" stroke-linejoin="round"><path d="M11.112,19.016h1.775l.217-1.743.3-.083a5.315,5.315,0,0,0,1.256-.521l.272-.157,1.387,1.082,1.257-1.257L16.5,14.95l.158-.273a5.331,5.331,0,0,0,.521-1.256l.083-.3L19,12.9V11.128l-1.742-.216-.083-.3a5.322,5.322,0,0,0-.521-1.257L16.5,9.081l1.082-1.387L16.343,6.457l-.021-.021L14.934,7.519l-.272-.158a5.326,5.326,0,0,0-1.256-.521l-.3-.083-.217-1.742H11.112L10.9,6.758l-.3.083a5.327,5.327,0,0,0-1.256.521l-.272.158L7.678,6.436,6.421,7.694,7.5,9.081l-.157.273a5.312,5.312,0,0,0-.521,1.256l-.083.3L5,11.128V12.9l1.742.217.083.3a5.312,5.312,0,0,0,.521,1.256l.157.273L6.421,16.338l1.257,1.257,1.387-1.082.272.157a5.326,5.326,0,0,0,1.256.521l.3.083Z" stroke="none"/><path d="M 12.88772583007812 19.01599502563477 L 13.10472583770752 17.27298545837402 L 13.40572643280029 17.19026565551758 C 13.85371589660645 17.06744575500488 14.27690601348877 16.8924446105957 14.66190624237061 16.66971588134766 L 14.93426609039307 16.51253509521484 L 16.32153701782227 17.59499549865723 L 17.5789966583252 16.3375358581543 L 16.49653625488281 14.9502649307251 L 16.65435600280762 14.67726516723633 C 16.87644577026367 14.29226493835449 17.05208587646484 13.86972522735596 17.17490577697754 13.42108535766602 L 17.25762557983398 13.12072467803955 L 18.99999618530273 12.90371513366699 L 18.99999618530273 11.12763500213623 L 17.25762557983398 10.91126537322998 L 17.17490577697754 10.61026477813721 C 17.05208587646484 10.16163539886475 16.87644577026367 9.73908519744873 16.65371704101562 9.35345458984375 L 16.49653625488281 9.081085205078125 L 17.5789966583252 7.693815231323242 L 16.32153701782227 6.436365127563477 L 14.93426609039307 7.519454956054688 L 14.66190624237061 7.361635208129883 C 14.27626609802246 7.138905048370361 13.85371589660645 6.963904857635498 13.40572643280029 6.841084957122803 L 13.10472583770752 6.758365154266357 L 12.88772583007812 5.016005039215088 L 11.11226654052734 5.016005039215088 L 10.89526653289795 6.758365154266357 L 10.59426593780518 6.841084957122803 C 10.14626598358154 6.963904857635498 9.723726272583008 7.138905048370361 9.338086128234863 7.361635208129883 L 9.065726280212402 7.519454956054688 L 7.67845630645752 6.436365127563477 L 6.420996189117432 7.693815231323242 L 7.503456115722656 9.081085205078125 L 7.346266269683838 9.354084968566895 C 7.123546123504639 9.73908519744873 6.947906017303467 10.16163539886475 6.825086116790771 10.60963535308838 L 6.742356300354004 10.91126537322998 L 4.999996185302734 11.12763500213623 L 4.999996185302734 12.90371513366699 L 6.742356300354004 13.12072467803955 L 6.825086116790771 13.42172527313232 C 6.947906017303467 13.86972522735596 7.123546123504639 14.29226493835449 7.346266269683838 14.67726516723633 L 7.503456115722656 14.9502649307251 L 6.420996189117432 16.3375358581543 L 7.67845630645752 17.59499549865723 L 9.065726280212402 16.51253509521484 L 9.338086128234863 16.66971588134766 C 9.723726272583008 16.8924446105957 10.14626598358154 17.06744575500488 10.59426593780518 17.19026565551758 L 10.89526653289795 17.27298545837402 L 11.11226654052734 19.01599502563477 L 12.88772583007812 19.01599502563477 M 12.88772583007812 20.01599502563477 L 11.11226654052734 20.01599502563477 C 10.60775661468506 20.01599502563477 10.18225574493408 19.64018440246582 10.11992645263672 19.13953590393066 L 9.984247207641602 18.04972457885742 C 9.698749542236328 17.95437240600586 9.422785758972168 17.84021377563477 9.158840179443359 17.70827484130859 L 8.293625831604004 18.38338470458984 C 7.895555973052979 18.69399642944336 7.328375816345215 18.65913581848145 6.971346378326416 18.30210494995117 L 5.713886260986328 17.04464530944824 C 5.356856346130371 16.68761444091797 5.321996212005615 16.12043571472168 5.632606029510498 15.7223653793335 L 6.307712078094482 14.85715579986572 C 6.175585269927979 14.59335899353027 6.061211585998535 14.31736087799072 5.965704441070557 14.03171634674072 L 4.876406192779541 13.89604473114014 C 4.375776290893555 13.83369541168213 3.999996185302734 13.40820503234863 3.999996185302734 12.90371513366699 L 3.999996185302734 11.12763500213623 C 3.999996185302734 10.62300491333008 4.375976085662842 10.19744491577148 4.876756191253662 10.13525485992432 L 5.965573787689209 10.00004291534424 C 6.061025619506836 9.714530944824219 6.175402641296387 9.438493728637695 6.307747840881348 9.174239158630371 L 5.632606029510498 8.308984756469727 C 5.321986198425293 7.910904884338379 5.356856346130371 7.343735218048096 5.71389627456665 6.98670482635498 L 6.971356391906738 5.729255199432373 C 7.328456401824951 5.372154712677002 7.895776748657227 5.337355613708496 8.293846130371094 5.648145198822021 L 9.158564567565918 6.32326078414917 C 9.422760963439941 6.191184043884277 9.698747634887695 6.077009677886963 9.984280586242676 5.981636047363281 L 10.11993598937988 4.892415046691895 C 10.18228626251221 4.391785144805908 10.6077766418457 4.016005039215088 11.11226654052734 4.016005039215088 L 12.88772583007812 4.016005039215088 C 13.39221572875977 4.016005039215088 13.81770610809326 4.391785144805908 13.88005638122559 4.892415046691895 L 14.01570987701416 5.98161792755127 C 14.30133724212646 6.077014923095703 14.57741451263428 6.191224098205566 14.84146308898926 6.323233127593994 L 15.70614624023438 5.648145198822021 C 16.10421562194824 5.337356090545654 16.67153358459473 5.372154235839844 17.02864646911621 5.729255199432373 L 18.28609657287598 6.98670482635498 C 18.64313697814941 7.343735218048096 18.67800712585449 7.910904884338379 18.36738586425781 8.308984756469727 L 17.69232940673828 9.174130439758301 C 17.82462120056152 9.438538551330566 17.93893432617188 9.714608192443848 18.0343074798584 10.00003147125244 L 19.12322616577148 10.13525485992432 C 19.62401580810547 10.19744491577148 19.99999618530273 10.62300491333008 19.99999618530273 11.12763500213623 L 19.99999618530273 12.90371513366699 C 19.99999618530273 13.40820503234863 19.62421607971191 13.83369541168213 19.12358665466309 13.89604473114014 L 18.03422737121582 14.03172302246094 C 17.93899536132812 14.31673431396484 17.82472991943359 14.59275817871094 17.69241905212402 14.85733413696289 L 18.36738586425781 15.7223653793335 C 18.6779956817627 16.12043571472168 18.64313697814941 16.68761444091797 18.28610610961914 17.04464530944824 L 17.02864646911621 18.30210494995117 C 16.67161560058594 18.65913200378418 16.10443878173828 18.69399833679199 15.70636653900146 18.38338470458984 L 14.84128475189209 17.7083797454834 C 14.57789993286133 17.840087890625 14.3018970489502 17.95422554016113 14.01574230194092 18.04974174499512 L 13.88006591796875 19.13953590393066 C 13.81773662567139 19.64018440246582 13.39223575592041 20.01599502563477 12.88772583007812 20.01599502563477 Z" stroke="none" fill="#000"/></g><g transform="translate(5.333 5.334)" fill="none" stroke="#000" stroke-linecap="round" stroke-linejoin="round" stroke-width="1"><circle cx="3" cy="3" r="3" stroke="none"/><circle cx="3" cy="3" r="2.5" fill="none"/></g></g></svg>