<svg xmlns="http://www.w3.org/2000/svg" viewBox="0 0 16 16">
    <rect transform="translate(0)" fill="#fff" opacity="0" />
    <g transform="translate(0 1)">
        <g transform="translate(-0.304 0)" fill="none">
            <path
                d="M11.255,0a2.1,2.1,0,0,1,1.8,1.008l2.97,5a1.934,1.934,0,0,1,0,1.985l-2.97,5A2.1,2.1,0,0,1,11.255,14h-5.9a2.1,2.1,0,0,1-1.8-1.008l-2.97-5a1.934,1.934,0,0,1,0-1.985l2.97-5A2.1,2.1,0,0,1,5.352,0Z"
                stroke="none" />
            <path
                d="M 5.352182388305664 1 C 4.959092140197754 1 4.596921920776367 1.198630332946777 4.406991958618164 1.518389701843262 L 1.437182426452637 6.51839017868042 C 1.258071899414062 6.819960117340088 1.258071899414062 7.180039882659912 1.437182426452637 7.48160982131958 L 4.407002449035645 12.48161029815674 C 4.596921920776367 12.80136966705322 4.959092140197754 13 5.352182388305664 13 L 11.25482177734375 13 C 11.64791202545166 13 12.01008224487305 12.80136966705322 12.20001220703125 12.48161029815674 L 15.16982173919678 7.481619834899902 C 15.34894180297852 7.180039882659912 15.34894180297852 6.819960117340088 15.16983222961426 6.51839017868042 L 12.20000267028809 1.518389701843262 C 12.01008224487305 1.198630332946777 11.64791202545166 1 11.25482177734375 1 L 5.352182388305664 1 M 5.352182388305664 0 L 11.25482177734375 0 C 12.00084209442139 0 12.68966197967529 0.3845701217651367 13.05978202819824 1.007719993591309 L 16.02960205078125 6.007719993591309 C 16.39480209350586 6.622590065002441 16.39480209350586 7.377409934997559 16.02960205078125 7.992280006408691 L 13.05978202819824 12.99228000640869 C 12.68966197967529 13.61542987823486 12.00084209442139 14 11.25482177734375 14 L 5.352182388305664 14 C 4.606162071228027 14 3.917342185974121 13.61542987823486 3.547222137451172 12.99228000640869 L 0.5774116516113281 7.992280006408691 C 0.2122020721435547 7.377409934997559 0.2122020721435547 6.622590065002441 0.5774116516113281 6.007719993591309 L 3.547222137451172 1.007719993591309 C 3.917342185974121 0.3845701217651367 4.606162071228027 0 5.352182388305664 0 Z"
                stroke="none" fill="#000" />
        </g>
    </g>
</svg>