<svg xmlns="http://www.w3.org/2000/svg" viewBox="0 0 16 16">
    <g transform="translate(1.333 1.334)">
        <path d="M0,0A3,3,0,0,1,3,3,3,3,0,0,1,0,6" transform="translate(3.667 14.665) rotate(-90)" fill="none"
            stroke="#000" stroke-linejoin="round" stroke-width="1" />
        <g transform="translate(3.667 5.666)" fill="none" stroke="#000" stroke-width="1">
            <rect width="6" height="6" rx="3" stroke="none" />
            <rect x="0.5" y="0.5" width="5" height="5" rx="2.5" fill="none" />
        </g>
        <rect width="4" height="4" rx="1" transform="translate(-1.333 1.666)" />
        <path
            d="M2.152,1.422a1.017,1.017,0,0,1,1.726,0L5.12,3.45a.986.986,0,0,1-.863,1.493H1.773A.986.986,0,0,1,.91,3.45Z"
            transform="translate(9.402 0.723)" />
        <path
            d="M1.393.464a1,1,0,0,1,1.214,0l.839.641a1,1,0,0,1,.348,1.09l-.34,1.1A1,1,0,0,1,2.5,4h-1a1,1,0,0,1-.955-.7l-.34-1.1A1,1,0,0,1,.554,1.1Z"
            transform="translate(4.667 -1.334)" />
    </g>
</svg>