<svg xmlns="http://www.w3.org/2000/svg" viewBox="0 0 16 16">
    <g transform="translate(0 2)">
        <g transform="translate(11.891 0) rotate(90)" fill="none">
            <path
                d="M4.947,10.318a1.255,1.255,0,0,0,2.106,0l4.8-8.693A1.1,1.1,0,0,0,10.8,0H1.2A1.1,1.1,0,0,0,.148,1.625Z"
                stroke="none" />
            <path
                d="M 6.000000953674316 9.890628814697266 C 6.023303031921387 9.890628814697266 6.139097213745117 9.886807441711426 6.189573287963867 9.813249588012695 L 10.99264049530029 1.113249063491821 C 10.99741554260254 1.105224370956421 10.99929237365723 1.100311040878296 10.9998607635498 1.099903464317322 C 10.99519348144531 1.076210975646973 10.93906497955322 0.9999990463256836 10.79864120483398 0.9999990463256836 L 1.201360940933228 0.9999990463256836 C 1.058610916137695 0.9999990463256836 1.002970933914185 1.078759074211121 0.9997709393501282 1.097339034080505 C 0.9997809529304504 1.097389101982117 1.001001000404358 1.102559089660645 1.007360935211182 1.113249063491821 L 1.023651003837585 1.141649127006531 L 5.810414791107178 9.813224792480469 C 5.860899448394775 9.886800765991211 5.976698875427246 9.890628814697266 6.000000953674316 9.890628814697266 M 6.000004768371582 10.89062690734863 C 5.587088584899902 10.89062690734863 5.174170970916748 10.6997537612915 4.946820735931396 10.31800937652588 L 0.1481809467077255 1.624919056892395 C -0.2878690361976624 0.8927190899848938 0.290740966796875 -9.269714382753591e-07 1.201360940933228 -9.269714382753591e-07 L 10.79864120483398 -9.269714382753591e-07 C 11.70926094055176 -9.269714382753591e-07 12.28787136077881 0.8927190899848938 11.85182094573975 1.624919056892395 L 7.053181171417236 10.31800937652588 C 6.825836181640625 10.6997537612915 6.412920951843262 10.89062690734863 6.000004768371582 10.89062690734863 Z"
                stroke="none" fill="#000" />
        </g>
        <line y2="11" transform="translate(14.401 0.5)" fill="none" stroke="#000" stroke-linecap="round"
            stroke-width="1" />
    </g>
</svg>