<svg xmlns="http://www.w3.org/2000/svg" width="16" height="16" viewBox="0 0 16 16"><rect width="16" height="16" fill="#fff" opacity="0"/><g transform="translate(1.563 1.051)"><g transform="translate(14.526 -0.049) rotate(90)" fill="none"><path d="M5.945,1.666a1.249,1.249,0,0,1,2.106,0l4.8,8.772a1.113,1.113,0,0,1-1.053,1.64H2.2a1.113,1.113,0,0,1-1.053-1.64Z" stroke="none"/><path d="M 6.998587131500244 2.088330268859863 C 6.966475963592529 2.088330268859863 6.860489368438721 2.094168663024902 6.811100482940674 2.167316436767578 L 2.007977485656738 10.94659042358398 C 1.996546745300293 10.96596050262451 1.994787216186523 10.96894073486328 2.006787300109863 10.98996067047119 C 2.01518726348877 11.00467014312744 2.063966751098633 11.07804012298584 2.199947357177734 11.07804012298584 L 11.79722690582275 11.07804012298584 C 11.93320655822754 11.07804012298584 11.98198699951172 11.00467014312744 11.99038696289062 10.98996067047119 C 12.00238704681396 10.96894073486328 12.0006275177002 10.96596050262451 11.98919677734375 10.94659042358398 L 11.97309684753418 10.91826057434082 L 7.186087608337402 2.167341232299805 C 7.13668966293335 2.094175338745117 7.030698299407959 2.088330268859863 6.998587131500244 2.088330268859863 M 6.998587131500244 1.088330268859863 C 7.411504745483398 1.088330268859863 7.824422359466553 1.280940055847168 8.051767349243164 1.666160583496094 L 12.85040664672852 10.43834018707275 C 13.28645706176758 11.17720031738281 12.70784759521484 12.07804012298584 11.79722690582275 12.07804012298584 L 2.199947357177734 12.07804012298584 C 1.289326667785645 12.07804012298584 0.7107172012329102 11.17720031738281 1.146766662597656 10.43834018707275 L 5.945406913757324 1.666160583496094 C 6.172751903533936 1.280940055847168 6.58566951751709 1.088330268859863 6.998587131500244 1.088330268859863 Z" stroke="none" fill="#000"/></g><line y2="11" transform="translate(-0.063 1.449)" fill="none" stroke="#000" stroke-linecap="round" stroke-width="1"/></g></svg>