<svg xmlns="http://www.w3.org/2000/svg" width="16" height="16" viewBox="0 0 16 16"><rect width="16" height="16" fill="#fff" opacity="0"/><g transform="translate(-0.667 -0.001)"><g transform="translate(0.667 2)" fill="none"><path d="M3,0H13a3,3,0,0,1,3,3V7a3,3,0,0,1-3,3H3A3,3,0,0,1,0,7V3A3,3,0,0,1,3,0Z" stroke="none"/><path d="M 3 1 C 1.897199630737305 1 1 1.897199630737305 1 3 L 1 7 C 1 8.102800369262695 1.897199630737305 9 3 9 L 13 9 C 14.1028003692627 9 15 8.102800369262695 15 7 L 15 3 C 15 1.897199630737305 14.1028003692627 1 13 1 L 3 1 M 3 0 L 13 0 C 14.65684986114502 0 16 1.34315013885498 16 3 L 16 7 C 16 8.65684986114502 14.65684986114502 10 13 10 L 3 10 C 1.34315013885498 10 0 8.65684986114502 0 7 L 0 3 C 0 1.34315013885498 1.34315013885498 0 3 0 Z" stroke="none" fill="#000"/></g><line x2="9" transform="translate(4.167 5.5)" fill="none" stroke="#000" stroke-linecap="round" stroke-linejoin="round" stroke-width="1"/><line x2="5" transform="translate(4.167 8.501)" fill="none" stroke="#000" stroke-linecap="round" stroke-linejoin="round" stroke-width="1"/><g transform="translate(1.798 10.594)" stroke-linecap="round"><path d="M 2.368659257888794 3.199211835861206 L 2.368653535842896 0.90631103515625 L 4.661554336547852 0.90631103515625 L 2.368659257888794 3.199211835861206 Z" stroke="none"/><path d="M 2.868655204772949 1.40631103515625 L 2.868656635284424 1.992092847824097 L 3.454436779022217 1.40631103515625 L 2.868655204772949 1.40631103515625 M 1.86865234375 0.40631103515625 L 5.86865234375 0.40631103515625 L 1.868662357330322 4.40631103515625 L 1.86865234375 0.40631103515625 Z" stroke="none" fill="#000"/></g></g></svg>