<svg xmlns="http://www.w3.org/2000/svg" width="16" height="16" viewBox="0 0 16 16"><rect width="16" height="16" fill="#fff" opacity="0"/><g transform="translate(-1072 -1899)"><g transform="translate(1071.877 1901.375)" fill="none" stroke-linecap="round"><path d="M13.124,10.624h-10A3,3,0,0,1,2.14,4.789,3.5,3.5,0,0,1,7.135,1.966a4,4,0,0,1,6.989,2.659q0,.085,0,.169a3,3,0,0,1-.969,5.83h-.026Z" stroke="none"/><path d="M 13.12470054626465 9.623600006103516 L 13.14201068878174 9.623470306396484 C 14.23461055755615 9.613849639892578 15.12350082397461 8.716850280761719 15.12350082397461 7.623899936676025 C 15.12350082397461 6.776319980621338 14.58685111999512 6.017970085144043 13.78812122344971 5.736850261688232 L 13.09018039703369 5.491209983825684 L 13.12098121643066 4.751950263977051 C 13.12278079986572 4.708559989929199 13.12370109558105 4.665580272674561 13.12370109558105 4.624199867248535 C 13.12370109558105 2.969720125198364 11.77809047698975 1.623700022697449 10.12410068511963 1.623700022697449 C 9.268450736999512 1.623700022697449 8.451120376586914 1.990650057792664 7.881690979003906 2.630460023880005 L 7.381270885467529 3.192730188369751 L 6.70249080657959 2.867410182952881 C 6.364940643310547 2.70563006401062 6.002120971679688 2.623600006103516 5.624100685119629 2.623600006103516 C 4.327390670776367 2.623600006103516 3.257470846176147 3.59522008895874 3.13537073135376 4.883679866790771 L 3.074750900268555 5.523360252380371 L 2.467730760574341 5.734050273895264 C 1.66412079334259 6.012969970703125 1.124200820922852 6.772439956665039 1.124200820922852 7.623899936676025 C 1.124200820922852 8.726539611816406 2.021260738372803 9.623600006103516 3.12480092048645 9.623600006103516 L 13.12470054626465 9.623600006103516 M 13.12470054626465 10.62360000610352 L 3.12480092048645 10.62360000610352 C 3.124560594558716 10.62360000610352 3.124140739440918 10.62360000610352 3.123900890350342 10.62360000610352 C 1.467000842094421 10.62360000610352 0.1242008209228516 9.280799865722656 0.1242008209228516 7.623899936676025 C 0.1242008209228516 6.311749935150146 0.9664608240127563 5.196599960327148 2.139830827713013 4.789340019226074 C 2.308160781860352 3.013040065765381 3.803700923919678 1.623600125312805 5.624100685119629 1.623600125312805 C 6.164960861206055 1.623600125312805 6.67733097076416 1.746430039405823 7.134690761566162 1.965630054473877 C 7.867420673370361 1.142340064048767 8.935200691223145 0.6237000823020935 10.12410068511963 0.6237000823020935 C 12.33270072937012 0.6237000823020935 14.12370109558105 2.414700031280518 14.12370109558105 4.624199867248535 C 14.12370109558105 4.680950164794922 14.12245082855225 4.737390041351318 14.12011051177979 4.793570041656494 C 15.28711128234863 5.204299926757812 16.12350082397461 6.316299915313721 16.12350082397461 7.623899936676025 C 16.12350082397461 9.27180004119873 14.79529094696045 10.60894966125488 13.15081119537354 10.6234302520752 C 13.14214038848877 10.62353992462158 13.13339042663574 10.62360000610352 13.12470054626465 10.62360000610352 Z" stroke="none" fill="#000"/></g><g transform="translate(1066.75 1907.125)"><line y2="2" transform="translate(13.25 -0.125)" fill="none" stroke="#000" stroke-linecap="round" stroke-miterlimit="10" stroke-width="1"/><g transform="translate(12.25 -1.125)" fill="none" stroke="#000" stroke-width="1"><circle cx="1" cy="1" r="1" stroke="none"/><circle cx="1" cy="1" r="0.5" fill="none"/></g></g></g></svg>