<svg xmlns="http://www.w3.org/2000/svg" width="16" height="16.009" viewBox="0 0 16 16.009"><g transform="translate(0 0.009)"><rect width="16" height="16" fill="#fff" opacity="0"/><g transform="translate(0.001 -0.998)"><rect width="3" height="8" rx="1" transform="translate(0.499 7.499)" fill="none" stroke="#000" stroke-linejoin="round" stroke-width="1"/><path d="M21.784,11.34h-.749l.059-.4h.69a.978.978,0,1,0,0-1.956h-1.5L16.786,9s.918-3.613-1.3-4.8c-1.424-.687-1.7.6-1.7.6V7.5l-1,.5s-1.992,1.2-2,2.5v6a1.314,1.314,0,0,0,1.5,1.5h8a1.1,1.1,0,0,0,1.12-.978.993.993,0,0,0-1-.978h-.068l.059-.4h.7a.978.978,0,1,0,0-1.955h-.408l.059-.4h1.039a.978.978,0,1,0,0-1.956Z" transform="translate(-7.287 -2.5)" fill="none" stroke="#000" stroke-linecap="round" stroke-linejoin="round" stroke-width="1"/></g></g></svg>