<svg xmlns="http://www.w3.org/2000/svg" width="16" height="16" viewBox="0 0 16 16"><rect width="16" height="16" fill="#fff" opacity="0"/><g transform="translate(0.667 0.568)"><path d="M9,8.872a4.272,4.272,0,0,1,4.5-4,4.272,4.272,0,0,1,4.5,4" transform="translate(-6.167 -4.938)" fill="none" stroke="#000" stroke-linecap="round" stroke-linejoin="round" stroke-width="1"/><g transform="translate(0.333 3.433)" fill="none" stroke="#000" stroke-linejoin="round" stroke-width="1"><rect width="5" height="7" rx="2" stroke="none"/><rect x="0.5" y="0.5" width="4" height="6" rx="1.5" fill="none"/></g><g transform="translate(9.333 3.433)" fill="none" stroke="#000" stroke-linejoin="round" stroke-width="1"><rect width="5" height="7" rx="2.004" stroke="none"/><rect x="0.5" y="0.5" width="4" height="6" rx="1.504" fill="none"/></g><path d="M21.161,19.35l0,2c0,1.394-.451,2-1.5,2l-1.5,0" transform="translate(-9.331 -9.418)" fill="none" stroke="#000" stroke-linecap="round" stroke-linejoin="round" stroke-width="1"/><circle cx="1" cy="1" r="1" transform="translate(6.833 12.931)" fill="none" stroke="#000" stroke-linecap="round" stroke-linejoin="round" stroke-width="1"/></g></svg>