<svg xmlns="http://www.w3.org/2000/svg" width="17" height="17" viewBox="0 0 17 17"><g transform="translate(0.5 0.5)"><rect width="16" height="16" fill="#fff" stroke="rgba(0,0,0,0)" stroke-miterlimit="10" stroke-width="1" opacity="0"/><g transform="translate(2.667 1.334)"><g transform="translate(-434.167 362.936)" fill="none" stroke-linecap="round" stroke-linejoin="round"><path d="M445.5-364.27h-7a2.006,2.006,0,0,0-2,2v4a2.011,2.011,0,0,0,2,2h1v1c0,1,.4,1.2,1,.8l2-1.8h3a2.009,2.009,0,0,0,2-2v-4A2,2,0,0,0,445.5-364.27Z" stroke="none"/><path d="M 438.5 -363.26953125 C 437.9486083984375 -363.26953125 437.5 -362.8202514648438 437.5 -362.2680053710938 L 437.5 -358.2657165527344 C 437.5 -357.7228393554688 437.9579467773438 -357.2641906738281 438.5 -357.2641906738281 L 439.5 -357.2641906738281 C 440.0522766113281 -357.2641906738281 440.5 -356.8164672851562 440.5 -356.2641906738281 L 440.5 -355.8081359863281 L 441.8305969238281 -357.0071105957031 C 442.0142822265625 -357.172607421875 442.2527465820312 -357.2641906738281 442.5 -357.2641906738281 L 445.5 -357.2641906738281 C 446.0420532226562 -357.2641906738281 446.5 -357.7228393554688 446.5 -358.2657165527344 L 446.5 -362.2680053710938 C 446.5 -362.8202514648438 446.0513916015625 -363.26953125 445.5 -363.26953125 L 438.5 -363.26953125 M 438.5 -364.26953125 L 445.5 -364.26953125 C 446.6003112792969 -364.26953125 447.5 -363.3728637695312 447.5 -362.2680053710938 L 447.5 -358.2657165527344 C 447.5 -357.1671752929688 446.5980529785156 -356.2641906738281 445.5 -356.2641906738281 L 442.5 -356.2641906738281 L 440.5 -354.4620361328125 C 439.9000549316406 -354.0624694824219 439.5000305175781 -354.263916015625 439.5 -355.263427734375 L 439.5 -356.2641906738281 L 438.5 -356.2641906738281 C 437.4026184082031 -356.2641906738281 436.5 -357.1697082519531 436.5 -358.2657165527344 L 436.5 -362.2680053710938 C 436.5 -363.3669738769531 437.3970642089844 -364.26953125 438.5 -364.26953125 Z" stroke="none" fill="#000"/></g><g transform="translate(434.333 -65.833)" fill="none" stroke-miterlimit="10"><path d="M-427.017,67.611a.184.184,0,0,0-.073-.079.263.263,0,0,0-.1-.033l-.631-.1a.3.3,0,0,1-.127-.06.317.317,0,0,1-.094-.108l-.282-.6a.278.278,0,0,0-.068-.093.169.169,0,0,0-.11-.043.169.169,0,0,0-.11.043.275.275,0,0,0-.068.093l-.282.6a.319.319,0,0,1-.094.108.3.3,0,0,1-.127.06l-.632.1a.244.244,0,0,0-.125.054.18.18,0,0,0-.045.059.175.175,0,0,0-.017.075.205.205,0,0,0,.023.092.292.292,0,0,0,.054.074l.457.466a.31.31,0,0,1,.061.1.393.393,0,0,1,.025.132.217.217,0,0,1,0,.035l-.108.657h0a.316.316,0,0,0,0,.055.214.214,0,0,0,.043.137.162.162,0,0,0,.06.046.168.168,0,0,0,.07.015.249.249,0,0,0,.119-.034l.565-.31a.3.3,0,0,1,.137-.03.3.3,0,0,1,.137.03l.565.31a.248.248,0,0,0,.119.034.169.169,0,0,0,.071-.015.169.169,0,0,0,.08-.078.233.233,0,0,0,.023-.1.347.347,0,0,0,0-.055l-.108-.658h0a.221.221,0,0,1,0-.035.394.394,0,0,1,.026-.132.3.3,0,0,1,.062-.1l.457-.466a.291.291,0,0,0,.054-.074.2.2,0,0,0,.023-.092A.177.177,0,0,0-427.017,67.611Z" stroke="none"/><path d="M -428.5009765625 66.49995422363281 C -428.5004272460938 66.49996185302734 -428.4998168945312 66.49996185302734 -428.499267578125 66.49995422363281 C -428.4575805664062 66.49995422363281 -428.4186706542969 66.51787567138672 -428.3900146484375 66.54286956787109 C -428.36083984375 66.56806182861328 -428.339111328125 66.59986114501953 -428.3218994140625 66.63601684570312 L -428.0394897460938 67.23430633544922 C -428.0244750976562 67.26717376708984 -427.98876953125 67.30982971191406 -427.945556640625 67.34217071533203 C -427.90283203125 67.37505340576172 -427.852783203125 67.39748382568359 -427.8182373046875 67.40230560302734 L -427.186767578125 67.49817657470703 C -427.152099609375 67.50339508056641 -427.11962890625 67.51358032226562 -427.08984375 67.53130340576172 C -427.0604248046875 67.54878234863281 -427.0331420898438 67.57552337646484 -427.0166625976562 67.61075592041016 C -427.0056762695312 67.63408660888672 -426.9998779296875 67.66057586669922 -427 67.68601226806641 C -427 67.71953582763672 -427.009033203125 67.75083160400391 -427.0228271484375 67.77808380126953 C -427.0364990234375 67.80558013916016 -427.0548095703125 67.82971954345703 -427.0767822265625 67.85218048095703 L -427.53369140625 68.31782531738281 C -427.5552978515625 68.33948516845703 -427.5791625976562 68.37835693359375 -427.59521484375 68.42243194580078 C -427.61181640625 68.46640014648438 -427.6209716796875 68.51544189453125 -427.6209106445312 68.55471038818359 C -427.6209106445312 68.56789398193359 -427.619873046875 68.57973480224609 -427.6182861328125 68.58953094482422 L -427.6182861328125 68.58980560302734 L -427.5103149414062 69.24730682373047 C -427.50732421875 69.26594543457031 -427.505615234375 69.28423309326172 -427.505615234375 69.30222320556641 C -427.505859375 69.33782196044922 -427.5118408203125 69.37371063232422 -427.5286865234375 69.40708160400391 C -427.545166015625 69.44049072265625 -427.5745849609375 69.46994018554688 -427.60888671875 69.48522186279297 C -427.6319885253906 69.49567413330078 -427.6573486328125 69.50021362304688 -427.6795043945312 69.49995422363281 C -427.7216796875 69.49981689453125 -427.7607421875 69.48667144775391 -427.7984619140625 69.46603393554688 L -428.36328125 69.15574645996094 C -428.3940124511719 69.13840484619141 -428.444580078125 69.12541961669922 -428.5001220703125 69.12614440917969 C -428.5530090332031 69.12569427490234 -428.6063232421875 69.13841247558594 -428.6367797851562 69.15574645996094 L -429.2014770507812 69.46603393554688 C -429.2397155761719 69.48685455322266 -429.2781677246094 69.49957275390625 -429.3215637207031 69.49995422363281 C -429.344482421875 69.49995422363281 -429.3683776855469 69.49550628662109 -429.3909912109375 69.48522186279297 C -429.4138793945312 69.47505187988281 -429.4349365234375 69.45870971679688 -429.4508666992188 69.43877410888672 C -429.4832763671875 69.39835357666016 -429.4942626953125 69.34916687011719 -429.4942626953125 69.30222320556641 C -429.4942626953125 69.28396606445312 -429.492919921875 69.26557159423828 -429.4896240234375 69.24691009521484 L -429.4896850585938 69.24730682373047 L -429.3819580078125 68.58992004394531 C -429.3802490234375 68.57973480224609 -429.3794555664062 68.56789398193359 -429.3794555664062 68.55457305908203 C -429.3790283203125 68.51544189453125 -429.3885498046875 68.46640014648438 -429.40478515625 68.42243194580078 C -429.4210205078125 68.37835693359375 -429.44482421875 68.33948516845703 -429.4662475585938 68.31782531738281 L -429.9232788085938 67.85218048095703 C -429.9452514648438 67.82987976074219 -429.963623046875 67.80558013916016 -429.9774169921875 67.77808380126953 C -429.9910888671875 67.75083160400391 -430 67.71953582763672 -430 67.68601226806641 C -430.0001831054688 67.66057586669922 -429.9945068359375 67.63408660888672 -429.9833984375 67.61075592041016 C -429.972412109375 67.58740997314453 -429.95654296875 67.56742095947266 -429.9386596679688 67.55193328857422 C -429.902099609375 67.52062225341797 -429.859375 67.50531005859375 -429.813232421875 67.49817657470703 L -429.1817016601562 67.40230560302734 C -429.1470947265625 67.39748382568359 -429.0971069335938 67.37505340576172 -429.0545654296875 67.34217071533203 C -429.0114135742188 67.30982971191406 -428.9754638671875 67.26705169677734 -428.96044921875 67.23418426513672 L -428.6781005859375 66.63614654541016 C -428.6609497070312 66.59986114501953 -428.6392822265625 66.56806182861328 -428.6099853515625 66.54286956787109 C -428.5813293457031 66.51787567138672 -428.5425415039062 66.49995422363281 -428.5009765625 66.49995422363281 Z" stroke="none" fill="#000"/></g><path d="M-427.017,67.611a.184.184,0,0,0-.073-.079.263.263,0,0,0-.1-.033l-.631-.1a.3.3,0,0,1-.127-.06.317.317,0,0,1-.094-.108l-.282-.6a.278.278,0,0,0-.068-.093.169.169,0,0,0-.11-.043.169.169,0,0,0-.11.043.275.275,0,0,0-.068.093l-.282.6a.319.319,0,0,1-.094.108.3.3,0,0,1-.127.06l-.632.1a.244.244,0,0,0-.125.054.18.18,0,0,0-.045.059.175.175,0,0,0-.017.075.205.205,0,0,0,.023.092.292.292,0,0,0,.054.074l.457.466a.31.31,0,0,1,.061.1.393.393,0,0,1,.025.132.217.217,0,0,1,0,.035l-.108.657h0a.316.316,0,0,0,0,.055.214.214,0,0,0,.043.137.162.162,0,0,0,.06.046.168.168,0,0,0,.07.015.249.249,0,0,0,.119-.034l.565-.31a.3.3,0,0,1,.137-.03.3.3,0,0,1,.137.03l.565.31a.248.248,0,0,0,.119.034.169.169,0,0,0,.071-.015.169.169,0,0,0,.08-.078.233.233,0,0,0,.023-.1.347.347,0,0,0,0-.055l-.108-.658h0a.221.221,0,0,1,0-.035.394.394,0,0,1,.026-.132.3.3,0,0,1,.062-.1l.457-.466a.291.291,0,0,0,.054-.074.2.2,0,0,0,.023-.092A.177.177,0,0,0-427.017,67.611Z" transform="translate(438.333 -65.833)"/><path d="M0,0A2.5,2.5,0,0,1,2.5,2.5,2.5,2.5,0,0,1,0,5" transform="translate(-1.167 14.667) rotate(-90)" fill="none" stroke="#000" stroke-linejoin="round" stroke-width="1"/><g transform="translate(-0.667 7.666)" fill="none" stroke="#000" stroke-width="1"><rect width="4" height="4" rx="2" stroke="none"/><rect x="0.5" y="0.5" width="3" height="3" rx="1.5" fill="none"/></g></g></g></svg>