<svg xmlns="http://www.w3.org/2000/svg" viewBox="0 0 16 16">
    <g transform="translate(0 3)">
        <path
            d="M9.908,16.074H6.6L5.984,18.35H4l2.876-10H9.631l2.869,10H10.517Zm-.4-1.5L8.919,12.4c-.223-.844-.428-1.622-.669-2.6-.235.979-.446,1.756-.663,2.6L7,14.574Z"
            transform="translate(-4 -8.35)" />
        <path
            d="M24.4,14.168v5.351H23.123l-.156-.642-1.014.426a3.817,3.817,0,0,1-1.471.326,2.015,2.015,0,0,1-2.079-2.28V17.22c0-1.344.852-2.121,2.757-2.121h1.552V13.977c0-.585-.208-.912-.863-.912h-.561c-.556,0-.857.179-.857.69v.56H18.717v-.461c0-1.424.956-2.225,2.595-2.225h.509C23.419,11.629,24.4,12.314,24.4,14.168Zm-1.691,2.189H21.12c-.666,0-.979.2-.979.684V17.5c0,.487.249.728.672.728a2.011,2.011,0,0,0,.77-.167l1.124-.339Z"
            transform="translate(-8.405 -9.627)" />
    </g>
</svg>