<svg xmlns="http://www.w3.org/2000/svg" width="16" height="16" viewBox="0 0 16 16"><rect width="16" height="16" fill="#fff" opacity="0"/><g transform="translate(1.333 2.668)"><path d="M10.453,16.572H7.727l-.64,2h-1.5l2.368-8h2.269l2.363,8h-1.5Zm-.332-1-.482-1.763c-.183-.675-.352-1.453-.551-2.237-.193.784-.367,1.562-.546,2.237L8.06,15.572Z" transform="translate(-6.921 -9.24)"/><path d="M19.152,14.541v4.013h-.96l-.117-.481-.76.32a2.871,2.871,0,0,1-1.1.244,1.511,1.511,0,0,1-1.559-1.71v-.1c0-1.009.639-1.591,2.068-1.591h1.164V14.4c0-.439-.156-.684-.647-.684h-.421c-.417,0-.643.134-.643.517v.421H14.888v-.347c0-1.068.717-1.669,1.945-1.669h.382C18.414,12.637,19.152,13.15,19.152,14.541Zm-1.268,1.641H16.69c-.5,0-.734.148-.734.514v.346c0,.366.186.546.5.546a1.512,1.512,0,0,0,.577-.125l.843-.255Z" transform="translate(-7.987 -9.304)"/><path d="M25.077,9.238h1v14h-1Z" transform="translate(-11.41 -10.906)"/></g></svg>