<svg xmlns="http://www.w3.org/2000/svg" width="16" height="16" viewBox="0 0 16 16"><rect width="16" height="16" fill="#fff" opacity="0"/><g transform="translate(0.667 0.999)"><g transform="translate(1.333 1)" fill="none" stroke="#000" stroke-miterlimit="10" stroke-width="1"><path d="M0,0H12a0,0,0,0,1,0,0V12a2,2,0,0,1-2,2H2a2,2,0,0,1-2-2V0A0,0,0,0,1,0,0Z" stroke="none"/><path d="M.5.5h11a0,0,0,0,1,0,0V12A1.5,1.5,0,0,1,10,13.5H2A1.5,1.5,0,0,1,.5,12V.5A0,0,0,0,1,.5.5Z" fill="none"/></g><line x2="15" transform="translate(-0.167 1.5)" fill="none" stroke="#000" stroke-linecap="round" stroke-miterlimit="10" stroke-width="1"/><line y2="5" transform="translate(5.833 5.5)" fill="none" stroke="#000" stroke-linecap="round" stroke-miterlimit="10" stroke-width="1"/><line y2="5" transform="translate(8.833 5.5)" fill="none" stroke="#000" stroke-linecap="round" stroke-miterlimit="10" stroke-width="1"/><g transform="translate(10.333 1.001) rotate(-180)" fill="none" stroke="#000" stroke-miterlimit="10" stroke-width="1"><path d="M0,0H6A0,0,0,0,1,6,0V1A1,1,0,0,1,5,2H1A1,1,0,0,1,0,1V0A0,0,0,0,1,0,0Z" stroke="none"/><path d="M.5.5h5a0,0,0,0,1,0,0V1a.5.5,0,0,1-.5.5H1A.5.5,0,0,1,.5,1V.5A0,0,0,0,1,.5.5Z" fill="none"/></g></g></svg>