<svg xmlns="http://www.w3.org/2000/svg" width="16" height="16" viewBox="0 0 16 16"><rect width="16" height="16" transform="translate(0)" fill="#fff" opacity="0"/><g transform="translate(1.333 3.334)"><g transform="translate(-1.333 -0.668)"><g transform="translate(-70.858 -8.816)" stroke-linecap="round" stroke-linejoin="round"><path d="M 86.31822967529297 16.64837265014648 C 86.30298614501953 16.64837265014648 86.28958129882812 16.64453125 86.27723693847656 16.63663101196289 L 82.39744567871094 14.14837265014648 L 86.27754974365234 11.65992164611816 C 86.28958892822266 11.65221214294434 86.30298614501953 11.64837169647217 86.31822967529297 11.64837169647217 C 86.33498382568359 11.64837169647217 86.34901428222656 11.6529541015625 86.35824584960938 11.65746307373047 L 86.35824584960938 16.63929176330566 C 86.34901428222656 16.64379501342773 86.33498382568359 16.64837265014648 86.31822967529297 16.64837265014648 Z" stroke="none"/><path d="M 85.85824584960938 12.52282428741455 L 83.32362365722656 14.1483736038208 L 85.85824584960938 15.77392482757568 L 85.85824584960938 12.52282428741455 M 86.31822967529297 11.14837265014648 C 86.59746551513672 11.14840507507324 86.85824584960938 11.34714698791504 86.85824584960938 11.63231086730957 L 86.85824584960938 16.66444206237793 C 86.85824584960938 17.05709457397461 86.36393737792969 17.28587532043457 86.00762176513672 17.05771255493164 L 82.08349609375 14.5410213470459 C 81.78317260742188 14.34872150421143 81.78317260742188 13.94802188873291 82.08349609375 13.75572204589844 L 86.00762176513672 11.23904228210449 C 86.10516357421875 11.17657852172852 86.21298217773438 11.14836120605469 86.31822967529297 11.14837265014648 Z" stroke="none" fill="#000"/></g><g transform="translate(0 0.333)" fill="none" stroke="#000" stroke-width="1"><rect width="12" height="10" rx="2" stroke="none"/><rect x="0.5" y="0.5" width="11" height="9" rx="1.5" fill="none"/></g></g><circle cx="1.5" cy="1.5" r="1.5" transform="translate(-0.333 -1.333)" fill="#cb000f"/></g></svg>