<svg xmlns="http://www.w3.org/2000/svg" width="16.002" height="16" viewBox="0 0 16.002 16">
    <rect transform="translate(0.001)" fill="#fff" opacity="0" />
    <g transform="translate(2.001 3.334)">
        <g transform="translate(-13148 -20623)" fill="none" stroke-miterlimit="10">
            <path
                d="M13152,20634.666a2,2,0,0,1-2-2v-2h-2a2,2,0,0,1-2-2v-6a2,2,0,0,1,2-2h8a2,2,0,0,1,2,2v2h2a2,2,0,0,1,2,2v6a2,2,0,0,1-2,2Z"
                stroke="none" />
            <path
                d="M 13160.001953125 20633.666015625 C 13160.552734375 20633.666015625 13161.0009765625 20633.21875 13161.0009765625 20632.66796875 L 13161.0009765625 20626.666015625 C 13161.0009765625 20626.115234375 13160.552734375 20625.66796875 13160.001953125 20625.66796875 L 13156.998046875 20625.66796875 L 13156.998046875 20622.66796875 C 13156.998046875 20622.115234375 13156.5498046875 20621.6640625 13155.9990234375 20621.6640625 L 13147.998046875 20621.6640625 C 13147.447265625 20621.6640625 13146.9990234375 20622.115234375 13146.9990234375 20622.66796875 L 13146.9990234375 20628.6640625 C 13146.9990234375 20629.21484375 13147.447265625 20629.6640625 13147.998046875 20629.6640625 L 13151.001953125 20629.6640625 L 13151.001953125 20632.66796875 C 13151.001953125 20633.21875 13151.4501953125 20633.666015625 13152.0009765625 20633.666015625 L 13160.001953125 20633.666015625 M 13160.001953125 20634.666015625 L 13152.0009765625 20634.666015625 C 13150.892578125 20634.666015625 13150.001953125 20633.771484375 13150.001953125 20632.66796875 L 13150.001953125 20630.6640625 L 13147.998046875 20630.6640625 C 13146.8955078125 20630.6640625 13145.9990234375 20629.7734375 13145.9990234375 20628.6640625 L 13145.9990234375 20622.66796875 C 13145.9990234375 20621.560546875 13146.8955078125 20620.6640625 13147.998046875 20620.6640625 L 13155.9990234375 20620.6640625 C 13157.1025390625 20620.6640625 13157.998046875 20621.560546875 13157.998046875 20622.66796875 L 13157.998046875 20624.66796875 L 13160.001953125 20624.66796875 C 13161.10546875 20624.66796875 13162.0009765625 20625.5625 13162.0009765625 20626.666015625 L 13162.0009765625 20632.66796875 C 13162.0009765625 20633.771484375 13161.10546875 20634.666015625 13160.001953125 20634.666015625 Z"
                stroke="none" fill="#000" />
        </g>
        <g transform="translate(-2 -2.334)" fill="none" stroke="#000" stroke-miterlimit="10" stroke-width="1">
            <rect width="12" height="10" rx="2" stroke="none" />
            <rect x="0.5" y="0.5" width="11" height="9" rx="1.5" fill="none" />
        </g>
    </g>
</svg>