<svg xmlns="http://www.w3.org/2000/svg" viewBox="0 0 16 16">
    <g transform="translate(3.666 -0.5)">
        <path
            d="M11592.835,18802a3.035,3.035,0,0,1-.776-.1l.9-.9a2,2,0,0,0,1.871-1.871l1-1v.877A3,3,0,0,1,11592.835,18802Zm-2.9-2.221v0a3.029,3.029,0,0,1-.1-.775v-5a3,3,0,0,1,6-.119l-1,1V18794a2,2,0,1,0-4,0v4.877l-.9.9Z"
            transform="translate(-11588.5 -18790.5)" />
        <path
            d="M11592.835,18804a5.58,5.58,0,0,1-2.36-.52l.764-.764a4.561,4.561,0,0,0,1.6.281c2.2,0,4-1.514,4-3.375v-1.123a.5.5,0,0,1,1,0v1.123C11597.834,18802.035,11595.592,18804,11592.835,18804Zm-4.555-2.568v0a3.865,3.865,0,0,1-.447-1.807v-1.123a.5.5,0,0,1,1,0v1.123a2.889,2.889,0,0,0,.2,1.055l-.752.752Z"
            transform="translate(-11588.5 -18790.5)" />
        <line y2="3" transform="translate(4.334 12.5)" fill="none" stroke="#000" stroke-miterlimit="10"
            stroke-width="1" />
        <line x2="7" transform="translate(0.834 16)" fill="none" stroke="#000" stroke-linecap="round"
            stroke-miterlimit="10" stroke-width="1" />
        <line y1="14" x2="14" transform="translate(-2.666 1.5)" fill="none" stroke="#000" stroke-linecap="round"
            stroke-width="1" />
    </g>
</svg>