<svg xmlns="http://www.w3.org/2000/svg" width="16.147" height="16" viewBox="0 0 16.147 16">
    <rect transform="translate(0)" fill="#fff" opacity="0" />
    <g transform="translate(2 3.332)">
        <path d="M-472.8,76.031a3.69,3.69,0,0,1,0,5" transform="translate(485.303 -73.864)" fill="none" stroke="#000"
            stroke-linecap="round" stroke-miterlimit="10" stroke-width="1" />
        <g transform="translate(486.119 -72.075)" fill="none" stroke-linejoin="round">
            <path
                d="M-488.119,78.234c0,1.054.425,1.5,1.429,1.5h2.857a.811.811,0,0,1,.552.222l3.746,2.563a.86.86,0,0,0,1.417-.744V71.712a.86.86,0,0,0-1.417-.744l-3.746,2.539a.811.811,0,0,1-.552.222h-2.857c-1,0-1.429.458-1.429,1.5Z"
                stroke="none" />
            <path
                d="M -479.119140625 81.59442901611328 L -479.1191711425781 76.70806884765625 L -479.119140625 71.89371490478516 L -482.6695251464844 74.30051422119141 C -482.999267578125 74.57785034179688 -483.4092102050781 74.72957611083984 -483.8334655761719 74.72957611083984 L -486.6905822753906 74.72957611083984 C -486.9315185546875 74.72957611083984 -487.0303039550781 74.76839447021484 -487.0543212890625 74.77996063232422 C -487.068115234375 74.80632019042969 -487.119140625 74.92475891113281 -487.119140625 75.23119354248047 L -487.119140625 78.23442077636719 C -487.119140625 78.53818511962891 -487.0721130371094 78.65718078613281 -487.0569458007812 78.68766784667969 C -487.0291748046875 78.70032501220703 -486.9296875 78.73603057861328 -486.6905822753906 78.73603057861328 L -483.8335266113281 78.73603057861328 C -483.408447265625 78.73603057861328 -482.9976806640625 78.88838195800781 -482.6676330566406 79.16676330566406 L -479.119140625 81.59442901611328 M -478.9886169433594 82.74453735351562 C -479.1764831542969 82.74453735351562 -479.3686828613281 82.67523956298828 -479.53564453125 82.52111053466797 L -483.2816467285156 79.95830535888672 C -483.4368896484375 79.81467437744141 -483.6316223144531 79.73603057861328 -483.8335266113281 79.73603057861328 L -486.6905822753906 79.73603057861328 C -487.6937561035156 79.73603057861328 -488.119140625 79.28809356689453 -488.119140625 78.23442077636719 L -488.119140625 75.23119354248047 C -488.119140625 74.187255859375 -487.6886291503906 73.72957611083984 -486.6905822753906 73.72957611083984 L -483.8334655761719 73.72957611083984 C -483.6315612792969 73.72957611083984 -483.4368286132812 73.65094757080078 -483.2815856933594 73.50731658935547 L -479.53564453125 70.96794891357422 C -478.9716491699219 70.44721984863281 -478.119140625 70.89492797851562 -478.119140625 71.71178436279297 L -478.1191711425781 76.75785064697266 L -478.119140625 81.77727508544922 C -478.119140625 82.35240173339844 -478.5416564941406 82.74454498291016 -478.9886169433594 82.74453735351562 Z"
                stroke="none" fill="#000" />
        </g>
    </g>
</svg>