<svg xmlns="http://www.w3.org/2000/svg" viewBox="0 0 16 16">
    <line y2="4" transform="translate(8 4.5)" fill="none" stroke="#000" stroke-linecap="round" stroke-linejoin="round"
        stroke-width="1" />
    <line y1="1" transform="translate(8 11.5)" fill="none" stroke="#000" stroke-linecap="round" stroke-linejoin="round"
        stroke-width="1" />
    <g transform="translate(-312.998 -3.457)" fill="none" stroke-linecap="round" stroke-linejoin="round">
        <path
            d="M319.861,5.106a1.324,1.324,0,0,1,2.277,0l3.341,5.7,3.342,5.7a1.3,1.3,0,0,1-1.138,1.944H314.316a1.3,1.3,0,0,1-1.138-1.944l3.342-5.7Z"
            stroke="none" />
        <path
            d="M 320.9991149902344 5.457996368408203 C 320.9297485351562 5.457996368408203 320.8016967773438 5.477886199951172 320.7236633300781 5.611127853393555 L 314.040771484375 17.01933670043945 C 313.9724426269531 17.13613700866699 314.0022277832031 17.23764801025391 314.0392761230469 17.30223655700684 C 314.0726318359375 17.36040687561035 314.1529541015625 17.4579963684082 314.3161010742188 17.4579963684082 L 327.6821899414062 17.4579963684082 C 327.8453369140625 17.4579963684082 327.9256591796875 17.36040687561035 327.9590148925781 17.30223655700684 C 327.9960632324219 17.23764801025391 328.0258483886719 17.13613700866699 327.9577331542969 17.01973724365234 L 321.2745666503906 5.61109733581543 C 321.196533203125 5.477886199951172 321.0684814453125 5.457996368408203 320.9991149902344 5.457996368408203 M 320.9991149902344 4.457996368408203 C 321.4418334960938 4.457996368408203 321.8845520019531 4.673906326293945 322.137451171875 5.10572624206543 L 328.820556640625 16.51422691345215 C 329.3263549804688 17.37845611572266 328.69384765625 18.4579963684082 327.6821899414062 18.4579963684082 L 314.3161010742188 18.4579963684082 C 313.304443359375 18.4579963684082 312.6719360351562 17.37845611572266 313.177734375 16.51422691345215 L 319.8607788085938 5.10572624206543 C 320.1136779785156 4.673906326293945 320.556396484375 4.457996368408203 320.9991149902344 4.457996368408203 Z"
            stroke="none" fill="#000" />
    </g>
</svg>