<svg xmlns="http://www.w3.org/2000/svg" width="16" height="16.002" viewBox="0 0 16 16.002">
    <g transform="translate(0 0.001)">
        <g transform="translate(0.665 0)">
            <g transform="translate(7.734 3.8)">
                <path
                    d="M21.5,19.481c3.323-1.346,1.5-6.981,1.5-6.981h-5s-1.819,5.636,1.5,6.981a2,2,0,0,0,.438.014H21.1A1.713,1.713,0,0,0,21.5,19.481Z"
                    transform="translate(-17.406 -12.299)" fill="none" stroke="#000" stroke-linecap="round"
                    stroke-linejoin="round" stroke-width="1" fill-rule="evenodd" />
                <line y2="4" transform="translate(3.101 7.202)" fill="none" stroke="#000" stroke-linecap="round"
                    stroke-linejoin="round" stroke-width="1" />
                <line x1="4" transform="translate(1.1 11.702)" fill="none" stroke="#000" stroke-linecap="round"
                    stroke-linejoin="round" stroke-width="1" />
            </g>
            <g transform="translate(0.835 1.002)">
                <path
                    d="M7.273,18.5c-1,0-1,0-1-1V10.167c.012-.265,0-.833,0-.833L7.273,7V3.5h3V7l1,2.333c.008.008-.013.568,0,.833V17.5c0,1,0,1-1,1Z"
                    transform="translate(-6.273 -4.002)" fill="none" stroke="#000" stroke-linejoin="round"
                    stroke-width="1" fill-rule="evenodd" />
                <rect width="3" height="4" transform="translate(0.001 7.499)" fill="none" stroke="#000"
                    stroke-linejoin="round" stroke-width="1" />
            </g>
        </g>
    </g>
</svg>