<svg xmlns="http://www.w3.org/2000/svg" viewBox="0 0 16 16">
    <g transform="translate(1.667 2.666)">
        <g transform="translate(-12.542 -11.383)" fill="none">
            <path d="M22.876,20.716a1,1,0,1,0,1,1h0A1,1,0,0,0,22.876,20.716Z" stroke="none" />
            <path
                d="M 22.87579917907715 20.71599960327148 C 23.42779922485352 20.71599960327148 23.875 21.16399955749512 23.875 21.71599960327148 C 23.875 22.268798828125 23.42779922485352 22.71599960327148 22.875 22.71599960327148 C 22.32299995422363 22.71599960327148 21.875 22.268798828125 21.875 21.71599960327148 C 21.875 21.16399955749512 22.32299995422363 20.71599960327148 22.87579917907715 20.71599960327148 Z"
                stroke="none" fill="#000" />
        </g>
        <line y2="5" transform="translate(4.834 -2.166)" fill="#040405" stroke="#000" stroke-linecap="round"
            stroke-miterlimit="10" stroke-width="1" />
        <line y2="5" transform="translate(1.834 -2.166)" fill="#040405" stroke="#000" stroke-linecap="round"
            stroke-miterlimit="10" stroke-width="1" />
        <line y2="5" transform="translate(-1.166 -2.166)" fill="#040405" stroke="#000" stroke-linecap="round"
            stroke-miterlimit="10" stroke-width="1" />
        <g transform="translate(7.334 -2.666)" fill="none" stroke="#000" stroke-miterlimit="10" stroke-width="1">
            <rect width="6" height="6" rx="1" stroke="none" />
            <rect x="0.5" y="0.5" width="5" height="5" rx="0.5" fill="none" />
        </g>
        <path d="M22.044,23.216a2.715,2.715,0,0,1-2.918-3l1-5h4l1,5a2.716,2.716,0,0,1-2.918,3Z"
            transform="translate(-11.793 -10.384)" fill="none" stroke="#000" stroke-linejoin="round" stroke-width="1" />
    </g>
</svg>